<svg xmlns="http://www.w3.org/2000/svg" viewBox="-1 -6 19 7">
<path d="M0,0L0,0" />
<path d="M0,0L1,0L1,-1L0,-1L0,0" fill="rgba(0,0,0,0)" />
<path d="M0,-1L1,-1L1,-2L0,-2L0,-1" fill="rgba(0,0,0,0)" />
<path d="M0,-2L1,-2L1,-3L0,-3L0,-2" fill="rgba(0,0,0,0)" />
<path d="M0,-3L1,-3L1,-4L0,-4L0,-3" fill="rgba(0,0,0,0)" />
<path d="M0,-4L1,-4L1,-5L0,-5L0,-4" fill="rgba(0,0,100,1)" />
<path d="M1,0L1,0" />
<path d="M1,0L2,0L2,-1L1,-1L1,0" fill="rgba(0,0,100,1)" />
<path d="M1,-1L2,-1L2,-2L1,-2L1,-1" fill="rgba(0,0,100,1)" />
<path d="M1,-2L2,-2L2,-3L1,-3L1,-2" fill="rgba(0,0,100,1)" />
<path d="M1,-3L2,-3L2,-4L1,-4L1,-3" fill="rgba(0,0,100,1)" />
<path d="M1,-4L2,-4L2,-5L1,-5L1,-4" fill="rgba(0,0,100,1)" />
<path d="M2,0L2,0" />
<path d="M2,0L3,0L3,-1L2,-1L2,0" fill="rgba(0,0,0,0)" />
<path d="M2,-1L3,-1L3,-2L2,-2L2,-1" fill="rgba(0,0,0,0)" />
<path d="M2,-2L3,-2L3,-3L2,-3L2,-2" fill="rgba(0,0,0,0)" />
<path d="M2,-3L3,-3L3,-4L2,-4L2,-3" fill="rgba(0,0,0,0)" />
<path d="M2,-4L3,-4L3,-5L2,-5L2,-4" fill="rgba(0,0,100,1)" />
<path d="M4,0L4,0" />
<path d="M4,0L5,0L5,-1L4,-1L4,0" fill="rgba(0,0,100,1)" />
<path d="M4,-1L5,-1L5,-2L4,-2L4,-1" fill="rgba(0,0,100,1)" />
<path d="M4,-2L5,-2L5,-3L4,-3L4,-2" fill="rgba(0,0,100,1)" />
<path d="M4,-3L5,-3L5,-4L4,-4L4,-3" fill="rgba(0,0,100,1)" />
<path d="M4,-4L5,-4L5,-5L4,-5L4,-4" fill="rgba(0,0,100,1)" />
<path d="M5,0L5,0" />
<path d="M5,0L6,0L6,-1L5,-1L5,0" fill="rgba(0,0,100,1)" />
<path d="M5,-1L6,-1L6,-2L5,-2L5,-1" fill="rgba(0,0,0,0)" />
<path d="M5,-2L6,-2L6,-3L5,-3L5,-2" fill="rgba(0,0,100,1)" />
<path d="M5,-3L6,-3L6,-4L5,-4L5,-3" fill="rgba(0,0,0,0)" />
<path d="M5,-4L6,-4L6,-5L5,-5L5,-4" fill="rgba(0,0,100,1)" />
<path d="M6,0L6,0" />
<path d="M6,0L7,0L7,-1L6,-1L6,0" fill="rgba(0,0,100,1)" />
<path d="M6,-1L7,-1L7,-2L6,-2L6,-1" fill="rgba(0,0,0,0)" />
<path d="M6,-2L7,-2L7,-3L6,-3L6,-2" fill="rgba(0,0,100,1)" />
<path d="M6,-3L7,-3L7,-4L6,-4L6,-3" fill="rgba(0,0,0,0)" />
<path d="M6,-4L7,-4L7,-5L6,-5L6,-4" fill="rgba(0,0,100,1)" />
<path d="M7,0L7,0" />
<path d="M7,0L8,0L8,-1L7,-1L7,0" fill="rgba(0,0,100,1)" />
<path d="M7,-1L8,-1L8,-2L7,-2L7,-1" fill="rgba(0,0,0,0)" />
<path d="M7,-2L8,-2L8,-3L7,-3L7,-2" fill="rgba(0,0,100,1)" />
<path d="M7,-3L8,-3L8,-4L7,-4L7,-3" fill="rgba(0,0,0,0)" />
<path d="M7,-4L8,-4L8,-5L7,-5L7,-4" fill="rgba(0,0,100,1)" />
<path d="M9,0L9,0" />
<path d="M9,0L10,0L10,-1L9,-1L9,0" fill="rgba(0,0,100,1)" />
<path d="M9,-1L10,-1L10,-2L9,-2L9,-1" fill="rgba(0,0,0,0)" />
<path d="M9,-2L10,-2L10,-3L9,-3L9,-2" fill="rgba(0,0,100,1)" />
<path d="M9,-3L10,-3L10,-4L9,-4L9,-3" fill="rgba(0,0,100,1)" />
<path d="M9,-4L10,-4L10,-5L9,-5L9,-4" fill="rgba(0,0,0,0)" />
<path d="M10,0L10,0" />
<path d="M10,0L11,0L11,-1L10,-1L10,0" fill="rgba(0,0,100,1)" />
<path d="M10,-1L11,-1L11,-2L10,-2L10,-1" fill="rgba(0,0,0,0)" />
<path d="M10,-2L11,-2L11,-3L10,-3L10,-2" fill="rgba(0,0,100,1)" />
<path d="M10,-3L11,-3L11,-4L10,-4L10,-3" fill="rgba(0,0,0,0)" />
<path d="M10,-4L11,-4L11,-5L10,-5L10,-4" fill="rgba(0,0,100,1)" />
<path d="M11,0L11,0" />
<path d="M11,0L12,0L12,-1L11,-1L11,0" fill="rgba(0,0,100,1)" />
<path d="M11,-1L12,-1L12,-2L11,-2L11,-1" fill="rgba(0,0,0,0)" />
<path d="M11,-2L12,-2L12,-3L11,-3L11,-2" fill="rgba(0,0,100,1)" />
<path d="M11,-3L12,-3L12,-4L11,-4L11,-3" fill="rgba(0,0,0,0)" />
<path d="M11,-4L12,-4L12,-5L11,-5L11,-4" fill="rgba(0,0,100,1)" />
<path d="M12,0L12,0" />
<path d="M12,0L13,0L13,-1L12,-1L12,0" fill="rgba(0,0,100,1)" />
<path d="M12,-1L13,-1L13,-2L12,-2L12,-1" fill="rgba(0,0,100,1)" />
<path d="M12,-2L13,-2L13,-3L12,-3L12,-2" fill="rgba(0,0,100,1)" />
<path d="M12,-3L13,-3L13,-4L12,-4L12,-3" fill="rgba(0,0,0,0)" />
<path d="M12,-4L13,-4L13,-5L12,-5L12,-4" fill="rgba(0,0,100,1)" />
<path d="M14,0L14,0" />
<path d="M14,0L15,0L15,-1L14,-1L14,0" fill="rgba(0,0,0,0)" />
<path d="M14,-1L15,-1L15,-2L14,-2L14,-1" fill="rgba(0,0,0,0)" />
<path d="M14,-2L15,-2L15,-3L14,-3L14,-2" fill="rgba(0,0,0,0)" />
<path d="M14,-3L15,-3L15,-4L14,-4L14,-3" fill="rgba(0,0,0,0)" />
<path d="M14,-4L15,-4L15,-5L14,-5L14,-4" fill="rgba(0,0,100,1)" />
<path d="M15,0L15,0" />
<path d="M15,0L16,0L16,-1L15,-1L15,0" fill="rgba(0,0,100,1)" />
<path d="M15,-1L16,-1L16,-2L15,-2L15,-1" fill="rgba(0,0,100,1)" />
<path d="M15,-2L16,-2L16,-3L15,-3L15,-2" fill="rgba(0,0,100,1)" />
<path d="M15,-3L16,-3L16,-4L15,-4L15,-3" fill="rgba(0,0,100,1)" />
<path d="M15,-4L16,-4L16,-5L15,-5L15,-4" fill="rgba(0,0,100,1)" />
<path d="M16,0L16,0" />
<path d="M16,0L17,0L17,-1L16,-1L16,0" fill="rgba(0,0,0,0)" />
<path d="M16,-1L17,-1L17,-2L16,-2L16,-1" fill="rgba(0,0,0,0)" />
<path d="M16,-2L17,-2L17,-3L16,-3L16,-2" fill="rgba(0,0,0,0)" />
<path d="M16,-3L17,-3L17,-4L16,-4L16,-3" fill="rgba(0,0,0,0)" />
<path d="M16,-4L17,-4L17,-5L16,-5L16,-4" fill="rgba(0,0,100,1)" />
</svg>
