<svg xmlns="http://www.w3.org/2000/svg" viewBox="-80 -71 90 107">
<path d="M0,-10Q-5,-10 -5,-5L-5,-5L-5,0L-5,0Q-5,5 0,5L0,5L4,5L4,5Q9,5 9,0L9,0L9,-5L9,-5Q9,-10 4,-10L4,-10L0,-10L0,-10" stroke="rgba(150,0,50,1)" stroke-width="1" fill="rgba(255,255,255,1)" />
<path d="M0,-0L0,-0" />
<path d="M0,-0L1,-0L1,-1L0,-1L0,-0" fill="rgba(150,0,50,1)" />
<path d="M0,-1L1,-1L1,-2L0,-2L0,-1" fill="rgba(0,0,0,0)" />
<path d="M0,-2L1,-2L1,-3L0,-3L0,-2" fill="rgba(150,0,50,1)" />
<path d="M0,-3L1,-3L1,-4L0,-4L0,-3" fill="rgba(0,0,0,0)" />
<path d="M0,-4L1,-4L1,-5L0,-5L0,-4" fill="rgba(150,0,50,1)" />
<path d="M1,-0L1,-0" />
<path d="M1,-0L2,-0L2,-1L1,-1L1,-0" fill="rgba(150,0,50,1)" />
<path d="M1,-1L2,-1L2,-2L1,-2L1,-1" fill="rgba(0,0,0,0)" />
<path d="M1,-2L2,-2L2,-3L1,-3L1,-2" fill="rgba(150,0,50,1)" />
<path d="M1,-3L2,-3L2,-4L1,-4L1,-3" fill="rgba(0,0,0,0)" />
<path d="M1,-4L2,-4L2,-5L1,-5L1,-4" fill="rgba(150,0,50,1)" />
<path d="M2,-0L2,-0" />
<path d="M2,-0L3,-0L3,-1L2,-1L2,-0" fill="rgba(150,0,50,1)" />
<path d="M2,-1L3,-1L3,-2L2,-2L2,-1" fill="rgba(0,0,0,0)" />
<path d="M2,-2L3,-2L3,-3L2,-3L2,-2" fill="rgba(150,0,50,1)" />
<path d="M2,-3L3,-3L3,-4L2,-4L2,-3" fill="rgba(0,0,0,0)" />
<path d="M2,-4L3,-4L3,-5L2,-5L2,-4" fill="rgba(150,0,50,1)" />
<path d="M3,-0L3,-0" />
<path d="M3,-0L4,-0L4,-1L3,-1L3,-0" fill="rgba(0,0,0,0)" />
<path d="M3,-1L4,-1L4,-2L3,-2L3,-1" fill="rgba(150,0,50,1)" />
<path d="M3,-2L4,-2L4,-3L3,-3L3,-2" fill="rgba(150,0,50,1)" />
<path d="M3,-3L4,-3L4,-4L3,-4L3,-3" fill="rgba(150,0,50,1)" />
<path d="M3,-4L4,-4L4,-5L3,-5L3,-4" fill="rgba(0,0,0,0)" />
<path d="M2,-10L2,-17.5" stroke="rgba(150,0,50,1)" />
<path d="M-17,-10Q-22,-10 -22,-5L-22,-5L-22,-0L-22,-0Q-22,5 -17,5L-17,5L-13,5L-13,5Q-8,5 -8,-0L-8,-0L-8,-5L-8,-5Q-8,-10 -13,-10L-13,-10L-17,-10L-17,-10" stroke="rgba(150,0,50,1)" fill="rgba(255,255,255,1)" stroke-width="1" />
<path d="M-17,-0L-17,-0" />
<path d="M-17,-0L-16,-0L-16,-1L-17,-1L-17,-0" fill="rgba(150,0,50,1)" />
<path d="M-17,-1L-16,-1L-16,-2L-17,-2L-17,-1" fill="rgba(0,0,0,0)" />
<path d="M-17,-2L-16,-2L-16,-3L-17,-3L-17,-2" fill="rgba(0,0,0,0)" />
<path d="M-17,-3L-16,-3L-16,-4L-17,-4L-17,-3" fill="rgba(150,0,50,1)" />
<path d="M-17,-4L-16,-4L-16,-5L-17,-5L-17,-4" fill="rgba(150,0,50,1)" />
<path d="M-16,-0L-16,-0" />
<path d="M-16,-0L-15,-0L-15,-1L-16,-1L-16,-0" fill="rgba(150,0,50,1)" />
<path d="M-16,-1L-15,-1L-15,-2L-16,-2L-16,-1" fill="rgba(0,0,0,0)" />
<path d="M-16,-2L-15,-2L-15,-3L-16,-3L-16,-2" fill="rgba(150,0,50,1)" />
<path d="M-16,-3L-15,-3L-15,-4L-16,-4L-16,-3" fill="rgba(0,0,0,0)" />
<path d="M-16,-4L-15,-4L-15,-5L-16,-5L-16,-4" fill="rgba(150,0,50,1)" />
<path d="M-15,-0L-15,-0" />
<path d="M-15,-0L-14,-0L-14,-1L-15,-1L-15,-0" fill="rgba(150,0,50,1)" />
<path d="M-15,-1L-14,-1L-14,-2L-15,-2L-15,-1" fill="rgba(0,0,0,0)" />
<path d="M-15,-2L-14,-2L-14,-3L-15,-3L-15,-2" fill="rgba(150,0,50,1)" />
<path d="M-15,-3L-14,-3L-14,-4L-15,-4L-15,-3" fill="rgba(0,0,0,0)" />
<path d="M-15,-4L-14,-4L-14,-5L-15,-5L-15,-4" fill="rgba(150,0,50,1)" />
<path d="M-14,-0L-14,-0" />
<path d="M-14,-0L-13,-0L-13,-1L-14,-1L-14,-0" fill="rgba(0,0,0,0)" />
<path d="M-14,-1L-13,-1L-13,-2L-14,-2L-14,-1" fill="rgba(150,0,50,1)" />
<path d="M-14,-2L-13,-2L-13,-3L-14,-3L-14,-2" fill="rgba(150,0,50,1)" />
<path d="M-14,-3L-13,-3L-13,-4L-14,-4L-14,-3" fill="rgba(0,0,0,0)" />
<path d="M-14,-4L-13,-4L-13,-5L-14,-5L-14,-4" fill="rgba(150,0,50,1)" />
<path d="M-15,-10L-15,-17.5" stroke="rgba(150,0,50,1)" />
<path d="M-15.5,-17.5L2.5,-17.5" stroke="rgba(150,0,50,1)" />
<path d="M-3,-40Q-8,-40 -8,-35L-8,-35L-8,-30L-8,-30Q-8,-25 -3,-25L-3,-25L1,-25L1,-25Q6,-25 6,-30L6,-30L6,-35L6,-35Q6,-40 1,-40L1,-40L-3,-40L-3,-40" stroke="rgba(150,0,50,1)" stroke-width="1" fill="rgba(255,255,255,1)" />
<path d="M-3,-30L-3,-30" />
<path d="M-3,-30L-2,-30L-2,-31L-3,-31L-3,-30" fill="rgba(150,0,50,1)" />
<path d="M-3,-31L-2,-31L-2,-32L-3,-32L-3,-31" fill="rgba(0,0,0,0)" />
<path d="M-3,-32L-2,-32L-2,-33L-3,-33L-3,-32" fill="rgba(0,0,0,0)" />
<path d="M-3,-33L-2,-33L-2,-34L-3,-34L-3,-33" fill="rgba(150,0,50,1)" />
<path d="M-3,-34L-2,-34L-2,-35L-3,-35L-3,-34" fill="rgba(0,0,0,0)" />
<path d="M-2,-30L-2,-30" />
<path d="M-2,-30L-1,-30L-1,-31L-2,-31L-2,-30" fill="rgba(150,0,50,1)" />
<path d="M-2,-31L-1,-31L-1,-32L-2,-32L-2,-31" fill="rgba(150,0,50,1)" />
<path d="M-2,-32L-1,-32L-1,-33L-2,-33L-2,-32" fill="rgba(0,0,0,0)" />
<path d="M-2,-33L-1,-33L-1,-34L-2,-34L-2,-33" fill="rgba(0,0,0,0)" />
<path d="M-2,-34L-1,-34L-1,-35L-2,-35L-2,-34" fill="rgba(150,0,50,1)" />
<path d="M-1,-30L-1,-30" />
<path d="M-1,-30L0,-30L0,-31L-1,-31L-1,-30" fill="rgba(150,0,50,1)" />
<path d="M-1,-31L0,-31L0,-32L-1,-32L-1,-31" fill="rgba(0,0,0,0)" />
<path d="M-1,-32L0,-32L0,-33L-1,-33L-1,-32" fill="rgba(150,0,50,1)" />
<path d="M-1,-33L0,-33L0,-34L-1,-34L-1,-33" fill="rgba(0,0,0,0)" />
<path d="M-1,-34L0,-34L0,-35L-1,-35L-1,-34" fill="rgba(150,0,50,1)" />
<path d="M0,-30L0,-30" />
<path d="M0,-30L1,-30L1,-31L0,-31L0,-30" fill="rgba(150,0,50,1)" />
<path d="M0,-31L1,-31L1,-32L0,-32L0,-31" fill="rgba(0,0,0,0)" />
<path d="M0,-32L1,-32L1,-33L0,-33L0,-32" fill="rgba(0,0,0,0)" />
<path d="M0,-33L1,-33L1,-34L0,-34L0,-33" fill="rgba(150,0,50,1)" />
<path d="M0,-34L1,-34L1,-35L0,-35L0,-34" fill="rgba(0,0,0,0)" />
<path d="M-1,-17.5L-1,-25" stroke="rgba(150,0,50,1)" />
<path d="M-6.5,-40L-6.5,-47.5" stroke="rgba(150,0,50,1)" />
<path d="M-29,20L-29,20" stroke="rgba(0,0,0,1)" />
<path d="M-29,20L-29,12.5" stroke="rgba(150,0,50,1)" />
<path d="M-41,20Q-46,20 -46,25L-46,25L-46,30L-46,30Q-46,35 -41,35L-41,35L-37,35L-37,35Q-32,35 -32,30L-32,30L-32,25L-32,25Q-32,20 -37,20L-37,20L-41,20L-41,20" stroke="rgba(150,0,50,1)" fill="rgba(255,255,255,1)" stroke-width="1" />
<path d="M-41,30L-41,30" />
<path d="M-41,30L-40,30L-40,29L-41,29L-41,30" fill="rgba(0,0,0,0)" />
<path d="M-41,29L-40,29L-40,28L-41,28L-41,29" fill="rgba(0,0,0,0)" />
<path d="M-41,28L-40,28L-40,27L-41,27L-41,28" fill="rgba(0,0,0,0)" />
<path d="M-41,27L-40,27L-40,26L-41,26L-41,27" fill="rgba(0,0,0,0)" />
<path d="M-41,26L-40,26L-40,25L-41,25L-41,26" fill="rgba(150,0,50,1)" />
<path d="M-40,30L-40,30" />
<path d="M-40,30L-39,30L-39,29L-40,29L-40,30" fill="rgba(150,0,50,1)" />
<path d="M-40,29L-39,29L-39,28L-40,28L-40,29" fill="rgba(150,0,50,1)" />
<path d="M-40,28L-39,28L-39,27L-40,27L-40,28" fill="rgba(0,0,0,0)" />
<path d="M-40,27L-39,27L-39,26L-40,26L-40,27" fill="rgba(0,0,0,0)" />
<path d="M-40,26L-39,26L-39,25L-40,25L-40,26" fill="rgba(150,0,50,1)" />
<path d="M-39,30L-39,30" />
<path d="M-39,30L-38,30L-38,29L-39,29L-39,30" fill="rgba(0,0,0,0)" />
<path d="M-39,29L-38,29L-38,28L-39,28L-39,29" fill="rgba(0,0,0,0)" />
<path d="M-39,28L-38,28L-38,27L-39,27L-39,28" fill="rgba(150,0,50,1)" />
<path d="M-39,27L-38,27L-38,26L-39,26L-39,27" fill="rgba(0,0,0,0)" />
<path d="M-39,26L-38,26L-38,25L-39,25L-39,26" fill="rgba(150,0,50,1)" />
<path d="M-38,30L-38,30" />
<path d="M-38,30L-37,30L-37,29L-38,29L-38,30" fill="rgba(0,0,0,0)" />
<path d="M-38,29L-37,29L-37,28L-38,28L-38,29" fill="rgba(0,0,0,0)" />
<path d="M-38,28L-37,28L-37,27L-38,27L-38,28" fill="rgba(0,0,0,0)" />
<path d="M-38,27L-37,27L-37,26L-38,26L-38,27" fill="rgba(150,0,50,1)" />
<path d="M-38,26L-37,26L-37,25L-38,25L-38,26" fill="rgba(150,0,50,1)" />
<path d="M-39,20L-39,12.5" stroke="rgba(150,0,50,1)" />
<path d="M-39.5,12.5L-28.5,12.5" stroke="rgba(150,0,50,1)" />
<path d="M-34,-10Q-39,-10 -39,-5L-39,-5L-39,-0L-39,-0Q-39,5 -34,5L-34,5L-30,5L-30,5Q-25,5 -25,-0L-25,-0L-25,-5L-25,-5Q-25,-10 -30,-10L-30,-10L-34,-10L-34,-10" stroke="rgba(150,0,50,1)" fill="rgba(255,255,255,1)" stroke-width="1" />
<path d="M-34,-0L-34,-0" />
<path d="M-34,-0L-33,-0L-33,-1L-34,-1L-34,-0" fill="rgba(0,0,0,0)" />
<path d="M-34,-1L-33,-1L-33,-2L-34,-2L-34,-1" fill="rgba(0,0,0,0)" />
<path d="M-34,-2L-33,-2L-33,-3L-34,-3L-34,-2" fill="rgba(150,0,50,1)" />
<path d="M-34,-3L-33,-3L-33,-4L-34,-4L-34,-3" fill="rgba(150,0,50,1)" />
<path d="M-34,-4L-33,-4L-33,-5L-34,-5L-34,-4" fill="rgba(150,0,50,1)" />
<path d="M-33,-0L-33,-0" />
<path d="M-33,-0L-32,-0L-32,-1L-33,-1L-33,-0" fill="rgba(0,0,0,0)" />
<path d="M-33,-1L-32,-1L-32,-2L-33,-2L-33,-1" fill="rgba(0,0,0,0)" />
<path d="M-33,-2L-32,-2L-32,-3L-33,-3L-33,-2" fill="rgba(150,0,50,1)" />
<path d="M-33,-3L-32,-3L-32,-4L-33,-4L-33,-3" fill="rgba(0,0,0,0)" />
<path d="M-33,-4L-32,-4L-32,-5L-33,-5L-33,-4" fill="rgba(0,0,0,0)" />
<path d="M-32,-0L-32,-0" />
<path d="M-32,-0L-31,-0L-31,-1L-32,-1L-32,-0" fill="rgba(0,0,0,0)" />
<path d="M-32,-1L-31,-1L-31,-2L-32,-2L-32,-1" fill="rgba(0,0,0,0)" />
<path d="M-32,-2L-31,-2L-31,-3L-32,-3L-32,-2" fill="rgba(150,0,50,1)" />
<path d="M-32,-3L-31,-3L-31,-4L-32,-4L-32,-3" fill="rgba(0,0,0,0)" />
<path d="M-32,-4L-31,-4L-31,-5L-32,-5L-32,-4" fill="rgba(0,0,0,0)" />
<path d="M-31,-0L-31,-0" />
<path d="M-31,-0L-30,-0L-30,-1L-31,-1L-31,-0" fill="rgba(150,0,50,1)" />
<path d="M-31,-1L-30,-1L-30,-2L-31,-2L-31,-1" fill="rgba(150,0,50,1)" />
<path d="M-31,-2L-30,-2L-30,-3L-31,-3L-31,-2" fill="rgba(150,0,50,1)" />
<path d="M-31,-3L-30,-3L-30,-4L-31,-4L-31,-3" fill="rgba(150,0,50,1)" />
<path d="M-31,-4L-30,-4L-30,-5L-31,-5L-31,-4" fill="rgba(150,0,50,1)" />
<path d="M-32,12.5L-32,5" stroke="rgba(150,0,50,1)" />
<path d="M-35.5,-10L-35.5,-17.5" stroke="rgba(150,0,50,1)" />
<path d="M-58,20Q-63,20 -63,25L-63,25L-63,30L-63,30Q-63,35 -58,35L-58,35L-54,35L-54,35Q-49,35 -49,30L-49,30L-49,25L-49,25Q-49,20 -54,20L-54,20L-58,20L-58,20" fill="rgba(255,255,255,1)" stroke-width="1" stroke="rgba(150,0,50,1)" />
<path d="M-58,30L-58,30" />
<path d="M-58,30L-57,30L-57,29L-58,29L-58,30" fill="rgba(0,0,0,0)" />
<path d="M-58,29L-57,29L-57,28L-58,28L-58,29" fill="rgba(150,0,50,1)" />
<path d="M-58,28L-57,28L-57,27L-58,27L-58,28" fill="rgba(0,0,0,0)" />
<path d="M-58,27L-57,27L-57,26L-58,26L-58,27" fill="rgba(150,0,50,1)" />
<path d="M-58,26L-57,26L-57,25L-58,25L-58,26" fill="rgba(0,0,0,0)" />
<path d="M-57,30L-57,30" />
<path d="M-57,30L-56,30L-56,29L-57,29L-57,30" fill="rgba(150,0,50,1)" />
<path d="M-57,29L-56,29L-56,28L-57,28L-57,29" fill="rgba(0,0,0,0)" />
<path d="M-57,28L-56,28L-56,27L-57,27L-57,28" fill="rgba(150,0,50,1)" />
<path d="M-57,27L-56,27L-56,26L-57,26L-57,27" fill="rgba(0,0,0,0)" />
<path d="M-57,26L-56,26L-56,25L-57,25L-57,26" fill="rgba(150,0,50,1)" />
<path d="M-56,30L-56,30" />
<path d="M-56,30L-55,30L-55,29L-56,29L-56,30" fill="rgba(150,0,50,1)" />
<path d="M-56,29L-55,29L-55,28L-56,28L-56,29" fill="rgba(0,0,0,0)" />
<path d="M-56,28L-55,28L-55,27L-56,27L-56,28" fill="rgba(150,0,50,1)" />
<path d="M-56,27L-55,27L-55,26L-56,26L-56,27" fill="rgba(0,0,0,0)" />
<path d="M-56,26L-55,26L-55,25L-56,25L-56,26" fill="rgba(150,0,50,1)" />
<path d="M-55,30L-55,30" />
<path d="M-55,30L-54,30L-54,29L-55,29L-55,30" fill="rgba(0,0,0,0)" />
<path d="M-55,29L-54,29L-54,28L-55,28L-55,29" fill="rgba(150,0,50,1)" />
<path d="M-55,28L-54,28L-54,27L-55,27L-55,28" fill="rgba(0,0,0,0)" />
<path d="M-55,27L-54,27L-54,26L-55,26L-55,27" fill="rgba(150,0,50,1)" />
<path d="M-55,26L-54,26L-54,25L-55,25L-55,26" fill="rgba(0,0,0,0)" />
<path d="M-56,20L-56,12.5" stroke="rgba(150,0,50,1)" />
<path d="M-74,20Q-79,20 -79,25L-79,25L-79,30L-79,30Q-79,35 -74,35L-74,35L-71,35L-71,35Q-66,35 -66,30L-66,30L-66,25L-66,25Q-66,20 -71,20L-71,20L-74,20L-74,20" stroke="rgba(150,0,50,1)" stroke-width="1" fill="rgba(255,255,255,1)" />
<path d="M-74,30L-74,30" />
<path d="M-74,30L-73,30L-73,29L-74,29L-74,30" fill="rgba(0,0,0,0)" />
<path d="M-74,29L-73,29L-73,28L-74,28L-74,29" fill="rgba(0,0,0,0)" />
<path d="M-74,28L-73,28L-73,27L-74,27L-74,28" fill="rgba(150,0,50,1)" />
<path d="M-74,27L-73,27L-73,26L-74,26L-74,27" fill="rgba(150,0,50,1)" />
<path d="M-74,26L-73,26L-73,25L-74,25L-74,26" fill="rgba(150,0,50,1)" />
<path d="M-73,30L-73,30" />
<path d="M-73,30L-72,30L-72,29L-73,29L-73,30" fill="rgba(0,0,0,0)" />
<path d="M-73,29L-72,29L-72,28L-73,28L-73,29" fill="rgba(0,0,0,0)" />
<path d="M-73,28L-72,28L-72,27L-73,27L-73,28" fill="rgba(150,0,50,1)" />
<path d="M-73,27L-72,27L-72,26L-73,26L-73,27" fill="rgba(0,0,0,0)" />
<path d="M-73,26L-72,26L-72,25L-73,25L-73,26" fill="rgba(150,0,50,1)" />
<path d="M-72,30L-72,30" />
<path d="M-72,30L-71,30L-71,29L-72,29L-72,30" fill="rgba(150,0,50,1)" />
<path d="M-72,29L-71,29L-71,28L-72,28L-72,29" fill="rgba(150,0,50,1)" />
<path d="M-72,28L-71,28L-71,27L-72,27L-72,28" fill="rgba(150,0,50,1)" />
<path d="M-72,27L-71,27L-71,26L-72,26L-72,27" fill="rgba(150,0,50,1)" />
<path d="M-72,26L-71,26L-71,25L-72,25L-72,26" fill="rgba(150,0,50,1)" />
<path d="M-72.5,20L-72.5,12.5" stroke="rgba(150,0,50,1)" />
<path d="M-73,12.5L-55.5,12.5" stroke="rgba(150,0,50,1)" />
<path d="M-60.5,-10Q-65.5,-10 -65.5,-5L-65.5,-5L-65.5,-0L-65.5,-0Q-65.5,5 -60.5,5L-60.5,5L-56.5,5L-56.5,5Q-51.5,5 -51.5,-0L-51.5,-0L-51.5,-5L-51.5,-5Q-51.5,-10 -56.5,-10L-56.5,-10L-60.5,-10L-60.5,-10" fill="rgba(255,255,255,1)" stroke-width="1" stroke="rgba(150,0,50,1)" />
<path d="M-60.5,-0L-60.5,-0" />
<path d="M-60.5,-0L-59.5,-0L-59.5,-1L-60.5,-1L-60.5,-0" fill="rgba(0,0,0,0)" />
<path d="M-60.5,-1L-59.5,-1L-59.5,-2L-60.5,-2L-60.5,-1" fill="rgba(150,0,50,1)" />
<path d="M-60.5,-2L-59.5,-2L-59.5,-3L-60.5,-3L-60.5,-2" fill="rgba(150,0,50,1)" />
<path d="M-60.5,-3L-59.5,-3L-59.5,-4L-60.5,-4L-60.5,-3" fill="rgba(150,0,50,1)" />
<path d="M-60.5,-4L-59.5,-4L-59.5,-5L-60.5,-5L-60.5,-4" fill="rgba(0,0,0,0)" />
<path d="M-59.5,-0L-59.5,-0" />
<path d="M-59.5,-0L-58.5,-0L-58.5,-1L-59.5,-1L-59.5,-0" fill="rgba(150,0,50,1)" />
<path d="M-59.5,-1L-58.5,-1L-58.5,-2L-59.5,-2L-59.5,-1" fill="rgba(0,0,0,0)" />
<path d="M-59.5,-2L-58.5,-2L-58.5,-3L-59.5,-3L-59.5,-2" fill="rgba(150,0,50,1)" />
<path d="M-59.5,-3L-58.5,-3L-58.5,-4L-59.5,-4L-59.5,-3" fill="rgba(0,0,0,0)" />
<path d="M-59.5,-4L-58.5,-4L-58.5,-5L-59.5,-5L-59.5,-4" fill="rgba(150,0,50,1)" />
<path d="M-58.5,-0L-58.5,-0" />
<path d="M-58.5,-0L-57.5,-0L-57.5,-1L-58.5,-1L-58.5,-0" fill="rgba(150,0,50,1)" />
<path d="M-58.5,-1L-57.5,-1L-57.5,-2L-58.5,-2L-58.5,-1" fill="rgba(0,0,0,0)" />
<path d="M-58.5,-2L-57.5,-2L-57.5,-3L-58.5,-3L-58.5,-2" fill="rgba(150,0,50,1)" />
<path d="M-58.5,-3L-57.5,-3L-57.5,-4L-58.5,-4L-58.5,-3" fill="rgba(0,0,0,0)" />
<path d="M-58.5,-4L-57.5,-4L-57.5,-5L-58.5,-5L-58.5,-4" fill="rgba(150,0,50,1)" />
<path d="M-57.5,-0L-57.5,-0" />
<path d="M-57.5,-0L-56.5,-0L-56.5,-1L-57.5,-1L-57.5,-0" fill="rgba(0,0,0,0)" />
<path d="M-57.5,-1L-56.5,-1L-56.5,-2L-57.5,-2L-57.5,-1" fill="rgba(150,0,50,1)" />
<path d="M-57.5,-2L-56.5,-2L-56.5,-3L-57.5,-3L-57.5,-2" fill="rgba(150,0,50,1)" />
<path d="M-57.5,-3L-56.5,-3L-56.5,-4L-57.5,-4L-57.5,-3" fill="rgba(0,0,0,0)" />
<path d="M-57.5,-4L-56.5,-4L-56.5,-5L-57.5,-5L-57.5,-4" fill="rgba(150,0,50,1)" />
<path d="M-58.5,12.5L-58.5,5" stroke="rgba(150,0,50,1)" />
<path d="M-64,-10L-64,-17.5" stroke="rgba(150,0,50,1)" />
<path d="M-64.5,-17.5L-35,-17.5" stroke="rgba(150,0,50,1)" />
<path d="M-48.5,-40Q-53.5,-40 -53.5,-35L-53.5,-35L-53.5,-30L-53.5,-30Q-53.5,-25 -48.5,-25L-48.5,-25L-35.5,-25L-35.5,-25Q-30.5,-25 -30.5,-30L-30.5,-30L-30.5,-35L-30.5,-35Q-30.5,-40 -35.5,-40L-35.5,-40L-48.5,-40L-48.5,-40" fill="rgba(255,255,255,1)" stroke="rgba(150,0,50,1)" stroke-width="1" />
<path d="M-48.5,-30L-48.5,-30" />
<path d="M-48.5,-30L-47.5,-30L-47.5,-31L-48.5,-31L-48.5,-30" fill="rgba(150,0,50,1)" />
<path d="M-48.5,-31L-47.5,-31L-47.5,-32L-48.5,-32L-48.5,-31" fill="rgba(0,0,0,0)" />
<path d="M-48.5,-32L-47.5,-32L-47.5,-33L-48.5,-33L-48.5,-32" fill="rgba(0,0,0,0)" />
<path d="M-48.5,-33L-47.5,-33L-47.5,-34L-48.5,-34L-48.5,-33" fill="rgba(0,0,0,0)" />
<path d="M-48.5,-34L-47.5,-34L-47.5,-35L-48.5,-35L-48.5,-34" fill="rgba(150,0,50,1)" />
<path d="M-47.5,-30L-47.5,-30" />
<path d="M-47.5,-30L-46.5,-30L-46.5,-31L-47.5,-31L-47.5,-30" fill="rgba(150,0,50,1)" />
<path d="M-47.5,-31L-46.5,-31L-46.5,-32L-47.5,-32L-47.5,-31" fill="rgba(150,0,50,1)" />
<path d="M-47.5,-32L-46.5,-32L-46.5,-33L-47.5,-33L-47.5,-32" fill="rgba(150,0,50,1)" />
<path d="M-47.5,-33L-46.5,-33L-46.5,-34L-47.5,-34L-47.5,-33" fill="rgba(150,0,50,1)" />
<path d="M-47.5,-34L-46.5,-34L-46.5,-35L-47.5,-35L-47.5,-34" fill="rgba(150,0,50,1)" />
<path d="M-46.5,-30L-46.5,-30" />
<path d="M-46.5,-30L-45.5,-30L-45.5,-31L-46.5,-31L-46.5,-30" fill="rgba(150,0,50,1)" />
<path d="M-46.5,-31L-45.5,-31L-45.5,-32L-46.5,-32L-46.5,-31" fill="rgba(0,0,0,0)" />
<path d="M-46.5,-32L-45.5,-32L-45.5,-33L-46.5,-33L-46.5,-32" fill="rgba(0,0,0,0)" />
<path d="M-46.5,-33L-45.5,-33L-45.5,-34L-46.5,-34L-46.5,-33" fill="rgba(0,0,0,0)" />
<path d="M-46.5,-34L-45.5,-34L-45.5,-35L-46.5,-35L-46.5,-34" fill="rgba(0,0,0,0)" />
<path d="M-44.5,-30L-44.5,-30" />
<path d="M-44.5,-30L-43.5,-30L-43.5,-31L-44.5,-31L-44.5,-30" fill="rgba(150,0,50,1)" />
<path d="M-44.5,-31L-43.5,-31L-43.5,-32L-44.5,-32L-44.5,-31" fill="rgba(0,0,0,0)" />
<path d="M-44.5,-32L-43.5,-32L-43.5,-33L-44.5,-33L-44.5,-32" fill="rgba(0,0,0,0)" />
<path d="M-44.5,-33L-43.5,-33L-43.5,-34L-44.5,-34L-44.5,-33" fill="rgba(150,0,50,1)" />
<path d="M-44.5,-34L-43.5,-34L-43.5,-35L-44.5,-35L-44.5,-34" fill="rgba(0,0,0,0)" />
<path d="M-43.5,-30L-43.5,-30" />
<path d="M-43.5,-30L-42.5,-30L-42.5,-31L-43.5,-31L-43.5,-30" fill="rgba(150,0,50,1)" />
<path d="M-43.5,-31L-42.5,-31L-42.5,-32L-43.5,-32L-43.5,-31" fill="rgba(150,0,50,1)" />
<path d="M-43.5,-32L-42.5,-32L-42.5,-33L-43.5,-33L-43.5,-32" fill="rgba(0,0,0,0)" />
<path d="M-43.5,-33L-42.5,-33L-42.5,-34L-43.5,-34L-43.5,-33" fill="rgba(0,0,0,0)" />
<path d="M-43.5,-34L-42.5,-34L-42.5,-35L-43.5,-35L-43.5,-34" fill="rgba(150,0,50,1)" />
<path d="M-42.5,-30L-42.5,-30" />
<path d="M-42.5,-30L-41.5,-30L-41.5,-31L-42.5,-31L-42.5,-30" fill="rgba(150,0,50,1)" />
<path d="M-42.5,-31L-41.5,-31L-41.5,-32L-42.5,-32L-42.5,-31" fill="rgba(0,0,0,0)" />
<path d="M-42.5,-32L-41.5,-32L-41.5,-33L-42.5,-33L-42.5,-32" fill="rgba(150,0,50,1)" />
<path d="M-42.5,-33L-41.5,-33L-41.5,-34L-42.5,-34L-42.5,-33" fill="rgba(0,0,0,0)" />
<path d="M-42.5,-34L-41.5,-34L-41.5,-35L-42.5,-35L-42.5,-34" fill="rgba(150,0,50,1)" />
<path d="M-41.5,-30L-41.5,-30" />
<path d="M-41.5,-30L-40.5,-30L-40.5,-31L-41.5,-31L-41.5,-30" fill="rgba(150,0,50,1)" />
<path d="M-41.5,-31L-40.5,-31L-40.5,-32L-41.5,-32L-41.5,-31" fill="rgba(0,0,0,0)" />
<path d="M-41.5,-32L-40.5,-32L-40.5,-33L-41.5,-33L-41.5,-32" fill="rgba(0,0,0,0)" />
<path d="M-41.5,-33L-40.5,-33L-40.5,-34L-41.5,-34L-41.5,-33" fill="rgba(150,0,50,1)" />
<path d="M-41.5,-34L-40.5,-34L-40.5,-35L-41.5,-35L-41.5,-34" fill="rgba(0,0,0,0)" />
<path d="M-39.5,-30L-39.5,-30" />
<path d="M-39.5,-30L-38.5,-30L-38.5,-31L-39.5,-31L-39.5,-30" fill="rgba(150,0,50,1)" />
<path d="M-39.5,-31L-38.5,-31L-38.5,-32L-39.5,-32L-39.5,-31" fill="rgba(0,0,0,0)" />
<path d="M-39.5,-32L-38.5,-32L-38.5,-33L-39.5,-33L-39.5,-32" fill="rgba(150,0,50,1)" />
<path d="M-39.5,-33L-38.5,-33L-38.5,-34L-39.5,-34L-39.5,-33" fill="rgba(0,0,0,0)" />
<path d="M-39.5,-34L-38.5,-34L-38.5,-35L-39.5,-35L-39.5,-34" fill="rgba(150,0,50,1)" />
<path d="M-38.5,-30L-38.5,-30" />
<path d="M-38.5,-30L-37.5,-30L-37.5,-31L-38.5,-31L-38.5,-30" fill="rgba(150,0,50,1)" />
<path d="M-38.5,-31L-37.5,-31L-37.5,-32L-38.5,-32L-38.5,-31" fill="rgba(0,0,0,0)" />
<path d="M-38.5,-32L-37.5,-32L-37.5,-33L-38.5,-33L-38.5,-32" fill="rgba(150,0,50,1)" />
<path d="M-38.5,-33L-37.5,-33L-37.5,-34L-38.5,-34L-38.5,-33" fill="rgba(0,0,0,0)" />
<path d="M-38.5,-34L-37.5,-34L-37.5,-35L-38.5,-35L-38.5,-34" fill="rgba(150,0,50,1)" />
<path d="M-37.5,-30L-37.5,-30" />
<path d="M-37.5,-30L-36.5,-30L-36.5,-31L-37.5,-31L-37.5,-30" fill="rgba(150,0,50,1)" />
<path d="M-37.5,-31L-36.5,-31L-36.5,-32L-37.5,-32L-37.5,-31" fill="rgba(0,0,0,0)" />
<path d="M-37.5,-32L-36.5,-32L-36.5,-33L-37.5,-33L-37.5,-32" fill="rgba(150,0,50,1)" />
<path d="M-37.5,-33L-36.5,-33L-36.5,-34L-37.5,-34L-37.5,-33" fill="rgba(0,0,0,0)" />
<path d="M-37.5,-34L-36.5,-34L-36.5,-35L-37.5,-35L-37.5,-34" fill="rgba(150,0,50,1)" />
<path d="M-36.5,-30L-36.5,-30" />
<path d="M-36.5,-30L-35.5,-30L-35.5,-31L-36.5,-31L-36.5,-30" fill="rgba(0,0,0,0)" />
<path d="M-36.5,-31L-35.5,-31L-35.5,-32L-36.5,-32L-36.5,-31" fill="rgba(150,0,50,1)" />
<path d="M-36.5,-32L-35.5,-32L-35.5,-33L-36.5,-33L-36.5,-32" fill="rgba(150,0,50,1)" />
<path d="M-36.5,-33L-35.5,-33L-35.5,-34L-36.5,-34L-36.5,-33" fill="rgba(150,0,50,1)" />
<path d="M-36.5,-34L-35.5,-34L-35.5,-35L-36.5,-35L-36.5,-34" fill="rgba(0,0,0,0)" />
<path d="M-42,-17.5L-42,-25" stroke="rgba(150,0,50,1)" />
<path d="M-52,-40L-52,-47.5" stroke="rgba(150,0,50,1)" />
<path d="M-52.5,-47.5L-6,-47.5" stroke="rgba(150,0,50,1)" />
<path d="M-31.5,-70Q-36.5,-70 -36.5,-65L-36.5,-65L-36.5,-60L-36.5,-60Q-36.5,-55 -31.5,-55L-31.5,-55L-8.5,-55L-8.5,-55Q-3.5,-55 -3.5,-60L-3.5,-60L-3.5,-65L-3.5,-65Q-3.5,-70 -8.5,-70L-8.5,-70L-31.5,-70L-31.5,-70" stroke="rgba(150,0,50,1)" stroke-width="1" fill="rgba(255,255,255,1)" />
<path d="M-31.5,-60L-31.5,-60" />
<path d="M-31.5,-60L-30.5,-60L-30.5,-61L-31.5,-61L-31.5,-60" fill="rgba(150,0,50,1)" />
<path d="M-31.5,-61L-30.5,-61L-30.5,-62L-31.5,-62L-31.5,-61" fill="rgba(0,0,0,0)" />
<path d="M-31.5,-62L-30.5,-62L-30.5,-63L-31.5,-63L-31.5,-62" fill="rgba(0,0,0,0)" />
<path d="M-31.5,-63L-30.5,-63L-30.5,-64L-31.5,-64L-31.5,-63" fill="rgba(0,0,0,0)" />
<path d="M-31.5,-64L-30.5,-64L-30.5,-65L-31.5,-65L-31.5,-64" fill="rgba(150,0,50,1)" />
<path d="M-30.5,-60L-30.5,-60" />
<path d="M-30.5,-60L-29.5,-60L-29.5,-61L-30.5,-61L-30.5,-60" fill="rgba(150,0,50,1)" />
<path d="M-30.5,-61L-29.5,-61L-29.5,-62L-30.5,-62L-30.5,-61" fill="rgba(150,0,50,1)" />
<path d="M-30.5,-62L-29.5,-62L-29.5,-63L-30.5,-63L-30.5,-62" fill="rgba(150,0,50,1)" />
<path d="M-30.5,-63L-29.5,-63L-29.5,-64L-30.5,-64L-30.5,-63" fill="rgba(150,0,50,1)" />
<path d="M-30.5,-64L-29.5,-64L-29.5,-65L-30.5,-65L-30.5,-64" fill="rgba(150,0,50,1)" />
<path d="M-29.5,-60L-29.5,-60" />
<path d="M-29.5,-60L-28.5,-60L-28.5,-61L-29.5,-61L-29.5,-60" fill="rgba(150,0,50,1)" />
<path d="M-29.5,-61L-28.5,-61L-28.5,-62L-29.5,-62L-29.5,-61" fill="rgba(0,0,0,0)" />
<path d="M-29.5,-62L-28.5,-62L-28.5,-63L-29.5,-63L-29.5,-62" fill="rgba(0,0,0,0)" />
<path d="M-29.5,-63L-28.5,-63L-28.5,-64L-29.5,-64L-29.5,-63" fill="rgba(0,0,0,0)" />
<path d="M-29.5,-64L-28.5,-64L-28.5,-65L-29.5,-65L-29.5,-64" fill="rgba(0,0,0,0)" />
<path d="M-27.5,-60L-27.5,-60" />
<path d="M-27.5,-60L-26.5,-60L-26.5,-61L-27.5,-61L-27.5,-60" fill="rgba(0,0,0,0)" />
<path d="M-27.5,-61L-26.5,-61L-26.5,-62L-27.5,-62L-27.5,-61" fill="rgba(150,0,50,1)" />
<path d="M-27.5,-62L-26.5,-62L-26.5,-63L-27.5,-63L-27.5,-62" fill="rgba(150,0,50,1)" />
<path d="M-27.5,-63L-26.5,-63L-26.5,-64L-27.5,-64L-27.5,-63" fill="rgba(150,0,50,1)" />
<path d="M-27.5,-64L-26.5,-64L-26.5,-65L-27.5,-65L-27.5,-64" fill="rgba(0,0,0,0)" />
<path d="M-26.5,-60L-26.5,-60" />
<path d="M-26.5,-60L-25.5,-60L-25.5,-61L-26.5,-61L-26.5,-60" fill="rgba(150,0,50,1)" />
<path d="M-26.5,-61L-25.5,-61L-25.5,-62L-26.5,-62L-26.5,-61" fill="rgba(0,0,0,0)" />
<path d="M-26.5,-62L-25.5,-62L-25.5,-63L-26.5,-63L-26.5,-62" fill="rgba(0,0,0,0)" />
<path d="M-26.5,-63L-25.5,-63L-25.5,-64L-26.5,-64L-26.5,-63" fill="rgba(0,0,0,0)" />
<path d="M-26.5,-64L-25.5,-64L-25.5,-65L-26.5,-65L-26.5,-64" fill="rgba(150,0,50,1)" />
<path d="M-25.5,-60L-25.5,-60" />
<path d="M-25.5,-60L-24.5,-60L-24.5,-61L-25.5,-61L-25.5,-60" fill="rgba(150,0,50,1)" />
<path d="M-25.5,-61L-24.5,-61L-24.5,-62L-25.5,-62L-25.5,-61" fill="rgba(0,0,0,0)" />
<path d="M-25.5,-62L-24.5,-62L-24.5,-63L-25.5,-63L-25.5,-62" fill="rgba(0,0,0,0)" />
<path d="M-25.5,-63L-24.5,-63L-24.5,-64L-25.5,-64L-25.5,-63" fill="rgba(0,0,0,0)" />
<path d="M-25.5,-64L-24.5,-64L-24.5,-65L-25.5,-65L-25.5,-64" fill="rgba(150,0,50,1)" />
<path d="M-24.5,-60L-24.5,-60" />
<path d="M-24.5,-60L-23.5,-60L-23.5,-61L-24.5,-61L-24.5,-60" fill="rgba(0,0,0,0)" />
<path d="M-24.5,-61L-23.5,-61L-23.5,-62L-24.5,-62L-24.5,-61" fill="rgba(150,0,50,1)" />
<path d="M-24.5,-62L-23.5,-62L-23.5,-63L-24.5,-63L-24.5,-62" fill="rgba(150,0,50,1)" />
<path d="M-24.5,-63L-23.5,-63L-23.5,-64L-24.5,-64L-24.5,-63" fill="rgba(150,0,50,1)" />
<path d="M-24.5,-64L-23.5,-64L-23.5,-65L-24.5,-65L-24.5,-64" fill="rgba(0,0,0,0)" />
<path d="M-22.5,-60L-22.5,-60" />
<path d="M-22.5,-60L-21.5,-60L-21.5,-61L-22.5,-61L-22.5,-60" fill="rgba(0,0,0,0)" />
<path d="M-22.5,-61L-21.5,-61L-21.5,-62L-22.5,-62L-22.5,-61" fill="rgba(150,0,50,1)" />
<path d="M-22.5,-62L-21.5,-62L-21.5,-63L-22.5,-63L-22.5,-62" fill="rgba(150,0,50,1)" />
<path d="M-22.5,-63L-21.5,-63L-21.5,-64L-22.5,-64L-22.5,-63" fill="rgba(150,0,50,1)" />
<path d="M-22.5,-64L-21.5,-64L-21.5,-65L-22.5,-65L-22.5,-64" fill="rgba(0,0,0,0)" />
<path d="M-21.5,-60L-21.5,-60" />
<path d="M-21.5,-60L-20.5,-60L-20.5,-61L-21.5,-61L-21.5,-60" fill="rgba(150,0,50,1)" />
<path d="M-21.5,-61L-20.5,-61L-20.5,-62L-21.5,-62L-21.5,-61" fill="rgba(0,0,0,0)" />
<path d="M-21.5,-62L-20.5,-62L-20.5,-63L-21.5,-63L-21.5,-62" fill="rgba(0,0,0,0)" />
<path d="M-21.5,-63L-20.5,-63L-20.5,-64L-21.5,-64L-21.5,-63" fill="rgba(0,0,0,0)" />
<path d="M-21.5,-64L-20.5,-64L-20.5,-65L-21.5,-65L-21.5,-64" fill="rgba(150,0,50,1)" />
<path d="M-20.5,-60L-20.5,-60" />
<path d="M-20.5,-60L-19.5,-60L-19.5,-61L-20.5,-61L-20.5,-60" fill="rgba(150,0,50,1)" />
<path d="M-20.5,-61L-19.5,-61L-19.5,-62L-20.5,-62L-20.5,-61" fill="rgba(0,0,0,0)" />
<path d="M-20.5,-62L-19.5,-62L-19.5,-63L-20.5,-63L-20.5,-62" fill="rgba(0,0,0,0)" />
<path d="M-20.5,-63L-19.5,-63L-19.5,-64L-20.5,-64L-20.5,-63" fill="rgba(0,0,0,0)" />
<path d="M-20.5,-64L-19.5,-64L-19.5,-65L-20.5,-65L-20.5,-64" fill="rgba(150,0,50,1)" />
<path d="M-19.5,-60L-19.5,-60" />
<path d="M-19.5,-60L-18.5,-60L-18.5,-61L-19.5,-61L-19.5,-60" fill="rgba(0,0,0,0)" />
<path d="M-19.5,-61L-18.5,-61L-18.5,-62L-19.5,-62L-19.5,-61" fill="rgba(150,0,50,1)" />
<path d="M-19.5,-62L-18.5,-62L-18.5,-63L-19.5,-63L-19.5,-62" fill="rgba(150,0,50,1)" />
<path d="M-19.5,-63L-18.5,-63L-18.5,-64L-19.5,-64L-19.5,-63" fill="rgba(150,0,50,1)" />
<path d="M-19.5,-64L-18.5,-64L-18.5,-65L-19.5,-65L-19.5,-64" fill="rgba(0,0,0,0)" />
<path d="M-17.5,-60L-17.5,-60" />
<path d="M-17.5,-60L-16.5,-60L-16.5,-61L-17.5,-61L-17.5,-60" fill="rgba(0,0,0,0)" />
<path d="M-17.5,-61L-16.5,-61L-16.5,-62L-17.5,-62L-17.5,-61" fill="rgba(150,0,50,1)" />
<path d="M-17.5,-62L-16.5,-62L-16.5,-63L-17.5,-63L-17.5,-62" fill="rgba(150,0,50,1)" />
<path d="M-17.5,-63L-16.5,-63L-16.5,-64L-17.5,-64L-17.5,-63" fill="rgba(150,0,50,1)" />
<path d="M-17.5,-64L-16.5,-64L-16.5,-65L-17.5,-65L-17.5,-64" fill="rgba(0,0,0,0)" />
<path d="M-16.5,-60L-16.5,-60" />
<path d="M-16.5,-60L-15.5,-60L-15.5,-61L-16.5,-61L-16.5,-60" fill="rgba(150,0,50,1)" />
<path d="M-16.5,-61L-15.5,-61L-15.5,-62L-16.5,-62L-16.5,-61" fill="rgba(0,0,0,0)" />
<path d="M-16.5,-62L-15.5,-62L-15.5,-63L-16.5,-63L-16.5,-62" fill="rgba(0,0,0,0)" />
<path d="M-16.5,-63L-15.5,-63L-15.5,-64L-16.5,-64L-16.5,-63" fill="rgba(0,0,0,0)" />
<path d="M-16.5,-64L-15.5,-64L-15.5,-65L-16.5,-65L-16.5,-64" fill="rgba(150,0,50,1)" />
<path d="M-15.5,-60L-15.5,-60" />
<path d="M-15.5,-60L-14.5,-60L-14.5,-61L-15.5,-61L-15.5,-60" fill="rgba(150,0,50,1)" />
<path d="M-15.5,-61L-14.5,-61L-14.5,-62L-15.5,-62L-15.5,-61" fill="rgba(0,0,0,0)" />
<path d="M-15.5,-62L-14.5,-62L-14.5,-63L-15.5,-63L-15.5,-62" fill="rgba(0,0,0,0)" />
<path d="M-15.5,-63L-14.5,-63L-14.5,-64L-15.5,-64L-15.5,-63" fill="rgba(0,0,0,0)" />
<path d="M-15.5,-64L-14.5,-64L-14.5,-65L-15.5,-65L-15.5,-64" fill="rgba(150,0,50,1)" />
<path d="M-14.5,-60L-14.5,-60" />
<path d="M-14.5,-60L-13.5,-60L-13.5,-61L-14.5,-61L-14.5,-60" fill="rgba(0,0,0,0)" />
<path d="M-14.5,-61L-13.5,-61L-13.5,-62L-14.5,-62L-14.5,-61" fill="rgba(150,0,50,1)" />
<path d="M-14.5,-62L-13.5,-62L-13.5,-63L-14.5,-63L-14.5,-62" fill="rgba(150,0,50,1)" />
<path d="M-14.5,-63L-13.5,-63L-13.5,-64L-14.5,-64L-14.5,-63" fill="rgba(150,0,50,1)" />
<path d="M-14.5,-64L-13.5,-64L-13.5,-65L-14.5,-65L-14.5,-64" fill="rgba(0,0,0,0)" />
<path d="M-12.5,-60L-12.5,-60" />
<path d="M-12.5,-60L-11.5,-60L-11.5,-61L-12.5,-61L-12.5,-60" fill="rgba(0,0,0,0)" />
<path d="M-12.5,-61L-11.5,-61L-11.5,-62L-12.5,-62L-12.5,-61" fill="rgba(150,0,50,1)" />
<path d="M-12.5,-62L-11.5,-62L-11.5,-63L-12.5,-63L-12.5,-62" fill="rgba(150,0,50,1)" />
<path d="M-12.5,-63L-11.5,-63L-11.5,-64L-12.5,-64L-12.5,-63" fill="rgba(150,0,50,1)" />
<path d="M-12.5,-64L-11.5,-64L-11.5,-65L-12.5,-65L-12.5,-64" fill="rgba(0,0,0,0)" />
<path d="M-11.5,-60L-11.5,-60" />
<path d="M-11.5,-60L-10.5,-60L-10.5,-61L-11.5,-61L-11.5,-60" fill="rgba(150,0,50,1)" />
<path d="M-11.5,-61L-10.5,-61L-10.5,-62L-11.5,-62L-11.5,-61" fill="rgba(0,0,0,0)" />
<path d="M-11.5,-62L-10.5,-62L-10.5,-63L-11.5,-63L-11.5,-62" fill="rgba(0,0,0,0)" />
<path d="M-11.5,-63L-10.5,-63L-10.5,-64L-11.5,-64L-11.5,-63" fill="rgba(0,0,0,0)" />
<path d="M-11.5,-64L-10.5,-64L-10.5,-65L-11.5,-65L-11.5,-64" fill="rgba(150,0,50,1)" />
<path d="M-10.5,-60L-10.5,-60" />
<path d="M-10.5,-60L-9.5,-60L-9.5,-61L-10.5,-61L-10.5,-60" fill="rgba(150,0,50,1)" />
<path d="M-10.5,-61L-9.5,-61L-9.5,-62L-10.5,-62L-10.5,-61" fill="rgba(0,0,0,0)" />
<path d="M-10.5,-62L-9.5,-62L-9.5,-63L-10.5,-63L-10.5,-62" fill="rgba(0,0,0,0)" />
<path d="M-10.5,-63L-9.5,-63L-9.5,-64L-10.5,-64L-10.5,-63" fill="rgba(0,0,0,0)" />
<path d="M-10.5,-64L-9.5,-64L-9.5,-65L-10.5,-65L-10.5,-64" fill="rgba(150,0,50,1)" />
<path d="M-9.5,-60L-9.5,-60" />
<path d="M-9.5,-60L-8.5,-60L-8.5,-61L-9.5,-61L-9.5,-60" fill="rgba(0,0,0,0)" />
<path d="M-9.5,-61L-8.5,-61L-8.5,-62L-9.5,-62L-9.5,-61" fill="rgba(150,0,50,1)" />
<path d="M-9.5,-62L-8.5,-62L-8.5,-63L-9.5,-63L-9.5,-62" fill="rgba(150,0,50,1)" />
<path d="M-9.5,-63L-8.5,-63L-8.5,-64L-9.5,-64L-9.5,-63" fill="rgba(150,0,50,1)" />
<path d="M-9.5,-64L-8.5,-64L-8.5,-65L-9.5,-65L-9.5,-64" fill="rgba(0,0,0,0)" />
<path d="M-20,-47.5L-20,-55" stroke="rgba(150,0,50,1)" />
</svg>
