<svg xmlns="http://www.w3.org/2000/svg" viewBox="-31.5 -20.5 36.5 34.6875">
<path d="M0,0L0,0" />
<path d="M0,0L1,0L1,-1L0,-1L0,0" fill="rgba(100,0,0,1)" />
<path d="M0,-1L1,-1L1,-2L0,-2L0,-1" fill="rgba(0,0,0,0)" />
<path d="M0,-2L1,-2L1,-3L0,-3L0,-2" fill="rgba(100,0,0,1)" />
<path d="M0,-3L1,-3L1,-4L0,-4L0,-3" fill="rgba(0,0,0,0)" />
<path d="M0,-4L1,-4L1,-5L0,-5L0,-4" fill="rgba(100,0,0,1)" />
<path d="M1,0L1,0" />
<path d="M1,0L2,0L2,-1L1,-1L1,0" fill="rgba(100,0,0,1)" />
<path d="M1,-1L2,-1L2,-2L1,-2L1,-1" fill="rgba(0,0,0,0)" />
<path d="M1,-2L2,-2L2,-3L1,-3L1,-2" fill="rgba(100,0,0,1)" />
<path d="M1,-3L2,-3L2,-4L1,-4L1,-3" fill="rgba(0,0,0,0)" />
<path d="M1,-4L2,-4L2,-5L1,-5L1,-4" fill="rgba(100,0,0,1)" />
<path d="M2,0L2,0" />
<path d="M2,0L3,0L3,-1L2,-1L2,0" fill="rgba(100,0,0,1)" />
<path d="M2,-1L3,-1L3,-2L2,-2L2,-1" fill="rgba(0,0,0,0)" />
<path d="M2,-2L3,-2L3,-3L2,-3L2,-2" fill="rgba(100,0,0,1)" />
<path d="M2,-3L3,-3L3,-4L2,-4L2,-3" fill="rgba(0,0,0,0)" />
<path d="M2,-4L3,-4L3,-5L2,-5L2,-4" fill="rgba(100,0,0,1)" />
<path d="M3,0L3,0" />
<path d="M3,0L4,0L4,-1L3,-1L3,0" fill="rgba(0,0,0,0)" />
<path d="M3,-1L4,-1L4,-2L3,-2L3,-1" fill="rgba(100,0,0,1)" />
<path d="M3,-2L4,-2L4,-3L3,-3L3,-2" fill="rgba(100,0,0,1)" />
<path d="M3,-3L4,-3L4,-4L3,-4L3,-3" fill="rgba(100,0,0,1)" />
<path d="M3,-4L4,-4L4,-5L3,-5L3,-4" fill="rgba(0,0,0,0)" />
<path d="M0,-5L4,-5" stroke-width="1" stroke="rgba(0,100,0,1)" />
<path d="M0,0L4,0" stroke="rgba(0,100,0,1)" stroke-width="1" />
<path d="M0,-5L0,0" stroke="rgba(0,100,0,1)" stroke-width="1" />
<path d="M4,-5L4,0" stroke-width="1" stroke="rgba(0,100,0,1)" />
<path d="M2,-4.5L2,-6.5" stroke="rgba(0,100,0,1)" />
<path d="M-7,-1.25L-7,-1.25" />
<path d="M-7,-1.25L-6,-1.25L-6,-2.25L-7,-2.25L-7,-1.25" fill="rgba(100,0,0,1)" />
<path d="M-7,-2.25L-6,-2.25L-6,-3.25L-7,-3.25L-7,-2.25" fill="rgba(0,0,0,0)" />
<path d="M-7,-3.25L-6,-3.25L-6,-4.25L-7,-4.25L-7,-3.25" fill="rgba(0,0,0,0)" />
<path d="M-7,-4.25L-6,-4.25L-6,-5.25L-7,-5.25L-7,-4.25" fill="rgba(100,0,0,1)" />
<path d="M-7,-5.25L-6,-5.25L-6,-6.25L-7,-6.25L-7,-5.25" fill="rgba(100,0,0,1)" />
<path d="M-6,-1.25L-6,-1.25" />
<path d="M-6,-1.25L-5,-1.25L-5,-2.25L-6,-2.25L-6,-1.25" fill="rgba(100,0,0,1)" />
<path d="M-6,-2.25L-5,-2.25L-5,-3.25L-6,-3.25L-6,-2.25" fill="rgba(0,0,0,0)" />
<path d="M-6,-3.25L-5,-3.25L-5,-4.25L-6,-4.25L-6,-3.25" fill="rgba(100,0,0,1)" />
<path d="M-6,-4.25L-5,-4.25L-5,-5.25L-6,-5.25L-6,-4.25" fill="rgba(0,0,0,0)" />
<path d="M-6,-5.25L-5,-5.25L-5,-6.25L-6,-6.25L-6,-5.25" fill="rgba(100,0,0,1)" />
<path d="M-5,-1.25L-5,-1.25" />
<path d="M-5,-1.25L-4,-1.25L-4,-2.25L-5,-2.25L-5,-1.25" fill="rgba(100,0,0,1)" />
<path d="M-5,-2.25L-4,-2.25L-4,-3.25L-5,-3.25L-5,-2.25" fill="rgba(0,0,0,0)" />
<path d="M-5,-3.25L-4,-3.25L-4,-4.25L-5,-4.25L-5,-3.25" fill="rgba(100,0,0,1)" />
<path d="M-5,-4.25L-4,-4.25L-4,-5.25L-5,-5.25L-5,-4.25" fill="rgba(0,0,0,0)" />
<path d="M-5,-5.25L-4,-5.25L-4,-6.25L-5,-6.25L-5,-5.25" fill="rgba(100,0,0,1)" />
<path d="M-4,-1.25L-4,-1.25" />
<path d="M-4,-1.25L-3,-1.25L-3,-2.25L-4,-2.25L-4,-1.25" fill="rgba(0,0,0,0)" />
<path d="M-4,-2.25L-3,-2.25L-3,-3.25L-4,-3.25L-4,-2.25" fill="rgba(100,0,0,1)" />
<path d="M-4,-3.25L-3,-3.25L-3,-4.25L-4,-4.25L-4,-3.25" fill="rgba(100,0,0,1)" />
<path d="M-4,-4.25L-3,-4.25L-3,-5.25L-4,-5.25L-4,-4.25" fill="rgba(0,0,0,0)" />
<path d="M-4,-5.25L-3,-5.25L-3,-6.25L-4,-6.25L-4,-5.25" fill="rgba(100,0,0,1)" />
<path d="M-7,-6.25L-3,-6.25" stroke-width="1" stroke="rgba(0,100,0,1)" />
<path d="M-7,-1.25L-3,-1.25" stroke="rgba(0,100,0,1)" stroke-width="1" />
<path d="M-7,-6.25L-7,-1.25" stroke-width="1" stroke="rgba(0,100,0,1)" />
<path d="M-3,-6.25L-3,-1.25" stroke="rgba(0,100,0,1)" stroke-width="1" />
<path d="M-5,-4.5L-5,-6.5" stroke="rgba(0,100,0,1)" />
<path d="M-5.5,-6.5L2.5,-6.5" stroke="rgba(0,100,0,1)" />
<path d="M-3,-8L-3,-8" />
<path d="M-3,-8L-2,-8L-2,-9L-3,-9L-3,-8" fill="rgba(100,0,0,1)" />
<path d="M-3,-9L-2,-9L-2,-10L-3,-10L-3,-9" fill="rgba(0,0,0,0)" />
<path d="M-3,-10L-2,-10L-2,-11L-3,-11L-3,-10" fill="rgba(0,0,0,0)" />
<path d="M-3,-11L-2,-11L-2,-12L-3,-12L-3,-11" fill="rgba(100,0,0,1)" />
<path d="M-3,-12L-2,-12L-2,-13L-3,-13L-3,-12" fill="rgba(0,0,0,0)" />
<path d="M-2,-8L-2,-8" />
<path d="M-2,-8L-1,-8L-1,-9L-2,-9L-2,-8" fill="rgba(100,0,0,1)" />
<path d="M-2,-9L-1,-9L-1,-10L-2,-10L-2,-9" fill="rgba(100,0,0,1)" />
<path d="M-2,-10L-1,-10L-1,-11L-2,-11L-2,-10" fill="rgba(0,0,0,0)" />
<path d="M-2,-11L-1,-11L-1,-12L-2,-12L-2,-11" fill="rgba(0,0,0,0)" />
<path d="M-2,-12L-1,-12L-1,-13L-2,-13L-2,-12" fill="rgba(100,0,0,1)" />
<path d="M-1,-8L-1,-8" />
<path d="M-1,-8L0,-8L0,-9L-1,-9L-1,-8" fill="rgba(100,0,0,1)" />
<path d="M-1,-9L0,-9L0,-10L-1,-10L-1,-9" fill="rgba(0,0,0,0)" />
<path d="M-1,-10L0,-10L0,-11L-1,-11L-1,-10" fill="rgba(100,0,0,1)" />
<path d="M-1,-11L0,-11L0,-12L-1,-12L-1,-11" fill="rgba(0,0,0,0)" />
<path d="M-1,-12L0,-12L0,-13L-1,-13L-1,-12" fill="rgba(100,0,0,1)" />
<path d="M0,-8L0,-8" />
<path d="M0,-8L1,-8L1,-9L0,-9L0,-8" fill="rgba(100,0,0,1)" />
<path d="M0,-9L1,-9L1,-10L0,-10L0,-9" fill="rgba(0,0,0,0)" />
<path d="M0,-10L1,-10L1,-11L0,-11L0,-10" fill="rgba(0,0,0,0)" />
<path d="M0,-11L1,-11L1,-12L0,-12L0,-11" fill="rgba(100,0,0,1)" />
<path d="M0,-12L1,-12L1,-13L0,-13L0,-12" fill="rgba(0,0,0,0)" />
<path d="M-3,-13L1,-13" stroke-width="1" stroke="rgba(0,100,0,1)" />
<path d="M-3,-8L1,-8" stroke-width="1" stroke="rgba(0,100,0,1)" />
<path d="M-3,-13L-3,-8" stroke-width="1" stroke="rgba(0,100,0,1)" />
<path d="M1,-13L1,-8" stroke-width="1" stroke="rgba(0,100,0,1)" />
<path d="M-1,-6.5L-1,-8.5" stroke="rgba(0,100,0,1)" />
<path d="M-1.5,-8.5L-1.5,-10.5" stroke="rgba(0,100,0,1)" />
<path d="M-10.5,8.4375L-10.5,8.4375" stroke="rgba(0,0,0,1)" />
<path d="M-10.5,6.4375L-10.5,4.4375" stroke="rgba(0,100,0,1)" />
<path d="M-17.5,9.6875L-17.5,9.6875" />
<path d="M-17.5,9.6875L-16.5,9.6875L-16.5,8.6875L-17.5,8.6875L-17.5,9.6875" fill="rgba(0,0,0,0)" />
<path d="M-17.5,8.6875L-16.5,8.6875L-16.5,7.6875L-17.5,7.6875L-17.5,8.6875" fill="rgba(0,0,0,0)" />
<path d="M-17.5,7.6875L-16.5,7.6875L-16.5,6.6875L-17.5,6.6875L-17.5,7.6875" fill="rgba(0,0,0,0)" />
<path d="M-17.5,6.6875L-16.5,6.6875L-16.5,5.6875L-17.5,5.6875L-17.5,6.6875" fill="rgba(0,0,0,0)" />
<path d="M-17.5,5.6875L-16.5,5.6875L-16.5,4.6875L-17.5,4.6875L-17.5,5.6875" fill="rgba(100,0,0,1)" />
<path d="M-16.5,9.6875L-16.5,9.6875" />
<path d="M-16.5,9.6875L-15.5,9.6875L-15.5,8.6875L-16.5,8.6875L-16.5,9.6875" fill="rgba(100,0,0,1)" />
<path d="M-16.5,8.6875L-15.5,8.6875L-15.5,7.6875L-16.5,7.6875L-16.5,8.6875" fill="rgba(100,0,0,1)" />
<path d="M-16.5,7.6875L-15.5,7.6875L-15.5,6.6875L-16.5,6.6875L-16.5,7.6875" fill="rgba(0,0,0,0)" />
<path d="M-16.5,6.6875L-15.5,6.6875L-15.5,5.6875L-16.5,5.6875L-16.5,6.6875" fill="rgba(0,0,0,0)" />
<path d="M-16.5,5.6875L-15.5,5.6875L-15.5,4.6875L-16.5,4.6875L-16.5,5.6875" fill="rgba(100,0,0,1)" />
<path d="M-15.5,9.6875L-15.5,9.6875" />
<path d="M-15.5,9.6875L-14.5,9.6875L-14.5,8.6875L-15.5,8.6875L-15.5,9.6875" fill="rgba(0,0,0,0)" />
<path d="M-15.5,8.6875L-14.5,8.6875L-14.5,7.6875L-15.5,7.6875L-15.5,8.6875" fill="rgba(0,0,0,0)" />
<path d="M-15.5,7.6875L-14.5,7.6875L-14.5,6.6875L-15.5,6.6875L-15.5,7.6875" fill="rgba(100,0,0,1)" />
<path d="M-15.5,6.6875L-14.5,6.6875L-14.5,5.6875L-15.5,5.6875L-15.5,6.6875" fill="rgba(0,0,0,0)" />
<path d="M-15.5,5.6875L-14.5,5.6875L-14.5,4.6875L-15.5,4.6875L-15.5,5.6875" fill="rgba(100,0,0,1)" />
<path d="M-14.5,9.6875L-14.5,9.6875" />
<path d="M-14.5,9.6875L-13.5,9.6875L-13.5,8.6875L-14.5,8.6875L-14.5,9.6875" fill="rgba(0,0,0,0)" />
<path d="M-14.5,8.6875L-13.5,8.6875L-13.5,7.6875L-14.5,7.6875L-14.5,8.6875" fill="rgba(0,0,0,0)" />
<path d="M-14.5,7.6875L-13.5,7.6875L-13.5,6.6875L-14.5,6.6875L-14.5,7.6875" fill="rgba(0,0,0,0)" />
<path d="M-14.5,6.6875L-13.5,6.6875L-13.5,5.6875L-14.5,5.6875L-14.5,6.6875" fill="rgba(100,0,0,1)" />
<path d="M-14.5,5.6875L-13.5,5.6875L-13.5,4.6875L-14.5,4.6875L-14.5,5.6875" fill="rgba(100,0,0,1)" />
<path d="M-17.5,4.6875L-13.5,4.6875" stroke="rgba(0,100,0,1)" stroke-width="1" />
<path d="M-17.5,9.6875L-13.5,9.6875" stroke-width="1" stroke="rgba(0,100,0,1)" />
<path d="M-17.5,4.6875L-17.5,9.6875" stroke-width="1" stroke="rgba(0,100,0,1)" />
<path d="M-13.5,4.6875L-13.5,9.6875" stroke="rgba(0,100,0,1)" stroke-width="1" />
<path d="M-15.5,6.4375L-15.5,4.4375" stroke="rgba(0,100,0,1)" />
<path d="M-16,4.4375L-10,4.4375" stroke="rgba(0,100,0,1)" />
<path d="M-15.5,2.9375L-15.5,2.9375" />
<path d="M-15.5,2.9375L-14.5,2.9375L-14.5,1.9375L-15.5,1.9375L-15.5,2.9375" fill="rgba(0,0,0,0)" />
<path d="M-15.5,1.9375L-14.5,1.9375L-14.5,0.9375L-15.5,0.9375L-15.5,1.9375" fill="rgba(0,0,0,0)" />
<path d="M-15.5,0.9375L-14.5,0.9375L-14.5,-0.0625L-15.5,-0.0625L-15.5,0.9375" fill="rgba(100,0,0,1)" />
<path d="M-15.5,-0.0625L-14.5,-0.0625L-14.5,-1.0625L-15.5,-1.0625L-15.5,-0.0625" fill="rgba(100,0,0,1)" />
<path d="M-15.5,-1.0625L-14.5,-1.0625L-14.5,-2.0625L-15.5,-2.0625L-15.5,-1.0625" fill="rgba(100,0,0,1)" />
<path d="M-14.5,2.9375L-14.5,2.9375" />
<path d="M-14.5,2.9375L-13.5,2.9375L-13.5,1.9375L-14.5,1.9375L-14.5,2.9375" fill="rgba(0,0,0,0)" />
<path d="M-14.5,1.9375L-13.5,1.9375L-13.5,0.9375L-14.5,0.9375L-14.5,1.9375" fill="rgba(0,0,0,0)" />
<path d="M-14.5,0.9375L-13.5,0.9375L-13.5,-0.0625L-14.5,-0.0625L-14.5,0.9375" fill="rgba(100,0,0,1)" />
<path d="M-14.5,-0.0625L-13.5,-0.0625L-13.5,-1.0625L-14.5,-1.0625L-14.5,-0.0625" fill="rgba(0,0,0,0)" />
<path d="M-14.5,-1.0625L-13.5,-1.0625L-13.5,-2.0625L-14.5,-2.0625L-14.5,-1.0625" fill="rgba(0,0,0,0)" />
<path d="M-13.5,2.9375L-13.5,2.9375" />
<path d="M-13.5,2.9375L-12.5,2.9375L-12.5,1.9375L-13.5,1.9375L-13.5,2.9375" fill="rgba(0,0,0,0)" />
<path d="M-13.5,1.9375L-12.5,1.9375L-12.5,0.9375L-13.5,0.9375L-13.5,1.9375" fill="rgba(0,0,0,0)" />
<path d="M-13.5,0.9375L-12.5,0.9375L-12.5,-0.0625L-13.5,-0.0625L-13.5,0.9375" fill="rgba(100,0,0,1)" />
<path d="M-13.5,-0.0625L-12.5,-0.0625L-12.5,-1.0625L-13.5,-1.0625L-13.5,-0.0625" fill="rgba(0,0,0,0)" />
<path d="M-13.5,-1.0625L-12.5,-1.0625L-12.5,-2.0625L-13.5,-2.0625L-13.5,-1.0625" fill="rgba(0,0,0,0)" />
<path d="M-12.5,2.9375L-12.5,2.9375" />
<path d="M-12.5,2.9375L-11.5,2.9375L-11.5,1.9375L-12.5,1.9375L-12.5,2.9375" fill="rgba(100,0,0,1)" />
<path d="M-12.5,1.9375L-11.5,1.9375L-11.5,0.9375L-12.5,0.9375L-12.5,1.9375" fill="rgba(100,0,0,1)" />
<path d="M-12.5,0.9375L-11.5,0.9375L-11.5,-0.0625L-12.5,-0.0625L-12.5,0.9375" fill="rgba(100,0,0,1)" />
<path d="M-12.5,-0.0625L-11.5,-0.0625L-11.5,-1.0625L-12.5,-1.0625L-12.5,-0.0625" fill="rgba(100,0,0,1)" />
<path d="M-12.5,-1.0625L-11.5,-1.0625L-11.5,-2.0625L-12.5,-2.0625L-12.5,-1.0625" fill="rgba(100,0,0,1)" />
<path d="M-15.5,-2.0625L-11.5,-2.0625" stroke-width="1" stroke="rgba(0,100,0,1)" />
<path d="M-15.5,2.9375L-11.5,2.9375" stroke-width="1" stroke="rgba(0,100,0,1)" />
<path d="M-15.5,-2.0625L-15.5,2.9375" stroke="rgba(0,100,0,1)" stroke-width="1" />
<path d="M-11.5,-2.0625L-11.5,2.9375" stroke-width="1" stroke="rgba(0,100,0,1)" />
<path d="M-13.5,4.4375L-13.5,2.4375" stroke="rgba(0,100,0,1)" />
<path d="M-13.75,1.8125L-13.75,-0.1875" stroke="rgba(0,100,0,1)" />
<path d="M-24.5,13.1875L-24.5,13.1875" />
<path d="M-24.5,13.1875L-23.5,13.1875L-23.5,12.1875L-24.5,12.1875L-24.5,13.1875" fill="rgba(0,0,0,0)" />
<path d="M-24.5,12.1875L-23.5,12.1875L-23.5,11.1875L-24.5,11.1875L-24.5,12.1875" fill="rgba(100,0,0,1)" />
<path d="M-24.5,11.1875L-23.5,11.1875L-23.5,10.1875L-24.5,10.1875L-24.5,11.1875" fill="rgba(0,0,0,0)" />
<path d="M-24.5,10.1875L-23.5,10.1875L-23.5,9.1875L-24.5,9.1875L-24.5,10.1875" fill="rgba(100,0,0,1)" />
<path d="M-24.5,9.1875L-23.5,9.1875L-23.5,8.1875L-24.5,8.1875L-24.5,9.1875" fill="rgba(0,0,0,0)" />
<path d="M-23.5,13.1875L-23.5,13.1875" />
<path d="M-23.5,13.1875L-22.5,13.1875L-22.5,12.1875L-23.5,12.1875L-23.5,13.1875" fill="rgba(100,0,0,1)" />
<path d="M-23.5,12.1875L-22.5,12.1875L-22.5,11.1875L-23.5,11.1875L-23.5,12.1875" fill="rgba(0,0,0,0)" />
<path d="M-23.5,11.1875L-22.5,11.1875L-22.5,10.1875L-23.5,10.1875L-23.5,11.1875" fill="rgba(100,0,0,1)" />
<path d="M-23.5,10.1875L-22.5,10.1875L-22.5,9.1875L-23.5,9.1875L-23.5,10.1875" fill="rgba(0,0,0,0)" />
<path d="M-23.5,9.1875L-22.5,9.1875L-22.5,8.1875L-23.5,8.1875L-23.5,9.1875" fill="rgba(100,0,0,1)" />
<path d="M-22.5,13.1875L-22.5,13.1875" />
<path d="M-22.5,13.1875L-21.5,13.1875L-21.5,12.1875L-22.5,12.1875L-22.5,13.1875" fill="rgba(100,0,0,1)" />
<path d="M-22.5,12.1875L-21.5,12.1875L-21.5,11.1875L-22.5,11.1875L-22.5,12.1875" fill="rgba(0,0,0,0)" />
<path d="M-22.5,11.1875L-21.5,11.1875L-21.5,10.1875L-22.5,10.1875L-22.5,11.1875" fill="rgba(100,0,0,1)" />
<path d="M-22.5,10.1875L-21.5,10.1875L-21.5,9.1875L-22.5,9.1875L-22.5,10.1875" fill="rgba(0,0,0,0)" />
<path d="M-22.5,9.1875L-21.5,9.1875L-21.5,8.1875L-22.5,8.1875L-22.5,9.1875" fill="rgba(100,0,0,1)" />
<path d="M-21.5,13.1875L-21.5,13.1875" />
<path d="M-21.5,13.1875L-20.5,13.1875L-20.5,12.1875L-21.5,12.1875L-21.5,13.1875" fill="rgba(0,0,0,0)" />
<path d="M-21.5,12.1875L-20.5,12.1875L-20.5,11.1875L-21.5,11.1875L-21.5,12.1875" fill="rgba(100,0,0,1)" />
<path d="M-21.5,11.1875L-20.5,11.1875L-20.5,10.1875L-21.5,10.1875L-21.5,11.1875" fill="rgba(0,0,0,0)" />
<path d="M-21.5,10.1875L-20.5,10.1875L-20.5,9.1875L-21.5,9.1875L-21.5,10.1875" fill="rgba(100,0,0,1)" />
<path d="M-21.5,9.1875L-20.5,9.1875L-20.5,8.1875L-21.5,8.1875L-21.5,9.1875" fill="rgba(0,0,0,0)" />
<path d="M-24.5,8.1875L-20.5,8.1875" stroke-width="1" stroke="rgba(0,100,0,1)" />
<path d="M-24.5,13.1875L-20.5,13.1875" stroke-width="1" stroke="rgba(0,100,0,1)" />
<path d="M-24.5,8.1875L-24.5,13.1875" stroke-width="1" stroke="rgba(0,100,0,1)" />
<path d="M-20.5,8.1875L-20.5,13.1875" stroke="rgba(0,100,0,1)" stroke-width="1" />
<path d="M-22.5,8.6875L-22.5,6.6875" stroke="rgba(0,100,0,1)" />
<path d="M-30.5,11.9375L-30.5,11.9375" />
<path d="M-30.5,11.9375L-29.5,11.9375L-29.5,10.9375L-30.5,10.9375L-30.5,11.9375" fill="rgba(0,0,0,0)" />
<path d="M-30.5,10.9375L-29.5,10.9375L-29.5,9.9375L-30.5,9.9375L-30.5,10.9375" fill="rgba(0,0,0,0)" />
<path d="M-30.5,9.9375L-29.5,9.9375L-29.5,8.9375L-30.5,8.9375L-30.5,9.9375" fill="rgba(100,0,0,1)" />
<path d="M-30.5,8.9375L-29.5,8.9375L-29.5,7.9375L-30.5,7.9375L-30.5,8.9375" fill="rgba(100,0,0,1)" />
<path d="M-30.5,7.9375L-29.5,7.9375L-29.5,6.9375L-30.5,6.9375L-30.5,7.9375" fill="rgba(100,0,0,1)" />
<path d="M-29.5,11.9375L-29.5,11.9375" />
<path d="M-29.5,11.9375L-28.5,11.9375L-28.5,10.9375L-29.5,10.9375L-29.5,11.9375" fill="rgba(0,0,0,0)" />
<path d="M-29.5,10.9375L-28.5,10.9375L-28.5,9.9375L-29.5,9.9375L-29.5,10.9375" fill="rgba(0,0,0,0)" />
<path d="M-29.5,9.9375L-28.5,9.9375L-28.5,8.9375L-29.5,8.9375L-29.5,9.9375" fill="rgba(100,0,0,1)" />
<path d="M-29.5,8.9375L-28.5,8.9375L-28.5,7.9375L-29.5,7.9375L-29.5,8.9375" fill="rgba(0,0,0,0)" />
<path d="M-29.5,7.9375L-28.5,7.9375L-28.5,6.9375L-29.5,6.9375L-29.5,7.9375" fill="rgba(100,0,0,1)" />
<path d="M-28.5,11.9375L-28.5,11.9375" />
<path d="M-28.5,11.9375L-27.5,11.9375L-27.5,10.9375L-28.5,10.9375L-28.5,11.9375" fill="rgba(100,0,0,1)" />
<path d="M-28.5,10.9375L-27.5,10.9375L-27.5,9.9375L-28.5,9.9375L-28.5,10.9375" fill="rgba(100,0,0,1)" />
<path d="M-28.5,9.9375L-27.5,9.9375L-27.5,8.9375L-28.5,8.9375L-28.5,9.9375" fill="rgba(100,0,0,1)" />
<path d="M-28.5,8.9375L-27.5,8.9375L-27.5,7.9375L-28.5,7.9375L-28.5,8.9375" fill="rgba(100,0,0,1)" />
<path d="M-28.5,7.9375L-27.5,7.9375L-27.5,6.9375L-28.5,6.9375L-28.5,7.9375" fill="rgba(100,0,0,1)" />
<path d="M-30.5,6.9375L-27.5,6.9375" stroke-width="1" stroke="rgba(0,100,0,1)" />
<path d="M-30.5,11.9375L-27.5,11.9375" stroke="rgba(0,100,0,1)" stroke-width="1" />
<path d="M-30.5,6.9375L-30.5,11.9375" stroke="rgba(0,100,0,1)" stroke-width="1" />
<path d="M-27.5,6.9375L-27.5,11.9375" stroke="rgba(0,100,0,1)" stroke-width="1" />
<path d="M-29,8.6875L-29,6.6875" stroke="rgba(0,100,0,1)" />
<path d="M-29.75,6.6875L-21.75,6.6875" stroke="rgba(0,100,0,1)" />
<path d="M-27.5,5.1875L-27.5,5.1875" />
<path d="M-27.5,5.1875L-26.5,5.1875L-26.5,4.1875L-27.5,4.1875L-27.5,5.1875" fill="rgba(0,0,0,0)" />
<path d="M-27.5,4.1875L-26.5,4.1875L-26.5,3.1875L-27.5,3.1875L-27.5,4.1875" fill="rgba(100,0,0,1)" />
<path d="M-27.5,3.1875L-26.5,3.1875L-26.5,2.1875L-27.5,2.1875L-27.5,3.1875" fill="rgba(100,0,0,1)" />
<path d="M-27.5,2.1875L-26.5,2.1875L-26.5,1.1875L-27.5,1.1875L-27.5,2.1875" fill="rgba(100,0,0,1)" />
<path d="M-27.5,1.1875L-26.5,1.1875L-26.5,0.1875L-27.5,0.1875L-27.5,1.1875" fill="rgba(0,0,0,0)" />
<path d="M-26.5,5.1875L-26.5,5.1875" />
<path d="M-26.5,5.1875L-25.5,5.1875L-25.5,4.1875L-26.5,4.1875L-26.5,5.1875" fill="rgba(100,0,0,1)" />
<path d="M-26.5,4.1875L-25.5,4.1875L-25.5,3.1875L-26.5,3.1875L-26.5,4.1875" fill="rgba(0,0,0,0)" />
<path d="M-26.5,3.1875L-25.5,3.1875L-25.5,2.1875L-26.5,2.1875L-26.5,3.1875" fill="rgba(100,0,0,1)" />
<path d="M-26.5,2.1875L-25.5,2.1875L-25.5,1.1875L-26.5,1.1875L-26.5,2.1875" fill="rgba(0,0,0,0)" />
<path d="M-26.5,1.1875L-25.5,1.1875L-25.5,0.1875L-26.5,0.1875L-26.5,1.1875" fill="rgba(100,0,0,1)" />
<path d="M-25.5,5.1875L-25.5,5.1875" />
<path d="M-25.5,5.1875L-24.5,5.1875L-24.5,4.1875L-25.5,4.1875L-25.5,5.1875" fill="rgba(100,0,0,1)" />
<path d="M-25.5,4.1875L-24.5,4.1875L-24.5,3.1875L-25.5,3.1875L-25.5,4.1875" fill="rgba(0,0,0,0)" />
<path d="M-25.5,3.1875L-24.5,3.1875L-24.5,2.1875L-25.5,2.1875L-25.5,3.1875" fill="rgba(100,0,0,1)" />
<path d="M-25.5,2.1875L-24.5,2.1875L-24.5,1.1875L-25.5,1.1875L-25.5,2.1875" fill="rgba(0,0,0,0)" />
<path d="M-25.5,1.1875L-24.5,1.1875L-24.5,0.1875L-25.5,0.1875L-25.5,1.1875" fill="rgba(100,0,0,1)" />
<path d="M-24.5,5.1875L-24.5,5.1875" />
<path d="M-24.5,5.1875L-23.5,5.1875L-23.5,4.1875L-24.5,4.1875L-24.5,5.1875" fill="rgba(0,0,0,0)" />
<path d="M-24.5,4.1875L-23.5,4.1875L-23.5,3.1875L-24.5,3.1875L-24.5,4.1875" fill="rgba(100,0,0,1)" />
<path d="M-24.5,3.1875L-23.5,3.1875L-23.5,2.1875L-24.5,2.1875L-24.5,3.1875" fill="rgba(100,0,0,1)" />
<path d="M-24.5,2.1875L-23.5,2.1875L-23.5,1.1875L-24.5,1.1875L-24.5,2.1875" fill="rgba(0,0,0,0)" />
<path d="M-24.5,1.1875L-23.5,1.1875L-23.5,0.1875L-24.5,0.1875L-24.5,1.1875" fill="rgba(100,0,0,1)" />
<path d="M-27.5,0.1875L-23.5,0.1875" stroke="rgba(0,100,0,1)" stroke-width="1" />
<path d="M-27.5,5.1875L-23.5,5.1875" stroke="rgba(0,100,0,1)" stroke-width="1" />
<path d="M-27.5,0.1875L-27.5,5.1875" stroke="rgba(0,100,0,1)" stroke-width="1" />
<path d="M-23.5,0.1875L-23.5,5.1875" stroke-width="1" stroke="rgba(0,100,0,1)" />
<path d="M-25.5,6.6875L-25.5,4.6875" stroke="rgba(0,100,0,1)" />
<path d="M-25.5,-0.0625L-25.5,-2.0625" stroke="rgba(0,100,0,1)" />
<path d="M-26,-2.0625L-13.25,-2.0625" stroke="rgba(0,100,0,1)" />
<path d="M-21.75,-3.5625L-21.75,-3.5625" />
<path d="M-21.75,-3.5625L-20.75,-3.5625L-20.75,-4.5625L-21.75,-4.5625L-21.75,-3.5625" fill="rgba(100,0,0,1)" />
<path d="M-21.75,-4.5625L-20.75,-4.5625L-20.75,-5.5625L-21.75,-5.5625L-21.75,-4.5625" fill="rgba(0,0,0,0)" />
<path d="M-21.75,-5.5625L-20.75,-5.5625L-20.75,-6.5625L-21.75,-6.5625L-21.75,-5.5625" fill="rgba(0,0,0,0)" />
<path d="M-21.75,-6.5625L-20.75,-6.5625L-20.75,-7.5625L-21.75,-7.5625L-21.75,-6.5625" fill="rgba(0,0,0,0)" />
<path d="M-21.75,-7.5625L-20.75,-7.5625L-20.75,-8.5625L-21.75,-8.5625L-21.75,-7.5625" fill="rgba(100,0,0,1)" />
<path d="M-20.75,-3.5625L-20.75,-3.5625" />
<path d="M-20.75,-3.5625L-19.75,-3.5625L-19.75,-4.5625L-20.75,-4.5625L-20.75,-3.5625" fill="rgba(100,0,0,1)" />
<path d="M-20.75,-4.5625L-19.75,-4.5625L-19.75,-5.5625L-20.75,-5.5625L-20.75,-4.5625" fill="rgba(100,0,0,1)" />
<path d="M-20.75,-5.5625L-19.75,-5.5625L-19.75,-6.5625L-20.75,-6.5625L-20.75,-5.5625" fill="rgba(100,0,0,1)" />
<path d="M-20.75,-6.5625L-19.75,-6.5625L-19.75,-7.5625L-20.75,-7.5625L-20.75,-6.5625" fill="rgba(100,0,0,1)" />
<path d="M-20.75,-7.5625L-19.75,-7.5625L-19.75,-8.5625L-20.75,-8.5625L-20.75,-7.5625" fill="rgba(100,0,0,1)" />
<path d="M-19.75,-3.5625L-19.75,-3.5625" />
<path d="M-19.75,-3.5625L-18.75,-3.5625L-18.75,-4.5625L-19.75,-4.5625L-19.75,-3.5625" fill="rgba(100,0,0,1)" />
<path d="M-19.75,-4.5625L-18.75,-4.5625L-18.75,-5.5625L-19.75,-5.5625L-19.75,-4.5625" fill="rgba(0,0,0,0)" />
<path d="M-19.75,-5.5625L-18.75,-5.5625L-18.75,-6.5625L-19.75,-6.5625L-19.75,-5.5625" fill="rgba(0,0,0,0)" />
<path d="M-19.75,-6.5625L-18.75,-6.5625L-18.75,-7.5625L-19.75,-7.5625L-19.75,-6.5625" fill="rgba(0,0,0,0)" />
<path d="M-19.75,-7.5625L-18.75,-7.5625L-18.75,-8.5625L-19.75,-8.5625L-19.75,-7.5625" fill="rgba(0,0,0,0)" />
<path d="M-21.75,-8.5625L-18.75,-8.5625" stroke-width="1" stroke="rgba(0,100,0,1)" />
<path d="M-21.75,-3.5625L-18.75,-3.5625" stroke="rgba(0,100,0,1)" stroke-width="1" />
<path d="M-21.75,-8.5625L-21.75,-3.5625" stroke-width="1" stroke="rgba(0,100,0,1)" />
<path d="M-18.75,-8.5625L-18.75,-3.5625" stroke="rgba(0,100,0,1)" stroke-width="1" />
<path d="M-20.25,-2.0625L-20.25,-4.0625" stroke="rgba(0,100,0,1)" />
<path d="M-20.25,-11L-20.25,-13" stroke="rgba(0,100,0,1)" />
<path d="M-20.75,-13L-1,-13" stroke="rgba(0,100,0,1)" />
<path d="M-14.75,-14.5L-14.75,-14.5" />
<path d="M-14.75,-14.5L-13.75,-14.5L-13.75,-15.5L-14.75,-15.5L-14.75,-14.5" fill="rgba(0,0,0,0)" />
<path d="M-14.75,-15.5L-13.75,-15.5L-13.75,-16.5L-14.75,-16.5L-14.75,-15.5" fill="rgba(100,0,0,1)" />
<path d="M-14.75,-16.5L-13.75,-16.5L-13.75,-17.5L-14.75,-17.5L-14.75,-16.5" fill="rgba(100,0,0,1)" />
<path d="M-14.75,-17.5L-13.75,-17.5L-13.75,-18.5L-14.75,-18.5L-14.75,-17.5" fill="rgba(100,0,0,1)" />
<path d="M-14.75,-18.5L-13.75,-18.5L-13.75,-19.5L-14.75,-19.5L-14.75,-18.5" fill="rgba(0,0,0,0)" />
<path d="M-13.75,-14.5L-13.75,-14.5" />
<path d="M-13.75,-14.5L-12.75,-14.5L-12.75,-15.5L-13.75,-15.5L-13.75,-14.5" fill="rgba(100,0,0,1)" />
<path d="M-13.75,-15.5L-12.75,-15.5L-12.75,-16.5L-13.75,-16.5L-13.75,-15.5" fill="rgba(0,0,0,0)" />
<path d="M-13.75,-16.5L-12.75,-16.5L-12.75,-17.5L-13.75,-17.5L-13.75,-16.5" fill="rgba(0,0,0,0)" />
<path d="M-13.75,-17.5L-12.75,-17.5L-12.75,-18.5L-13.75,-18.5L-13.75,-17.5" fill="rgba(0,0,0,0)" />
<path d="M-13.75,-18.5L-12.75,-18.5L-12.75,-19.5L-13.75,-19.5L-13.75,-18.5" fill="rgba(100,0,0,1)" />
<path d="M-12.75,-14.5L-12.75,-14.5" />
<path d="M-12.75,-14.5L-11.75,-14.5L-11.75,-15.5L-12.75,-15.5L-12.75,-14.5" fill="rgba(100,0,0,1)" />
<path d="M-12.75,-15.5L-11.75,-15.5L-11.75,-16.5L-12.75,-16.5L-12.75,-15.5" fill="rgba(0,0,0,0)" />
<path d="M-12.75,-16.5L-11.75,-16.5L-11.75,-17.5L-12.75,-17.5L-12.75,-16.5" fill="rgba(0,0,0,0)" />
<path d="M-12.75,-17.5L-11.75,-17.5L-11.75,-18.5L-12.75,-18.5L-12.75,-17.5" fill="rgba(0,0,0,0)" />
<path d="M-12.75,-18.5L-11.75,-18.5L-11.75,-19.5L-12.75,-19.5L-12.75,-18.5" fill="rgba(100,0,0,1)" />
<path d="M-11.75,-14.5L-11.75,-14.5" />
<path d="M-11.75,-14.5L-10.75,-14.5L-10.75,-15.5L-11.75,-15.5L-11.75,-14.5" fill="rgba(0,0,0,0)" />
<path d="M-11.75,-15.5L-10.75,-15.5L-10.75,-16.5L-11.75,-16.5L-11.75,-15.5" fill="rgba(100,0,0,1)" />
<path d="M-11.75,-16.5L-10.75,-16.5L-10.75,-17.5L-11.75,-17.5L-11.75,-16.5" fill="rgba(100,0,0,1)" />
<path d="M-11.75,-17.5L-10.75,-17.5L-10.75,-18.5L-11.75,-18.5L-11.75,-17.5" fill="rgba(100,0,0,1)" />
<path d="M-11.75,-18.5L-10.75,-18.5L-10.75,-19.5L-11.75,-19.5L-11.75,-18.5" fill="rgba(0,0,0,0)" />
<path d="M-14.75,-19.5L-10.75,-19.5" stroke-width="1" stroke="rgba(0,100,0,1)" />
<path d="M-14.75,-14.5L-10.75,-14.5" stroke-width="1" stroke="rgba(0,100,0,1)" />
<path d="M-14.75,-19.5L-14.75,-14.5" stroke="rgba(0,100,0,1)" stroke-width="1" />
<path d="M-10.75,-19.5L-10.75,-14.5" stroke-width="1" stroke="rgba(0,100,0,1)" />
<path d="M-12.75,-13L-12.75,-15" stroke="rgba(0,100,0,1)" />
</svg>
