<svg xmlns="http://www.w3.org/2000/svg" viewBox="-0.5 -34.02225 40.38916666666667 34.52225">
<path d="M0,0L39.38916666666667,0L39.38916666666667,-33.52225L0,-33.52225L0,0" stroke="rgba(0,0,0,1)" fill="rgba(255,0,0,1)" stroke-width="0" />
<path d="M0,-14.36667857142857L39.38916666666667,-14.36667857142857L39.38916666666667,-19.155571428571427L0,-19.155571428571427L0,-14.36667857142857" fill="rgba(255,255,255,1)" stroke="rgba(0,0,0,1)" stroke-width="0" />
<path d="M11.651149899899902,-0L16.027723973973977,-0L16.027723973973977,-33.52225L11.651149899899902,-33.52225L11.651149899899902,-0" fill="rgba(255,255,255,1)" stroke="rgba(0,0,0,1)" stroke-width="0" />
<path d="M4.831125,-3.261125L1.7611249999999998,-9.261125L2.321125,-20.761125L6.791124999999999,-23.761125L14.061124999999999,-23.761125L17.421124999999996,-17.761125L12.381124999999999,-13.761125L11.821124999999999,-1.7611249999999998L4.831125,-3.261125" fill="rgba(0,155,0,0.7843137254901961)" />
<path d="M2.761125,-22.761125L4.4411249999999995,-25.761125L15.621125,-31.761125L15.621125,-28.761125L14.501124999999998,-24.761125L8.351125,-24.761125L2.761125,-22.761125" fill="rgba(0,155,0,0.7843137254901961)" />
<path d="M12.949124999999997,-9.761125L14.059124999999996,-5.761125L17.419124999999994,-4.761125L18.539125,-8.761125L17.419124999999994,-10.761125L12.949124999999997,-9.761125" fill="rgba(0,155,0,0.7843137254901961)" />
<path d="M20.439125,-8.261125L21.549125,-13.261125L28.819125,-15.261125L29.939125,-12.261125L27.709125,-8.261125L24.909125,-5.261125L20.439125,-8.261125" fill="rgba(0,155,0,0.7843137254901961)" />
<path d="M20.357703881373748,-5.276125L24.139026987416244,-3.8998359432575107L24.012777052207262,-2.2431027257901555L19.81047165205268,-3.7726168067425476L20.357703881373748,-5.276125" fill="rgba(0,155,0,0.7843137254901961)" />
<path d="M25.203281065932117,-3.3094672466606667L24.459811861366724,-2.366032277061329L24.649279628136878,-5.161400940646715L25.87729099943074,-4.646825317464884L25.203281065932117,-3.3094672466606667" fill="rgba(0,155,0,0.7843137254901961)" />
<path d="M33.461375000000004,-31.761125L33.461375000000004,-31.761125" />
<path d="M33.461375000000004,-31.761125L33.461375000000004,-30.92779166666667L34.294708333333325,-30.92779166666667L34.294708333333325,-31.761125L33.461375000000004,-31.761125" fill="rgba(0,155,0,0.7843137254901961)" />
<path d="M34.294708333333325,-31.761125L34.294708333333325,-30.92779166666667L35.12804166666667,-30.92779166666667L35.12804166666667,-31.761125L34.294708333333325,-31.761125" fill="rgba(0,155,0,0.7843137254901961)" />
<path d="M35.12804166666667,-31.761125L35.12804166666667,-30.92779166666667L35.961375,-30.92779166666667L35.961375,-31.761125L35.12804166666667,-31.761125" fill="rgba(0,155,0,0.7843137254901961)" />
<path d="M35.961375,-31.761125L35.961375,-30.92779166666667L36.794708333333325,-30.92779166666667L36.794708333333325,-31.761125L35.961375,-31.761125" fill="rgba(0,155,0,0.7843137254901961)" />
<path d="M36.794708333333325,-31.761125L36.794708333333325,-30.92779166666667L37.62804166666667,-30.92779166666667L37.62804166666667,-31.761125L36.794708333333325,-31.761125" fill="rgba(0,155,0,0.7843137254901961)" />
<path d="M33.461375000000004,-30.92779166666667L33.461375000000004,-30.92779166666667" />
<path d="M33.461375000000004,-30.92779166666667L33.461375000000004,-30.094458333333332L34.294708333333325,-30.094458333333332L34.294708333333325,-30.92779166666667L33.461375000000004,-30.92779166666667" fill="rgba(0,155,0,0.7843137254901961)" />
<path d="M34.294708333333325,-30.92779166666667L34.294708333333325,-30.094458333333332L35.12804166666667,-30.094458333333332L35.12804166666667,-30.92779166666667L34.294708333333325,-30.92779166666667" fill="rgba(0,0,0,0)" />
<path d="M35.12804166666667,-30.92779166666667L35.12804166666667,-30.094458333333332L35.961375,-30.094458333333332L35.961375,-30.92779166666667L35.12804166666667,-30.92779166666667" fill="rgba(0,0,0,0)" />
<path d="M35.961375,-30.92779166666667L35.961375,-30.094458333333332L36.794708333333325,-30.094458333333332L36.794708333333325,-30.92779166666667L35.961375,-30.92779166666667" fill="rgba(0,0,0,0)" />
<path d="M36.794708333333325,-30.92779166666667L36.794708333333325,-30.094458333333332L37.62804166666667,-30.094458333333332L37.62804166666667,-30.92779166666667L36.794708333333325,-30.92779166666667" fill="rgba(0,155,0,0.7843137254901961)" />
<path d="M33.461375000000004,-30.094458333333332L33.461375000000004,-30.094458333333332" />
<path d="M33.461375000000004,-30.094458333333332L33.461375000000004,-29.261125L34.294708333333325,-29.261125L34.294708333333325,-30.094458333333332L33.461375000000004,-30.094458333333332" fill="rgba(0,155,0,0.7843137254901961)" />
<path d="M34.294708333333325,-30.094458333333332L34.294708333333325,-29.261125L35.12804166666667,-29.261125L35.12804166666667,-30.094458333333332L34.294708333333325,-30.094458333333332" fill="rgba(0,0,0,0)" />
<path d="M35.12804166666667,-30.094458333333332L35.12804166666667,-29.261125L35.961375,-29.261125L35.961375,-30.094458333333332L35.12804166666667,-30.094458333333332" fill="rgba(0,0,0,0)" />
<path d="M35.961375,-30.094458333333332L35.961375,-29.261125L36.794708333333325,-29.261125L36.794708333333325,-30.094458333333332L35.961375,-30.094458333333332" fill="rgba(0,0,0,0)" />
<path d="M36.794708333333325,-30.094458333333332L36.794708333333325,-29.261125L37.62804166666667,-29.261125L37.62804166666667,-30.094458333333332L36.794708333333325,-30.094458333333332" fill="rgba(0,155,0,0.7843137254901961)" />
<path d="M33.461375000000004,-29.261125L33.461375000000004,-29.261125" />
<path d="M33.461375000000004,-29.261125L33.461375000000004,-28.427791666666668L34.294708333333325,-28.427791666666668L34.294708333333325,-29.261125L33.461375000000004,-29.261125" fill="rgba(0,0,0,0)" />
<path d="M34.294708333333325,-29.261125L34.294708333333325,-28.427791666666668L35.12804166666667,-28.427791666666668L35.12804166666667,-29.261125L34.294708333333325,-29.261125" fill="rgba(0,155,0,0.7843137254901961)" />
<path d="M35.12804166666667,-29.261125L35.12804166666667,-28.427791666666668L35.961375,-28.427791666666668L35.961375,-29.261125L35.12804166666667,-29.261125" fill="rgba(0,155,0,0.7843137254901961)" />
<path d="M35.961375,-29.261125L35.961375,-28.427791666666668L36.794708333333325,-28.427791666666668L36.794708333333325,-29.261125L35.961375,-29.261125" fill="rgba(0,155,0,0.7843137254901961)" />
<path d="M36.794708333333325,-29.261125L36.794708333333325,-28.427791666666668L37.62804166666667,-28.427791666666668L37.62804166666667,-29.261125L36.794708333333325,-29.261125" fill="rgba(0,0,0,0)" />
<path d="M33.461375000000004,-27.594458333333332L33.461375000000004,-27.594458333333332" />
<path d="M33.461375000000004,-27.594458333333332L33.461375000000004,-26.761125L34.294708333333325,-26.761125L34.294708333333325,-27.594458333333332L33.461375000000004,-27.594458333333332" fill="rgba(0,155,0,0.7843137254901961)" />
<path d="M34.294708333333325,-27.594458333333332L34.294708333333325,-26.761125L35.12804166666667,-26.761125L35.12804166666667,-27.594458333333332L34.294708333333325,-27.594458333333332" fill="rgba(0,155,0,0.7843137254901961)" />
<path d="M35.12804166666667,-27.594458333333332L35.12804166666667,-26.761125L35.961375,-26.761125L35.961375,-27.594458333333332L35.12804166666667,-27.594458333333332" fill="rgba(0,155,0,0.7843137254901961)" />
<path d="M35.961375,-27.594458333333332L35.961375,-26.761125L36.794708333333325,-26.761125L36.794708333333325,-27.594458333333332L35.961375,-27.594458333333332" fill="rgba(0,155,0,0.7843137254901961)" />
<path d="M36.794708333333325,-27.594458333333332L36.794708333333325,-26.761125L37.62804166666667,-26.761125L37.62804166666667,-27.594458333333332L36.794708333333325,-27.594458333333332" fill="rgba(0,155,0,0.7843137254901961)" />
<path d="M33.461375000000004,-26.761125L33.461375000000004,-26.761125" />
<path d="M33.461375000000004,-26.761125L33.461375000000004,-25.927791666666664L34.294708333333325,-25.927791666666664L34.294708333333325,-26.761125L33.461375000000004,-26.761125" fill="rgba(0,155,0,0.7843137254901961)" />
<path d="M34.294708333333325,-26.761125L34.294708333333325,-25.927791666666664L35.12804166666667,-25.927791666666664L35.12804166666667,-26.761125L34.294708333333325,-26.761125" fill="rgba(0,0,0,0)" />
<path d="M35.12804166666667,-26.761125L35.12804166666667,-25.927791666666664L35.961375,-25.927791666666664L35.961375,-26.761125L35.12804166666667,-26.761125" fill="rgba(0,155,0,0.7843137254901961)" />
<path d="M35.961375,-26.761125L35.961375,-25.927791666666664L36.794708333333325,-25.927791666666664L36.794708333333325,-26.761125L35.961375,-26.761125" fill="rgba(0,0,0,0)" />
<path d="M36.794708333333325,-26.761125L36.794708333333325,-25.927791666666664L37.62804166666667,-25.927791666666664L37.62804166666667,-26.761125L36.794708333333325,-26.761125" fill="rgba(0,155,0,0.7843137254901961)" />
<path d="M33.461375000000004,-25.927791666666664L33.461375000000004,-25.927791666666664" />
<path d="M33.461375000000004,-25.927791666666664L33.461375000000004,-25.094458333333332L34.294708333333325,-25.094458333333332L34.294708333333325,-25.927791666666664L33.461375000000004,-25.927791666666664" fill="rgba(0,155,0,0.7843137254901961)" />
<path d="M34.294708333333325,-25.927791666666664L34.294708333333325,-25.094458333333332L35.12804166666667,-25.094458333333332L35.12804166666667,-25.927791666666664L34.294708333333325,-25.927791666666664" fill="rgba(0,0,0,0)" />
<path d="M35.12804166666667,-25.927791666666664L35.12804166666667,-25.094458333333332L35.961375,-25.094458333333332L35.961375,-25.927791666666664L35.12804166666667,-25.927791666666664" fill="rgba(0,155,0,0.7843137254901961)" />
<path d="M35.961375,-25.927791666666664L35.961375,-25.094458333333332L36.794708333333325,-25.094458333333332L36.794708333333325,-25.927791666666664L35.961375,-25.927791666666664" fill="rgba(0,0,0,0)" />
<path d="M36.794708333333325,-25.927791666666664L36.794708333333325,-25.094458333333332L37.62804166666667,-25.094458333333332L37.62804166666667,-25.927791666666664L36.794708333333325,-25.927791666666664" fill="rgba(0,155,0,0.7843137254901961)" />
<path d="M33.461375000000004,-25.094458333333332L33.461375000000004,-25.094458333333332" />
<path d="M33.461375000000004,-25.094458333333332L33.461375000000004,-24.261125L34.294708333333325,-24.261125L34.294708333333325,-25.094458333333332L33.461375000000004,-25.094458333333332" fill="rgba(0,155,0,0.7843137254901961)" />
<path d="M34.294708333333325,-25.094458333333332L34.294708333333325,-24.261125L35.12804166666667,-24.261125L35.12804166666667,-25.094458333333332L34.294708333333325,-25.094458333333332" fill="rgba(0,0,0,0)" />
<path d="M35.12804166666667,-25.094458333333332L35.12804166666667,-24.261125L35.961375,-24.261125L35.961375,-25.094458333333332L35.12804166666667,-25.094458333333332" fill="rgba(0,155,0,0.7843137254901961)" />
<path d="M35.961375,-25.094458333333332L35.961375,-24.261125L36.794708333333325,-24.261125L36.794708333333325,-25.094458333333332L35.961375,-25.094458333333332" fill="rgba(0,0,0,0)" />
<path d="M36.794708333333325,-25.094458333333332L36.794708333333325,-24.261125L37.62804166666667,-24.261125L37.62804166666667,-25.094458333333332L36.794708333333325,-25.094458333333332" fill="rgba(0,155,0,0.7843137254901961)" />
<path d="M33.461375000000004,-23.427791666666664L33.461375000000004,-23.427791666666664" />
<path d="M33.461375000000004,-23.427791666666664L33.461375000000004,-22.594458333333332L34.294708333333325,-22.594458333333332L34.294708333333325,-23.427791666666664L33.461375000000004,-23.427791666666664" fill="rgba(0,155,0,0.7843137254901961)" />
<path d="M34.294708333333325,-23.427791666666664L34.294708333333325,-22.594458333333332L35.12804166666667,-22.594458333333332L35.12804166666667,-23.427791666666664L34.294708333333325,-23.427791666666664" fill="rgba(0,155,0,0.7843137254901961)" />
<path d="M35.12804166666667,-23.427791666666664L35.12804166666667,-22.594458333333332L35.961375,-22.594458333333332L35.961375,-23.427791666666664L35.12804166666667,-23.427791666666664" fill="rgba(0,155,0,0.7843137254901961)" />
<path d="M35.961375,-23.427791666666664L35.961375,-22.594458333333332L36.794708333333325,-22.594458333333332L36.794708333333325,-23.427791666666664L35.961375,-23.427791666666664" fill="rgba(0,155,0,0.7843137254901961)" />
<path d="M36.794708333333325,-23.427791666666664L36.794708333333325,-22.594458333333332L37.62804166666667,-22.594458333333332L37.62804166666667,-23.427791666666664L36.794708333333325,-23.427791666666664" fill="rgba(0,155,0,0.7843137254901961)" />
<path d="M33.461375000000004,-22.594458333333332L33.461375000000004,-22.594458333333332" />
<path d="M33.461375000000004,-22.594458333333332L33.461375000000004,-21.761125L34.294708333333325,-21.761125L34.294708333333325,-22.594458333333332L33.461375000000004,-22.594458333333332" fill="rgba(0,0,0,0)" />
<path d="M34.294708333333325,-22.594458333333332L34.294708333333325,-21.761125L35.12804166666667,-21.761125L35.12804166666667,-22.594458333333332L34.294708333333325,-22.594458333333332" fill="rgba(0,0,0,0)" />
<path d="M35.12804166666667,-22.594458333333332L35.12804166666667,-21.761125L35.961375,-21.761125L35.961375,-22.594458333333332L35.12804166666667,-22.594458333333332" fill="rgba(0,0,0,0)" />
<path d="M35.961375,-22.594458333333332L35.961375,-21.761125L36.794708333333325,-21.761125L36.794708333333325,-22.594458333333332L35.961375,-22.594458333333332" fill="rgba(0,155,0,0.7843137254901961)" />
<path d="M36.794708333333325,-22.594458333333332L36.794708333333325,-21.761125L37.62804166666667,-21.761125L37.62804166666667,-22.594458333333332L36.794708333333325,-22.594458333333332" fill="rgba(0,0,0,0)" />
<path d="M33.461375000000004,-21.761125L33.461375000000004,-21.761125" />
<path d="M33.461375000000004,-21.761125L33.461375000000004,-20.927791666666664L34.294708333333325,-20.927791666666664L34.294708333333325,-21.761125L33.461375000000004,-21.761125" fill="rgba(0,0,0,0)" />
<path d="M34.294708333333325,-21.761125L34.294708333333325,-20.927791666666664L35.12804166666667,-20.927791666666664L35.12804166666667,-21.761125L34.294708333333325,-21.761125" fill="rgba(0,0,0,0)" />
<path d="M35.12804166666667,-21.761125L35.12804166666667,-20.927791666666664L35.961375,-20.927791666666664L35.961375,-21.761125L35.12804166666667,-21.761125" fill="rgba(0,155,0,0.7843137254901961)" />
<path d="M35.961375,-21.761125L35.961375,-20.927791666666664L36.794708333333325,-20.927791666666664L36.794708333333325,-21.761125L35.961375,-21.761125" fill="rgba(0,0,0,0)" />
<path d="M36.794708333333325,-21.761125L36.794708333333325,-20.927791666666664L37.62804166666667,-20.927791666666664L37.62804166666667,-21.761125L36.794708333333325,-21.761125" fill="rgba(0,0,0,0)" />
<path d="M33.461375000000004,-20.927791666666664L33.461375000000004,-20.927791666666664" />
<path d="M33.461375000000004,-20.927791666666664L33.461375000000004,-20.094458333333332L34.294708333333325,-20.094458333333332L34.294708333333325,-20.927791666666664L33.461375000000004,-20.927791666666664" fill="rgba(0,0,0,0)" />
<path d="M34.294708333333325,-20.927791666666664L34.294708333333325,-20.094458333333332L35.12804166666667,-20.094458333333332L35.12804166666667,-20.927791666666664L34.294708333333325,-20.927791666666664" fill="rgba(0,155,0,0.7843137254901961)" />
<path d="M35.12804166666667,-20.927791666666664L35.12804166666667,-20.094458333333332L35.961375,-20.094458333333332L35.961375,-20.927791666666664L35.12804166666667,-20.927791666666664" fill="rgba(0,0,0,0)" />
<path d="M35.961375,-20.927791666666664L35.961375,-20.094458333333332L36.794708333333325,-20.094458333333332L36.794708333333325,-20.927791666666664L35.961375,-20.927791666666664" fill="rgba(0,0,0,0)" />
<path d="M36.794708333333325,-20.927791666666664L36.794708333333325,-20.094458333333332L37.62804166666667,-20.094458333333332L37.62804166666667,-20.927791666666664L36.794708333333325,-20.927791666666664" fill="rgba(0,0,0,0)" />
<path d="M33.461375000000004,-20.094458333333332L33.461375000000004,-20.094458333333332" />
<path d="M33.461375000000004,-20.094458333333332L33.461375000000004,-19.261125L34.294708333333325,-19.261125L34.294708333333325,-20.094458333333332L33.461375000000004,-20.094458333333332" fill="rgba(0,155,0,0.7843137254901961)" />
<path d="M34.294708333333325,-20.094458333333332L34.294708333333325,-19.261125L35.12804166666667,-19.261125L35.12804166666667,-20.094458333333332L34.294708333333325,-20.094458333333332" fill="rgba(0,155,0,0.7843137254901961)" />
<path d="M35.12804166666667,-20.094458333333332L35.12804166666667,-19.261125L35.961375,-19.261125L35.961375,-20.094458333333332L35.12804166666667,-20.094458333333332" fill="rgba(0,155,0,0.7843137254901961)" />
<path d="M35.961375,-20.094458333333332L35.961375,-19.261125L36.794708333333325,-19.261125L36.794708333333325,-20.094458333333332L35.961375,-20.094458333333332" fill="rgba(0,155,0,0.7843137254901961)" />
<path d="M36.794708333333325,-20.094458333333332L36.794708333333325,-19.261125L37.62804166666667,-19.261125L37.62804166666667,-20.094458333333332L36.794708333333325,-20.094458333333332" fill="rgba(0,155,0,0.7843137254901961)" />
<path d="M33.461375000000004,-18.427791666666664L33.461375000000004,-18.427791666666664" />
<path d="M33.461375000000004,-18.427791666666664L33.461375000000004,-17.594458333333332L34.294708333333325,-17.594458333333332L34.294708333333325,-18.427791666666664L33.461375000000004,-18.427791666666664" fill="rgba(0,155,0,0.7843137254901961)" />
<path d="M34.294708333333325,-18.427791666666664L34.294708333333325,-17.594458333333332L35.12804166666667,-17.594458333333332L35.12804166666667,-18.427791666666664L34.294708333333325,-18.427791666666664" fill="rgba(0,155,0,0.7843137254901961)" />
<path d="M35.12804166666667,-18.427791666666664L35.12804166666667,-17.594458333333332L35.961375,-17.594458333333332L35.961375,-18.427791666666664L35.12804166666667,-18.427791666666664" fill="rgba(0,155,0,0.7843137254901961)" />
<path d="M35.961375,-18.427791666666664L35.961375,-17.594458333333332L36.794708333333325,-17.594458333333332L36.794708333333325,-18.427791666666664L35.961375,-18.427791666666664" fill="rgba(0,155,0,0.7843137254901961)" />
<path d="M36.794708333333325,-18.427791666666664L36.794708333333325,-17.594458333333332L37.62804166666667,-17.594458333333332L37.62804166666667,-18.427791666666664L36.794708333333325,-18.427791666666664" fill="rgba(0,155,0,0.7843137254901961)" />
<path d="M33.461375000000004,-17.594458333333332L33.461375000000004,-17.594458333333332" />
<path d="M33.461375000000004,-17.594458333333332L33.461375000000004,-16.761125L34.294708333333325,-16.761125L34.294708333333325,-17.594458333333332L33.461375000000004,-17.594458333333332" fill="rgba(0,0,0,0)" />
<path d="M34.294708333333325,-17.594458333333332L34.294708333333325,-16.761125L35.12804166666667,-16.761125L35.12804166666667,-17.594458333333332L34.294708333333325,-17.594458333333332" fill="rgba(0,0,0,0)" />
<path d="M35.12804166666667,-17.594458333333332L35.12804166666667,-16.761125L35.961375,-16.761125L35.961375,-17.594458333333332L35.12804166666667,-17.594458333333332" fill="rgba(0,0,0,0)" />
<path d="M35.961375,-17.594458333333332L35.961375,-16.761125L36.794708333333325,-16.761125L36.794708333333325,-17.594458333333332L35.961375,-17.594458333333332" fill="rgba(0,155,0,0.7843137254901961)" />
<path d="M36.794708333333325,-17.594458333333332L36.794708333333325,-16.761125L37.62804166666667,-16.761125L37.62804166666667,-17.594458333333332L36.794708333333325,-17.594458333333332" fill="rgba(0,0,0,0)" />
<path d="M33.461375000000004,-16.761125L33.461375000000004,-16.761125" />
<path d="M33.461375000000004,-16.761125L33.461375000000004,-15.927791666666664L34.294708333333325,-15.927791666666664L34.294708333333325,-16.761125L33.461375000000004,-16.761125" fill="rgba(0,0,0,0)" />
<path d="M34.294708333333325,-16.761125L34.294708333333325,-15.927791666666664L35.12804166666667,-15.927791666666664L35.12804166666667,-16.761125L34.294708333333325,-16.761125" fill="rgba(0,0,0,0)" />
<path d="M35.12804166666667,-16.761125L35.12804166666667,-15.927791666666664L35.961375,-15.927791666666664L35.961375,-16.761125L35.12804166666667,-16.761125" fill="rgba(0,155,0,0.7843137254901961)" />
<path d="M35.961375,-16.761125L35.961375,-15.927791666666664L36.794708333333325,-15.927791666666664L36.794708333333325,-16.761125L35.961375,-16.761125" fill="rgba(0,0,0,0)" />
<path d="M36.794708333333325,-16.761125L36.794708333333325,-15.927791666666664L37.62804166666667,-15.927791666666664L37.62804166666667,-16.761125L36.794708333333325,-16.761125" fill="rgba(0,0,0,0)" />
<path d="M33.461375000000004,-15.927791666666664L33.461375000000004,-15.927791666666664" />
<path d="M33.461375000000004,-15.927791666666664L33.461375000000004,-15.094458333333332L34.294708333333325,-15.094458333333332L34.294708333333325,-15.927791666666664L33.461375000000004,-15.927791666666664" fill="rgba(0,0,0,0)" />
<path d="M34.294708333333325,-15.927791666666664L34.294708333333325,-15.094458333333332L35.12804166666667,-15.094458333333332L35.12804166666667,-15.927791666666664L34.294708333333325,-15.927791666666664" fill="rgba(0,0,0,0)" />
<path d="M35.12804166666667,-15.927791666666664L35.12804166666667,-15.094458333333332L35.961375,-15.094458333333332L35.961375,-15.927791666666664L35.12804166666667,-15.927791666666664" fill="rgba(0,0,0,0)" />
<path d="M35.961375,-15.927791666666664L35.961375,-15.094458333333332L36.794708333333325,-15.094458333333332L36.794708333333325,-15.927791666666664L35.961375,-15.927791666666664" fill="rgba(0,155,0,0.7843137254901961)" />
<path d="M36.794708333333325,-15.927791666666664L36.794708333333325,-15.094458333333332L37.62804166666667,-15.094458333333332L37.62804166666667,-15.927791666666664L36.794708333333325,-15.927791666666664" fill="rgba(0,0,0,0)" />
<path d="M33.461375000000004,-15.094458333333332L33.461375000000004,-15.094458333333332" />
<path d="M33.461375000000004,-15.094458333333332L33.461375000000004,-14.261125L34.294708333333325,-14.261125L34.294708333333325,-15.094458333333332L33.461375000000004,-15.094458333333332" fill="rgba(0,155,0,0.7843137254901961)" />
<path d="M34.294708333333325,-15.094458333333332L34.294708333333325,-14.261125L35.12804166666667,-14.261125L35.12804166666667,-15.094458333333332L34.294708333333325,-15.094458333333332" fill="rgba(0,155,0,0.7843137254901961)" />
<path d="M35.12804166666667,-15.094458333333332L35.12804166666667,-14.261125L35.961375,-14.261125L35.961375,-15.094458333333332L35.12804166666667,-15.094458333333332" fill="rgba(0,155,0,0.7843137254901961)" />
<path d="M35.961375,-15.094458333333332L35.961375,-14.261125L36.794708333333325,-14.261125L36.794708333333325,-15.094458333333332L35.961375,-15.094458333333332" fill="rgba(0,155,0,0.7843137254901961)" />
<path d="M36.794708333333325,-15.094458333333332L36.794708333333325,-14.261125L37.62804166666667,-14.261125L37.62804166666667,-15.094458333333332L36.794708333333325,-15.094458333333332" fill="rgba(0,155,0,0.7843137254901961)" />
<path d="M33.461375000000004,-13.427791666666664L33.461375000000004,-13.427791666666664" />
<path d="M33.461375000000004,-13.427791666666664L33.461375000000004,-12.594458333333332L34.294708333333325,-12.594458333333332L34.294708333333325,-13.427791666666664L33.461375000000004,-13.427791666666664" fill="rgba(0,155,0,0.7843137254901961)" />
<path d="M34.294708333333325,-13.427791666666664L34.294708333333325,-12.594458333333332L35.12804166666667,-12.594458333333332L35.12804166666667,-13.427791666666664L34.294708333333325,-13.427791666666664" fill="rgba(0,155,0,0.7843137254901961)" />
<path d="M35.12804166666667,-13.427791666666664L35.12804166666667,-12.594458333333332L35.961375,-12.594458333333332L35.961375,-13.427791666666664L35.12804166666667,-13.427791666666664" fill="rgba(0,155,0,0.7843137254901961)" />
<path d="M35.961375,-13.427791666666664L35.961375,-12.594458333333332L36.794708333333325,-12.594458333333332L36.794708333333325,-13.427791666666664L35.961375,-13.427791666666664" fill="rgba(0,155,0,0.7843137254901961)" />
<path d="M36.794708333333325,-13.427791666666664L36.794708333333325,-12.594458333333332L37.62804166666667,-12.594458333333332L37.62804166666667,-13.427791666666664L36.794708333333325,-13.427791666666664" fill="rgba(0,0,0,0)" />
<path d="M33.461375000000004,-12.594458333333332L33.461375000000004,-12.594458333333332" />
<path d="M33.461375000000004,-12.594458333333332L33.461375000000004,-11.761125L34.294708333333325,-11.761125L34.294708333333325,-12.594458333333332L33.461375000000004,-12.594458333333332" fill="rgba(0,0,0,0)" />
<path d="M34.294708333333325,-12.594458333333332L34.294708333333325,-11.761125L35.12804166666667,-11.761125L35.12804166666667,-12.594458333333332L34.294708333333325,-12.594458333333332" fill="rgba(0,155,0,0.7843137254901961)" />
<path d="M35.12804166666667,-12.594458333333332L35.12804166666667,-11.761125L35.961375,-11.761125L35.961375,-12.594458333333332L35.12804166666667,-12.594458333333332" fill="rgba(0,0,0,0)" />
<path d="M35.961375,-12.594458333333332L35.961375,-11.761125L36.794708333333325,-11.761125L36.794708333333325,-12.594458333333332L35.961375,-12.594458333333332" fill="rgba(0,0,0,0)" />
<path d="M36.794708333333325,-12.594458333333332L36.794708333333325,-11.761125L37.62804166666667,-11.761125L37.62804166666667,-12.594458333333332L36.794708333333325,-12.594458333333332" fill="rgba(0,155,0,0.7843137254901961)" />
<path d="M33.461375000000004,-11.761125L33.461375000000004,-11.761125" />
<path d="M33.461375000000004,-11.761125L33.461375000000004,-10.927791666666664L34.294708333333325,-10.927791666666664L34.294708333333325,-11.761125L33.461375000000004,-11.761125" fill="rgba(0,0,0,0)" />
<path d="M34.294708333333325,-11.761125L34.294708333333325,-10.927791666666664L35.12804166666667,-10.927791666666664L35.12804166666667,-11.761125L34.294708333333325,-11.761125" fill="rgba(0,155,0,0.7843137254901961)" />
<path d="M35.12804166666667,-11.761125L35.12804166666667,-10.927791666666664L35.961375,-10.927791666666664L35.961375,-11.761125L35.12804166666667,-11.761125" fill="rgba(0,0,0,0)" />
<path d="M35.961375,-11.761125L35.961375,-10.927791666666664L36.794708333333325,-10.927791666666664L36.794708333333325,-11.761125L35.961375,-11.761125" fill="rgba(0,0,0,0)" />
<path d="M36.794708333333325,-11.761125L36.794708333333325,-10.927791666666664L37.62804166666667,-10.927791666666664L37.62804166666667,-11.761125L36.794708333333325,-11.761125" fill="rgba(0,155,0,0.7843137254901961)" />
<path d="M33.461375000000004,-10.927791666666664L33.461375000000004,-10.927791666666664" />
<path d="M33.461375000000004,-10.927791666666664L33.461375000000004,-10.094458333333332L34.294708333333325,-10.094458333333332L34.294708333333325,-10.927791666666664L33.461375000000004,-10.927791666666664" fill="rgba(0,155,0,0.7843137254901961)" />
<path d="M34.294708333333325,-10.927791666666664L34.294708333333325,-10.094458333333332L35.12804166666667,-10.094458333333332L35.12804166666667,-10.927791666666664L34.294708333333325,-10.927791666666664" fill="rgba(0,155,0,0.7843137254901961)" />
<path d="M35.12804166666667,-10.927791666666664L35.12804166666667,-10.094458333333332L35.961375,-10.094458333333332L35.961375,-10.927791666666664L35.12804166666667,-10.927791666666664" fill="rgba(0,155,0,0.7843137254901961)" />
<path d="M35.961375,-10.927791666666664L35.961375,-10.094458333333332L36.794708333333325,-10.094458333333332L36.794708333333325,-10.927791666666664L35.961375,-10.927791666666664" fill="rgba(0,155,0,0.7843137254901961)" />
<path d="M36.794708333333325,-10.927791666666664L36.794708333333325,-10.094458333333332L37.62804166666667,-10.094458333333332L37.62804166666667,-10.927791666666664L36.794708333333325,-10.927791666666664" fill="rgba(0,0,0,0)" />
<path d="M33.461375000000004,-9.261125L33.461375000000004,-9.261125" />
<path d="M33.461375000000004,-9.261125L33.461375000000004,-8.427791666666664L34.294708333333325,-8.427791666666664L34.294708333333325,-9.261125L33.461375000000004,-9.261125" fill="rgba(0,155,0,0.7843137254901961)" />
<path d="M34.294708333333325,-9.261125L34.294708333333325,-8.427791666666664L35.12804166666667,-8.427791666666664L35.12804166666667,-9.261125L34.294708333333325,-9.261125" fill="rgba(0,155,0,0.7843137254901961)" />
<path d="M35.12804166666667,-9.261125L35.12804166666667,-8.427791666666664L35.961375,-8.427791666666664L35.961375,-9.261125L35.12804166666667,-9.261125" fill="rgba(0,155,0,0.7843137254901961)" />
<path d="M35.961375,-9.261125L35.961375,-8.427791666666664L36.794708333333325,-8.427791666666664L36.794708333333325,-9.261125L35.961375,-9.261125" fill="rgba(0,155,0,0.7843137254901961)" />
<path d="M36.794708333333325,-9.261125L36.794708333333325,-8.427791666666664L37.62804166666667,-8.427791666666664L37.62804166666667,-9.261125L36.794708333333325,-9.261125" fill="rgba(0,155,0,0.7843137254901961)" />
<path d="M33.461375000000004,-8.427791666666664L33.461375000000004,-8.427791666666664" />
<path d="M33.461375000000004,-8.427791666666664L33.461375000000004,-7.594458333333332L34.294708333333325,-7.594458333333332L34.294708333333325,-8.427791666666664L33.461375000000004,-8.427791666666664" fill="rgba(0,0,0,0)" />
<path d="M34.294708333333325,-8.427791666666664L34.294708333333325,-7.594458333333332L35.12804166666667,-7.594458333333332L35.12804166666667,-8.427791666666664L34.294708333333325,-8.427791666666664" fill="rgba(0,0,0,0)" />
<path d="M35.12804166666667,-8.427791666666664L35.12804166666667,-7.594458333333332L35.961375,-7.594458333333332L35.961375,-8.427791666666664L35.12804166666667,-8.427791666666664" fill="rgba(0,155,0,0.7843137254901961)" />
<path d="M35.961375,-8.427791666666664L35.961375,-7.594458333333332L36.794708333333325,-7.594458333333332L36.794708333333325,-8.427791666666664L35.961375,-8.427791666666664" fill="rgba(0,0,0,0)" />
<path d="M36.794708333333325,-8.427791666666664L36.794708333333325,-7.594458333333332L37.62804166666667,-7.594458333333332L37.62804166666667,-8.427791666666664L36.794708333333325,-8.427791666666664" fill="rgba(0,155,0,0.7843137254901961)" />
<path d="M33.461375000000004,-7.594458333333332L33.461375000000004,-7.594458333333332" />
<path d="M33.461375000000004,-7.594458333333332L33.461375000000004,-6.761125L34.294708333333325,-6.761125L34.294708333333325,-7.594458333333332L33.461375000000004,-7.594458333333332" fill="rgba(0,0,0,0)" />
<path d="M34.294708333333325,-7.594458333333332L34.294708333333325,-6.761125L35.12804166666667,-6.761125L35.12804166666667,-7.594458333333332L34.294708333333325,-7.594458333333332" fill="rgba(0,155,0,0.7843137254901961)" />
<path d="M35.12804166666667,-7.594458333333332L35.12804166666667,-6.761125L35.961375,-6.761125L35.961375,-7.594458333333332L35.12804166666667,-7.594458333333332" fill="rgba(0,155,0,0.7843137254901961)" />
<path d="M35.961375,-7.594458333333332L35.961375,-6.761125L36.794708333333325,-6.761125L36.794708333333325,-7.594458333333332L35.961375,-7.594458333333332" fill="rgba(0,0,0,0)" />
<path d="M36.794708333333325,-7.594458333333332L36.794708333333325,-6.761125L37.62804166666667,-6.761125L37.62804166666667,-7.594458333333332L36.794708333333325,-7.594458333333332" fill="rgba(0,155,0,0.7843137254901961)" />
<path d="M33.461375000000004,-6.761125L33.461375000000004,-6.761125" />
<path d="M33.461375000000004,-6.761125L33.461375000000004,-5.927791666666664L34.294708333333325,-5.927791666666664L34.294708333333325,-6.761125L33.461375000000004,-6.761125" fill="rgba(0,155,0,0.7843137254901961)" />
<path d="M34.294708333333325,-6.761125L34.294708333333325,-5.927791666666664L35.12804166666667,-5.927791666666664L35.12804166666667,-6.761125L34.294708333333325,-6.761125" fill="rgba(0,0,0,0)" />
<path d="M35.12804166666667,-6.761125L35.12804166666667,-5.927791666666664L35.961375,-5.927791666666664L35.961375,-6.761125L35.12804166666667,-6.761125" fill="rgba(0,155,0,0.7843137254901961)" />
<path d="M35.961375,-6.761125L35.961375,-5.927791666666664L36.794708333333325,-5.927791666666664L36.794708333333325,-6.761125L35.961375,-6.761125" fill="rgba(0,155,0,0.7843137254901961)" />
<path d="M36.794708333333325,-6.761125L36.794708333333325,-5.927791666666664L37.62804166666667,-5.927791666666664L37.62804166666667,-6.761125L36.794708333333325,-6.761125" fill="rgba(0,155,0,0.7843137254901961)" />
<path d="M33.461375000000004,-5.094458333333332L33.461375000000004,-5.094458333333332" />
<path d="M33.461375000000004,-5.094458333333332L33.461375000000004,-4.261125L34.294708333333325,-4.261125L34.294708333333325,-5.094458333333332L33.461375000000004,-5.094458333333332" fill="rgba(0,155,0,0.7843137254901961)" />
<path d="M34.294708333333325,-5.094458333333332L34.294708333333325,-4.261125L35.12804166666667,-4.261125L35.12804166666667,-5.094458333333332L34.294708333333325,-5.094458333333332" fill="rgba(0,155,0,0.7843137254901961)" />
<path d="M35.12804166666667,-5.094458333333332L35.12804166666667,-4.261125L35.961375,-4.261125L35.961375,-5.094458333333332L35.12804166666667,-5.094458333333332" fill="rgba(0,155,0,0.7843137254901961)" />
<path d="M35.961375,-5.094458333333332L35.961375,-4.261125L36.794708333333325,-4.261125L36.794708333333325,-5.094458333333332L35.961375,-5.094458333333332" fill="rgba(0,155,0,0.7843137254901961)" />
<path d="M36.794708333333325,-5.094458333333332L36.794708333333325,-4.261125L37.62804166666667,-4.261125L37.62804166666667,-5.094458333333332L36.794708333333325,-5.094458333333332" fill="rgba(0,155,0,0.7843137254901961)" />
<path d="M33.461375000000004,-4.261125L33.461375000000004,-4.261125" />
<path d="M33.461375000000004,-4.261125L33.461375000000004,-3.427791666666664L34.294708333333325,-3.427791666666664L34.294708333333325,-4.261125L33.461375000000004,-4.261125" fill="rgba(0,0,0,0)" />
<path d="M34.294708333333325,-4.261125L34.294708333333325,-3.427791666666664L35.12804166666667,-3.427791666666664L35.12804166666667,-4.261125L34.294708333333325,-4.261125" fill="rgba(0,0,0,0)" />
<path d="M35.12804166666667,-4.261125L35.12804166666667,-3.427791666666664L35.961375,-3.427791666666664L35.961375,-4.261125L35.12804166666667,-4.261125" fill="rgba(0,155,0,0.7843137254901961)" />
<path d="M35.961375,-4.261125L35.961375,-3.427791666666664L36.794708333333325,-3.427791666666664L36.794708333333325,-4.261125L35.961375,-4.261125" fill="rgba(0,0,0,0)" />
<path d="M36.794708333333325,-4.261125L36.794708333333325,-3.427791666666664L37.62804166666667,-3.427791666666664L37.62804166666667,-4.261125L36.794708333333325,-4.261125" fill="rgba(0,0,0,0)" />
<path d="M33.461375000000004,-3.427791666666664L33.461375000000004,-3.427791666666664" />
<path d="M33.461375000000004,-3.427791666666664L33.461375000000004,-2.594458333333332L34.294708333333325,-2.594458333333332L34.294708333333325,-3.427791666666664L33.461375000000004,-3.427791666666664" fill="rgba(0,0,0,0)" />
<path d="M34.294708333333325,-3.427791666666664L34.294708333333325,-2.594458333333332L35.12804166666667,-2.594458333333332L35.12804166666667,-3.427791666666664L34.294708333333325,-3.427791666666664" fill="rgba(0,0,0,0)" />
<path d="M35.12804166666667,-3.427791666666664L35.12804166666667,-2.594458333333332L35.961375,-2.594458333333332L35.961375,-3.427791666666664L35.12804166666667,-3.427791666666664" fill="rgba(0,155,0,0.7843137254901961)" />
<path d="M35.961375,-3.427791666666664L35.961375,-2.594458333333332L36.794708333333325,-2.594458333333332L36.794708333333325,-3.427791666666664L35.961375,-3.427791666666664" fill="rgba(0,155,0,0.7843137254901961)" />
<path d="M36.794708333333325,-3.427791666666664L36.794708333333325,-2.594458333333332L37.62804166666667,-2.594458333333332L37.62804166666667,-3.427791666666664L36.794708333333325,-3.427791666666664" fill="rgba(0,0,0,0)" />
<path d="M33.461375000000004,-2.594458333333332L33.461375000000004,-2.594458333333332" />
<path d="M33.461375000000004,-2.594458333333332L33.461375000000004,-1.7611249999999998L34.294708333333325,-1.7611249999999998L34.294708333333325,-2.594458333333332L33.461375000000004,-2.594458333333332" fill="rgba(0,155,0,0.7843137254901961)" />
<path d="M34.294708333333325,-2.594458333333332L34.294708333333325,-1.7611249999999998L35.12804166666667,-1.7611249999999998L35.12804166666667,-2.594458333333332L34.294708333333325,-2.594458333333332" fill="rgba(0,155,0,0.7843137254901961)" />
<path d="M35.12804166666667,-2.594458333333332L35.12804166666667,-1.7611249999999998L35.961375,-1.7611249999999998L35.961375,-2.594458333333332L35.12804166666667,-2.594458333333332" fill="rgba(0,0,0,0)" />
<path d="M35.961375,-2.594458333333332L35.961375,-1.7611249999999998L36.794708333333325,-1.7611249999999998L36.794708333333325,-2.594458333333332L35.961375,-2.594458333333332" fill="rgba(0,155,0,0.7843137254901961)" />
<path d="M36.794708333333325,-2.594458333333332L36.794708333333325,-1.7611249999999998L37.62804166666667,-1.7611249999999998L37.62804166666667,-2.594458333333332L36.794708333333325,-2.594458333333332" fill="rgba(0,155,0,0.7843137254901961)" />
</svg>
