<svg xmlns="http://www.w3.org/2000/svg" viewBox="-0.5 -34.02225 41.061209677419356 34.52225">
<path d="M0,0L40.061209677419356,0L40.061209677419356,-33.52225L0,-33.52225L0,0" stroke-width="0" stroke="rgba(0,0,0,1)" fill="rgba(0,0,255,1)" />
<path d="M0,-14.36667857142857L40.061209677419356,-14.36667857142857L40.061209677419356,-19.155571428571427L0,-19.155571428571427L0,-14.36667857142857" fill="rgba(255,255,0,1)" stroke="rgba(0,0,0,1)" stroke-width="0" />
<path d="M11.849937397074495,-0L16.301182916787756,-0L16.301182916787756,-33.52225L11.849937397074495,-33.52225L11.849937397074495,-0" stroke="rgba(0,0,0,1)" stroke-width="0" fill="rgba(255,255,0,1)" />
<path d="M4.831125,-3.261125L1.7611249999999998,-9.261125L2.321125,-20.761125L6.791124999999999,-23.761125L14.061124999999999,-23.761125L17.421124999999996,-17.761125L12.381124999999999,-13.761125L11.821124999999999,-1.7611249999999998L4.831125,-3.261125" fill="rgba(0,155,0,0.7843137254901961)" />
<path d="M2.761125,-22.761125L4.4411249999999995,-25.761125L15.621125,-31.761125L15.621125,-28.761125L14.501124999999998,-24.761125L8.351125,-24.761125L2.761125,-22.761125" fill="rgba(0,155,0,0.7843137254901961)" />
<path d="M12.949124999999997,-9.761125L14.059124999999996,-5.761125L17.419124999999994,-4.761125L18.539125,-8.761125L17.419124999999994,-10.761125L12.949124999999997,-9.761125" fill="rgba(0,155,0,0.7843137254901961)" />
<path d="M20.439125,-8.261125L21.549125,-13.261125L28.819125,-15.261125L29.939125,-12.261125L27.709125,-8.261125L24.909125,-5.261125L20.439125,-8.261125" fill="rgba(0,155,0,0.7843137254901961)" />
<path d="M20.357703881373748,-5.276125L24.139026987416244,-3.8998359432575107L24.012777052207262,-2.2431027257901555L19.81047165205268,-3.7726168067425476L20.357703881373748,-5.276125" fill="rgba(0,155,0,0.7843137254901961)" />
<path d="M25.203281065932117,-3.3094672466606667L24.459811861366724,-2.366032277061329L24.649279628136878,-5.161400940646715L25.87729099943074,-4.646825317464884L25.203281065932117,-3.3094672466606667" fill="rgba(0,155,0,0.7843137254901961)" />
<path d="M33.461375000000004,-31.761125L33.461375000000004,-31.761125" />
<path d="M33.461375000000004,-31.761125L33.461375000000004,-30.793383064516128L34.42911693548387,-30.793383064516128L34.42911693548387,-31.761125L33.461375000000004,-31.761125" fill="rgba(0,155,0,0.7843137254901961)" />
<path d="M34.42911693548387,-31.761125L34.42911693548387,-30.793383064516128L35.39685887096774,-30.793383064516128L35.39685887096774,-31.761125L34.42911693548387,-31.761125" fill="rgba(0,0,0,0)" />
<path d="M35.39685887096774,-31.761125L35.39685887096774,-30.793383064516128L36.36460080645161,-30.793383064516128L36.36460080645161,-31.761125L35.39685887096774,-31.761125" fill="rgba(0,155,0,0.7843137254901961)" />
<path d="M36.36460080645161,-31.761125L36.36460080645161,-30.793383064516128L37.332342741935484,-30.793383064516128L37.332342741935484,-31.761125L36.36460080645161,-31.761125" fill="rgba(0,155,0,0.7843137254901961)" />
<path d="M37.332342741935484,-31.761125L37.332342741935484,-30.793383064516128L38.300084677419356,-30.793383064516128L38.300084677419356,-31.761125L37.332342741935484,-31.761125" fill="rgba(0,0,0,0)" />
<path d="M33.461375000000004,-30.793383064516128L33.461375000000004,-30.793383064516128" />
<path d="M33.461375000000004,-30.793383064516128L33.461375000000004,-29.825641129032256L34.42911693548387,-29.825641129032256L34.42911693548387,-30.793383064516128L33.461375000000004,-30.793383064516128" fill="rgba(0,155,0,0.7843137254901961)" />
<path d="M34.42911693548387,-30.793383064516128L34.42911693548387,-29.825641129032256L35.39685887096774,-29.825641129032256L35.39685887096774,-30.793383064516128L34.42911693548387,-30.793383064516128" fill="rgba(0,0,0,0)" />
<path d="M35.39685887096774,-30.793383064516128L35.39685887096774,-29.825641129032256L36.36460080645161,-29.825641129032256L36.36460080645161,-30.793383064516128L35.39685887096774,-30.793383064516128" fill="rgba(0,155,0,0.7843137254901961)" />
<path d="M36.36460080645161,-30.793383064516128L36.36460080645161,-29.825641129032256L37.332342741935484,-29.825641129032256L37.332342741935484,-30.793383064516128L36.36460080645161,-30.793383064516128" fill="rgba(0,0,0,0)" />
<path d="M37.332342741935484,-30.793383064516128L37.332342741935484,-29.825641129032256L38.300084677419356,-29.825641129032256L38.300084677419356,-30.793383064516128L37.332342741935484,-30.793383064516128" fill="rgba(0,155,0,0.7843137254901961)" />
<path d="M33.461375000000004,-29.825641129032256L33.461375000000004,-29.825641129032256" />
<path d="M33.461375000000004,-29.825641129032256L33.461375000000004,-28.857899193548388L34.42911693548387,-28.857899193548388L34.42911693548387,-29.825641129032256L33.461375000000004,-29.825641129032256" fill="rgba(0,155,0,0.7843137254901961)" />
<path d="M34.42911693548387,-29.825641129032256L34.42911693548387,-28.857899193548388L35.39685887096774,-28.857899193548388L35.39685887096774,-29.825641129032256L34.42911693548387,-29.825641129032256" fill="rgba(0,0,0,0)" />
<path d="M35.39685887096774,-29.825641129032256L35.39685887096774,-28.857899193548388L36.36460080645161,-28.857899193548388L36.36460080645161,-29.825641129032256L35.39685887096774,-29.825641129032256" fill="rgba(0,155,0,0.7843137254901961)" />
<path d="M36.36460080645161,-29.825641129032256L36.36460080645161,-28.857899193548388L37.332342741935484,-28.857899193548388L37.332342741935484,-29.825641129032256L36.36460080645161,-29.825641129032256" fill="rgba(0,0,0,0)" />
<path d="M37.332342741935484,-29.825641129032256L37.332342741935484,-28.857899193548388L38.300084677419356,-28.857899193548388L38.300084677419356,-29.825641129032256L37.332342741935484,-29.825641129032256" fill="rgba(0,155,0,0.7843137254901961)" />
<path d="M33.461375000000004,-28.857899193548388L33.461375000000004,-28.857899193548388" />
<path d="M33.461375000000004,-28.857899193548388L33.461375000000004,-27.890157258064516L34.42911693548387,-27.890157258064516L34.42911693548387,-28.857899193548388L33.461375000000004,-28.857899193548388" fill="rgba(0,155,0,0.7843137254901961)" />
<path d="M34.42911693548387,-28.857899193548388L34.42911693548387,-27.890157258064516L35.39685887096774,-27.890157258064516L35.39685887096774,-28.857899193548388L34.42911693548387,-28.857899193548388" fill="rgba(0,155,0,0.7843137254901961)" />
<path d="M35.39685887096774,-28.857899193548388L35.39685887096774,-27.890157258064516L36.36460080645161,-27.890157258064516L36.36460080645161,-28.857899193548388L35.39685887096774,-28.857899193548388" fill="rgba(0,155,0,0.7843137254901961)" />
<path d="M36.36460080645161,-28.857899193548388L36.36460080645161,-27.890157258064516L37.332342741935484,-27.890157258064516L37.332342741935484,-28.857899193548388L36.36460080645161,-28.857899193548388" fill="rgba(0,0,0,0)" />
<path d="M37.332342741935484,-28.857899193548388L37.332342741935484,-27.890157258064516L38.300084677419356,-27.890157258064516L38.300084677419356,-28.857899193548388L37.332342741935484,-28.857899193548388" fill="rgba(0,155,0,0.7843137254901961)" />
<path d="M33.461375000000004,-26.922415322580644L33.461375000000004,-26.922415322580644" />
<path d="M33.461375000000004,-26.922415322580644L33.461375000000004,-25.954673387096776L34.42911693548387,-25.954673387096776L34.42911693548387,-26.922415322580644L33.461375000000004,-26.922415322580644" fill="rgba(0,0,0,0)" />
<path d="M34.42911693548387,-26.922415322580644L34.42911693548387,-25.954673387096776L35.39685887096774,-25.954673387096776L35.39685887096774,-26.922415322580644L34.42911693548387,-26.922415322580644" fill="rgba(0,155,0,0.7843137254901961)" />
<path d="M35.39685887096774,-26.922415322580644L35.39685887096774,-25.954673387096776L36.36460080645161,-25.954673387096776L36.36460080645161,-26.922415322580644L35.39685887096774,-26.922415322580644" fill="rgba(0,155,0,0.7843137254901961)" />
<path d="M36.36460080645161,-26.922415322580644L36.36460080645161,-25.954673387096776L37.332342741935484,-25.954673387096776L37.332342741935484,-26.922415322580644L36.36460080645161,-26.922415322580644" fill="rgba(0,155,0,0.7843137254901961)" />
<path d="M37.332342741935484,-26.922415322580644L37.332342741935484,-25.954673387096776L38.300084677419356,-25.954673387096776L38.300084677419356,-26.922415322580644L37.332342741935484,-26.922415322580644" fill="rgba(0,155,0,0.7843137254901961)" />
<path d="M33.461375000000004,-25.954673387096776L33.461375000000004,-25.954673387096776" />
<path d="M33.461375000000004,-25.954673387096776L33.461375000000004,-24.986931451612904L34.42911693548387,-24.986931451612904L34.42911693548387,-25.954673387096776L33.461375000000004,-25.954673387096776" fill="rgba(0,155,0,0.7843137254901961)" />
<path d="M34.42911693548387,-25.954673387096776L34.42911693548387,-24.986931451612904L35.39685887096774,-24.986931451612904L35.39685887096774,-25.954673387096776L34.42911693548387,-25.954673387096776" fill="rgba(0,0,0,0)" />
<path d="M35.39685887096774,-25.954673387096776L35.39685887096774,-24.986931451612904L36.36460080645161,-24.986931451612904L36.36460080645161,-25.954673387096776L35.39685887096774,-25.954673387096776" fill="rgba(0,0,0,0)" />
<path d="M36.36460080645161,-25.954673387096776L36.36460080645161,-24.986931451612904L37.332342741935484,-24.986931451612904L37.332342741935484,-25.954673387096776L36.36460080645161,-25.954673387096776" fill="rgba(0,0,0,0)" />
<path d="M37.332342741935484,-25.954673387096776L37.332342741935484,-24.986931451612904L38.300084677419356,-24.986931451612904L38.300084677419356,-25.954673387096776L37.332342741935484,-25.954673387096776" fill="rgba(0,0,0,0)" />
<path d="M33.461375000000004,-24.986931451612904L33.461375000000004,-24.986931451612904" />
<path d="M33.461375000000004,-24.986931451612904L33.461375000000004,-24.019189516129032L34.42911693548387,-24.019189516129032L34.42911693548387,-24.986931451612904L33.461375000000004,-24.986931451612904" fill="rgba(0,155,0,0.7843137254901961)" />
<path d="M34.42911693548387,-24.986931451612904L34.42911693548387,-24.019189516129032L35.39685887096774,-24.019189516129032L35.39685887096774,-24.986931451612904L34.42911693548387,-24.986931451612904" fill="rgba(0,155,0,0.7843137254901961)" />
<path d="M35.39685887096774,-24.986931451612904L35.39685887096774,-24.019189516129032L36.36460080645161,-24.019189516129032L36.36460080645161,-24.986931451612904L35.39685887096774,-24.986931451612904" fill="rgba(0,155,0,0.7843137254901961)" />
<path d="M36.36460080645161,-24.986931451612904L36.36460080645161,-24.019189516129032L37.332342741935484,-24.019189516129032L37.332342741935484,-24.986931451612904L36.36460080645161,-24.986931451612904" fill="rgba(0,155,0,0.7843137254901961)" />
<path d="M37.332342741935484,-24.986931451612904L37.332342741935484,-24.019189516129032L38.300084677419356,-24.019189516129032L38.300084677419356,-24.986931451612904L37.332342741935484,-24.986931451612904" fill="rgba(0,155,0,0.7843137254901961)" />
<path d="M33.461375000000004,-24.019189516129032L33.461375000000004,-24.019189516129032" />
<path d="M33.461375000000004,-24.019189516129032L33.461375000000004,-23.05144758064516L34.42911693548387,-23.05144758064516L34.42911693548387,-24.019189516129032L33.461375000000004,-24.019189516129032" fill="rgba(0,155,0,0.7843137254901961)" />
<path d="M34.42911693548387,-24.019189516129032L34.42911693548387,-23.05144758064516L35.39685887096774,-23.05144758064516L35.39685887096774,-24.019189516129032L34.42911693548387,-24.019189516129032" fill="rgba(0,0,0,0)" />
<path d="M35.39685887096774,-24.019189516129032L35.39685887096774,-23.05144758064516L36.36460080645161,-23.05144758064516L36.36460080645161,-24.019189516129032L35.39685887096774,-24.019189516129032" fill="rgba(0,0,0,0)" />
<path d="M36.36460080645161,-24.019189516129032L36.36460080645161,-23.05144758064516L37.332342741935484,-23.05144758064516L37.332342741935484,-24.019189516129032L36.36460080645161,-24.019189516129032" fill="rgba(0,0,0,0)" />
<path d="M37.332342741935484,-24.019189516129032L37.332342741935484,-23.05144758064516L38.300084677419356,-23.05144758064516L38.300084677419356,-24.019189516129032L37.332342741935484,-24.019189516129032" fill="rgba(0,0,0,0)" />
<path d="M33.461375000000004,-23.05144758064516L33.461375000000004,-23.05144758064516" />
<path d="M33.461375000000004,-23.05144758064516L33.461375000000004,-22.083705645161288L34.42911693548387,-22.083705645161288L34.42911693548387,-23.05144758064516L33.461375000000004,-23.05144758064516" fill="rgba(0,0,0,0)" />
<path d="M34.42911693548387,-23.05144758064516L34.42911693548387,-22.083705645161288L35.39685887096774,-22.083705645161288L35.39685887096774,-23.05144758064516L34.42911693548387,-23.05144758064516" fill="rgba(0,155,0,0.7843137254901961)" />
<path d="M35.39685887096774,-23.05144758064516L35.39685887096774,-22.083705645161288L36.36460080645161,-22.083705645161288L36.36460080645161,-23.05144758064516L35.39685887096774,-23.05144758064516" fill="rgba(0,155,0,0.7843137254901961)" />
<path d="M36.36460080645161,-23.05144758064516L36.36460080645161,-22.083705645161288L37.332342741935484,-22.083705645161288L37.332342741935484,-23.05144758064516L36.36460080645161,-23.05144758064516" fill="rgba(0,155,0,0.7843137254901961)" />
<path d="M37.332342741935484,-23.05144758064516L37.332342741935484,-22.083705645161288L38.300084677419356,-22.083705645161288L38.300084677419356,-23.05144758064516L37.332342741935484,-23.05144758064516" fill="rgba(0,155,0,0.7843137254901961)" />
<path d="M33.461375000000004,-21.11596370967742L33.461375000000004,-21.11596370967742" />
<path d="M33.461375000000004,-21.11596370967742L33.461375000000004,-20.148221774193548L34.42911693548387,-20.148221774193548L34.42911693548387,-21.11596370967742L33.461375000000004,-21.11596370967742" fill="rgba(0,155,0,0.7843137254901961)" />
<path d="M34.42911693548387,-21.11596370967742L34.42911693548387,-20.148221774193548L35.39685887096774,-20.148221774193548L35.39685887096774,-21.11596370967742L34.42911693548387,-21.11596370967742" fill="rgba(0,155,0,0.7843137254901961)" />
<path d="M35.39685887096774,-21.11596370967742L35.39685887096774,-20.148221774193548L36.36460080645161,-20.148221774193548L36.36460080645161,-21.11596370967742L35.39685887096774,-21.11596370967742" fill="rgba(0,155,0,0.7843137254901961)" />
<path d="M36.36460080645161,-21.11596370967742L36.36460080645161,-20.148221774193548L37.332342741935484,-20.148221774193548L37.332342741935484,-21.11596370967742L36.36460080645161,-21.11596370967742" fill="rgba(0,155,0,0.7843137254901961)" />
<path d="M37.332342741935484,-21.11596370967742L37.332342741935484,-20.148221774193548L38.300084677419356,-20.148221774193548L38.300084677419356,-21.11596370967742L37.332342741935484,-21.11596370967742" fill="rgba(0,155,0,0.7843137254901961)" />
<path d="M33.461375000000004,-20.148221774193548L33.461375000000004,-20.148221774193548" />
<path d="M33.461375000000004,-20.148221774193548L33.461375000000004,-19.180479838709676L34.42911693548387,-19.180479838709676L34.42911693548387,-20.148221774193548L33.461375000000004,-20.148221774193548" fill="rgba(0,155,0,0.7843137254901961)" />
<path d="M34.42911693548387,-20.148221774193548L34.42911693548387,-19.180479838709676L35.39685887096774,-19.180479838709676L35.39685887096774,-20.148221774193548L34.42911693548387,-20.148221774193548" fill="rgba(0,0,0,0)" />
<path d="M35.39685887096774,-20.148221774193548L35.39685887096774,-19.180479838709676L36.36460080645161,-19.180479838709676L36.36460080645161,-20.148221774193548L35.39685887096774,-20.148221774193548" fill="rgba(0,155,0,0.7843137254901961)" />
<path d="M36.36460080645161,-20.148221774193548L36.36460080645161,-19.180479838709676L37.332342741935484,-19.180479838709676L37.332342741935484,-20.148221774193548L36.36460080645161,-20.148221774193548" fill="rgba(0,0,0,0)" />
<path d="M37.332342741935484,-20.148221774193548L37.332342741935484,-19.180479838709676L38.300084677419356,-19.180479838709676L38.300084677419356,-20.148221774193548L37.332342741935484,-20.148221774193548" fill="rgba(0,155,0,0.7843137254901961)" />
<path d="M33.461375000000004,-19.180479838709676L33.461375000000004,-19.180479838709676" />
<path d="M33.461375000000004,-19.180479838709676L33.461375000000004,-18.212737903225808L34.42911693548387,-18.212737903225808L34.42911693548387,-19.180479838709676L33.461375000000004,-19.180479838709676" fill="rgba(0,155,0,0.7843137254901961)" />
<path d="M34.42911693548387,-19.180479838709676L34.42911693548387,-18.212737903225808L35.39685887096774,-18.212737903225808L35.39685887096774,-19.180479838709676L34.42911693548387,-19.180479838709676" fill="rgba(0,0,0,0)" />
<path d="M35.39685887096774,-19.180479838709676L35.39685887096774,-18.212737903225808L36.36460080645161,-18.212737903225808L36.36460080645161,-19.180479838709676L35.39685887096774,-19.180479838709676" fill="rgba(0,155,0,0.7843137254901961)" />
<path d="M36.36460080645161,-19.180479838709676L36.36460080645161,-18.212737903225808L37.332342741935484,-18.212737903225808L37.332342741935484,-19.180479838709676L36.36460080645161,-19.180479838709676" fill="rgba(0,0,0,0)" />
<path d="M37.332342741935484,-19.180479838709676L37.332342741935484,-18.212737903225808L38.300084677419356,-18.212737903225808L38.300084677419356,-19.180479838709676L37.332342741935484,-19.180479838709676" fill="rgba(0,155,0,0.7843137254901961)" />
<path d="M33.461375000000004,-18.212737903225808L33.461375000000004,-18.212737903225808" />
<path d="M33.461375000000004,-18.212737903225808L33.461375000000004,-17.244995967741936L34.42911693548387,-17.244995967741936L34.42911693548387,-18.212737903225808L33.461375000000004,-18.212737903225808" fill="rgba(0,155,0,0.7843137254901961)" />
<path d="M34.42911693548387,-18.212737903225808L34.42911693548387,-17.244995967741936L35.39685887096774,-17.244995967741936L35.39685887096774,-18.212737903225808L34.42911693548387,-18.212737903225808" fill="rgba(0,0,0,0)" />
<path d="M35.39685887096774,-18.212737903225808L35.39685887096774,-17.244995967741936L36.36460080645161,-17.244995967741936L36.36460080645161,-18.212737903225808L35.39685887096774,-18.212737903225808" fill="rgba(0,155,0,0.7843137254901961)" />
<path d="M36.36460080645161,-18.212737903225808L36.36460080645161,-17.244995967741936L37.332342741935484,-17.244995967741936L37.332342741935484,-18.212737903225808L36.36460080645161,-18.212737903225808" fill="rgba(0,0,0,0)" />
<path d="M37.332342741935484,-18.212737903225808L37.332342741935484,-17.244995967741936L38.300084677419356,-17.244995967741936L38.300084677419356,-18.212737903225808L37.332342741935484,-18.212737903225808" fill="rgba(0,155,0,0.7843137254901961)" />
<path d="M33.461375000000004,-16.277254032258064L33.461375000000004,-16.277254032258064" />
<path d="M33.461375000000004,-16.277254032258064L33.461375000000004,-15.309512096774192L34.42911693548387,-15.309512096774192L34.42911693548387,-16.277254032258064L33.461375000000004,-16.277254032258064" fill="rgba(0,155,0,0.7843137254901961)" />
<path d="M34.42911693548387,-16.277254032258064L34.42911693548387,-15.309512096774192L35.39685887096774,-15.309512096774192L35.39685887096774,-16.277254032258064L34.42911693548387,-16.277254032258064" fill="rgba(0,155,0,0.7843137254901961)" />
<path d="M35.39685887096774,-16.277254032258064L35.39685887096774,-15.309512096774192L36.36460080645161,-15.309512096774192L36.36460080645161,-16.277254032258064L35.39685887096774,-16.277254032258064" fill="rgba(0,155,0,0.7843137254901961)" />
<path d="M36.36460080645161,-16.277254032258064L36.36460080645161,-15.309512096774192L37.332342741935484,-15.309512096774192L37.332342741935484,-16.277254032258064L36.36460080645161,-16.277254032258064" fill="rgba(0,155,0,0.7843137254901961)" />
<path d="M37.332342741935484,-16.277254032258064L37.332342741935484,-15.309512096774192L38.300084677419356,-15.309512096774192L38.300084677419356,-16.277254032258064L37.332342741935484,-16.277254032258064" fill="rgba(0,155,0,0.7843137254901961)" />
<path d="M33.461375000000004,-15.309512096774192L33.461375000000004,-15.309512096774192" />
<path d="M33.461375000000004,-15.309512096774192L33.461375000000004,-14.34177016129032L34.42911693548387,-14.34177016129032L34.42911693548387,-15.309512096774192L33.461375000000004,-15.309512096774192" fill="rgba(0,155,0,0.7843137254901961)" />
<path d="M34.42911693548387,-15.309512096774192L34.42911693548387,-14.34177016129032L35.39685887096774,-14.34177016129032L35.39685887096774,-15.309512096774192L34.42911693548387,-15.309512096774192" fill="rgba(0,0,0,0)" />
<path d="M35.39685887096774,-15.309512096774192L35.39685887096774,-14.34177016129032L36.36460080645161,-14.34177016129032L36.36460080645161,-15.309512096774192L35.39685887096774,-15.309512096774192" fill="rgba(0,0,0,0)" />
<path d="M36.36460080645161,-15.309512096774192L36.36460080645161,-14.34177016129032L37.332342741935484,-14.34177016129032L37.332342741935484,-15.309512096774192L36.36460080645161,-15.309512096774192" fill="rgba(0,0,0,0)" />
<path d="M37.332342741935484,-15.309512096774192L37.332342741935484,-14.34177016129032L38.300084677419356,-14.34177016129032L38.300084677419356,-15.309512096774192L37.332342741935484,-15.309512096774192" fill="rgba(0,155,0,0.7843137254901961)" />
<path d="M33.461375000000004,-14.34177016129032L33.461375000000004,-14.34177016129032" />
<path d="M33.461375000000004,-14.34177016129032L33.461375000000004,-13.374028225806452L34.42911693548387,-13.374028225806452L34.42911693548387,-14.34177016129032L33.461375000000004,-14.34177016129032" fill="rgba(0,155,0,0.7843137254901961)" />
<path d="M34.42911693548387,-14.34177016129032L34.42911693548387,-13.374028225806452L35.39685887096774,-13.374028225806452L35.39685887096774,-14.34177016129032L34.42911693548387,-14.34177016129032" fill="rgba(0,0,0,0)" />
<path d="M35.39685887096774,-14.34177016129032L35.39685887096774,-13.374028225806452L36.36460080645161,-13.374028225806452L36.36460080645161,-14.34177016129032L35.39685887096774,-14.34177016129032" fill="rgba(0,0,0,0)" />
<path d="M36.36460080645161,-14.34177016129032L36.36460080645161,-13.374028225806452L37.332342741935484,-13.374028225806452L37.332342741935484,-14.34177016129032L36.36460080645161,-14.34177016129032" fill="rgba(0,0,0,0)" />
<path d="M37.332342741935484,-14.34177016129032L37.332342741935484,-13.374028225806452L38.300084677419356,-13.374028225806452L38.300084677419356,-14.34177016129032L37.332342741935484,-14.34177016129032" fill="rgba(0,155,0,0.7843137254901961)" />
<path d="M33.461375000000004,-13.374028225806452L33.461375000000004,-13.374028225806452" />
<path d="M33.461375000000004,-13.374028225806452L33.461375000000004,-12.40628629032258L34.42911693548387,-12.40628629032258L34.42911693548387,-13.374028225806452L33.461375000000004,-13.374028225806452" fill="rgba(0,0,0,0)" />
<path d="M34.42911693548387,-13.374028225806452L34.42911693548387,-12.40628629032258L35.39685887096774,-12.40628629032258L35.39685887096774,-13.374028225806452L34.42911693548387,-13.374028225806452" fill="rgba(0,155,0,0.7843137254901961)" />
<path d="M35.39685887096774,-13.374028225806452L35.39685887096774,-12.40628629032258L36.36460080645161,-12.40628629032258L36.36460080645161,-13.374028225806452L35.39685887096774,-13.374028225806452" fill="rgba(0,155,0,0.7843137254901961)" />
<path d="M36.36460080645161,-13.374028225806452L36.36460080645161,-12.40628629032258L37.332342741935484,-12.40628629032258L37.332342741935484,-13.374028225806452L36.36460080645161,-13.374028225806452" fill="rgba(0,155,0,0.7843137254901961)" />
<path d="M37.332342741935484,-13.374028225806452L37.332342741935484,-12.40628629032258L38.300084677419356,-12.40628629032258L38.300084677419356,-13.374028225806452L37.332342741935484,-13.374028225806452" fill="rgba(0,0,0,0)" />
<path d="M33.461375000000004,-11.438544354838708L33.461375000000004,-11.438544354838708" />
<path d="M33.461375000000004,-11.438544354838708L33.461375000000004,-10.47080241935484L34.42911693548387,-10.47080241935484L34.42911693548387,-11.438544354838708L33.461375000000004,-11.438544354838708" fill="rgba(0,155,0,0.7843137254901961)" />
<path d="M34.42911693548387,-11.438544354838708L34.42911693548387,-10.47080241935484L35.39685887096774,-10.47080241935484L35.39685887096774,-11.438544354838708L34.42911693548387,-11.438544354838708" fill="rgba(0,155,0,0.7843137254901961)" />
<path d="M35.39685887096774,-11.438544354838708L35.39685887096774,-10.47080241935484L36.36460080645161,-10.47080241935484L36.36460080645161,-11.438544354838708L35.39685887096774,-11.438544354838708" fill="rgba(0,155,0,0.7843137254901961)" />
<path d="M36.36460080645161,-11.438544354838708L36.36460080645161,-10.47080241935484L37.332342741935484,-10.47080241935484L37.332342741935484,-11.438544354838708L36.36460080645161,-11.438544354838708" fill="rgba(0,155,0,0.7843137254901961)" />
<path d="M37.332342741935484,-11.438544354838708L37.332342741935484,-10.47080241935484L38.300084677419356,-10.47080241935484L38.300084677419356,-11.438544354838708L37.332342741935484,-11.438544354838708" fill="rgba(0,155,0,0.7843137254901961)" />
<path d="M33.461375000000004,-10.47080241935484L33.461375000000004,-10.47080241935484" />
<path d="M33.461375000000004,-10.47080241935484L33.461375000000004,-9.503060483870968L34.42911693548387,-9.503060483870968L34.42911693548387,-10.47080241935484L33.461375000000004,-10.47080241935484" fill="rgba(0,155,0,0.7843137254901961)" />
<path d="M34.42911693548387,-10.47080241935484L34.42911693548387,-9.503060483870968L35.39685887096774,-9.503060483870968L35.39685887096774,-10.47080241935484L34.42911693548387,-10.47080241935484" fill="rgba(0,0,0,0)" />
<path d="M35.39685887096774,-10.47080241935484L35.39685887096774,-9.503060483870968L36.36460080645161,-9.503060483870968L36.36460080645161,-10.47080241935484L35.39685887096774,-10.47080241935484" fill="rgba(0,155,0,0.7843137254901961)" />
<path d="M36.36460080645161,-10.47080241935484L36.36460080645161,-9.503060483870968L37.332342741935484,-9.503060483870968L37.332342741935484,-10.47080241935484L36.36460080645161,-10.47080241935484" fill="rgba(0,0,0,0)" />
<path d="M37.332342741935484,-10.47080241935484L37.332342741935484,-9.503060483870968L38.300084677419356,-9.503060483870968L38.300084677419356,-10.47080241935484L37.332342741935484,-10.47080241935484" fill="rgba(0,155,0,0.7843137254901961)" />
<path d="M33.461375000000004,-9.503060483870968L33.461375000000004,-9.503060483870968" />
<path d="M33.461375000000004,-9.503060483870968L33.461375000000004,-8.535318548387096L34.42911693548387,-8.535318548387096L34.42911693548387,-9.503060483870968L33.461375000000004,-9.503060483870968" fill="rgba(0,155,0,0.7843137254901961)" />
<path d="M34.42911693548387,-9.503060483870968L34.42911693548387,-8.535318548387096L35.39685887096774,-8.535318548387096L35.39685887096774,-9.503060483870968L34.42911693548387,-9.503060483870968" fill="rgba(0,0,0,0)" />
<path d="M35.39685887096774,-9.503060483870968L35.39685887096774,-8.535318548387096L36.36460080645161,-8.535318548387096L36.36460080645161,-9.503060483870968L35.39685887096774,-9.503060483870968" fill="rgba(0,155,0,0.7843137254901961)" />
<path d="M36.36460080645161,-9.503060483870968L36.36460080645161,-8.535318548387096L37.332342741935484,-8.535318548387096L37.332342741935484,-9.503060483870968L36.36460080645161,-9.503060483870968" fill="rgba(0,0,0,0)" />
<path d="M37.332342741935484,-9.503060483870968L37.332342741935484,-8.535318548387096L38.300084677419356,-8.535318548387096L38.300084677419356,-9.503060483870968L37.332342741935484,-9.503060483870968" fill="rgba(0,155,0,0.7843137254901961)" />
<path d="M33.461375000000004,-8.535318548387096L33.461375000000004,-8.535318548387096" />
<path d="M33.461375000000004,-8.535318548387096L33.461375000000004,-7.567576612903224L34.42911693548387,-7.567576612903224L34.42911693548387,-8.535318548387096L33.461375000000004,-8.535318548387096" fill="rgba(0,155,0,0.7843137254901961)" />
<path d="M34.42911693548387,-8.535318548387096L34.42911693548387,-7.567576612903224L35.39685887096774,-7.567576612903224L35.39685887096774,-8.535318548387096L34.42911693548387,-8.535318548387096" fill="rgba(0,0,0,0)" />
<path d="M35.39685887096774,-8.535318548387096L35.39685887096774,-7.567576612903224L36.36460080645161,-7.567576612903224L36.36460080645161,-8.535318548387096L35.39685887096774,-8.535318548387096" fill="rgba(0,155,0,0.7843137254901961)" />
<path d="M36.36460080645161,-8.535318548387096L36.36460080645161,-7.567576612903224L37.332342741935484,-7.567576612903224L37.332342741935484,-8.535318548387096L36.36460080645161,-8.535318548387096" fill="rgba(0,0,0,0)" />
<path d="M37.332342741935484,-8.535318548387096L37.332342741935484,-7.567576612903224L38.300084677419356,-7.567576612903224L38.300084677419356,-8.535318548387096L37.332342741935484,-8.535318548387096" fill="rgba(0,155,0,0.7843137254901961)" />
<path d="M33.461375000000004,-6.599834677419352L33.461375000000004,-6.599834677419352" />
<path d="M33.461375000000004,-6.599834677419352L33.461375000000004,-5.632092741935484L34.42911693548387,-5.632092741935484L34.42911693548387,-6.599834677419352L33.461375000000004,-6.599834677419352" fill="rgba(0,155,0,0.7843137254901961)" />
<path d="M34.42911693548387,-6.599834677419352L34.42911693548387,-5.632092741935484L35.39685887096774,-5.632092741935484L35.39685887096774,-6.599834677419352L34.42911693548387,-6.599834677419352" fill="rgba(0,155,0,0.7843137254901961)" />
<path d="M35.39685887096774,-6.599834677419352L35.39685887096774,-5.632092741935484L36.36460080645161,-5.632092741935484L36.36460080645161,-6.599834677419352L35.39685887096774,-6.599834677419352" fill="rgba(0,155,0,0.7843137254901961)" />
<path d="M36.36460080645161,-6.599834677419352L36.36460080645161,-5.632092741935484L37.332342741935484,-5.632092741935484L37.332342741935484,-6.599834677419352L36.36460080645161,-6.599834677419352" fill="rgba(0,155,0,0.7843137254901961)" />
<path d="M37.332342741935484,-6.599834677419352L37.332342741935484,-5.632092741935484L38.300084677419356,-5.632092741935484L38.300084677419356,-6.599834677419352L37.332342741935484,-6.599834677419352" fill="rgba(0,155,0,0.7843137254901961)" />
<path d="M33.461375000000004,-5.632092741935484L33.461375000000004,-5.632092741935484" />
<path d="M33.461375000000004,-5.632092741935484L33.461375000000004,-4.664350806451612L34.42911693548387,-4.664350806451612L34.42911693548387,-5.632092741935484L33.461375000000004,-5.632092741935484" fill="rgba(0,0,0,0)" />
<path d="M34.42911693548387,-5.632092741935484L34.42911693548387,-4.664350806451612L35.39685887096774,-4.664350806451612L35.39685887096774,-5.632092741935484L34.42911693548387,-5.632092741935484" fill="rgba(0,0,0,0)" />
<path d="M35.39685887096774,-5.632092741935484L35.39685887096774,-4.664350806451612L36.36460080645161,-4.664350806451612L36.36460080645161,-5.632092741935484L35.39685887096774,-5.632092741935484" fill="rgba(0,0,0,0)" />
<path d="M36.36460080645161,-5.632092741935484L36.36460080645161,-4.664350806451612L37.332342741935484,-4.664350806451612L37.332342741935484,-5.632092741935484L36.36460080645161,-5.632092741935484" fill="rgba(0,155,0,0.7843137254901961)" />
<path d="M37.332342741935484,-5.632092741935484L37.332342741935484,-4.664350806451612L38.300084677419356,-4.664350806451612L38.300084677419356,-5.632092741935484L37.332342741935484,-5.632092741935484" fill="rgba(0,0,0,0)" />
<path d="M33.461375000000004,-4.664350806451612L33.461375000000004,-4.664350806451612" />
<path d="M33.461375000000004,-4.664350806451612L33.461375000000004,-3.69660887096774L34.42911693548387,-3.69660887096774L34.42911693548387,-4.664350806451612L33.461375000000004,-4.664350806451612" fill="rgba(0,0,0,0)" />
<path d="M34.42911693548387,-4.664350806451612L34.42911693548387,-3.69660887096774L35.39685887096774,-3.69660887096774L35.39685887096774,-4.664350806451612L34.42911693548387,-4.664350806451612" fill="rgba(0,0,0,0)" />
<path d="M35.39685887096774,-4.664350806451612L35.39685887096774,-3.69660887096774L36.36460080645161,-3.69660887096774L36.36460080645161,-4.664350806451612L35.39685887096774,-4.664350806451612" fill="rgba(0,155,0,0.7843137254901961)" />
<path d="M36.36460080645161,-4.664350806451612L36.36460080645161,-3.69660887096774L37.332342741935484,-3.69660887096774L37.332342741935484,-4.664350806451612L36.36460080645161,-4.664350806451612" fill="rgba(0,0,0,0)" />
<path d="M37.332342741935484,-4.664350806451612L37.332342741935484,-3.69660887096774L38.300084677419356,-3.69660887096774L38.300084677419356,-4.664350806451612L37.332342741935484,-4.664350806451612" fill="rgba(0,0,0,0)" />
<path d="M33.461375000000004,-3.69660887096774L33.461375000000004,-3.69660887096774" />
<path d="M33.461375000000004,-3.69660887096774L33.461375000000004,-2.7288669354838717L34.42911693548387,-2.7288669354838717L34.42911693548387,-3.69660887096774L33.461375000000004,-3.69660887096774" fill="rgba(0,0,0,0)" />
<path d="M34.42911693548387,-3.69660887096774L34.42911693548387,-2.7288669354838717L35.39685887096774,-2.7288669354838717L35.39685887096774,-3.69660887096774L34.42911693548387,-3.69660887096774" fill="rgba(0,155,0,0.7843137254901961)" />
<path d="M35.39685887096774,-3.69660887096774L35.39685887096774,-2.7288669354838717L36.36460080645161,-2.7288669354838717L36.36460080645161,-3.69660887096774L35.39685887096774,-3.69660887096774" fill="rgba(0,0,0,0)" />
<path d="M36.36460080645161,-3.69660887096774L36.36460080645161,-2.7288669354838717L37.332342741935484,-2.7288669354838717L37.332342741935484,-3.69660887096774L36.36460080645161,-3.69660887096774" fill="rgba(0,0,0,0)" />
<path d="M37.332342741935484,-3.69660887096774L37.332342741935484,-2.7288669354838717L38.300084677419356,-2.7288669354838717L38.300084677419356,-3.69660887096774L37.332342741935484,-3.69660887096774" fill="rgba(0,0,0,0)" />
<path d="M33.461375000000004,-2.7288669354838717L33.461375000000004,-2.7288669354838717" />
<path d="M33.461375000000004,-2.7288669354838717L33.461375000000004,-1.7611249999999998L34.42911693548387,-1.7611249999999998L34.42911693548387,-2.7288669354838717L33.461375000000004,-2.7288669354838717" fill="rgba(0,155,0,0.7843137254901961)" />
<path d="M34.42911693548387,-2.7288669354838717L34.42911693548387,-1.7611249999999998L35.39685887096774,-1.7611249999999998L35.39685887096774,-2.7288669354838717L34.42911693548387,-2.7288669354838717" fill="rgba(0,155,0,0.7843137254901961)" />
<path d="M35.39685887096774,-2.7288669354838717L35.39685887096774,-1.7611249999999998L36.36460080645161,-1.7611249999999998L36.36460080645161,-2.7288669354838717L35.39685887096774,-2.7288669354838717" fill="rgba(0,155,0,0.7843137254901961)" />
<path d="M36.36460080645161,-2.7288669354838717L36.36460080645161,-1.7611249999999998L37.332342741935484,-1.7611249999999998L37.332342741935484,-2.7288669354838717L36.36460080645161,-2.7288669354838717" fill="rgba(0,155,0,0.7843137254901961)" />
<path d="M37.332342741935484,-2.7288669354838717L37.332342741935484,-1.7611249999999998L38.300084677419356,-1.7611249999999998L38.300084677419356,-2.7288669354838717L37.332342741935484,-2.7288669354838717" fill="rgba(0,155,0,0.7843137254901961)" />
</svg>
