<svg xmlns="http://www.w3.org/2000/svg" viewBox="-0.5 -34.02225 66.22250000000001 34.52225">
<path d="M0,0L65.22250000000001,0L65.22250000000001,-33.52225L0,-33.52225L0,0" stroke="rgba(0,0,0,1)" fill="rgba(255,0,0,1)" stroke-width="0" />
<path d="M0,-14.36667857142857L65.22250000000001,-14.36667857142857L65.22250000000001,-19.155571428571427L0,-19.155571428571427L0,-14.36667857142857" stroke-width="0" fill="rgba(255,255,255,1)" stroke="rgba(0,0,0,1)" />
<path d="M19.292541291291293,-0L26.539485735735738,-0L26.539485735735738,-33.52225L19.292541291291293,-33.52225L19.292541291291293,-0" stroke="rgba(0,0,0,1)" stroke-width="0" fill="rgba(255,255,255,1)" />
<path d="M38.353375000000014,-3.261125L35.28337500000001,-9.261125L35.84337500000001,-20.761125L40.31337500000001,-23.761125L47.583375000000004,-23.761125L50.943375,-17.761125L45.90337500000001,-13.761125L45.34337500000001,-1.7611249999999998L38.353375000000014,-3.261125" fill="rgba(0,155,0,0.7843137254901961)" />
<path d="M36.28337500000001,-22.761125L37.96337500000001,-25.761125L49.143375000000006,-31.761125L49.143375000000006,-28.761125L48.023375,-24.761125L41.87337500000001,-24.761125L36.28337500000001,-22.761125" fill="rgba(0,155,0,0.7843137254901961)" />
<path d="M46.47137500000001,-9.761125L47.58137500000001,-5.761125L50.94137500000001,-4.761125L52.06137500000001,-8.761125L50.94137500000001,-10.761125L46.47137500000001,-9.761125" fill="rgba(0,155,0,0.7843137254901961)" />
<path d="M53.961375000000004,-8.261125L55.071375,-13.261125L62.34137500000001,-15.261125L63.461375000000004,-12.261125L61.231375000000014,-8.261125L58.431375,-5.261125L53.961375000000004,-8.261125" fill="rgba(0,155,0,0.7843137254901961)" />
<path d="M53.87995388137375,-5.276125L57.66127698741626,-3.8998359432575107L57.53502705220727,-2.2431027257901555L53.33272165205268,-3.7726168067425476L53.87995388137375,-5.276125" fill="rgba(0,155,0,0.7843137254901961)" />
<path d="M58.72553106593213,-3.3094672466606667L57.98206186136673,-2.366032277061329L58.17152962813688,-5.161400940646715L59.399540999430755,-4.646825317464884L58.72553106593213,-3.3094672466606667" fill="rgba(0,155,0,0.7843137254901961)" />
<path d="M1.7611250000000034,-28.10258841463415L1.7611250000000034,-28.10258841463415" />
<path d="M1.7611250000000034,-28.10258841463415L2.4928323170731765,-27.370881097560975L3.224539634146346,-28.10258841463415L2.4928323170731765,-28.834295731707318L1.7611250000000034,-28.10258841463415" fill="rgba(0,155,0,0.7843137254901961)" />
<path d="M2.4928323170731765,-28.834295731707318L3.224539634146346,-28.10258841463415L3.9562469512195158,-28.834295731707318L3.224539634146346,-29.566003048780487L2.4928323170731765,-28.834295731707318" fill="rgba(0,155,0,0.7843137254901961)" />
<path d="M3.224539634146346,-29.566003048780487L3.9562469512195158,-28.834295731707318L4.687954268292685,-29.566003048780487L3.9562469512195158,-30.297710365853657L3.224539634146346,-29.566003048780487" fill="rgba(0,155,0,0.7843137254901961)" />
<path d="M3.9562469512195158,-30.297710365853657L4.687954268292685,-29.566003048780487L5.419661585365855,-30.297710365853657L4.687954268292685,-31.029417682926827L3.9562469512195158,-30.297710365853657" fill="rgba(0,155,0,0.7843137254901961)" />
<path d="M4.687954268292685,-31.029417682926827L5.419661585365855,-30.297710365853657L6.151368902439028,-31.029417682926827L5.419661585365855,-31.761125L4.687954268292685,-31.029417682926827" fill="rgba(0,155,0,0.7843137254901961)" />
<path d="M2.4928323170731765,-27.370881097560975L2.4928323170731765,-27.370881097560975" />
<path d="M2.4928323170731765,-27.370881097560975L3.224539634146346,-26.639173780487802L3.9562469512195158,-27.370881097560975L3.224539634146346,-28.10258841463415L2.4928323170731765,-27.370881097560975" fill="rgba(0,155,0,0.7843137254901961)" />
<path d="M3.224539634146346,-28.10258841463415L3.9562469512195158,-27.370881097560975L4.687954268292689,-28.10258841463415L3.9562469512195158,-28.834295731707318L3.224539634146346,-28.10258841463415" fill="rgba(0,0,0,0)" />
<path d="M3.9562469512195158,-28.834295731707318L4.687954268292689,-28.10258841463415L5.419661585365855,-28.834295731707314L4.687954268292685,-29.566003048780487L3.9562469512195158,-28.834295731707318" fill="rgba(0,0,0,0)" />
<path d="M4.687954268292685,-29.566003048780487L5.419661585365855,-28.834295731707314L6.151368902439028,-29.566003048780487L5.419661585365855,-30.297710365853657L4.687954268292685,-29.566003048780487" fill="rgba(0,0,0,0)" />
<path d="M5.419661585365855,-30.297710365853657L6.151368902439028,-29.566003048780487L6.883076219512201,-30.297710365853657L6.151368902439028,-31.029417682926827L5.419661585365855,-30.297710365853657" fill="rgba(0,155,0,0.7843137254901961)" />
<path d="M3.224539634146346,-26.639173780487802L3.224539634146346,-26.639173780487802" />
<path d="M3.224539634146346,-26.639173780487802L3.9562469512195158,-25.907466463414632L4.687954268292689,-26.639173780487802L3.9562469512195158,-27.370881097560975L3.224539634146346,-26.639173780487802" fill="rgba(0,155,0,0.7843137254901961)" />
<path d="M3.9562469512195158,-27.370881097560975L4.687954268292689,-26.639173780487802L5.4196615853658585,-27.370881097560975L4.687954268292689,-28.10258841463415L3.9562469512195158,-27.370881097560975" fill="rgba(0,0,0,0)" />
<path d="M4.687954268292689,-28.10258841463415L5.4196615853658585,-27.370881097560975L6.151368902439028,-28.102588414634145L5.419661585365855,-28.834295731707314L4.687954268292689,-28.10258841463415" fill="rgba(0,0,0,0)" />
<path d="M5.419661585365855,-28.834295731707314L6.151368902439028,-28.102588414634145L6.883076219512201,-28.834295731707314L6.151368902439028,-29.566003048780487L5.419661585365855,-28.834295731707314" fill="rgba(0,0,0,0)" />
<path d="M6.151368902439028,-29.566003048780487L6.883076219512201,-28.834295731707314L7.614783536585371,-29.566003048780487L6.883076219512201,-30.297710365853657L6.151368902439028,-29.566003048780487" fill="rgba(0,155,0,0.7843137254901961)" />
<path d="M3.9562469512195158,-25.907466463414632L3.9562469512195158,-25.907466463414632" />
<path d="M3.9562469512195158,-25.907466463414632L4.687954268292689,-25.175759146341463L5.4196615853658585,-25.907466463414632L4.687954268292689,-26.639173780487802L3.9562469512195158,-25.907466463414632" fill="rgba(0,0,0,0)" />
<path d="M4.687954268292689,-26.639173780487802L5.4196615853658585,-25.907466463414632L6.151368902439028,-26.639173780487802L5.4196615853658585,-27.370881097560975L4.687954268292689,-26.639173780487802" fill="rgba(0,155,0,0.7843137254901961)" />
<path d="M5.4196615853658585,-27.370881097560975L6.151368902439028,-26.639173780487802L6.883076219512201,-27.370881097560975L6.151368902439028,-28.102588414634145L5.4196615853658585,-27.370881097560975" fill="rgba(0,155,0,0.7843137254901961)" />
<path d="M6.151368902439028,-28.102588414634145L6.883076219512201,-27.370881097560975L7.614783536585371,-28.102588414634145L6.883076219512201,-28.834295731707314L6.151368902439028,-28.102588414634145" fill="rgba(0,155,0,0.7843137254901961)" />
<path d="M6.883076219512201,-28.834295731707314L7.614783536585371,-28.102588414634145L8.34649085365854,-28.834295731707314L7.614783536585371,-29.566003048780487L6.883076219512201,-28.834295731707314" fill="rgba(0,0,0,0)" />
<path d="M5.419661585365855,-24.444051829268293L5.419661585365855,-24.444051829268293" />
<path d="M5.419661585365855,-24.444051829268293L6.151368902439028,-23.71234451219512L6.883076219512201,-24.444051829268293L6.151368902439028,-25.175759146341463L5.419661585365855,-24.444051829268293" fill="rgba(0,155,0,0.7843137254901961)" />
<path d="M6.151368902439028,-25.175759146341463L6.883076219512201,-24.444051829268293L7.614783536585371,-25.175759146341463L6.883076219512201,-25.907466463414636L6.151368902439028,-25.175759146341463" fill="rgba(0,155,0,0.7843137254901961)" />
<path d="M6.883076219512201,-25.907466463414636L7.614783536585371,-25.175759146341463L8.34649085365854,-25.907466463414632L7.614783536585367,-26.639173780487802L6.883076219512201,-25.907466463414636" fill="rgba(0,155,0,0.7843137254901961)" />
<path d="M7.614783536585367,-26.639173780487802L8.34649085365854,-25.907466463414632L9.078198170731714,-26.639173780487802L8.34649085365854,-27.370881097560975L7.614783536585367,-26.639173780487802" fill="rgba(0,155,0,0.7843137254901961)" />
<path d="M8.34649085365854,-27.370881097560975L9.078198170731714,-26.639173780487802L9.809905487804883,-27.370881097560975L9.078198170731714,-28.10258841463415L8.34649085365854,-27.370881097560975" fill="rgba(0,155,0,0.7843137254901961)" />
<path d="M6.151368902439028,-23.71234451219512L6.151368902439028,-23.71234451219512" />
<path d="M6.151368902439028,-23.71234451219512L6.883076219512201,-22.98063719512195L7.614783536585371,-23.71234451219512L6.883076219512201,-24.444051829268293L6.151368902439028,-23.71234451219512" fill="rgba(0,155,0,0.7843137254901961)" />
<path d="M6.883076219512201,-24.444051829268293L7.614783536585371,-23.71234451219512L8.34649085365854,-24.444051829268293L7.614783536585371,-25.175759146341463L6.883076219512201,-24.444051829268293" fill="rgba(0,0,0,0)" />
<path d="M7.614783536585371,-25.175759146341463L8.34649085365854,-24.444051829268293L9.078198170731714,-25.175759146341463L8.34649085365854,-25.907466463414632L7.614783536585371,-25.175759146341463" fill="rgba(0,155,0,0.7843137254901961)" />
<path d="M8.34649085365854,-25.907466463414632L9.078198170731714,-25.175759146341463L9.809905487804883,-25.907466463414632L9.078198170731714,-26.639173780487802L8.34649085365854,-25.907466463414632" fill="rgba(0,0,0,0)" />
<path d="M9.078198170731714,-26.639173780487802L9.809905487804883,-25.907466463414632L10.541612804878053,-26.639173780487802L9.809905487804883,-27.370881097560975L9.078198170731714,-26.639173780487802" fill="rgba(0,155,0,0.7843137254901961)" />
<path d="M6.883076219512201,-22.98063719512195L6.883076219512201,-22.98063719512195" />
<path d="M6.883076219512201,-22.98063719512195L7.614783536585371,-22.24892987804878L8.34649085365854,-22.98063719512195L7.614783536585371,-23.71234451219512L6.883076219512201,-22.98063719512195" fill="rgba(0,155,0,0.7843137254901961)" />
<path d="M7.614783536585371,-23.71234451219512L8.34649085365854,-22.98063719512195L9.078198170731714,-23.71234451219512L8.34649085365854,-24.444051829268293L7.614783536585371,-23.71234451219512" fill="rgba(0,0,0,0)" />
<path d="M8.34649085365854,-24.444051829268293L9.078198170731714,-23.71234451219512L9.809905487804883,-24.444051829268293L9.078198170731714,-25.175759146341463L8.34649085365854,-24.444051829268293" fill="rgba(0,155,0,0.7843137254901961)" />
<path d="M9.078198170731714,-25.175759146341463L9.809905487804883,-24.444051829268293L10.541612804878053,-25.175759146341463L9.809905487804883,-25.907466463414632L9.078198170731714,-25.175759146341463" fill="rgba(0,0,0,0)" />
<path d="M9.809905487804883,-25.907466463414632L10.541612804878053,-25.175759146341463L11.273320121951226,-25.907466463414636L10.541612804878053,-26.639173780487802L9.809905487804883,-25.907466463414632" fill="rgba(0,155,0,0.7843137254901961)" />
<path d="M7.614783536585371,-22.24892987804878L7.614783536585371,-22.24892987804878" />
<path d="M7.614783536585371,-22.24892987804878L8.34649085365854,-21.51722256097561L9.078198170731714,-22.24892987804878L8.34649085365854,-22.98063719512195L7.614783536585371,-22.24892987804878" fill="rgba(0,155,0,0.7843137254901961)" />
<path d="M8.34649085365854,-22.98063719512195L9.078198170731714,-22.24892987804878L9.809905487804883,-22.98063719512195L9.078198170731714,-23.71234451219512L8.34649085365854,-22.98063719512195" fill="rgba(0,0,0,0)" />
<path d="M9.078198170731714,-23.71234451219512L9.809905487804883,-22.98063719512195L10.541612804878053,-23.712344512195124L9.809905487804883,-24.444051829268293L9.078198170731714,-23.71234451219512" fill="rgba(0,155,0,0.7843137254901961)" />
<path d="M9.809905487804883,-24.444051829268293L10.541612804878053,-23.712344512195124L11.273320121951226,-24.444051829268293L10.541612804878053,-25.175759146341463L9.809905487804883,-24.444051829268293" fill="rgba(0,0,0,0)" />
<path d="M10.541612804878053,-25.175759146341463L11.273320121951226,-24.444051829268293L12.005027439024392,-25.175759146341463L11.273320121951226,-25.907466463414636L10.541612804878053,-25.175759146341463" fill="rgba(0,155,0,0.7843137254901961)" />
<path d="M9.078198170731714,-20.785515243902438L9.078198170731714,-20.785515243902438" />
<path d="M9.078198170731714,-20.785515243902438L9.809905487804883,-20.053807926829265L10.541612804878053,-20.785515243902438L9.809905487804883,-21.51722256097561L9.078198170731714,-20.785515243902438" fill="rgba(0,155,0,0.7843137254901961)" />
<path d="M9.809905487804883,-21.51722256097561L10.541612804878053,-20.785515243902438L11.273320121951226,-21.517222560975608L10.541612804878053,-22.24892987804878L9.809905487804883,-21.51722256097561" fill="rgba(0,155,0,0.7843137254901961)" />
<path d="M10.541612804878053,-22.24892987804878L11.273320121951226,-21.517222560975608L12.005027439024396,-22.24892987804878L11.273320121951226,-22.98063719512195L10.541612804878053,-22.24892987804878" fill="rgba(0,155,0,0.7843137254901961)" />
<path d="M11.273320121951226,-22.98063719512195L12.005027439024396,-22.24892987804878L12.736734756097565,-22.98063719512195L12.005027439024392,-23.71234451219512L11.273320121951226,-22.98063719512195" fill="rgba(0,155,0,0.7843137254901961)" />
<path d="M12.005027439024392,-23.71234451219512L12.736734756097565,-22.98063719512195L13.468442073170738,-23.71234451219512L12.736734756097565,-24.444051829268293L12.005027439024392,-23.71234451219512" fill="rgba(0,155,0,0.7843137254901961)" />
<path d="M9.809905487804883,-20.053807926829265L9.809905487804883,-20.053807926829265" />
<path d="M9.809905487804883,-20.053807926829265L10.541612804878053,-19.322100609756095L11.273320121951226,-20.053807926829265L10.541612804878053,-20.785515243902438L9.809905487804883,-20.053807926829265" fill="rgba(0,0,0,0)" />
<path d="M10.541612804878053,-20.785515243902438L11.273320121951226,-20.053807926829265L12.005027439024392,-20.785515243902438L11.273320121951226,-21.517222560975608L10.541612804878053,-20.785515243902438" fill="rgba(0,0,0,0)" />
<path d="M11.273320121951226,-21.517222560975608L12.005027439024392,-20.785515243902438L12.736734756097565,-21.51722256097561L12.005027439024396,-22.24892987804878L11.273320121951226,-21.517222560975608" fill="rgba(0,0,0,0)" />
<path d="M12.005027439024396,-22.24892987804878L12.736734756097565,-21.51722256097561L13.468442073170738,-22.24892987804878L12.736734756097565,-22.98063719512195L12.005027439024396,-22.24892987804878" fill="rgba(0,155,0,0.7843137254901961)" />
<path d="M12.736734756097565,-22.98063719512195L13.468442073170738,-22.24892987804878L14.200149390243908,-22.98063719512195L13.468442073170738,-23.71234451219512L12.736734756097565,-22.98063719512195" fill="rgba(0,0,0,0)" />
<path d="M10.541612804878053,-19.322100609756095L10.541612804878053,-19.322100609756095" />
<path d="M10.541612804878053,-19.322100609756095L11.273320121951226,-18.590393292682926L12.005027439024396,-19.322100609756095L11.273320121951226,-20.053807926829265L10.541612804878053,-19.322100609756095" fill="rgba(0,0,0,0)" />
<path d="M11.273320121951226,-20.053807926829265L12.005027439024396,-19.322100609756095L12.736734756097565,-20.053807926829265L12.005027439024392,-20.785515243902438L11.273320121951226,-20.053807926829265" fill="rgba(0,0,0,0)" />
<path d="M12.005027439024392,-20.785515243902438L12.736734756097565,-20.053807926829265L13.468442073170738,-20.785515243902438L12.736734756097565,-21.51722256097561L12.005027439024392,-20.785515243902438" fill="rgba(0,155,0,0.7843137254901961)" />
<path d="M12.736734756097565,-21.51722256097561L13.468442073170738,-20.785515243902438L14.200149390243908,-21.51722256097561L13.468442073170738,-22.24892987804878L12.736734756097565,-21.51722256097561" fill="rgba(0,0,0,0)" />
<path d="M13.468442073170738,-22.24892987804878L14.200149390243908,-21.51722256097561L14.931856707317078,-22.24892987804878L14.200149390243908,-22.98063719512195L13.468442073170738,-22.24892987804878" fill="rgba(0,0,0,0)" />
<path d="M11.273320121951226,-18.590393292682926L11.273320121951226,-18.590393292682926" />
<path d="M11.273320121951226,-18.590393292682926L12.005027439024396,-17.858685975609756L12.736734756097565,-18.590393292682926L12.005027439024396,-19.322100609756095L11.273320121951226,-18.590393292682926" fill="rgba(0,0,0,0)" />
<path d="M12.005027439024396,-19.322100609756095L12.736734756097565,-18.590393292682926L13.468442073170738,-19.322100609756095L12.736734756097565,-20.053807926829265L12.005027439024396,-19.322100609756095" fill="rgba(0,155,0,0.7843137254901961)" />
<path d="M12.736734756097565,-20.053807926829265L13.468442073170738,-19.322100609756095L14.200149390243908,-20.05380792682927L13.468442073170738,-20.785515243902438L12.736734756097565,-20.053807926829265" fill="rgba(0,0,0,0)" />
<path d="M13.468442073170738,-20.785515243902438L14.200149390243908,-20.05380792682927L14.931856707317078,-20.785515243902438L14.200149390243908,-21.51722256097561L13.468442073170738,-20.785515243902438" fill="rgba(0,0,0,0)" />
<path d="M14.200149390243908,-21.51722256097561L14.931856707317078,-20.785515243902438L15.66356402439025,-21.51722256097561L14.931856707317078,-22.24892987804878L14.200149390243908,-21.51722256097561" fill="rgba(0,0,0,0)" />
<path d="M12.005027439024396,-17.858685975609756L12.005027439024396,-17.858685975609756" />
<path d="M12.005027439024396,-17.858685975609756L12.736734756097565,-17.126978658536586L13.468442073170738,-17.858685975609756L12.736734756097565,-18.590393292682926L12.005027439024396,-17.858685975609756" fill="rgba(0,155,0,0.7843137254901961)" />
<path d="M12.736734756097565,-18.590393292682926L13.468442073170738,-17.858685975609756L14.200149390243908,-18.590393292682926L13.468442073170738,-19.322100609756095L12.736734756097565,-18.590393292682926" fill="rgba(0,155,0,0.7843137254901961)" />
<path d="M13.468442073170738,-19.322100609756095L14.200149390243908,-18.590393292682926L14.931856707317078,-19.3221006097561L14.200149390243908,-20.05380792682927L13.468442073170738,-19.322100609756095" fill="rgba(0,155,0,0.7843137254901961)" />
<path d="M14.200149390243908,-20.05380792682927L14.931856707317078,-19.3221006097561L15.66356402439025,-20.05380792682927L14.931856707317078,-20.785515243902438L14.200149390243908,-20.05380792682927" fill="rgba(0,155,0,0.7843137254901961)" />
<path d="M14.931856707317078,-20.785515243902438L15.66356402439025,-20.05380792682927L16.395271341463424,-20.785515243902438L15.66356402439025,-21.51722256097561L14.931856707317078,-20.785515243902438" fill="rgba(0,155,0,0.7843137254901961)" />
<path d="M13.468442073170738,-16.395271341463413L13.468442073170738,-16.395271341463413" />
<path d="M13.468442073170738,-16.395271341463413L14.200149390243908,-15.663564024390244L14.931856707317078,-16.395271341463413L14.200149390243908,-17.126978658536586L13.468442073170738,-16.395271341463413" fill="rgba(0,155,0,0.7843137254901961)" />
<path d="M14.200149390243908,-17.126978658536586L14.931856707317078,-16.395271341463413L15.66356402439025,-17.126978658536586L14.931856707317078,-17.858685975609756L14.200149390243908,-17.126978658536586" fill="rgba(0,155,0,0.7843137254901961)" />
<path d="M14.931856707317078,-17.858685975609756L15.66356402439025,-17.126978658536586L16.395271341463424,-17.858685975609756L15.66356402439025,-18.590393292682926L14.931856707317078,-17.858685975609756" fill="rgba(0,155,0,0.7843137254901961)" />
<path d="M15.66356402439025,-18.590393292682926L16.395271341463424,-17.858685975609756L17.12697865853659,-18.590393292682926L16.395271341463424,-19.3221006097561L15.66356402439025,-18.590393292682926" fill="rgba(0,155,0,0.7843137254901961)" />
<path d="M16.395271341463424,-19.3221006097561L17.12697865853659,-18.590393292682926L17.858685975609763,-19.3221006097561L17.12697865853659,-20.05380792682927L16.395271341463424,-19.3221006097561" fill="rgba(0,155,0,0.7843137254901961)" />
<path d="M14.200149390243908,-15.663564024390244L14.200149390243908,-15.663564024390244" />
<path d="M14.200149390243908,-15.663564024390244L14.931856707317078,-14.931856707317074L15.66356402439025,-15.663564024390244L14.931856707317078,-16.395271341463413L14.200149390243908,-15.663564024390244" fill="rgba(0,0,0,0)" />
<path d="M14.931856707317078,-16.395271341463413L15.66356402439025,-15.663564024390244L16.395271341463424,-16.395271341463413L15.66356402439025,-17.126978658536586L14.931856707317078,-16.395271341463413" fill="rgba(0,0,0,0)" />
<path d="M15.66356402439025,-17.126978658536586L16.395271341463424,-16.395271341463413L17.12697865853659,-17.126978658536586L16.395271341463424,-17.858685975609756L15.66356402439025,-17.126978658536586" fill="rgba(0,0,0,0)" />
<path d="M16.395271341463424,-17.858685975609756L17.12697865853659,-17.126978658536586L17.858685975609763,-17.858685975609756L17.12697865853659,-18.590393292682926L16.395271341463424,-17.858685975609756" fill="rgba(0,155,0,0.7843137254901961)" />
<path d="M17.12697865853659,-18.590393292682926L17.858685975609763,-17.858685975609756L18.590393292682936,-18.590393292682926L17.858685975609763,-19.3221006097561L17.12697865853659,-18.590393292682926" fill="rgba(0,0,0,0)" />
<path d="M14.931856707317078,-14.931856707317074L14.931856707317078,-14.931856707317074" />
<path d="M14.931856707317078,-14.931856707317074L15.66356402439025,-14.200149390243904L16.395271341463424,-14.931856707317074L15.66356402439025,-15.663564024390244L14.931856707317078,-14.931856707317074" fill="rgba(0,0,0,0)" />
<path d="M15.66356402439025,-15.663564024390244L16.395271341463424,-14.931856707317074L17.12697865853659,-15.663564024390244L16.395271341463424,-16.395271341463413L15.66356402439025,-15.663564024390244" fill="rgba(0,0,0,0)" />
<path d="M16.395271341463424,-16.395271341463413L17.12697865853659,-15.663564024390244L17.858685975609763,-16.395271341463413L17.12697865853659,-17.126978658536586L16.395271341463424,-16.395271341463413" fill="rgba(0,155,0,0.7843137254901961)" />
<path d="M17.12697865853659,-17.126978658536586L17.858685975609763,-16.395271341463413L18.590393292682936,-17.126978658536586L17.858685975609763,-17.858685975609756L17.12697865853659,-17.126978658536586" fill="rgba(0,0,0,0)" />
<path d="M17.858685975609763,-17.858685975609756L18.590393292682936,-17.126978658536586L19.322100609756102,-17.858685975609756L18.590393292682936,-18.590393292682926L17.858685975609763,-17.858685975609756" fill="rgba(0,0,0,0)" />
<path d="M15.66356402439025,-14.200149390243904L15.66356402439025,-14.200149390243904" />
<path d="M15.66356402439025,-14.200149390243904L16.395271341463424,-13.468442073170731L17.12697865853659,-14.200149390243904L16.395271341463424,-14.931856707317074L15.66356402439025,-14.200149390243904" fill="rgba(0,0,0,0)" />
<path d="M16.395271341463424,-14.931856707317074L17.12697865853659,-14.200149390243904L17.858685975609763,-14.931856707317074L17.12697865853659,-15.663564024390244L16.395271341463424,-14.931856707317074" fill="rgba(0,0,0,0)" />
<path d="M17.12697865853659,-15.663564024390244L17.858685975609763,-14.931856707317074L18.590393292682936,-15.663564024390244L17.858685975609763,-16.395271341463413L17.12697865853659,-15.663564024390244" fill="rgba(0,0,0,0)" />
<path d="M17.858685975609763,-16.395271341463413L18.590393292682936,-15.663564024390244L19.322100609756102,-16.395271341463413L18.590393292682936,-17.126978658536586L17.858685975609763,-16.395271341463413" fill="rgba(0,155,0,0.7843137254901961)" />
<path d="M18.590393292682936,-17.126978658536586L19.322100609756102,-16.395271341463413L20.053807926829275,-17.126978658536586L19.322100609756102,-17.858685975609756L18.590393292682936,-17.126978658536586" fill="rgba(0,0,0,0)" />
<path d="M16.395271341463424,-13.468442073170731L16.395271341463424,-13.468442073170731" />
<path d="M16.395271341463424,-13.468442073170731L17.12697865853659,-12.736734756097562L17.858685975609763,-13.468442073170731L17.12697865853659,-14.200149390243904L16.395271341463424,-13.468442073170731" fill="rgba(0,155,0,0.7843137254901961)" />
<path d="M17.12697865853659,-14.200149390243904L17.858685975609763,-13.468442073170731L18.590393292682936,-14.200149390243904L17.858685975609763,-14.931856707317074L17.12697865853659,-14.200149390243904" fill="rgba(0,155,0,0.7843137254901961)" />
<path d="M17.858685975609763,-14.931856707317074L18.590393292682936,-14.200149390243904L19.322100609756102,-14.931856707317074L18.590393292682936,-15.663564024390244L17.858685975609763,-14.931856707317074" fill="rgba(0,155,0,0.7843137254901961)" />
<path d="M18.590393292682936,-15.663564024390244L19.322100609756102,-14.931856707317074L20.053807926829275,-15.663564024390244L19.322100609756102,-16.395271341463413L18.590393292682936,-15.663564024390244" fill="rgba(0,155,0,0.7843137254901961)" />
<path d="M19.322100609756102,-16.395271341463413L20.053807926829275,-15.663564024390244L20.78551524390244,-16.395271341463413L20.053807926829275,-17.126978658536586L19.322100609756102,-16.395271341463413" fill="rgba(0,155,0,0.7843137254901961)" />
<path d="M17.858685975609763,-12.005027439024392L17.858685975609763,-12.005027439024392" />
<path d="M17.858685975609763,-12.005027439024392L18.590393292682936,-11.273320121951219L19.322100609756102,-12.005027439024392L18.590393292682936,-12.736734756097562L17.858685975609763,-12.005027439024392" fill="rgba(0,155,0,0.7843137254901961)" />
<path d="M18.590393292682936,-12.736734756097562L19.322100609756102,-12.005027439024392L20.053807926829275,-12.736734756097562L19.322100609756102,-13.468442073170731L18.590393292682936,-12.736734756097562" fill="rgba(0,155,0,0.7843137254901961)" />
<path d="M19.322100609756102,-13.468442073170731L20.053807926829275,-12.736734756097562L20.78551524390244,-13.468442073170731L20.053807926829275,-14.200149390243904L19.322100609756102,-13.468442073170731" fill="rgba(0,155,0,0.7843137254901961)" />
<path d="M20.053807926829275,-14.200149390243904L20.78551524390244,-13.468442073170731L21.517222560975622,-14.200149390243904L20.78551524390244,-14.931856707317074L20.053807926829275,-14.200149390243904" fill="rgba(0,155,0,0.7843137254901961)" />
<path d="M20.78551524390244,-14.931856707317074L21.517222560975622,-14.200149390243904L22.248929878048788,-14.931856707317074L21.517222560975622,-15.663564024390244L20.78551524390244,-14.931856707317074" fill="rgba(0,0,0,0)" />
<path d="M18.590393292682936,-11.273320121951219L18.590393292682936,-11.273320121951219" />
<path d="M18.590393292682936,-11.273320121951219L19.322100609756102,-10.54161280487805L20.053807926829275,-11.273320121951219L19.322100609756102,-12.005027439024392L18.590393292682936,-11.273320121951219" fill="rgba(0,0,0,0)" />
<path d="M19.322100609756102,-12.005027439024392L20.053807926829275,-11.273320121951219L20.78551524390244,-12.005027439024392L20.053807926829275,-12.736734756097562L19.322100609756102,-12.005027439024392" fill="rgba(0,155,0,0.7843137254901961)" />
<path d="M20.053807926829275,-12.736734756097562L20.78551524390244,-12.005027439024392L21.517222560975622,-12.736734756097562L20.78551524390244,-13.468442073170731L20.053807926829275,-12.736734756097562" fill="rgba(0,0,0,0)" />
<path d="M20.78551524390244,-13.468442073170731L21.517222560975622,-12.736734756097562L22.248929878048788,-13.468442073170731L21.517222560975622,-14.200149390243904L20.78551524390244,-13.468442073170731" fill="rgba(0,0,0,0)" />
<path d="M21.517222560975622,-14.200149390243904L22.248929878048788,-13.468442073170731L22.98063719512196,-14.200149390243904L22.248929878048788,-14.931856707317074L21.517222560975622,-14.200149390243904" fill="rgba(0,155,0,0.7843137254901961)" />
<path d="M19.322100609756102,-10.54161280487805L19.322100609756102,-10.54161280487805" />
<path d="M19.322100609756102,-10.54161280487805L20.053807926829275,-9.809905487804876L20.78551524390244,-10.54161280487805L20.053807926829275,-11.273320121951219L19.322100609756102,-10.54161280487805" fill="rgba(0,0,0,0)" />
<path d="M20.053807926829275,-11.273320121951219L20.78551524390244,-10.54161280487805L21.517222560975622,-11.273320121951219L20.78551524390244,-12.005027439024392L20.053807926829275,-11.273320121951219" fill="rgba(0,155,0,0.7843137254901961)" />
<path d="M20.78551524390244,-12.005027439024392L21.517222560975622,-11.273320121951219L22.248929878048788,-12.005027439024392L21.517222560975622,-12.736734756097562L20.78551524390244,-12.005027439024392" fill="rgba(0,0,0,0)" />
<path d="M21.517222560975622,-12.736734756097562L22.248929878048788,-12.005027439024392L22.98063719512196,-12.736734756097562L22.248929878048788,-13.468442073170731L21.517222560975622,-12.736734756097562" fill="rgba(0,0,0,0)" />
<path d="M22.248929878048788,-13.468442073170731L22.98063719512196,-12.736734756097562L23.712344512195127,-13.468442073170731L22.98063719512196,-14.200149390243904L22.248929878048788,-13.468442073170731" fill="rgba(0,155,0,0.7843137254901961)" />
<path d="M20.053807926829275,-9.809905487804876L20.053807926829275,-9.809905487804876" />
<path d="M20.053807926829275,-9.809905487804876L20.78551524390244,-9.078198170731707L21.517222560975622,-9.809905487804876L20.78551524390244,-10.54161280487805L20.053807926829275,-9.809905487804876" fill="rgba(0,155,0,0.7843137254901961)" />
<path d="M20.78551524390244,-10.54161280487805L21.517222560975622,-9.809905487804876L22.248929878048788,-10.54161280487805L21.517222560975622,-11.273320121951219L20.78551524390244,-10.54161280487805" fill="rgba(0,155,0,0.7843137254901961)" />
<path d="M21.517222560975622,-11.273320121951219L22.248929878048788,-10.54161280487805L22.98063719512196,-11.273320121951219L22.248929878048788,-12.005027439024392L21.517222560975622,-11.273320121951219" fill="rgba(0,155,0,0.7843137254901961)" />
<path d="M22.248929878048788,-12.005027439024392L22.98063719512196,-11.273320121951219L23.712344512195127,-12.005027439024392L22.98063719512196,-12.736734756097562L22.248929878048788,-12.005027439024392" fill="rgba(0,155,0,0.7843137254901961)" />
<path d="M22.98063719512196,-12.736734756097562L23.712344512195127,-12.005027439024392L24.4440518292683,-12.736734756097562L23.712344512195127,-13.468442073170731L22.98063719512196,-12.736734756097562" fill="rgba(0,0,0,0)" />
<path d="M21.517222560975622,-8.346490853658537L21.517222560975622,-8.346490853658537" />
<path d="M21.517222560975622,-8.346490853658537L22.248929878048788,-7.614783536585364L22.98063719512196,-8.346490853658537L22.248929878048788,-9.078198170731707L21.517222560975622,-8.346490853658537" fill="rgba(0,155,0,0.7843137254901961)" />
<path d="M22.248929878048788,-9.078198170731707L22.98063719512196,-8.346490853658537L23.712344512195127,-9.078198170731707L22.98063719512196,-9.809905487804876L22.248929878048788,-9.078198170731707" fill="rgba(0,155,0,0.7843137254901961)" />
<path d="M22.98063719512196,-9.809905487804876L23.712344512195127,-9.078198170731707L24.4440518292683,-9.809905487804876L23.712344512195127,-10.54161280487805L22.98063719512196,-9.809905487804876" fill="rgba(0,155,0,0.7843137254901961)" />
<path d="M23.712344512195127,-10.54161280487805L24.4440518292683,-9.809905487804876L25.175759146341473,-10.54161280487805L24.4440518292683,-11.273320121951219L23.712344512195127,-10.54161280487805" fill="rgba(0,155,0,0.7843137254901961)" />
<path d="M24.4440518292683,-11.273320121951219L25.175759146341473,-10.54161280487805L25.907466463414647,-11.273320121951219L25.175759146341473,-12.005027439024392L24.4440518292683,-11.273320121951219" fill="rgba(0,155,0,0.7843137254901961)" />
<path d="M22.248929878048788,-7.614783536585364L22.248929878048788,-7.614783536585364" />
<path d="M22.248929878048788,-7.614783536585364L22.98063719512196,-6.883076219512194L23.712344512195127,-7.614783536585367L22.98063719512196,-8.346490853658537L22.248929878048788,-7.614783536585364" fill="rgba(0,0,0,0)" />
<path d="M22.98063719512196,-8.346490853658537L23.712344512195127,-7.614783536585367L24.4440518292683,-8.346490853658537L23.712344512195127,-9.078198170731707L22.98063719512196,-8.346490853658537" fill="rgba(0,0,0,0)" />
<path d="M23.712344512195127,-9.078198170731707L24.4440518292683,-8.346490853658537L25.175759146341473,-9.078198170731707L24.4440518292683,-9.809905487804876L23.712344512195127,-9.078198170731707" fill="rgba(0,155,0,0.7843137254901961)" />
<path d="M24.4440518292683,-9.809905487804876L25.175759146341473,-9.078198170731707L25.907466463414647,-9.809905487804876L25.175759146341473,-10.54161280487805L24.4440518292683,-9.809905487804876" fill="rgba(0,0,0,0)" />
<path d="M25.175759146341473,-10.54161280487805L25.907466463414647,-9.809905487804876L26.639173780487813,-10.54161280487805L25.907466463414647,-11.273320121951219L25.175759146341473,-10.54161280487805" fill="rgba(0,155,0,0.7843137254901961)" />
<path d="M22.98063719512196,-6.883076219512194L22.98063719512196,-6.883076219512194" />
<path d="M22.98063719512196,-6.883076219512194L23.712344512195127,-6.151368902439021L24.444051829268307,-6.883076219512194L23.712344512195127,-7.614783536585367L22.98063719512196,-6.883076219512194" fill="rgba(0,0,0,0)" />
<path d="M23.712344512195127,-7.614783536585367L24.444051829268307,-6.883076219512194L25.175759146341473,-7.614783536585367L24.4440518292683,-8.346490853658537L23.712344512195127,-7.614783536585367" fill="rgba(0,155,0,0.7843137254901961)" />
<path d="M24.4440518292683,-8.346490853658537L25.175759146341473,-7.614783536585367L25.907466463414647,-8.346490853658537L25.175759146341473,-9.078198170731707L24.4440518292683,-8.346490853658537" fill="rgba(0,155,0,0.7843137254901961)" />
<path d="M25.175759146341473,-9.078198170731707L25.907466463414647,-8.346490853658537L26.639173780487813,-9.078198170731707L25.907466463414647,-9.809905487804876L25.175759146341473,-9.078198170731707" fill="rgba(0,0,0,0)" />
<path d="M25.907466463414647,-9.809905487804876L26.639173780487813,-9.078198170731707L27.370881097560986,-9.809905487804876L26.639173780487813,-10.54161280487805L25.907466463414647,-9.809905487804876" fill="rgba(0,155,0,0.7843137254901961)" />
<path d="M23.712344512195127,-6.151368902439021L23.712344512195127,-6.151368902439021" />
<path d="M23.712344512195127,-6.151368902439021L24.444051829268307,-5.419661585365851L25.175759146341473,-6.151368902439021L24.444051829268307,-6.883076219512194L23.712344512195127,-6.151368902439021" fill="rgba(0,155,0,0.7843137254901961)" />
<path d="M24.444051829268307,-6.883076219512194L25.175759146341473,-6.151368902439021L25.907466463414647,-6.883076219512194L25.175759146341473,-7.614783536585367L24.444051829268307,-6.883076219512194" fill="rgba(0,0,0,0)" />
<path d="M25.175759146341473,-7.614783536585367L25.907466463414647,-6.883076219512194L26.639173780487813,-7.614783536585364L25.907466463414647,-8.346490853658537L25.175759146341473,-7.614783536585367" fill="rgba(0,155,0,0.7843137254901961)" />
<path d="M25.907466463414647,-8.346490853658537L26.639173780487813,-7.614783536585364L27.370881097560986,-8.346490853658537L26.639173780487813,-9.078198170731707L25.907466463414647,-8.346490853658537" fill="rgba(0,155,0,0.7843137254901961)" />
<path d="M26.639173780487813,-9.078198170731707L27.370881097560986,-8.346490853658537L28.10258841463416,-9.078198170731707L27.370881097560986,-9.809905487804876L26.639173780487813,-9.078198170731707" fill="rgba(0,155,0,0.7843137254901961)" />
<path d="M25.175759146341473,-4.687954268292685L25.175759146341473,-4.687954268292685" />
<path d="M25.175759146341473,-4.687954268292685L25.907466463414647,-3.9562469512195158L26.639173780487813,-4.687954268292685L25.907466463414647,-5.419661585365851L25.175759146341473,-4.687954268292685" fill="rgba(0,155,0,0.7843137254901961)" />
<path d="M25.907466463414647,-5.419661585365851L26.639173780487813,-4.687954268292685L27.370881097560986,-5.419661585365851L26.639173780487813,-6.151368902439025L25.907466463414647,-5.419661585365851" fill="rgba(0,155,0,0.7843137254901961)" />
<path d="M26.639173780487813,-6.151368902439025L27.370881097560986,-5.419661585365851L28.102588414634152,-6.151368902439021L27.370881097560986,-6.883076219512194L26.639173780487813,-6.151368902439025" fill="rgba(0,155,0,0.7843137254901961)" />
<path d="M27.370881097560986,-6.883076219512194L28.102588414634152,-6.151368902439021L28.834295731707332,-6.883076219512194L28.102588414634152,-7.614783536585367L27.370881097560986,-6.883076219512194" fill="rgba(0,155,0,0.7843137254901961)" />
<path d="M28.102588414634152,-7.614783536585367L28.834295731707332,-6.883076219512194L29.566003048780498,-7.614783536585367L28.834295731707332,-8.346490853658537L28.102588414634152,-7.614783536585367" fill="rgba(0,155,0,0.7843137254901961)" />
<path d="M25.907466463414647,-3.9562469512195158L25.907466463414647,-3.9562469512195158" />
<path d="M25.907466463414647,-3.9562469512195158L26.639173780487813,-3.2245396341463426L27.370881097560986,-3.9562469512195158L26.639173780487813,-4.687954268292685L25.907466463414647,-3.9562469512195158" fill="rgba(0,0,0,0)" />
<path d="M26.639173780487813,-4.687954268292685L27.370881097560986,-3.9562469512195158L28.10258841463416,-4.687954268292685L27.370881097560986,-5.419661585365851L26.639173780487813,-4.687954268292685" fill="rgba(0,0,0,0)" />
<path d="M27.370881097560986,-5.419661585365851L28.10258841463416,-4.687954268292685L28.834295731707332,-5.419661585365851L28.102588414634152,-6.151368902439021L27.370881097560986,-5.419661585365851" fill="rgba(0,155,0,0.7843137254901961)" />
<path d="M28.102588414634152,-6.151368902439021L28.834295731707332,-5.419661585365851L29.566003048780498,-6.151368902439021L28.834295731707332,-6.883076219512194L28.102588414634152,-6.151368902439021" fill="rgba(0,0,0,0)" />
<path d="M28.834295731707332,-6.883076219512194L29.566003048780498,-6.151368902439021L30.297710365853664,-6.883076219512194L29.566003048780498,-7.614783536585367L28.834295731707332,-6.883076219512194" fill="rgba(0,0,0,0)" />
<path d="M26.639173780487813,-3.2245396341463426L26.639173780487813,-3.2245396341463426" />
<path d="M26.639173780487813,-3.2245396341463426L27.370881097560986,-2.4928323170731694L28.10258841463416,-3.2245396341463426L27.370881097560986,-3.9562469512195158L26.639173780487813,-3.2245396341463426" fill="rgba(0,0,0,0)" />
<path d="M27.370881097560986,-3.9562469512195158L28.10258841463416,-3.2245396341463426L28.834295731707332,-3.9562469512195158L28.10258841463416,-4.687954268292685L27.370881097560986,-3.9562469512195158" fill="rgba(0,0,0,0)" />
<path d="M28.10258841463416,-4.687954268292685L28.834295731707332,-3.9562469512195158L29.566003048780498,-4.687954268292685L28.834295731707332,-5.419661585365851L28.10258841463416,-4.687954268292685" fill="rgba(0,155,0,0.7843137254901961)" />
<path d="M28.834295731707332,-5.419661585365851L29.566003048780498,-4.687954268292685L30.297710365853664,-5.419661585365851L29.566003048780498,-6.151368902439021L28.834295731707332,-5.419661585365851" fill="rgba(0,155,0,0.7843137254901961)" />
<path d="M29.566003048780498,-6.151368902439021L30.297710365853664,-5.419661585365851L31.029417682926837,-6.151368902439021L30.297710365853664,-6.883076219512194L29.566003048780498,-6.151368902439021" fill="rgba(0,0,0,0)" />
<path d="M27.370881097560986,-2.4928323170731694L27.370881097560986,-2.4928323170731694" />
<path d="M27.370881097560986,-2.4928323170731694L28.10258841463416,-1.7611249999999998L28.834295731707332,-2.4928323170731694L28.10258841463416,-3.2245396341463426L27.370881097560986,-2.4928323170731694" fill="rgba(0,155,0,0.7843137254901961)" />
<path d="M28.10258841463416,-3.2245396341463426L28.834295731707332,-2.4928323170731694L29.566003048780498,-3.2245396341463426L28.834295731707332,-3.9562469512195158L28.10258841463416,-3.2245396341463426" fill="rgba(0,155,0,0.7843137254901961)" />
<path d="M28.834295731707332,-3.9562469512195158L29.566003048780498,-3.2245396341463426L30.297710365853664,-3.956246951219512L29.566003048780498,-4.687954268292685L28.834295731707332,-3.9562469512195158" fill="rgba(0,0,0,0)" />
<path d="M29.566003048780498,-4.687954268292685L30.297710365853664,-3.956246951219512L31.029417682926837,-4.687954268292685L30.297710365853664,-5.419661585365851L29.566003048780498,-4.687954268292685" fill="rgba(0,155,0,0.7843137254901961)" />
<path d="M30.297710365853664,-5.419661585365851L31.029417682926837,-4.687954268292685L31.76112500000001,-5.419661585365851L31.029417682926837,-6.151368902439021L30.297710365853664,-5.419661585365851" fill="rgba(0,155,0,0.7843137254901961)" />
</svg>
