<svg xmlns="http://www.w3.org/2000/svg" viewBox="-0.5 -34.02225 66.22250000000001 34.52225">
<path d="M0,0L65.22250000000001,0L65.22250000000001,-33.52225L0,-33.52225L0,0" stroke-width="0" stroke="rgba(0,0,0,1)" fill="rgba(255,0,0,1)" />
<path d="M0,-14.36667857142857L65.22250000000001,-14.36667857142857L65.22250000000001,-19.155571428571427L0,-19.155571428571427L0,-14.36667857142857" stroke="rgba(0,0,0,1)" stroke-width="0" fill="rgba(255,255,255,1)" />
<path d="M19.292541291291293,-0L26.539485735735738,-0L26.539485735735738,-33.52225L19.292541291291293,-33.52225L19.292541291291293,-0" stroke-width="0" fill="rgba(255,255,255,1)" stroke="rgba(0,0,0,1)" />
<path d="M4.831125000000004,-3.261125L1.7611250000000034,-9.261125L2.3211250000000034,-20.761125L6.791125000000003,-23.761125L14.061125000000002,-23.761125L17.421125000000004,-17.761125L12.381125000000003,-13.761125L11.821125000000002,-1.7611249999999998L4.831125000000004,-3.261125" fill="rgba(0,155,0,0.7843137254901961)" />
<path d="M2.7611250000000034,-22.761125L4.441125000000003,-25.761125L15.621125000000003,-31.761125L15.621125000000003,-28.761125L14.501125000000002,-24.761125L8.351125000000003,-24.761125L2.7611250000000034,-22.761125" fill="rgba(0,155,0,0.7843137254901961)" />
<path d="M12.949125,-9.761125L14.059125,-5.761125L17.419125,-4.761125L18.539125000000002,-8.761125L17.419125,-10.761125L12.949125,-9.761125" fill="rgba(0,155,0,0.7843137254901961)" />
<path d="M20.439125000000004,-8.261125L21.549125000000004,-13.261125L28.819125000000003,-15.261125L29.939125000000004,-12.261125L27.709125000000004,-8.261125L24.909125000000003,-5.261125L20.439125000000004,-8.261125" fill="rgba(0,155,0,0.7843137254901961)" />
<path d="M20.35770388137375,-5.276125L24.139026987416248,-3.8998359432575107L24.012777052207266,-2.2431027257901555L19.810471652052684,-3.7726168067425476L20.35770388137375,-5.276125" fill="rgba(0,155,0,0.7843137254901961)" />
<path d="M25.20328106593212,-3.3094672466606667L24.459811861366727,-2.366032277061329L24.64927962813688,-5.161400940646715L25.877290999430745,-4.646825317464884L25.20328106593212,-3.3094672466606667" fill="rgba(0,155,0,0.7843137254901961)" />
<path d="M33.461375000000004,-28.10258841463415L33.461375000000004,-28.10258841463415" />
<path d="M33.461375000000004,-28.10258841463415L34.19308231707318,-27.370881097560975L34.92478963414635,-28.10258841463415L34.19308231707318,-28.834295731707318L33.461375000000004,-28.10258841463415" fill="rgba(0,155,0,0.7843137254901961)" />
<path d="M34.19308231707318,-28.834295731707318L34.92478963414635,-28.10258841463415L35.65649695121951,-28.834295731707318L34.92478963414635,-29.566003048780487L34.19308231707318,-28.834295731707318" fill="rgba(0,155,0,0.7843137254901961)" />
<path d="M34.92478963414635,-29.566003048780487L35.65649695121951,-28.834295731707318L36.38820426829268,-29.566003048780487L35.65649695121951,-30.297710365853657L34.92478963414635,-29.566003048780487" fill="rgba(0,155,0,0.7843137254901961)" />
<path d="M35.65649695121951,-30.297710365853657L36.38820426829268,-29.566003048780487L37.119911585365855,-30.297710365853657L36.38820426829268,-31.029417682926827L35.65649695121951,-30.297710365853657" fill="rgba(0,155,0,0.7843137254901961)" />
<path d="M36.38820426829268,-31.029417682926827L37.119911585365855,-30.297710365853657L37.85161890243903,-31.029417682926827L37.119911585365855,-31.761125L36.38820426829268,-31.029417682926827" fill="rgba(0,155,0,0.7843137254901961)" />
<path d="M34.19308231707318,-27.370881097560975L34.19308231707318,-27.370881097560975" />
<path d="M34.19308231707318,-27.370881097560975L34.92478963414635,-26.639173780487802L35.65649695121951,-27.370881097560975L34.92478963414635,-28.10258841463415L34.19308231707318,-27.370881097560975" fill="rgba(0,155,0,0.7843137254901961)" />
<path d="M34.92478963414635,-28.10258841463415L35.65649695121951,-27.370881097560975L36.38820426829268,-28.10258841463415L35.65649695121951,-28.834295731707318L34.92478963414635,-28.10258841463415" fill="rgba(0,0,0,0)" />
<path d="M35.65649695121951,-28.834295731707318L36.38820426829268,-28.10258841463415L37.119911585365855,-28.834295731707314L36.38820426829268,-29.566003048780487L35.65649695121951,-28.834295731707318" fill="rgba(0,0,0,0)" />
<path d="M36.38820426829268,-29.566003048780487L37.119911585365855,-28.834295731707314L37.85161890243903,-29.566003048780487L37.119911585365855,-30.297710365853657L36.38820426829268,-29.566003048780487" fill="rgba(0,0,0,0)" />
<path d="M37.119911585365855,-30.297710365853657L37.85161890243903,-29.566003048780487L38.5833262195122,-30.297710365853657L37.85161890243903,-31.029417682926827L37.119911585365855,-30.297710365853657" fill="rgba(0,155,0,0.7843137254901961)" />
<path d="M34.92478963414635,-26.639173780487802L34.92478963414635,-26.639173780487802" />
<path d="M34.92478963414635,-26.639173780487802L35.65649695121951,-25.907466463414632L36.38820426829268,-26.639173780487802L35.65649695121951,-27.370881097560975L34.92478963414635,-26.639173780487802" fill="rgba(0,155,0,0.7843137254901961)" />
<path d="M35.65649695121951,-27.370881097560975L36.38820426829268,-26.639173780487802L37.119911585365855,-27.370881097560975L36.38820426829268,-28.10258841463415L35.65649695121951,-27.370881097560975" fill="rgba(0,0,0,0)" />
<path d="M36.38820426829268,-28.10258841463415L37.119911585365855,-27.370881097560975L37.85161890243903,-28.102588414634145L37.119911585365855,-28.834295731707314L36.38820426829268,-28.10258841463415" fill="rgba(0,0,0,0)" />
<path d="M37.119911585365855,-28.834295731707314L37.85161890243903,-28.102588414634145L38.5833262195122,-28.834295731707314L37.85161890243903,-29.566003048780487L37.119911585365855,-28.834295731707314" fill="rgba(0,0,0,0)" />
<path d="M37.85161890243903,-29.566003048780487L38.5833262195122,-28.834295731707314L39.315033536585375,-29.566003048780487L38.5833262195122,-30.297710365853657L37.85161890243903,-29.566003048780487" fill="rgba(0,155,0,0.7843137254901961)" />
<path d="M35.65649695121951,-25.907466463414632L35.65649695121951,-25.907466463414632" />
<path d="M35.65649695121951,-25.907466463414632L36.38820426829268,-25.175759146341463L37.119911585365855,-25.907466463414632L36.38820426829268,-26.639173780487802L35.65649695121951,-25.907466463414632" fill="rgba(0,0,0,0)" />
<path d="M36.38820426829268,-26.639173780487802L37.119911585365855,-25.907466463414632L37.85161890243903,-26.639173780487802L37.119911585365855,-27.370881097560975L36.38820426829268,-26.639173780487802" fill="rgba(0,155,0,0.7843137254901961)" />
<path d="M37.119911585365855,-27.370881097560975L37.85161890243903,-26.639173780487802L38.5833262195122,-27.370881097560975L37.85161890243903,-28.102588414634145L37.119911585365855,-27.370881097560975" fill="rgba(0,155,0,0.7843137254901961)" />
<path d="M37.85161890243903,-28.102588414634145L38.5833262195122,-27.370881097560975L39.315033536585375,-28.102588414634145L38.5833262195122,-28.834295731707314L37.85161890243903,-28.102588414634145" fill="rgba(0,155,0,0.7843137254901961)" />
<path d="M38.5833262195122,-28.834295731707314L39.315033536585375,-28.102588414634145L40.046740853658534,-28.834295731707314L39.315033536585375,-29.566003048780487L38.5833262195122,-28.834295731707314" fill="rgba(0,0,0,0)" />
<path d="M37.119911585365855,-24.444051829268293L37.119911585365855,-24.444051829268293" />
<path d="M37.119911585365855,-24.444051829268293L37.85161890243903,-23.71234451219512L38.5833262195122,-24.444051829268293L37.85161890243903,-25.175759146341463L37.119911585365855,-24.444051829268293" fill="rgba(0,155,0,0.7843137254901961)" />
<path d="M37.85161890243903,-25.175759146341463L38.5833262195122,-24.444051829268293L39.315033536585375,-25.175759146341463L38.5833262195122,-25.907466463414636L37.85161890243903,-25.175759146341463" fill="rgba(0,155,0,0.7843137254901961)" />
<path d="M38.5833262195122,-25.907466463414636L39.315033536585375,-25.175759146341463L40.046740853658534,-25.907466463414632L39.31503353658536,-26.639173780487802L38.5833262195122,-25.907466463414636" fill="rgba(0,155,0,0.7843137254901961)" />
<path d="M39.31503353658536,-26.639173780487802L40.046740853658534,-25.907466463414632L40.77844817073171,-26.639173780487802L40.046740853658534,-27.370881097560975L39.31503353658536,-26.639173780487802" fill="rgba(0,155,0,0.7843137254901961)" />
<path d="M40.046740853658534,-27.370881097560975L40.77844817073171,-26.639173780487802L41.51015548780488,-27.370881097560975L40.77844817073171,-28.10258841463415L40.046740853658534,-27.370881097560975" fill="rgba(0,155,0,0.7843137254901961)" />
<path d="M37.85161890243903,-23.71234451219512L37.85161890243903,-23.71234451219512" />
<path d="M37.85161890243903,-23.71234451219512L38.5833262195122,-22.98063719512195L39.315033536585375,-23.71234451219512L38.5833262195122,-24.444051829268293L37.85161890243903,-23.71234451219512" fill="rgba(0,155,0,0.7843137254901961)" />
<path d="M38.5833262195122,-24.444051829268293L39.315033536585375,-23.71234451219512L40.046740853658534,-24.444051829268293L39.315033536585375,-25.175759146341463L38.5833262195122,-24.444051829268293" fill="rgba(0,0,0,0)" />
<path d="M39.315033536585375,-25.175759146341463L40.046740853658534,-24.444051829268293L40.77844817073171,-25.175759146341463L40.046740853658534,-25.907466463414632L39.315033536585375,-25.175759146341463" fill="rgba(0,155,0,0.7843137254901961)" />
<path d="M40.046740853658534,-25.907466463414632L40.77844817073171,-25.175759146341463L41.51015548780488,-25.907466463414632L40.77844817073171,-26.639173780487802L40.046740853658534,-25.907466463414632" fill="rgba(0,0,0,0)" />
<path d="M40.77844817073171,-26.639173780487802L41.51015548780488,-25.907466463414632L42.24186280487805,-26.639173780487802L41.51015548780488,-27.370881097560975L40.77844817073171,-26.639173780487802" fill="rgba(0,155,0,0.7843137254901961)" />
<path d="M38.5833262195122,-22.98063719512195L38.5833262195122,-22.98063719512195" />
<path d="M38.5833262195122,-22.98063719512195L39.315033536585375,-22.24892987804878L40.046740853658534,-22.98063719512195L39.315033536585375,-23.71234451219512L38.5833262195122,-22.98063719512195" fill="rgba(0,155,0,0.7843137254901961)" />
<path d="M39.315033536585375,-23.71234451219512L40.046740853658534,-22.98063719512195L40.77844817073171,-23.71234451219512L40.046740853658534,-24.444051829268293L39.315033536585375,-23.71234451219512" fill="rgba(0,0,0,0)" />
<path d="M40.046740853658534,-24.444051829268293L40.77844817073171,-23.71234451219512L41.51015548780488,-24.444051829268293L40.77844817073171,-25.175759146341463L40.046740853658534,-24.444051829268293" fill="rgba(0,155,0,0.7843137254901961)" />
<path d="M40.77844817073171,-25.175759146341463L41.51015548780488,-24.444051829268293L42.24186280487805,-25.175759146341463L41.51015548780488,-25.907466463414632L40.77844817073171,-25.175759146341463" fill="rgba(0,0,0,0)" />
<path d="M41.51015548780488,-25.907466463414632L42.24186280487805,-25.175759146341463L42.97357012195123,-25.907466463414636L42.24186280487805,-26.639173780487802L41.51015548780488,-25.907466463414632" fill="rgba(0,155,0,0.7843137254901961)" />
<path d="M39.315033536585375,-22.24892987804878L39.315033536585375,-22.24892987804878" />
<path d="M39.315033536585375,-22.24892987804878L40.046740853658534,-21.51722256097561L40.77844817073171,-22.24892987804878L40.046740853658534,-22.98063719512195L39.315033536585375,-22.24892987804878" fill="rgba(0,155,0,0.7843137254901961)" />
<path d="M40.046740853658534,-22.98063719512195L40.77844817073171,-22.24892987804878L41.51015548780488,-22.98063719512195L40.77844817073171,-23.71234451219512L40.046740853658534,-22.98063719512195" fill="rgba(0,0,0,0)" />
<path d="M40.77844817073171,-23.71234451219512L41.51015548780488,-22.98063719512195L42.24186280487805,-23.712344512195124L41.51015548780488,-24.444051829268293L40.77844817073171,-23.71234451219512" fill="rgba(0,155,0,0.7843137254901961)" />
<path d="M41.51015548780488,-24.444051829268293L42.24186280487805,-23.712344512195124L42.97357012195123,-24.444051829268293L42.24186280487805,-25.175759146341463L41.51015548780488,-24.444051829268293" fill="rgba(0,0,0,0)" />
<path d="M42.24186280487805,-25.175759146341463L42.97357012195123,-24.444051829268293L43.705277439024385,-25.175759146341463L42.97357012195123,-25.907466463414636L42.24186280487805,-25.175759146341463" fill="rgba(0,155,0,0.7843137254901961)" />
<path d="M40.77844817073171,-20.785515243902438L40.77844817073171,-20.785515243902438" />
<path d="M40.77844817073171,-20.785515243902438L41.51015548780488,-20.053807926829265L42.24186280487805,-20.785515243902438L41.51015548780488,-21.51722256097561L40.77844817073171,-20.785515243902438" fill="rgba(0,155,0,0.7843137254901961)" />
<path d="M41.51015548780488,-21.51722256097561L42.24186280487805,-20.785515243902438L42.97357012195123,-21.517222560975608L42.24186280487805,-22.24892987804878L41.51015548780488,-21.51722256097561" fill="rgba(0,155,0,0.7843137254901961)" />
<path d="M42.24186280487805,-22.24892987804878L42.97357012195123,-21.517222560975608L43.7052774390244,-22.24892987804878L42.97357012195123,-22.98063719512195L42.24186280487805,-22.24892987804878" fill="rgba(0,155,0,0.7843137254901961)" />
<path d="M42.97357012195123,-22.98063719512195L43.7052774390244,-22.24892987804878L44.43698475609756,-22.98063719512195L43.705277439024385,-23.71234451219512L42.97357012195123,-22.98063719512195" fill="rgba(0,155,0,0.7843137254901961)" />
<path d="M43.705277439024385,-23.71234451219512L44.43698475609756,-22.98063719512195L45.16869207317073,-23.71234451219512L44.43698475609756,-24.444051829268293L43.705277439024385,-23.71234451219512" fill="rgba(0,155,0,0.7843137254901961)" />
<path d="M41.51015548780488,-20.053807926829265L41.51015548780488,-20.053807926829265" />
<path d="M41.51015548780488,-20.053807926829265L42.24186280487805,-19.322100609756095L42.97357012195123,-20.053807926829265L42.24186280487805,-20.785515243902438L41.51015548780488,-20.053807926829265" fill="rgba(0,0,0,0)" />
<path d="M42.24186280487805,-20.785515243902438L42.97357012195123,-20.053807926829265L43.705277439024385,-20.785515243902438L42.97357012195123,-21.517222560975608L42.24186280487805,-20.785515243902438" fill="rgba(0,0,0,0)" />
<path d="M42.97357012195123,-21.517222560975608L43.705277439024385,-20.785515243902438L44.43698475609756,-21.51722256097561L43.7052774390244,-22.24892987804878L42.97357012195123,-21.517222560975608" fill="rgba(0,0,0,0)" />
<path d="M43.7052774390244,-22.24892987804878L44.43698475609756,-21.51722256097561L45.16869207317073,-22.24892987804878L44.43698475609756,-22.98063719512195L43.7052774390244,-22.24892987804878" fill="rgba(0,155,0,0.7843137254901961)" />
<path d="M44.43698475609756,-22.98063719512195L45.16869207317073,-22.24892987804878L45.900399390243905,-22.98063719512195L45.16869207317073,-23.71234451219512L44.43698475609756,-22.98063719512195" fill="rgba(0,0,0,0)" />
<path d="M42.24186280487805,-19.322100609756095L42.24186280487805,-19.322100609756095" />
<path d="M42.24186280487805,-19.322100609756095L42.97357012195123,-18.590393292682926L43.7052774390244,-19.322100609756095L42.97357012195123,-20.053807926829265L42.24186280487805,-19.322100609756095" fill="rgba(0,0,0,0)" />
<path d="M42.97357012195123,-20.053807926829265L43.7052774390244,-19.322100609756095L44.43698475609756,-20.053807926829265L43.705277439024385,-20.785515243902438L42.97357012195123,-20.053807926829265" fill="rgba(0,0,0,0)" />
<path d="M43.705277439024385,-20.785515243902438L44.43698475609756,-20.053807926829265L45.16869207317073,-20.785515243902438L44.43698475609756,-21.51722256097561L43.705277439024385,-20.785515243902438" fill="rgba(0,155,0,0.7843137254901961)" />
<path d="M44.43698475609756,-21.51722256097561L45.16869207317073,-20.785515243902438L45.900399390243905,-21.51722256097561L45.16869207317073,-22.24892987804878L44.43698475609756,-21.51722256097561" fill="rgba(0,0,0,0)" />
<path d="M45.16869207317073,-22.24892987804878L45.900399390243905,-21.51722256097561L46.63210670731708,-22.24892987804878L45.900399390243905,-22.98063719512195L45.16869207317073,-22.24892987804878" fill="rgba(0,0,0,0)" />
<path d="M42.97357012195123,-18.590393292682926L42.97357012195123,-18.590393292682926" />
<path d="M42.97357012195123,-18.590393292682926L43.7052774390244,-17.858685975609756L44.43698475609756,-18.590393292682926L43.7052774390244,-19.322100609756095L42.97357012195123,-18.590393292682926" fill="rgba(0,0,0,0)" />
<path d="M43.7052774390244,-19.322100609756095L44.43698475609756,-18.590393292682926L45.16869207317073,-19.322100609756095L44.43698475609756,-20.053807926829265L43.7052774390244,-19.322100609756095" fill="rgba(0,155,0,0.7843137254901961)" />
<path d="M44.43698475609756,-20.053807926829265L45.16869207317073,-19.322100609756095L45.900399390243905,-20.05380792682927L45.16869207317073,-20.785515243902438L44.43698475609756,-20.053807926829265" fill="rgba(0,0,0,0)" />
<path d="M45.16869207317073,-20.785515243902438L45.900399390243905,-20.05380792682927L46.63210670731708,-20.785515243902438L45.900399390243905,-21.51722256097561L45.16869207317073,-20.785515243902438" fill="rgba(0,0,0,0)" />
<path d="M45.900399390243905,-21.51722256097561L46.63210670731708,-20.785515243902438L47.36381402439025,-21.51722256097561L46.63210670731708,-22.24892987804878L45.900399390243905,-21.51722256097561" fill="rgba(0,0,0,0)" />
<path d="M43.7052774390244,-17.858685975609756L43.7052774390244,-17.858685975609756" />
<path d="M43.7052774390244,-17.858685975609756L44.43698475609756,-17.126978658536586L45.16869207317073,-17.858685975609756L44.43698475609756,-18.590393292682926L43.7052774390244,-17.858685975609756" fill="rgba(0,155,0,0.7843137254901961)" />
<path d="M44.43698475609756,-18.590393292682926L45.16869207317073,-17.858685975609756L45.900399390243905,-18.590393292682926L45.16869207317073,-19.322100609756095L44.43698475609756,-18.590393292682926" fill="rgba(0,155,0,0.7843137254901961)" />
<path d="M45.16869207317073,-19.322100609756095L45.900399390243905,-18.590393292682926L46.63210670731708,-19.3221006097561L45.900399390243905,-20.05380792682927L45.16869207317073,-19.322100609756095" fill="rgba(0,155,0,0.7843137254901961)" />
<path d="M45.900399390243905,-20.05380792682927L46.63210670731708,-19.3221006097561L47.36381402439025,-20.05380792682927L46.63210670731708,-20.785515243902438L45.900399390243905,-20.05380792682927" fill="rgba(0,155,0,0.7843137254901961)" />
<path d="M46.63210670731708,-20.785515243902438L47.36381402439025,-20.05380792682927L48.095521341463424,-20.785515243902438L47.36381402439025,-21.51722256097561L46.63210670731708,-20.785515243902438" fill="rgba(0,155,0,0.7843137254901961)" />
<path d="M45.16869207317073,-16.395271341463413L45.16869207317073,-16.395271341463413" />
<path d="M45.16869207317073,-16.395271341463413L45.900399390243905,-15.663564024390244L46.63210670731708,-16.395271341463413L45.900399390243905,-17.126978658536586L45.16869207317073,-16.395271341463413" fill="rgba(0,155,0,0.7843137254901961)" />
<path d="M45.900399390243905,-17.126978658536586L46.63210670731708,-16.395271341463413L47.36381402439025,-17.126978658536586L46.63210670731708,-17.858685975609756L45.900399390243905,-17.126978658536586" fill="rgba(0,155,0,0.7843137254901961)" />
<path d="M46.63210670731708,-17.858685975609756L47.36381402439025,-17.126978658536586L48.095521341463424,-17.858685975609756L47.36381402439025,-18.590393292682926L46.63210670731708,-17.858685975609756" fill="rgba(0,155,0,0.7843137254901961)" />
<path d="M47.36381402439025,-18.590393292682926L48.095521341463424,-17.858685975609756L48.82722865853658,-18.590393292682926L48.095521341463424,-19.3221006097561L47.36381402439025,-18.590393292682926" fill="rgba(0,155,0,0.7843137254901961)" />
<path d="M48.095521341463424,-19.3221006097561L48.82722865853658,-18.590393292682926L49.55893597560976,-19.3221006097561L48.82722865853658,-20.05380792682927L48.095521341463424,-19.3221006097561" fill="rgba(0,155,0,0.7843137254901961)" />
<path d="M45.900399390243905,-15.663564024390244L45.900399390243905,-15.663564024390244" />
<path d="M45.900399390243905,-15.663564024390244L46.63210670731708,-14.931856707317074L47.36381402439025,-15.663564024390244L46.63210670731708,-16.395271341463413L45.900399390243905,-15.663564024390244" fill="rgba(0,0,0,0)" />
<path d="M46.63210670731708,-16.395271341463413L47.36381402439025,-15.663564024390244L48.095521341463424,-16.395271341463413L47.36381402439025,-17.126978658536586L46.63210670731708,-16.395271341463413" fill="rgba(0,0,0,0)" />
<path d="M47.36381402439025,-17.126978658536586L48.095521341463424,-16.395271341463413L48.82722865853658,-17.126978658536586L48.095521341463424,-17.858685975609756L47.36381402439025,-17.126978658536586" fill="rgba(0,0,0,0)" />
<path d="M48.095521341463424,-17.858685975609756L48.82722865853658,-17.126978658536586L49.55893597560976,-17.858685975609756L48.82722865853658,-18.590393292682926L48.095521341463424,-17.858685975609756" fill="rgba(0,155,0,0.7843137254901961)" />
<path d="M48.82722865853658,-18.590393292682926L49.55893597560976,-17.858685975609756L50.29064329268293,-18.590393292682926L49.55893597560976,-19.3221006097561L48.82722865853658,-18.590393292682926" fill="rgba(0,0,0,0)" />
<path d="M46.63210670731708,-14.931856707317074L46.63210670731708,-14.931856707317074" />
<path d="M46.63210670731708,-14.931856707317074L47.36381402439025,-14.200149390243904L48.095521341463424,-14.931856707317074L47.36381402439025,-15.663564024390244L46.63210670731708,-14.931856707317074" fill="rgba(0,0,0,0)" />
<path d="M47.36381402439025,-15.663564024390244L48.095521341463424,-14.931856707317074L48.82722865853658,-15.663564024390244L48.095521341463424,-16.395271341463413L47.36381402439025,-15.663564024390244" fill="rgba(0,0,0,0)" />
<path d="M48.095521341463424,-16.395271341463413L48.82722865853658,-15.663564024390244L49.55893597560976,-16.395271341463413L48.82722865853658,-17.126978658536586L48.095521341463424,-16.395271341463413" fill="rgba(0,155,0,0.7843137254901961)" />
<path d="M48.82722865853658,-17.126978658536586L49.55893597560976,-16.395271341463413L50.29064329268293,-17.126978658536586L49.55893597560976,-17.858685975609756L48.82722865853658,-17.126978658536586" fill="rgba(0,0,0,0)" />
<path d="M49.55893597560976,-17.858685975609756L50.29064329268293,-17.126978658536586L51.0223506097561,-17.858685975609756L50.29064329268293,-18.590393292682926L49.55893597560976,-17.858685975609756" fill="rgba(0,0,0,0)" />
<path d="M47.36381402439025,-14.200149390243904L47.36381402439025,-14.200149390243904" />
<path d="M47.36381402439025,-14.200149390243904L48.095521341463424,-13.468442073170731L48.82722865853658,-14.200149390243904L48.095521341463424,-14.931856707317074L47.36381402439025,-14.200149390243904" fill="rgba(0,0,0,0)" />
<path d="M48.095521341463424,-14.931856707317074L48.82722865853658,-14.200149390243904L49.55893597560976,-14.931856707317074L48.82722865853658,-15.663564024390244L48.095521341463424,-14.931856707317074" fill="rgba(0,0,0,0)" />
<path d="M48.82722865853658,-15.663564024390244L49.55893597560976,-14.931856707317074L50.29064329268293,-15.663564024390244L49.55893597560976,-16.395271341463413L48.82722865853658,-15.663564024390244" fill="rgba(0,0,0,0)" />
<path d="M49.55893597560976,-16.395271341463413L50.29064329268293,-15.663564024390244L51.0223506097561,-16.395271341463413L50.29064329268293,-17.126978658536586L49.55893597560976,-16.395271341463413" fill="rgba(0,155,0,0.7843137254901961)" />
<path d="M50.29064329268293,-17.126978658536586L51.0223506097561,-16.395271341463413L51.754057926829276,-17.126978658536586L51.0223506097561,-17.858685975609756L50.29064329268293,-17.126978658536586" fill="rgba(0,0,0,0)" />
<path d="M48.095521341463424,-13.468442073170731L48.095521341463424,-13.468442073170731" />
<path d="M48.095521341463424,-13.468442073170731L48.82722865853658,-12.736734756097562L49.55893597560976,-13.468442073170731L48.82722865853658,-14.200149390243904L48.095521341463424,-13.468442073170731" fill="rgba(0,155,0,0.7843137254901961)" />
<path d="M48.82722865853658,-14.200149390243904L49.55893597560976,-13.468442073170731L50.29064329268293,-14.200149390243904L49.55893597560976,-14.931856707317074L48.82722865853658,-14.200149390243904" fill="rgba(0,155,0,0.7843137254901961)" />
<path d="M49.55893597560976,-14.931856707317074L50.29064329268293,-14.200149390243904L51.0223506097561,-14.931856707317074L50.29064329268293,-15.663564024390244L49.55893597560976,-14.931856707317074" fill="rgba(0,155,0,0.7843137254901961)" />
<path d="M50.29064329268293,-15.663564024390244L51.0223506097561,-14.931856707317074L51.754057926829276,-15.663564024390244L51.0223506097561,-16.395271341463413L50.29064329268293,-15.663564024390244" fill="rgba(0,155,0,0.7843137254901961)" />
<path d="M51.0223506097561,-16.395271341463413L51.754057926829276,-15.663564024390244L52.485765243902435,-16.395271341463413L51.754057926829276,-17.126978658536586L51.0223506097561,-16.395271341463413" fill="rgba(0,155,0,0.7843137254901961)" />
<path d="M49.55893597560976,-12.005027439024392L49.55893597560976,-12.005027439024392" />
<path d="M49.55893597560976,-12.005027439024392L50.29064329268293,-11.273320121951219L51.0223506097561,-12.005027439024392L50.29064329268293,-12.736734756097562L49.55893597560976,-12.005027439024392" fill="rgba(0,155,0,0.7843137254901961)" />
<path d="M50.29064329268293,-12.736734756097562L51.0223506097561,-12.005027439024392L51.754057926829276,-12.736734756097562L51.0223506097561,-13.468442073170731L50.29064329268293,-12.736734756097562" fill="rgba(0,155,0,0.7843137254901961)" />
<path d="M51.0223506097561,-13.468442073170731L51.754057926829276,-12.736734756097562L52.485765243902435,-13.468442073170731L51.754057926829276,-14.200149390243904L51.0223506097561,-13.468442073170731" fill="rgba(0,155,0,0.7843137254901961)" />
<path d="M51.754057926829276,-14.200149390243904L52.485765243902435,-13.468442073170731L53.21747256097562,-14.200149390243904L52.485765243902435,-14.931856707317074L51.754057926829276,-14.200149390243904" fill="rgba(0,155,0,0.7843137254901961)" />
<path d="M52.485765243902435,-14.931856707317074L53.21747256097562,-14.200149390243904L53.94917987804878,-14.931856707317074L53.21747256097562,-15.663564024390244L52.485765243902435,-14.931856707317074" fill="rgba(0,0,0,0)" />
<path d="M50.29064329268293,-11.273320121951219L50.29064329268293,-11.273320121951219" />
<path d="M50.29064329268293,-11.273320121951219L51.0223506097561,-10.54161280487805L51.754057926829276,-11.273320121951219L51.0223506097561,-12.005027439024392L50.29064329268293,-11.273320121951219" fill="rgba(0,0,0,0)" />
<path d="M51.0223506097561,-12.005027439024392L51.754057926829276,-11.273320121951219L52.485765243902435,-12.005027439024392L51.754057926829276,-12.736734756097562L51.0223506097561,-12.005027439024392" fill="rgba(0,155,0,0.7843137254901961)" />
<path d="M51.754057926829276,-12.736734756097562L52.485765243902435,-12.005027439024392L53.21747256097562,-12.736734756097562L52.485765243902435,-13.468442073170731L51.754057926829276,-12.736734756097562" fill="rgba(0,0,0,0)" />
<path d="M52.485765243902435,-13.468442073170731L53.21747256097562,-12.736734756097562L53.94917987804878,-13.468442073170731L53.21747256097562,-14.200149390243904L52.485765243902435,-13.468442073170731" fill="rgba(0,0,0,0)" />
<path d="M53.21747256097562,-14.200149390243904L53.94917987804878,-13.468442073170731L54.680887195121954,-14.200149390243904L53.94917987804878,-14.931856707317074L53.21747256097562,-14.200149390243904" fill="rgba(0,155,0,0.7843137254901961)" />
<path d="M51.0223506097561,-10.54161280487805L51.0223506097561,-10.54161280487805" />
<path d="M51.0223506097561,-10.54161280487805L51.754057926829276,-9.809905487804876L52.485765243902435,-10.54161280487805L51.754057926829276,-11.273320121951219L51.0223506097561,-10.54161280487805" fill="rgba(0,0,0,0)" />
<path d="M51.754057926829276,-11.273320121951219L52.485765243902435,-10.54161280487805L53.21747256097562,-11.273320121951219L52.485765243902435,-12.005027439024392L51.754057926829276,-11.273320121951219" fill="rgba(0,155,0,0.7843137254901961)" />
<path d="M52.485765243902435,-12.005027439024392L53.21747256097562,-11.273320121951219L53.94917987804878,-12.005027439024392L53.21747256097562,-12.736734756097562L52.485765243902435,-12.005027439024392" fill="rgba(0,0,0,0)" />
<path d="M53.21747256097562,-12.736734756097562L53.94917987804878,-12.005027439024392L54.680887195121954,-12.736734756097562L53.94917987804878,-13.468442073170731L53.21747256097562,-12.736734756097562" fill="rgba(0,0,0,0)" />
<path d="M53.94917987804878,-13.468442073170731L54.680887195121954,-12.736734756097562L55.41259451219513,-13.468442073170731L54.680887195121954,-14.200149390243904L53.94917987804878,-13.468442073170731" fill="rgba(0,155,0,0.7843137254901961)" />
<path d="M51.754057926829276,-9.809905487804876L51.754057926829276,-9.809905487804876" />
<path d="M51.754057926829276,-9.809905487804876L52.485765243902435,-9.078198170731707L53.21747256097562,-9.809905487804876L52.485765243902435,-10.54161280487805L51.754057926829276,-9.809905487804876" fill="rgba(0,155,0,0.7843137254901961)" />
<path d="M52.485765243902435,-10.54161280487805L53.21747256097562,-9.809905487804876L53.94917987804878,-10.54161280487805L53.21747256097562,-11.273320121951219L52.485765243902435,-10.54161280487805" fill="rgba(0,155,0,0.7843137254901961)" />
<path d="M53.21747256097562,-11.273320121951219L53.94917987804878,-10.54161280487805L54.680887195121954,-11.273320121951219L53.94917987804878,-12.005027439024392L53.21747256097562,-11.273320121951219" fill="rgba(0,155,0,0.7843137254901961)" />
<path d="M53.94917987804878,-12.005027439024392L54.680887195121954,-11.273320121951219L55.41259451219513,-12.005027439024392L54.680887195121954,-12.736734756097562L53.94917987804878,-12.005027439024392" fill="rgba(0,155,0,0.7843137254901961)" />
<path d="M54.680887195121954,-12.736734756097562L55.41259451219513,-12.005027439024392L56.1443018292683,-12.736734756097562L55.41259451219513,-13.468442073170731L54.680887195121954,-12.736734756097562" fill="rgba(0,0,0,0)" />
<path d="M53.21747256097562,-8.346490853658537L53.21747256097562,-8.346490853658537" />
<path d="M53.21747256097562,-8.346490853658537L53.94917987804878,-7.614783536585364L54.680887195121954,-8.346490853658537L53.94917987804878,-9.078198170731707L53.21747256097562,-8.346490853658537" fill="rgba(0,155,0,0.7843137254901961)" />
<path d="M53.94917987804878,-9.078198170731707L54.680887195121954,-8.346490853658537L55.41259451219513,-9.078198170731707L54.680887195121954,-9.809905487804876L53.94917987804878,-9.078198170731707" fill="rgba(0,155,0,0.7843137254901961)" />
<path d="M54.680887195121954,-9.809905487804876L55.41259451219513,-9.078198170731707L56.1443018292683,-9.809905487804876L55.41259451219513,-10.54161280487805L54.680887195121954,-9.809905487804876" fill="rgba(0,155,0,0.7843137254901961)" />
<path d="M55.41259451219513,-10.54161280487805L56.1443018292683,-9.809905487804876L56.876009146341474,-10.54161280487805L56.1443018292683,-11.273320121951219L55.41259451219513,-10.54161280487805" fill="rgba(0,155,0,0.7843137254901961)" />
<path d="M56.1443018292683,-11.273320121951219L56.876009146341474,-10.54161280487805L57.60771646341465,-11.273320121951219L56.876009146341474,-12.005027439024392L56.1443018292683,-11.273320121951219" fill="rgba(0,155,0,0.7843137254901961)" />
<path d="M53.94917987804878,-7.614783536585364L53.94917987804878,-7.614783536585364" />
<path d="M53.94917987804878,-7.614783536585364L54.680887195121954,-6.883076219512194L55.41259451219513,-7.614783536585367L54.680887195121954,-8.346490853658537L53.94917987804878,-7.614783536585364" fill="rgba(0,0,0,0)" />
<path d="M54.680887195121954,-8.346490853658537L55.41259451219513,-7.614783536585367L56.1443018292683,-8.346490853658537L55.41259451219513,-9.078198170731707L54.680887195121954,-8.346490853658537" fill="rgba(0,0,0,0)" />
<path d="M55.41259451219513,-9.078198170731707L56.1443018292683,-8.346490853658537L56.876009146341474,-9.078198170731707L56.1443018292683,-9.809905487804876L55.41259451219513,-9.078198170731707" fill="rgba(0,155,0,0.7843137254901961)" />
<path d="M56.1443018292683,-9.809905487804876L56.876009146341474,-9.078198170731707L57.60771646341465,-9.809905487804876L56.876009146341474,-10.54161280487805L56.1443018292683,-9.809905487804876" fill="rgba(0,0,0,0)" />
<path d="M56.876009146341474,-10.54161280487805L57.60771646341465,-9.809905487804876L58.339423780487806,-10.54161280487805L57.60771646341465,-11.273320121951219L56.876009146341474,-10.54161280487805" fill="rgba(0,155,0,0.7843137254901961)" />
<path d="M54.680887195121954,-6.883076219512194L54.680887195121954,-6.883076219512194" />
<path d="M54.680887195121954,-6.883076219512194L55.41259451219513,-6.151368902439021L56.1443018292683,-6.883076219512194L55.41259451219513,-7.614783536585367L54.680887195121954,-6.883076219512194" fill="rgba(0,0,0,0)" />
<path d="M55.41259451219513,-7.614783536585367L56.1443018292683,-6.883076219512194L56.876009146341474,-7.614783536585367L56.1443018292683,-8.346490853658537L55.41259451219513,-7.614783536585367" fill="rgba(0,155,0,0.7843137254901961)" />
<path d="M56.1443018292683,-8.346490853658537L56.876009146341474,-7.614783536585367L57.60771646341465,-8.346490853658537L56.876009146341474,-9.078198170731707L56.1443018292683,-8.346490853658537" fill="rgba(0,155,0,0.7843137254901961)" />
<path d="M56.876009146341474,-9.078198170731707L57.60771646341465,-8.346490853658537L58.339423780487806,-9.078198170731707L57.60771646341465,-9.809905487804876L56.876009146341474,-9.078198170731707" fill="rgba(0,0,0,0)" />
<path d="M57.60771646341465,-9.809905487804876L58.339423780487806,-9.078198170731707L59.07113109756098,-9.809905487804876L58.339423780487806,-10.54161280487805L57.60771646341465,-9.809905487804876" fill="rgba(0,155,0,0.7843137254901961)" />
<path d="M55.41259451219513,-6.151368902439021L55.41259451219513,-6.151368902439021" />
<path d="M55.41259451219513,-6.151368902439021L56.1443018292683,-5.419661585365851L56.876009146341474,-6.151368902439021L56.1443018292683,-6.883076219512194L55.41259451219513,-6.151368902439021" fill="rgba(0,155,0,0.7843137254901961)" />
<path d="M56.1443018292683,-6.883076219512194L56.876009146341474,-6.151368902439021L57.60771646341465,-6.883076219512194L56.876009146341474,-7.614783536585367L56.1443018292683,-6.883076219512194" fill="rgba(0,0,0,0)" />
<path d="M56.876009146341474,-7.614783536585367L57.60771646341465,-6.883076219512194L58.339423780487806,-7.614783536585364L57.60771646341465,-8.346490853658537L56.876009146341474,-7.614783536585367" fill="rgba(0,155,0,0.7843137254901961)" />
<path d="M57.60771646341465,-8.346490853658537L58.339423780487806,-7.614783536585364L59.07113109756098,-8.346490853658537L58.339423780487806,-9.078198170731707L57.60771646341465,-8.346490853658537" fill="rgba(0,155,0,0.7843137254901961)" />
<path d="M58.339423780487806,-9.078198170731707L59.07113109756098,-8.346490853658537L59.80283841463415,-9.078198170731707L59.07113109756098,-9.809905487804876L58.339423780487806,-9.078198170731707" fill="rgba(0,155,0,0.7843137254901961)" />
<path d="M56.876009146341474,-4.687954268292685L56.876009146341474,-4.687954268292685" />
<path d="M56.876009146341474,-4.687954268292685L57.60771646341465,-3.9562469512195158L58.339423780487806,-4.687954268292685L57.60771646341465,-5.419661585365851L56.876009146341474,-4.687954268292685" fill="rgba(0,155,0,0.7843137254901961)" />
<path d="M57.60771646341465,-5.419661585365851L58.339423780487806,-4.687954268292685L59.07113109756098,-5.419661585365851L58.339423780487806,-6.151368902439025L57.60771646341465,-5.419661585365851" fill="rgba(0,155,0,0.7843137254901961)" />
<path d="M58.339423780487806,-6.151368902439025L59.07113109756098,-5.419661585365851L59.80283841463415,-6.151368902439021L59.07113109756098,-6.883076219512194L58.339423780487806,-6.151368902439025" fill="rgba(0,155,0,0.7843137254901961)" />
<path d="M59.07113109756098,-6.883076219512194L59.80283841463415,-6.151368902439021L60.534545731707325,-6.883076219512194L59.80283841463415,-7.614783536585367L59.07113109756098,-6.883076219512194" fill="rgba(0,155,0,0.7843137254901961)" />
<path d="M59.80283841463415,-7.614783536585367L60.534545731707325,-6.883076219512194L61.2662530487805,-7.614783536585367L60.534545731707325,-8.346490853658537L59.80283841463415,-7.614783536585367" fill="rgba(0,155,0,0.7843137254901961)" />
<path d="M57.60771646341465,-3.9562469512195158L57.60771646341465,-3.9562469512195158" />
<path d="M57.60771646341465,-3.9562469512195158L58.339423780487806,-3.2245396341463426L59.07113109756098,-3.9562469512195158L58.339423780487806,-4.687954268292685L57.60771646341465,-3.9562469512195158" fill="rgba(0,0,0,0)" />
<path d="M58.339423780487806,-4.687954268292685L59.07113109756098,-3.9562469512195158L59.80283841463415,-4.687954268292685L59.07113109756098,-5.419661585365851L58.339423780487806,-4.687954268292685" fill="rgba(0,0,0,0)" />
<path d="M59.07113109756098,-5.419661585365851L59.80283841463415,-4.687954268292685L60.534545731707325,-5.419661585365851L59.80283841463415,-6.151368902439021L59.07113109756098,-5.419661585365851" fill="rgba(0,155,0,0.7843137254901961)" />
<path d="M59.80283841463415,-6.151368902439021L60.534545731707325,-5.419661585365851L61.2662530487805,-6.151368902439021L60.534545731707325,-6.883076219512194L59.80283841463415,-6.151368902439021" fill="rgba(0,0,0,0)" />
<path d="M60.534545731707325,-6.883076219512194L61.2662530487805,-6.151368902439021L61.99796036585366,-6.883076219512194L61.2662530487805,-7.614783536585367L60.534545731707325,-6.883076219512194" fill="rgba(0,0,0,0)" />
<path d="M58.339423780487806,-3.2245396341463426L58.339423780487806,-3.2245396341463426" />
<path d="M58.339423780487806,-3.2245396341463426L59.07113109756098,-2.4928323170731694L59.80283841463415,-3.2245396341463426L59.07113109756098,-3.9562469512195158L58.339423780487806,-3.2245396341463426" fill="rgba(0,0,0,0)" />
<path d="M59.07113109756098,-3.9562469512195158L59.80283841463415,-3.2245396341463426L60.534545731707325,-3.9562469512195158L59.80283841463415,-4.687954268292685L59.07113109756098,-3.9562469512195158" fill="rgba(0,0,0,0)" />
<path d="M59.80283841463415,-4.687954268292685L60.534545731707325,-3.9562469512195158L61.2662530487805,-4.687954268292685L60.534545731707325,-5.419661585365851L59.80283841463415,-4.687954268292685" fill="rgba(0,155,0,0.7843137254901961)" />
<path d="M60.534545731707325,-5.419661585365851L61.2662530487805,-4.687954268292685L61.99796036585366,-5.419661585365851L61.2662530487805,-6.151368902439021L60.534545731707325,-5.419661585365851" fill="rgba(0,155,0,0.7843137254901961)" />
<path d="M61.2662530487805,-6.151368902439021L61.99796036585366,-5.419661585365851L62.72966768292683,-6.151368902439021L61.99796036585366,-6.883076219512194L61.2662530487805,-6.151368902439021" fill="rgba(0,0,0,0)" />
<path d="M59.07113109756098,-2.4928323170731694L59.07113109756098,-2.4928323170731694" />
<path d="M59.07113109756098,-2.4928323170731694L59.80283841463415,-1.7611249999999998L60.534545731707325,-2.4928323170731694L59.80283841463415,-3.2245396341463426L59.07113109756098,-2.4928323170731694" fill="rgba(0,155,0,0.7843137254901961)" />
<path d="M59.80283841463415,-3.2245396341463426L60.534545731707325,-2.4928323170731694L61.2662530487805,-3.2245396341463426L60.534545731707325,-3.9562469512195158L59.80283841463415,-3.2245396341463426" fill="rgba(0,155,0,0.7843137254901961)" />
<path d="M60.534545731707325,-3.9562469512195158L61.2662530487805,-3.2245396341463426L61.99796036585366,-3.956246951219512L61.2662530487805,-4.687954268292685L60.534545731707325,-3.9562469512195158" fill="rgba(0,0,0,0)" />
<path d="M61.2662530487805,-4.687954268292685L61.99796036585366,-3.956246951219512L62.72966768292683,-4.687954268292685L61.99796036585366,-5.419661585365851L61.2662530487805,-4.687954268292685" fill="rgba(0,155,0,0.7843137254901961)" />
<path d="M61.99796036585366,-5.419661585365851L62.72966768292683,-4.687954268292685L63.461375000000004,-5.419661585365851L62.72966768292683,-6.151368902439021L61.99796036585366,-5.419661585365851" fill="rgba(0,155,0,0.7843137254901961)" />
</svg>
