<svg xmlns="http://www.w3.org/2000/svg" viewBox="-2.5 -7.5 371 91">
<path d="M18,-7Q-2,-7 -2,13L-2,13L-2,63L-2,63Q-2,83 18,83L18,83L68,83L68,83Q88,83 88,63L88,63L88,13L88,13Q88,-7 68,-7L68,-7L18,-7L18,-7" stroke-width="1" stroke="rgba(0,0,0,0)" fill="rgba(67,178,236,1)" />
<path d="M18,63L18,63" />
<path d="M18,63L28,63L28,53L18,53L18,63" fill="rgba(255,255,255,1)" />
<path d="M18,53L28,53L28,43L18,43L18,53" fill="rgba(255,255,255,1)" />
<path d="M18,43L28,43L28,33L18,33L18,43" fill="rgba(255,255,255,1)" />
<path d="M18,33L28,33L28,23L18,23L18,33" fill="rgba(255,255,255,1)" />
<path d="M18,23L28,23L28,13L18,13L18,23" fill="rgba(255,255,255,1)" />
<path d="M28,63L28,63" />
<path d="M28,63L38,63L38,53L28,53L28,63" fill="rgba(0,0,0,0)" />
<path d="M28,53L38,53L38,43L28,43L28,53" fill="rgba(0,0,0,0)" />
<path d="M28,43L38,43L38,33L28,33L28,43" fill="rgba(0,0,0,0)" />
<path d="M28,33L38,33L38,23L28,23L28,33" fill="rgba(255,255,255,1)" />
<path d="M28,23L38,23L38,13L28,13L28,23" fill="rgba(0,0,0,0)" />
<path d="M38,63L38,63" />
<path d="M38,63L48,63L48,53L38,53L38,63" fill="rgba(0,0,0,0)" />
<path d="M38,53L48,53L48,43L38,43L38,53" fill="rgba(0,0,0,0)" />
<path d="M38,43L48,43L48,33L38,33L38,43" fill="rgba(255,255,255,1)" />
<path d="M38,33L48,33L48,23L38,23L38,33" fill="rgba(0,0,0,0)" />
<path d="M38,23L48,23L48,13L38,13L38,23" fill="rgba(0,0,0,0)" />
<path d="M48,63L48,63" />
<path d="M48,63L58,63L58,53L48,53L48,63" fill="rgba(0,0,0,0)" />
<path d="M48,53L58,53L58,43L48,43L48,53" fill="rgba(0,0,0,0)" />
<path d="M48,43L58,43L58,33L48,33L48,43" fill="rgba(0,0,0,0)" />
<path d="M48,33L58,33L58,23L48,23L48,33" fill="rgba(255,255,255,1)" />
<path d="M48,23L58,23L58,13L48,13L48,23" fill="rgba(0,0,0,0)" />
<path d="M58,63L58,63" />
<path d="M58,63L68,63L68,53L58,53L58,63" fill="rgba(255,255,255,1)" />
<path d="M58,53L68,53L68,43L58,43L58,53" fill="rgba(255,255,255,1)" />
<path d="M58,43L68,43L68,33L58,33L58,43" fill="rgba(255,255,255,1)" />
<path d="M58,33L68,33L68,23L58,23L58,33" fill="rgba(255,255,255,1)" />
<path d="M58,23L68,23L68,13L58,13L58,23" fill="rgba(255,255,255,1)" />
<path d="M118,-7Q98,-7 98,13L98,13L98,63L98,63Q98,83 118,83L118,83L158,83L158,83Q178,83 178,63L178,63L178,13L178,13Q178,-7 158,-7L158,-7L118,-7L118,-7" stroke-width="1" fill="rgba(163,200,46,1)" stroke="rgba(0,0,0,0)" />
<path d="M118,63L118,63" />
<path d="M118,63L128,63L128,53L118,53L118,63" fill="rgba(255,255,255,1)" />
<path d="M118,53L128,53L128,43L118,43L118,53" fill="rgba(0,0,0,0)" />
<path d="M118,43L128,43L128,33L118,33L118,43" fill="rgba(255,255,255,1)" />
<path d="M118,33L128,33L128,23L118,23L118,33" fill="rgba(255,255,255,1)" />
<path d="M118,23L128,23L128,13L118,13L118,23" fill="rgba(0,0,0,0)" />
<path d="M128,63L128,63" />
<path d="M128,63L138,63L138,53L128,53L128,63" fill="rgba(255,255,255,1)" />
<path d="M128,53L138,53L138,43L128,43L128,53" fill="rgba(0,0,0,0)" />
<path d="M128,43L138,43L138,33L128,33L128,43" fill="rgba(255,255,255,1)" />
<path d="M128,33L138,33L138,23L128,23L128,33" fill="rgba(0,0,0,0)" />
<path d="M128,23L138,23L138,13L128,13L128,23" fill="rgba(255,255,255,1)" />
<path d="M138,63L138,63" />
<path d="M138,63L148,63L148,53L138,53L138,63" fill="rgba(255,255,255,1)" />
<path d="M138,53L148,53L148,43L138,43L138,53" fill="rgba(0,0,0,0)" />
<path d="M138,43L148,43L148,33L138,33L138,43" fill="rgba(255,255,255,1)" />
<path d="M138,33L148,33L148,23L138,23L138,33" fill="rgba(0,0,0,0)" />
<path d="M138,23L148,23L148,13L138,13L138,23" fill="rgba(255,255,255,1)" />
<path d="M148,63L148,63" />
<path d="M148,63L158,63L158,53L148,53L148,63" fill="rgba(255,255,255,1)" />
<path d="M148,53L158,53L158,43L148,43L148,53" fill="rgba(255,255,255,1)" />
<path d="M148,43L158,43L158,33L148,33L148,43" fill="rgba(255,255,255,1)" />
<path d="M148,33L158,33L158,23L148,23L148,33" fill="rgba(0,0,0,0)" />
<path d="M148,23L158,23L158,13L148,13L148,23" fill="rgba(255,255,255,1)" />
<path d="M208,-7Q188,-7 188,13L188,13L188,63L188,63Q188,83 208,83L208,83L248,83L248,83Q268,83 268,63L268,63L268,13L268,13Q268,-7 248,-7L248,-7L208,-7L208,-7" fill="rgba(255,192,8,1)" stroke-width="1" stroke="rgba(0,0,0,0)" />
<path d="M208,63L208,63" />
<path d="M208,63L218,63L218,53L208,53L208,63" fill="rgba(0,0,0,0)" />
<path d="M208,53L218,53L218,43L208,43L208,53" fill="rgba(255,255,255,1)" />
<path d="M208,43L218,43L218,33L208,33L208,43" fill="rgba(255,255,255,1)" />
<path d="M208,33L218,33L218,23L208,23L208,33" fill="rgba(255,255,255,1)" />
<path d="M208,23L218,23L218,13L208,13L208,23" fill="rgba(0,0,0,0)" />
<path d="M218,63L218,63" />
<path d="M218,63L228,63L228,53L218,53L218,63" fill="rgba(255,255,255,1)" />
<path d="M218,53L228,53L228,43L218,43L218,53" fill="rgba(0,0,0,0)" />
<path d="M218,43L228,43L228,33L218,33L218,43" fill="rgba(0,0,0,0)" />
<path d="M218,33L228,33L228,23L218,23L218,33" fill="rgba(0,0,0,0)" />
<path d="M218,23L228,23L228,13L218,13L218,23" fill="rgba(255,255,255,1)" />
<path d="M228,63L228,63" />
<path d="M228,63L238,63L238,53L228,53L228,63" fill="rgba(255,255,255,1)" />
<path d="M228,53L238,53L238,43L228,43L228,53" fill="rgba(0,0,0,0)" />
<path d="M228,43L238,43L238,33L228,33L228,43" fill="rgba(0,0,0,0)" />
<path d="M228,33L238,33L238,23L228,23L228,33" fill="rgba(0,0,0,0)" />
<path d="M228,23L238,23L238,13L228,13L228,23" fill="rgba(255,255,255,1)" />
<path d="M238,63L238,63" />
<path d="M238,63L248,63L248,53L238,53L238,63" fill="rgba(255,255,255,1)" />
<path d="M238,53L248,53L248,43L238,43L238,53" fill="rgba(0,0,0,0)" />
<path d="M238,43L248,43L248,33L238,33L238,43" fill="rgba(0,0,0,0)" />
<path d="M238,33L248,33L248,23L238,23L238,33" fill="rgba(0,0,0,0)" />
<path d="M238,23L248,23L248,13L238,13L238,23" fill="rgba(255,255,255,1)" />
<path d="M298,-7Q278,-7 278,13L278,13L278,63L278,63Q278,83 298,83L298,83L348,83L348,83Q368,83 368,63L368,63L368,13L368,13Q368,-7 348,-7L348,-7L298,-7L298,-7" fill="rgba(249,81,27,1)" stroke="rgba(0,0,0,0)" stroke-width="1" />
<path d="M298,63L298,63" />
<path d="M298,63L308,63L308,53L298,53L298,63" fill="rgba(0,0,0,0)" />
<path d="M298,53L308,53L308,43L298,43L298,53" fill="rgba(255,255,255,1)" />
<path d="M298,43L308,43L308,33L298,33L298,43" fill="rgba(255,255,255,1)" />
<path d="M298,33L308,33L308,23L298,23L298,33" fill="rgba(255,255,255,1)" />
<path d="M298,23L308,23L308,13L298,13L298,23" fill="rgba(255,255,255,1)" />
<path d="M308,63L308,63" />
<path d="M308,63L318,63L318,53L308,53L308,63" fill="rgba(255,255,255,1)" />
<path d="M308,53L318,53L318,43L308,43L308,53" fill="rgba(0,0,0,0)" />
<path d="M308,43L318,43L318,33L308,33L308,43" fill="rgba(0,0,0,0)" />
<path d="M308,33L318,33L318,23L308,23L308,33" fill="rgba(0,0,0,0)" />
<path d="M308,23L318,23L318,13L308,13L308,23" fill="rgba(0,0,0,0)" />
<path d="M318,63L318,63" />
<path d="M318,63L328,63L328,53L318,53L318,63" fill="rgba(255,255,255,1)" />
<path d="M318,53L328,53L328,43L318,43L318,53" fill="rgba(255,255,255,1)" />
<path d="M318,43L328,43L328,33L318,33L318,43" fill="rgba(255,255,255,1)" />
<path d="M318,33L328,33L328,23L318,23L318,33" fill="rgba(255,255,255,1)" />
<path d="M318,23L328,23L328,13L318,13L318,23" fill="rgba(255,255,255,1)" />
<path d="M328,63L328,63" />
<path d="M328,63L338,63L338,53L328,53L328,63" fill="rgba(255,255,255,1)" />
<path d="M328,53L338,53L338,43L328,43L328,53" fill="rgba(0,0,0,0)" />
<path d="M328,43L338,43L338,33L328,33L328,43" fill="rgba(0,0,0,0)" />
<path d="M328,33L338,33L338,23L328,23L328,33" fill="rgba(0,0,0,0)" />
<path d="M328,23L338,23L338,13L328,13L328,23" fill="rgba(0,0,0,0)" />
<path d="M338,63L338,63" />
<path d="M338,63L348,63L348,53L338,53L338,63" fill="rgba(0,0,0,0)" />
<path d="M338,53L348,53L348,43L338,43L338,53" fill="rgba(255,255,255,1)" />
<path d="M338,43L348,43L348,33L338,33L338,43" fill="rgba(255,255,255,1)" />
<path d="M338,33L348,33L348,23L338,23L338,33" fill="rgba(255,255,255,1)" />
<path d="M338,23L348,23L348,13L338,13L338,23" fill="rgba(255,255,255,1)" />
</svg>
