<svg xmlns="http://www.w3.org/2000/svg" viewBox="-16.5 -7 247 57">
<path d="M62,24L62,24" />
<path d="M67,49L67,49" />
<path d="M67,49L72,49L72,44L67,44L67,49" fill="rgba(0,0,0,0)" />
<path d="M67,44L72,44L72,39L67,39L67,44" fill="rgba(0,0,0,0)" />
<path d="M67,39L72,39L72,34L67,34L67,39" fill="rgba(0,0,0,0)" />
<path d="M67,34L72,34L72,29L67,29L67,34" fill="rgba(0,0,0,0)" />
<path d="M67,29L72,29L72,24L67,24L67,29" fill="rgba(0,0,100,1)" />
<path d="M72,49L72,49" />
<path d="M72,49L77,49L77,44L72,44L72,49" fill="rgba(0,0,100,1)" />
<path d="M72,44L77,44L77,39L72,39L72,44" fill="rgba(0,0,100,1)" />
<path d="M72,39L77,39L77,34L72,34L72,39" fill="rgba(0,0,100,1)" />
<path d="M72,34L77,34L77,29L72,29L72,34" fill="rgba(0,0,100,1)" />
<path d="M72,29L77,29L77,24L72,24L72,29" fill="rgba(0,0,100,1)" />
<path d="M77,49L77,49" />
<path d="M77,49L82,49L82,44L77,44L77,49" fill="rgba(0,0,0,0)" />
<path d="M77,44L82,44L82,39L77,39L77,44" fill="rgba(0,0,0,0)" />
<path d="M77,39L82,39L82,34L77,34L77,39" fill="rgba(0,0,0,0)" />
<path d="M77,34L82,34L82,29L77,29L77,34" fill="rgba(0,0,0,0)" />
<path d="M77,29L82,29L82,24L77,24L77,29" fill="rgba(0,0,100,1)" />
<path d="M87,49L87,49" />
<path d="M87,49L92,49L92,44L87,44L87,49" fill="rgba(0,0,100,1)" />
<path d="M87,44L92,44L92,39L87,39L87,44" fill="rgba(0,0,100,1)" />
<path d="M87,39L92,39L92,34L87,34L87,39" fill="rgba(0,0,100,1)" />
<path d="M87,34L92,34L92,29L87,29L87,34" fill="rgba(0,0,100,1)" />
<path d="M87,29L92,29L92,24L87,24L87,29" fill="rgba(0,0,100,1)" />
<path d="M92,49L92,49" />
<path d="M92,49L97,49L97,44L92,44L92,49" fill="rgba(0,0,100,1)" />
<path d="M92,44L97,44L97,39L92,39L92,44" fill="rgba(0,0,0,0)" />
<path d="M92,39L97,39L97,34L92,34L92,39" fill="rgba(0,0,100,1)" />
<path d="M92,34L97,34L97,29L92,29L92,34" fill="rgba(0,0,0,0)" />
<path d="M92,29L97,29L97,24L92,24L92,29" fill="rgba(0,0,100,1)" />
<path d="M97,49L97,49" />
<path d="M97,49L102,49L102,44L97,44L97,49" fill="rgba(0,0,100,1)" />
<path d="M97,44L102,44L102,39L97,39L97,44" fill="rgba(0,0,0,0)" />
<path d="M97,39L102,39L102,34L97,34L97,39" fill="rgba(0,0,100,1)" />
<path d="M97,34L102,34L102,29L97,29L97,34" fill="rgba(0,0,0,0)" />
<path d="M97,29L102,29L102,24L97,24L97,29" fill="rgba(0,0,100,1)" />
<path d="M102,49L102,49" />
<path d="M102,49L107,49L107,44L102,44L102,49" fill="rgba(0,0,100,1)" />
<path d="M102,44L107,44L107,39L102,39L102,44" fill="rgba(0,0,0,0)" />
<path d="M102,39L107,39L107,34L102,34L102,39" fill="rgba(0,0,100,1)" />
<path d="M102,34L107,34L107,29L102,29L102,34" fill="rgba(0,0,0,0)" />
<path d="M102,29L107,29L107,24L102,24L102,29" fill="rgba(0,0,100,1)" />
<path d="M112,49L112,49" />
<path d="M112,49L117,49L117,44L112,44L112,49" fill="rgba(0,0,100,1)" />
<path d="M112,44L117,44L117,39L112,39L112,44" fill="rgba(0,0,0,0)" />
<path d="M112,39L117,39L117,34L112,34L112,39" fill="rgba(0,0,100,1)" />
<path d="M112,34L117,34L117,29L112,29L112,34" fill="rgba(0,0,100,1)" />
<path d="M112,29L117,29L117,24L112,24L112,29" fill="rgba(0,0,0,0)" />
<path d="M117,49L117,49" />
<path d="M117,49L122,49L122,44L117,44L117,49" fill="rgba(0,0,100,1)" />
<path d="M117,44L122,44L122,39L117,39L117,44" fill="rgba(0,0,0,0)" />
<path d="M117,39L122,39L122,34L117,34L117,39" fill="rgba(0,0,100,1)" />
<path d="M117,34L122,34L122,29L117,29L117,34" fill="rgba(0,0,0,0)" />
<path d="M117,29L122,29L122,24L117,24L117,29" fill="rgba(0,0,100,1)" />
<path d="M122,49L122,49" />
<path d="M122,49L127,49L127,44L122,44L122,49" fill="rgba(0,0,100,1)" />
<path d="M122,44L127,44L127,39L122,39L122,44" fill="rgba(0,0,0,0)" />
<path d="M122,39L127,39L127,34L122,34L122,39" fill="rgba(0,0,100,1)" />
<path d="M122,34L127,34L127,29L122,29L122,34" fill="rgba(0,0,0,0)" />
<path d="M122,29L127,29L127,24L122,24L122,29" fill="rgba(0,0,100,1)" />
<path d="M127,49L127,49" />
<path d="M127,49L132,49L132,44L127,44L127,49" fill="rgba(0,0,100,1)" />
<path d="M127,44L132,44L132,39L127,39L127,44" fill="rgba(0,0,100,1)" />
<path d="M127,39L132,39L132,34L127,34L127,39" fill="rgba(0,0,100,1)" />
<path d="M127,34L132,34L132,29L127,29L127,34" fill="rgba(0,0,0,0)" />
<path d="M127,29L132,29L132,24L127,24L127,29" fill="rgba(0,0,100,1)" />
<path d="M137,49L137,49" />
<path d="M137,49L142,49L142,44L137,44L137,49" fill="rgba(0,0,0,0)" />
<path d="M137,44L142,44L142,39L137,39L137,44" fill="rgba(0,0,0,0)" />
<path d="M137,39L142,39L142,34L137,34L137,39" fill="rgba(0,0,0,0)" />
<path d="M137,34L142,34L142,29L137,29L137,34" fill="rgba(0,0,0,0)" />
<path d="M137,29L142,29L142,24L137,24L137,29" fill="rgba(0,0,100,1)" />
<path d="M142,49L142,49" />
<path d="M142,49L147,49L147,44L142,44L142,49" fill="rgba(0,0,100,1)" />
<path d="M142,44L147,44L147,39L142,39L142,44" fill="rgba(0,0,100,1)" />
<path d="M142,39L147,39L147,34L142,34L142,39" fill="rgba(0,0,100,1)" />
<path d="M142,34L147,34L147,29L142,29L142,34" fill="rgba(0,0,100,1)" />
<path d="M142,29L147,29L147,24L142,24L142,29" fill="rgba(0,0,100,1)" />
<path d="M147,49L147,49" />
<path d="M147,49L152,49L152,44L147,44L147,49" fill="rgba(0,0,0,0)" />
<path d="M147,44L152,44L152,39L147,39L147,44" fill="rgba(0,0,0,0)" />
<path d="M147,39L152,39L152,34L147,34L147,39" fill="rgba(0,0,0,0)" />
<path d="M147,34L152,34L152,29L147,29L147,34" fill="rgba(0,0,0,0)" />
<path d="M147,29L152,29L152,24L147,24L147,29" fill="rgba(0,0,100,1)" />
<path d="M-15.5,-6L-15.5,-6" />
<path d="M-10.5,19L-10.5,19" />
<path d="M-10.5,19L-5.5,19L-5.5,14L-10.5,14L-10.5,19" fill="rgba(0,0,100,1)" />
<path d="M-10.5,14L-5.5,14L-5.5,9L-10.5,9L-10.5,14" fill="rgba(0,0,100,1)" />
<path d="M-10.5,9L-5.5,9L-5.5,4L-10.5,4L-10.5,9" fill="rgba(0,0,100,1)" />
<path d="M-10.5,4L-5.5,4L-5.5,-1L-10.5,-1L-10.5,4" fill="rgba(0,0,100,1)" />
<path d="M-10.5,-1L-5.5,-1L-5.5,-6L-10.5,-6L-10.5,-1" fill="rgba(0,0,0,0)" />
<path d="M-5.5,19L-5.5,19" />
<path d="M-5.5,19L-0.5,19L-0.5,14L-5.5,14L-5.5,19" fill="rgba(0,0,0,0)" />
<path d="M-5.5,14L-0.5,14L-0.5,9L-5.5,9L-5.5,14" fill="rgba(0,0,100,1)" />
<path d="M-5.5,9L-0.5,9L-0.5,4L-5.5,4L-5.5,9" fill="rgba(0,0,0,0)" />
<path d="M-5.5,4L-0.5,4L-0.5,-1L-5.5,-1L-5.5,4" fill="rgba(0,0,0,0)" />
<path d="M-5.5,-1L-0.5,-1L-0.5,-6L-5.5,-6L-5.5,-1" fill="rgba(0,0,100,1)" />
<path d="M-0.5,19L-0.5,19" />
<path d="M-0.5,19L4.5,19L4.5,14L-0.5,14L-0.5,19" fill="rgba(0,0,0,0)" />
<path d="M-0.5,14L4.5,14L4.5,9L-0.5,9L-0.5,14" fill="rgba(0,0,100,1)" />
<path d="M-0.5,9L4.5,9L4.5,4L-0.5,4L-0.5,9" fill="rgba(0,0,0,0)" />
<path d="M-0.5,4L4.5,4L4.5,-1L-0.5,-1L-0.5,4" fill="rgba(0,0,0,0)" />
<path d="M-0.5,-1L4.5,-1L4.5,-6L-0.5,-6L-0.5,-1" fill="rgba(0,0,100,1)" />
<path d="M4.5,19L4.5,19" />
<path d="M4.5,19L9.5,19L9.5,14L4.5,14L4.5,19" fill="rgba(0,0,100,1)" />
<path d="M4.5,14L9.5,14L9.5,9L4.5,9L4.5,14" fill="rgba(0,0,100,1)" />
<path d="M4.5,9L9.5,9L9.5,4L4.5,4L4.5,9" fill="rgba(0,0,100,1)" />
<path d="M4.5,4L9.5,4L9.5,-1L4.5,-1L4.5,4" fill="rgba(0,0,100,1)" />
<path d="M4.5,-1L9.5,-1L9.5,-6L4.5,-6L4.5,-1" fill="rgba(0,0,0,0)" />
<path d="M14.5,19L14.5,19" />
<path d="M14.5,19L19.5,19L19.5,14L14.5,14L14.5,19" fill="rgba(0,0,0,0)" />
<path d="M14.5,14L19.5,14L19.5,9L14.5,9L14.5,14" fill="rgba(0,0,100,1)" />
<path d="M14.5,9L19.5,9L19.5,4L14.5,4L14.5,9" fill="rgba(0,0,100,1)" />
<path d="M14.5,4L19.5,4L19.5,-1L14.5,-1L14.5,4" fill="rgba(0,0,100,1)" />
<path d="M14.5,-1L19.5,-1L19.5,-6L14.5,-6L14.5,-1" fill="rgba(0,0,0,0)" />
<path d="M19.5,19L19.5,19" />
<path d="M19.5,19L24.5,19L24.5,14L19.5,14L19.5,19" fill="rgba(0,0,100,1)" />
<path d="M19.5,14L24.5,14L24.5,9L19.5,9L19.5,14" fill="rgba(0,0,0,0)" />
<path d="M19.5,9L24.5,9L24.5,4L19.5,4L19.5,9" fill="rgba(0,0,0,0)" />
<path d="M19.5,4L24.5,4L24.5,-1L19.5,-1L19.5,4" fill="rgba(0,0,0,0)" />
<path d="M19.5,-1L24.5,-1L24.5,-6L19.5,-6L19.5,-1" fill="rgba(0,0,100,1)" />
<path d="M24.5,19L24.5,19" />
<path d="M24.5,19L29.5,19L29.5,14L24.5,14L24.5,19" fill="rgba(0,0,100,1)" />
<path d="M24.5,14L29.5,14L29.5,9L24.5,9L24.5,14" fill="rgba(0,0,0,0)" />
<path d="M24.5,9L29.5,9L29.5,4L24.5,4L24.5,9" fill="rgba(0,0,0,0)" />
<path d="M24.5,4L29.5,4L29.5,-1L24.5,-1L24.5,4" fill="rgba(0,0,0,0)" />
<path d="M24.5,-1L29.5,-1L29.5,-6L24.5,-6L24.5,-1" fill="rgba(0,0,100,1)" />
<path d="M29.5,19L29.5,19" />
<path d="M29.5,19L34.5,19L34.5,14L29.5,14L29.5,19" fill="rgba(0,0,100,1)" />
<path d="M29.5,14L34.5,14L34.5,9L29.5,9L29.5,14" fill="rgba(0,0,0,0)" />
<path d="M29.5,9L34.5,9L34.5,4L29.5,4L29.5,9" fill="rgba(0,0,0,0)" />
<path d="M29.5,4L34.5,4L34.5,-1L29.5,-1L29.5,4" fill="rgba(0,0,0,0)" />
<path d="M29.5,-1L34.5,-1L34.5,-6L29.5,-6L29.5,-1" fill="rgba(0,0,100,1)" />
<path d="M39.5,19L39.5,19" />
<path d="M39.5,19L44.5,19L44.5,14L39.5,14L39.5,19" fill="rgba(0,0,0,0)" />
<path d="M39.5,14L44.5,14L44.5,9L39.5,9L39.5,14" fill="rgba(0,0,100,1)" />
<path d="M39.5,9L44.5,9L44.5,4L39.5,4L39.5,9" fill="rgba(0,0,100,1)" />
<path d="M39.5,4L44.5,4L44.5,-1L39.5,-1L39.5,4" fill="rgba(0,0,100,1)" />
<path d="M39.5,-1L44.5,-1L44.5,-6L39.5,-6L39.5,-1" fill="rgba(0,0,0,0)" />
<path d="M44.5,19L44.5,19" />
<path d="M44.5,19L49.5,19L49.5,14L44.5,14L44.5,19" fill="rgba(0,0,100,1)" />
<path d="M44.5,14L49.5,14L49.5,9L44.5,9L44.5,14" fill="rgba(0,0,0,0)" />
<path d="M44.5,9L49.5,9L49.5,4L44.5,4L44.5,9" fill="rgba(0,0,0,0)" />
<path d="M44.5,4L49.5,4L49.5,-1L44.5,-1L44.5,4" fill="rgba(0,0,0,0)" />
<path d="M44.5,-1L49.5,-1L49.5,-6L44.5,-6L44.5,-1" fill="rgba(0,0,100,1)" />
<path d="M49.5,19L49.5,19" />
<path d="M49.5,19L54.5,19L54.5,14L49.5,14L49.5,19" fill="rgba(0,0,100,1)" />
<path d="M49.5,14L54.5,14L54.5,9L49.5,9L49.5,14" fill="rgba(0,0,0,0)" />
<path d="M49.5,9L54.5,9L54.5,4L49.5,4L49.5,9" fill="rgba(0,0,0,0)" />
<path d="M49.5,4L54.5,4L54.5,-1L49.5,-1L49.5,4" fill="rgba(0,0,0,0)" />
<path d="M49.5,-1L54.5,-1L54.5,-6L49.5,-6L49.5,-1" fill="rgba(0,0,100,1)" />
<path d="M54.5,19L54.5,19" />
<path d="M54.5,19L59.5,19L59.5,14L54.5,14L54.5,19" fill="rgba(0,0,100,1)" />
<path d="M54.5,14L59.5,14L59.5,9L54.5,9L54.5,14" fill="rgba(0,0,0,0)" />
<path d="M54.5,9L59.5,9L59.5,4L54.5,4L54.5,9" fill="rgba(0,0,0,0)" />
<path d="M54.5,4L59.5,4L59.5,-1L54.5,-1L54.5,4" fill="rgba(0,0,0,0)" />
<path d="M54.5,-1L59.5,-1L59.5,-6L54.5,-6L54.5,-1" fill="rgba(0,0,100,1)" />
<path d="M64.5,19L64.5,19" />
<path d="M64.5,19L69.5,19L69.5,14L64.5,14L64.5,19" fill="rgba(0,0,100,1)" />
<path d="M64.5,14L69.5,14L69.5,9L64.5,9L64.5,14" fill="rgba(0,0,100,1)" />
<path d="M64.5,9L69.5,9L69.5,4L64.5,4L64.5,9" fill="rgba(0,0,100,1)" />
<path d="M64.5,4L69.5,4L69.5,-1L64.5,-1L64.5,4" fill="rgba(0,0,100,1)" />
<path d="M64.5,-1L69.5,-1L69.5,-6L64.5,-6L64.5,-1" fill="rgba(0,0,100,1)" />
<path d="M69.5,19L69.5,19" />
<path d="M69.5,19L74.5,19L74.5,14L69.5,14L69.5,19" fill="rgba(0,0,100,1)" />
<path d="M69.5,14L74.5,14L74.5,9L69.5,9L69.5,14" fill="rgba(0,0,0,0)" />
<path d="M69.5,9L74.5,9L74.5,4L69.5,4L69.5,9" fill="rgba(0,0,100,1)" />
<path d="M69.5,4L74.5,4L74.5,-1L69.5,-1L69.5,4" fill="rgba(0,0,0,0)" />
<path d="M69.5,-1L74.5,-1L74.5,-6L69.5,-6L69.5,-1" fill="rgba(0,0,100,1)" />
<path d="M74.5,19L74.5,19" />
<path d="M74.5,19L79.5,19L79.5,14L74.5,14L74.5,19" fill="rgba(0,0,100,1)" />
<path d="M74.5,14L79.5,14L79.5,9L74.5,9L74.5,14" fill="rgba(0,0,0,0)" />
<path d="M74.5,9L79.5,9L79.5,4L74.5,4L74.5,9" fill="rgba(0,0,100,1)" />
<path d="M74.5,4L79.5,4L79.5,-1L74.5,-1L74.5,4" fill="rgba(0,0,0,0)" />
<path d="M74.5,-1L79.5,-1L79.5,-6L74.5,-6L74.5,-1" fill="rgba(0,0,100,1)" />
<path d="M79.5,19L79.5,19" />
<path d="M79.5,19L84.5,19L84.5,14L79.5,14L79.5,19" fill="rgba(0,0,100,1)" />
<path d="M79.5,14L84.5,14L84.5,9L79.5,9L79.5,14" fill="rgba(0,0,0,0)" />
<path d="M79.5,9L84.5,9L84.5,4L79.5,4L79.5,9" fill="rgba(0,0,100,1)" />
<path d="M79.5,4L84.5,4L84.5,-1L79.5,-1L79.5,4" fill="rgba(0,0,0,0)" />
<path d="M79.5,-1L84.5,-1L84.5,-6L79.5,-6L79.5,-1" fill="rgba(0,0,100,1)" />
<path d="M89.5,19L89.5,19" />
<path d="M89.5,19L94.5,19L94.5,14L89.5,14L89.5,19" fill="rgba(0,0,100,1)" />
<path d="M89.5,14L94.5,14L94.5,9L89.5,9L89.5,14" fill="rgba(0,0,100,1)" />
<path d="M89.5,9L94.5,9L94.5,4L89.5,4L89.5,9" fill="rgba(0,0,100,1)" />
<path d="M89.5,4L94.5,4L94.5,-1L89.5,-1L89.5,4" fill="rgba(0,0,100,1)" />
<path d="M89.5,-1L94.5,-1L94.5,-6L89.5,-6L89.5,-1" fill="rgba(0,0,100,1)" />
<path d="M94.5,19L94.5,19" />
<path d="M94.5,19L99.5,19L99.5,14L94.5,14L94.5,19" fill="rgba(0,0,0,0)" />
<path d="M94.5,14L99.5,14L99.5,9L94.5,9L94.5,14" fill="rgba(0,0,0,0)" />
<path d="M94.5,9L99.5,9L99.5,4L94.5,4L94.5,9" fill="rgba(0,0,100,1)" />
<path d="M94.5,4L99.5,4L99.5,-1L94.5,-1L94.5,4" fill="rgba(0,0,0,0)" />
<path d="M94.5,-1L99.5,-1L99.5,-6L94.5,-6L94.5,-1" fill="rgba(0,0,100,1)" />
<path d="M99.5,19L99.5,19" />
<path d="M99.5,19L104.5,19L104.5,14L99.5,14L99.5,19" fill="rgba(0,0,0,0)" />
<path d="M99.5,14L104.5,14L104.5,9L99.5,9L99.5,14" fill="rgba(0,0,0,0)" />
<path d="M99.5,9L104.5,9L104.5,4L99.5,4L99.5,9" fill="rgba(0,0,100,1)" />
<path d="M99.5,4L104.5,4L104.5,-1L99.5,-1L99.5,4" fill="rgba(0,0,100,1)" />
<path d="M99.5,-1L104.5,-1L104.5,-6L99.5,-6L99.5,-1" fill="rgba(0,0,100,1)" />
<path d="M109.5,19L109.5,19" />
<path d="M109.5,19L114.5,19L114.5,14L109.5,14L109.5,19" fill="rgba(0,0,0,0)" />
<path d="M109.5,14L114.5,14L114.5,9L109.5,9L109.5,14" fill="rgba(0,0,0,0)" />
<path d="M109.5,9L114.5,9L114.5,4L109.5,4L109.5,9" fill="rgba(0,0,0,0)" />
<path d="M109.5,4L114.5,4L114.5,-1L109.5,-1L109.5,4" fill="rgba(0,0,0,0)" />
<path d="M109.5,-1L114.5,-1L114.5,-6L109.5,-6L109.5,-1" fill="rgba(0,0,100,1)" />
<path d="M114.5,19L114.5,19" />
<path d="M114.5,19L119.5,19L119.5,14L114.5,14L114.5,19" fill="rgba(0,0,100,1)" />
<path d="M114.5,14L119.5,14L119.5,9L114.5,9L114.5,14" fill="rgba(0,0,100,1)" />
<path d="M114.5,9L119.5,9L119.5,4L114.5,4L114.5,9" fill="rgba(0,0,100,1)" />
<path d="M114.5,4L119.5,4L119.5,-1L114.5,-1L114.5,4" fill="rgba(0,0,100,1)" />
<path d="M114.5,-1L119.5,-1L119.5,-6L114.5,-6L114.5,-1" fill="rgba(0,0,100,1)" />
<path d="M119.5,19L119.5,19" />
<path d="M119.5,19L124.5,19L124.5,14L119.5,14L119.5,19" fill="rgba(0,0,0,0)" />
<path d="M119.5,14L124.5,14L124.5,9L119.5,9L119.5,14" fill="rgba(0,0,0,0)" />
<path d="M119.5,9L124.5,9L124.5,4L119.5,4L119.5,9" fill="rgba(0,0,0,0)" />
<path d="M119.5,4L124.5,4L124.5,-1L119.5,-1L119.5,4" fill="rgba(0,0,0,0)" />
<path d="M119.5,-1L124.5,-1L124.5,-6L119.5,-6L119.5,-1" fill="rgba(0,0,100,1)" />
<path d="M129.5,19L129.5,19" />
<path d="M129.5,19L134.5,19L134.5,14L129.5,14L129.5,19" fill="rgba(0,0,100,1)" />
<path d="M129.5,14L134.5,14L134.5,9L129.5,9L129.5,14" fill="rgba(0,0,100,1)" />
<path d="M129.5,9L134.5,9L134.5,4L129.5,4L129.5,9" fill="rgba(0,0,100,1)" />
<path d="M129.5,4L134.5,4L134.5,-1L129.5,-1L129.5,4" fill="rgba(0,0,100,1)" />
<path d="M129.5,-1L134.5,-1L134.5,-6L129.5,-6L129.5,-1" fill="rgba(0,0,0,0)" />
<path d="M134.5,19L134.5,19" />
<path d="M134.5,19L139.5,19L139.5,14L134.5,14L134.5,19" fill="rgba(0,0,0,0)" />
<path d="M134.5,14L139.5,14L139.5,9L134.5,9L134.5,14" fill="rgba(0,0,100,1)" />
<path d="M134.5,9L139.5,9L139.5,4L134.5,4L134.5,9" fill="rgba(0,0,0,0)" />
<path d="M134.5,4L139.5,4L139.5,-1L134.5,-1L134.5,4" fill="rgba(0,0,0,0)" />
<path d="M134.5,-1L139.5,-1L139.5,-6L134.5,-6L134.5,-1" fill="rgba(0,0,100,1)" />
<path d="M139.5,19L139.5,19" />
<path d="M139.5,19L144.5,19L144.5,14L139.5,14L139.5,19" fill="rgba(0,0,0,0)" />
<path d="M139.5,14L144.5,14L144.5,9L139.5,9L139.5,14" fill="rgba(0,0,100,1)" />
<path d="M139.5,9L144.5,9L144.5,4L139.5,4L139.5,9" fill="rgba(0,0,0,0)" />
<path d="M139.5,4L144.5,4L144.5,-1L139.5,-1L139.5,4" fill="rgba(0,0,0,0)" />
<path d="M139.5,-1L144.5,-1L144.5,-6L139.5,-6L139.5,-1" fill="rgba(0,0,100,1)" />
<path d="M144.5,19L144.5,19" />
<path d="M144.5,19L149.5,19L149.5,14L144.5,14L144.5,19" fill="rgba(0,0,100,1)" />
<path d="M144.5,14L149.5,14L149.5,9L144.5,9L144.5,14" fill="rgba(0,0,100,1)" />
<path d="M144.5,9L149.5,9L149.5,4L144.5,4L144.5,9" fill="rgba(0,0,100,1)" />
<path d="M144.5,4L149.5,4L149.5,-1L144.5,-1L144.5,4" fill="rgba(0,0,100,1)" />
<path d="M144.5,-1L149.5,-1L149.5,-6L144.5,-6L144.5,-1" fill="rgba(0,0,0,0)" />
<path d="M154.5,19L154.5,19" />
<path d="M154.5,19L159.5,19L159.5,14L154.5,14L154.5,19" fill="rgba(0,0,100,1)" />
<path d="M154.5,14L159.5,14L159.5,9L154.5,9L154.5,14" fill="rgba(0,0,100,1)" />
<path d="M154.5,9L159.5,9L159.5,4L154.5,4L154.5,9" fill="rgba(0,0,100,1)" />
<path d="M154.5,4L159.5,4L159.5,-1L154.5,-1L154.5,4" fill="rgba(0,0,100,1)" />
<path d="M154.5,-1L159.5,-1L159.5,-6L154.5,-6L154.5,-1" fill="rgba(0,0,100,1)" />
<path d="M159.5,19L159.5,19" />
<path d="M159.5,19L164.5,19L164.5,14L159.5,14L159.5,19" fill="rgba(0,0,0,0)" />
<path d="M159.5,14L164.5,14L164.5,9L159.5,9L159.5,14" fill="rgba(0,0,0,0)" />
<path d="M159.5,9L164.5,9L164.5,4L159.5,4L159.5,9" fill="rgba(0,0,0,0)" />
<path d="M159.5,4L164.5,4L164.5,-1L159.5,-1L159.5,4" fill="rgba(0,0,100,1)" />
<path d="M159.5,-1L164.5,-1L164.5,-6L159.5,-6L159.5,-1" fill="rgba(0,0,0,0)" />
<path d="M164.5,19L164.5,19" />
<path d="M164.5,19L169.5,19L169.5,14L164.5,14L164.5,19" fill="rgba(0,0,0,0)" />
<path d="M164.5,14L169.5,14L169.5,9L164.5,9L164.5,14" fill="rgba(0,0,0,0)" />
<path d="M164.5,9L169.5,9L169.5,4L164.5,4L164.5,9" fill="rgba(0,0,100,1)" />
<path d="M164.5,4L169.5,4L169.5,-1L164.5,-1L164.5,4" fill="rgba(0,0,0,0)" />
<path d="M164.5,-1L169.5,-1L169.5,-6L164.5,-6L164.5,-1" fill="rgba(0,0,0,0)" />
<path d="M169.5,19L169.5,19" />
<path d="M169.5,19L174.5,19L174.5,14L169.5,14L169.5,19" fill="rgba(0,0,0,0)" />
<path d="M169.5,14L174.5,14L174.5,9L169.5,9L169.5,14" fill="rgba(0,0,100,1)" />
<path d="M169.5,9L174.5,9L174.5,4L169.5,4L169.5,9" fill="rgba(0,0,0,0)" />
<path d="M169.5,4L174.5,4L174.5,-1L169.5,-1L169.5,4" fill="rgba(0,0,0,0)" />
<path d="M169.5,-1L174.5,-1L174.5,-6L169.5,-6L169.5,-1" fill="rgba(0,0,0,0)" />
<path d="M174.5,19L174.5,19" />
<path d="M174.5,19L179.5,19L179.5,14L174.5,14L174.5,19" fill="rgba(0,0,100,1)" />
<path d="M174.5,14L179.5,14L179.5,9L174.5,9L174.5,14" fill="rgba(0,0,100,1)" />
<path d="M174.5,9L179.5,9L179.5,4L174.5,4L174.5,9" fill="rgba(0,0,100,1)" />
<path d="M174.5,4L179.5,4L179.5,-1L174.5,-1L174.5,4" fill="rgba(0,0,100,1)" />
<path d="M174.5,-1L179.5,-1L179.5,-6L174.5,-6L174.5,-1" fill="rgba(0,0,100,1)" />
<path d="M184.5,19L184.5,19" />
<path d="M184.5,19L189.5,19L189.5,14L184.5,14L184.5,19" fill="rgba(0,0,0,0)" />
<path d="M184.5,14L189.5,14L189.5,9L184.5,9L184.5,14" fill="rgba(0,0,100,1)" />
<path d="M184.5,9L189.5,9L189.5,4L184.5,4L184.5,9" fill="rgba(0,0,100,1)" />
<path d="M184.5,4L189.5,4L189.5,-1L184.5,-1L184.5,4" fill="rgba(0,0,100,1)" />
<path d="M184.5,-1L189.5,-1L189.5,-6L184.5,-6L184.5,-1" fill="rgba(0,0,0,0)" />
<path d="M189.5,19L189.5,19" />
<path d="M189.5,19L194.5,19L194.5,14L189.5,14L189.5,19" fill="rgba(0,0,100,1)" />
<path d="M189.5,14L194.5,14L194.5,9L189.5,9L189.5,14" fill="rgba(0,0,0,0)" />
<path d="M189.5,9L194.5,9L194.5,4L189.5,4L189.5,9" fill="rgba(0,0,0,0)" />
<path d="M189.5,4L194.5,4L194.5,-1L189.5,-1L189.5,4" fill="rgba(0,0,0,0)" />
<path d="M189.5,-1L194.5,-1L194.5,-6L189.5,-6L189.5,-1" fill="rgba(0,0,100,1)" />
<path d="M194.5,19L194.5,19" />
<path d="M194.5,19L199.5,19L199.5,14L194.5,14L194.5,19" fill="rgba(0,0,100,1)" />
<path d="M194.5,14L199.5,14L199.5,9L194.5,9L194.5,14" fill="rgba(0,0,0,0)" />
<path d="M194.5,9L199.5,9L199.5,4L194.5,4L194.5,9" fill="rgba(0,0,0,0)" />
<path d="M194.5,4L199.5,4L199.5,-1L194.5,-1L194.5,4" fill="rgba(0,0,0,0)" />
<path d="M194.5,-1L199.5,-1L199.5,-6L194.5,-6L194.5,-1" fill="rgba(0,0,100,1)" />
<path d="M199.5,19L199.5,19" />
<path d="M199.5,19L204.5,19L204.5,14L199.5,14L199.5,19" fill="rgba(0,0,100,1)" />
<path d="M199.5,14L204.5,14L204.5,9L199.5,9L199.5,14" fill="rgba(0,0,0,0)" />
<path d="M199.5,9L204.5,9L204.5,4L199.5,4L199.5,9" fill="rgba(0,0,0,0)" />
<path d="M199.5,4L204.5,4L204.5,-1L199.5,-1L199.5,4" fill="rgba(0,0,0,0)" />
<path d="M199.5,-1L204.5,-1L204.5,-6L199.5,-6L199.5,-1" fill="rgba(0,0,100,1)" />
<path d="M209.5,19L209.5,19" />
<path d="M209.5,19L214.5,19L214.5,14L209.5,14L209.5,19" fill="rgba(0,0,100,1)" />
<path d="M209.5,14L214.5,14L214.5,9L209.5,9L209.5,14" fill="rgba(0,0,100,1)" />
<path d="M209.5,9L214.5,9L214.5,4L209.5,4L209.5,9" fill="rgba(0,0,100,1)" />
<path d="M209.5,4L214.5,4L214.5,-1L209.5,-1L209.5,4" fill="rgba(0,0,100,1)" />
<path d="M209.5,-1L214.5,-1L214.5,-6L209.5,-6L209.5,-1" fill="rgba(0,0,100,1)" />
<path d="M214.5,19L214.5,19" />
<path d="M214.5,19L219.5,19L219.5,14L214.5,14L214.5,19" fill="rgba(0,0,100,1)" />
<path d="M214.5,14L219.5,14L219.5,9L214.5,9L214.5,14" fill="rgba(0,0,0,0)" />
<path d="M214.5,9L219.5,9L219.5,4L214.5,4L214.5,9" fill="rgba(0,0,100,1)" />
<path d="M214.5,4L219.5,4L219.5,-1L214.5,-1L214.5,4" fill="rgba(0,0,0,0)" />
<path d="M214.5,-1L219.5,-1L219.5,-6L214.5,-6L214.5,-1" fill="rgba(0,0,100,1)" />
<path d="M219.5,19L219.5,19" />
<path d="M219.5,19L224.5,19L224.5,14L219.5,14L219.5,19" fill="rgba(0,0,100,1)" />
<path d="M219.5,14L224.5,14L224.5,9L219.5,9L219.5,14" fill="rgba(0,0,0,0)" />
<path d="M219.5,9L224.5,9L224.5,4L219.5,4L219.5,9" fill="rgba(0,0,100,1)" />
<path d="M219.5,4L224.5,4L224.5,-1L219.5,-1L219.5,4" fill="rgba(0,0,0,0)" />
<path d="M219.5,-1L224.5,-1L224.5,-6L219.5,-6L219.5,-1" fill="rgba(0,0,100,1)" />
<path d="M224.5,19L224.5,19" />
<path d="M224.5,19L229.5,19L229.5,14L224.5,14L224.5,19" fill="rgba(0,0,100,1)" />
<path d="M224.5,14L229.5,14L229.5,9L224.5,9L224.5,14" fill="rgba(0,0,0,0)" />
<path d="M224.5,9L229.5,9L229.5,4L224.5,4L224.5,9" fill="rgba(0,0,100,1)" />
<path d="M224.5,4L229.5,4L229.5,-1L224.5,-1L224.5,4" fill="rgba(0,0,0,0)" />
<path d="M224.5,-1L229.5,-1L229.5,-6L224.5,-6L224.5,-1" fill="rgba(0,0,100,1)" />
<path d="M227,-6L224.5,-6" stroke-width="1" stroke="rgba(150,0,0,1)" />
<path d="M222,-6L219.5,-6" stroke="rgba(150,0,0,1)" stroke-width="1" />
<path d="M217,-6L214.5,-6" stroke-width="1" stroke="rgba(150,0,0,1)" />
<path d="M212,-6L209.5,-6" stroke="rgba(150,0,0,1)" stroke-width="1" />
<path d="M207,-6L204.5,-6" stroke-width="1" stroke="rgba(150,0,0,1)" />
<path d="M202,-6L199.5,-6" stroke-width="1" stroke="rgba(150,0,0,1)" />
<path d="M197,-6L194.5,-6" stroke="rgba(150,0,0,1)" stroke-width="1" />
<path d="M192,-6L189.5,-6" stroke-width="1" stroke="rgba(150,0,0,1)" />
<path d="M187,-6L184.5,-6" stroke="rgba(150,0,0,1)" stroke-width="1" />
<path d="M182,-6L179.5,-6" stroke="rgba(150,0,0,1)" stroke-width="1" />
<path d="M177,-6L174.5,-6" stroke="rgba(150,0,0,1)" stroke-width="1" />
<path d="M172,-6L169.5,-6" stroke-width="1" stroke="rgba(150,0,0,1)" />
<path d="M167,-6L164.5,-6" stroke-width="1" stroke="rgba(150,0,0,1)" />
<path d="M162,-6L159.5,-6" stroke="rgba(150,0,0,1)" stroke-width="1" />
<path d="M157,-6L154.5,-6" stroke-width="1" stroke="rgba(150,0,0,1)" />
<path d="M152,-6L149.5,-6" stroke-width="1" stroke="rgba(150,0,0,1)" />
<path d="M147,-6L144.5,-6" stroke="rgba(150,0,0,1)" stroke-width="1" />
<path d="M142,-6L139.5,-6" stroke-width="1" stroke="rgba(150,0,0,1)" />
<path d="M137,-6L134.5,-6" stroke-width="1" stroke="rgba(150,0,0,1)" />
<path d="M132,-6L129.5,-6" stroke-width="1" stroke="rgba(150,0,0,1)" />
<path d="M127,-6L124.5,-6" stroke-width="1" stroke="rgba(150,0,0,1)" />
<path d="M122,-6L119.5,-6" stroke="rgba(150,0,0,1)" stroke-width="1" />
<path d="M117,-6L114.5,-6" stroke="rgba(150,0,0,1)" stroke-width="1" />
<path d="M112,-6L109.5,-6" stroke="rgba(150,0,0,1)" stroke-width="1" />
<path d="M107,-6L104.5,-6" stroke-width="1" stroke="rgba(150,0,0,1)" />
<path d="M102,-6L99.5,-6" stroke="rgba(150,0,0,1)" stroke-width="1" />
<path d="M97,-6L94.5,-6" stroke="rgba(150,0,0,1)" stroke-width="1" />
<path d="M92,-6L89.5,-6" stroke="rgba(150,0,0,1)" stroke-width="1" />
<path d="M87,-6L84.5,-6" stroke="rgba(150,0,0,1)" stroke-width="1" />
<path d="M82,-6L79.5,-6" stroke-width="1" stroke="rgba(150,0,0,1)" />
<path d="M77,-6L74.5,-6" stroke-width="1" stroke="rgba(150,0,0,1)" />
<path d="M72,-6L69.5,-6" stroke="rgba(150,0,0,1)" stroke-width="1" />
<path d="M67,-6L64.5,-6" stroke="rgba(150,0,0,1)" stroke-width="1" />
<path d="M62,-6L59.5,-6" stroke="rgba(150,0,0,1)" stroke-width="1" />
<path d="M57,-6L54.5,-6" stroke="rgba(150,0,0,1)" stroke-width="1" />
<path d="M52,-6L49.5,-6" stroke="rgba(150,0,0,1)" stroke-width="1" />
<path d="M47,-6L44.5,-6" stroke="rgba(150,0,0,1)" stroke-width="1" />
<path d="M42,-6L39.5,-6" stroke-width="1" stroke="rgba(150,0,0,1)" />
<path d="M37,-6L34.5,-6" stroke-width="1" stroke="rgba(150,0,0,1)" />
<path d="M32,-6L29.5,-6" stroke-width="1" stroke="rgba(150,0,0,1)" />
<path d="M27,-6L24.5,-6" stroke-width="1" stroke="rgba(150,0,0,1)" />
<path d="M22,-6L19.5,-6" stroke="rgba(150,0,0,1)" stroke-width="1" />
<path d="M17,-6L14.5,-6" stroke="rgba(150,0,0,1)" stroke-width="1" />
<path d="M12,-6L9.5,-6" stroke="rgba(150,0,0,1)" stroke-width="1" />
<path d="M7,-6L4.5,-6" stroke="rgba(150,0,0,1)" stroke-width="1" />
<path d="M2,-6L-0.5,-6" stroke="rgba(150,0,0,1)" stroke-width="1" />
<path d="M-3,-6L-5.5,-6" stroke="rgba(150,0,0,1)" stroke-width="1" />
<path d="M-8,-6L-10.5,-6" stroke="rgba(150,0,0,1)" stroke-width="1" />
<path d="M-13,-6L-15.5,-6" stroke-width="1" stroke="rgba(150,0,0,1)" />
<path d="M227,49L224.5,49" stroke-width="1" stroke="rgba(150,0,0,1)" />
<path d="M222,49L219.5,49" stroke-width="1" stroke="rgba(150,0,0,1)" />
<path d="M217,49L214.5,49" stroke="rgba(150,0,0,1)" stroke-width="1" />
<path d="M212,49L209.5,49" stroke="rgba(150,0,0,1)" stroke-width="1" />
<path d="M207,49L204.5,49" stroke-width="1" stroke="rgba(150,0,0,1)" />
<path d="M202,49L199.5,49" stroke="rgba(150,0,0,1)" stroke-width="1" />
<path d="M197,49L194.5,49" stroke-width="1" stroke="rgba(150,0,0,1)" />
<path d="M192,49L189.5,49" stroke="rgba(150,0,0,1)" stroke-width="1" />
<path d="M187,49L184.5,49" stroke="rgba(150,0,0,1)" stroke-width="1" />
<path d="M182,49L179.5,49" stroke="rgba(150,0,0,1)" stroke-width="1" />
<path d="M177,49L174.5,49" stroke="rgba(150,0,0,1)" stroke-width="1" />
<path d="M172,49L169.5,49" stroke-width="1" stroke="rgba(150,0,0,1)" />
<path d="M167,49L164.5,49" stroke="rgba(150,0,0,1)" stroke-width="1" />
<path d="M162,49L159.5,49" stroke-width="1" stroke="rgba(150,0,0,1)" />
<path d="M157,49L154.5,49" stroke-width="1" stroke="rgba(150,0,0,1)" />
<path d="M152,49L149.5,49" stroke-width="1" stroke="rgba(150,0,0,1)" />
<path d="M147,49L144.5,49" stroke-width="1" stroke="rgba(150,0,0,1)" />
<path d="M142,49L139.5,49" stroke="rgba(150,0,0,1)" stroke-width="1" />
<path d="M137,49L134.5,49" stroke-width="1" stroke="rgba(150,0,0,1)" />
<path d="M132,49L129.5,49" stroke="rgba(150,0,0,1)" stroke-width="1" />
<path d="M127,49L124.5,49" stroke-width="1" stroke="rgba(150,0,0,1)" />
<path d="M122,49L119.5,49" stroke="rgba(150,0,0,1)" stroke-width="1" />
<path d="M117,49L114.5,49" stroke-width="1" stroke="rgba(150,0,0,1)" />
<path d="M112,49L109.5,49" stroke-width="1" stroke="rgba(150,0,0,1)" />
<path d="M107,49L104.5,49" stroke="rgba(150,0,0,1)" stroke-width="1" />
<path d="M102,49L99.5,49" stroke-width="1" stroke="rgba(150,0,0,1)" />
<path d="M97,49L94.5,49" stroke-width="1" stroke="rgba(150,0,0,1)" />
<path d="M92,49L89.5,49" stroke-width="1" stroke="rgba(150,0,0,1)" />
<path d="M87,49L84.5,49" stroke="rgba(150,0,0,1)" stroke-width="1" />
<path d="M82,49L79.5,49" stroke-width="1" stroke="rgba(150,0,0,1)" />
<path d="M77,49L74.5,49" stroke-width="1" stroke="rgba(150,0,0,1)" />
<path d="M72,49L69.5,49" stroke="rgba(150,0,0,1)" stroke-width="1" />
<path d="M67,49L64.5,49" stroke="rgba(150,0,0,1)" stroke-width="1" />
<path d="M62,49L59.5,49" stroke="rgba(150,0,0,1)" stroke-width="1" />
<path d="M57,49L54.5,49" stroke-width="1" stroke="rgba(150,0,0,1)" />
<path d="M52,49L49.5,49" stroke="rgba(150,0,0,1)" stroke-width="1" />
<path d="M47,49L44.5,49" stroke-width="1" stroke="rgba(150,0,0,1)" />
<path d="M42,49L39.5,49" stroke="rgba(150,0,0,1)" stroke-width="1" />
<path d="M37,49L34.5,49" stroke="rgba(150,0,0,1)" stroke-width="1" />
<path d="M32,49L29.5,49" stroke="rgba(150,0,0,1)" stroke-width="1" />
<path d="M27,49L24.5,49" stroke="rgba(150,0,0,1)" stroke-width="1" />
<path d="M22,49L19.5,49" stroke="rgba(150,0,0,1)" stroke-width="1" />
<path d="M17,49L14.5,49" stroke="rgba(150,0,0,1)" stroke-width="1" />
<path d="M12,49L9.5,49" stroke-width="1" stroke="rgba(150,0,0,1)" />
<path d="M7,49L4.5,49" stroke="rgba(150,0,0,1)" stroke-width="1" />
<path d="M2,49L-0.5,49" stroke-width="1" stroke="rgba(150,0,0,1)" />
<path d="M-3,49L-5.5,49" stroke-width="1" stroke="rgba(150,0,0,1)" />
<path d="M-8,49L-10.5,49" stroke="rgba(150,0,0,1)" stroke-width="1" />
<path d="M-13,49L-15.5,49" stroke="rgba(150,0,0,1)" stroke-width="1" />
<path d="M-15.5,46.5L-15.5,44" stroke-width="1" stroke="rgba(150,0,0,1)" />
<path d="M-15.5,41.5L-15.5,39" stroke="rgba(150,0,0,1)" stroke-width="1" />
<path d="M-15.5,36.5L-15.5,34" stroke-width="1" stroke="rgba(150,0,0,1)" />
<path d="M-15.5,31.5L-15.5,29" stroke-width="1" stroke="rgba(150,0,0,1)" />
<path d="M-15.5,26.5L-15.5,24" stroke-width="1" stroke="rgba(150,0,0,1)" />
<path d="M-15.5,21.5L-15.5,19" stroke-width="1" stroke="rgba(150,0,0,1)" />
<path d="M-15.5,16.500000000000004L-15.5,14" stroke-width="1" stroke="rgba(150,0,0,1)" />
<path d="M-15.5,11.5L-15.5,9" stroke="rgba(150,0,0,1)" stroke-width="1" />
<path d="M-15.5,6.5L-15.5,4" stroke-width="1" stroke="rgba(150,0,0,1)" />
<path d="M-15.5,1.5L-15.5,-1" stroke-width="1" stroke="rgba(150,0,0,1)" />
<path d="M-15.5,-3.5L-15.5,-6" stroke="rgba(150,0,0,1)" stroke-width="1" />
<path d="M229.5,46.5L229.5,44" stroke-width="1" stroke="rgba(150,0,0,1)" />
<path d="M229.5,41.5L229.5,39" stroke="rgba(150,0,0,1)" stroke-width="1" />
<path d="M229.5,36.5L229.5,34" stroke-width="1" stroke="rgba(150,0,0,1)" />
<path d="M229.5,31.5L229.5,29" stroke-width="1" stroke="rgba(150,0,0,1)" />
<path d="M229.5,26.5L229.5,24" stroke="rgba(150,0,0,1)" stroke-width="1" />
<path d="M229.5,21.5L229.5,19" stroke="rgba(150,0,0,1)" stroke-width="1" />
<path d="M229.5,16.500000000000004L229.5,14" stroke="rgba(150,0,0,1)" stroke-width="1" />
<path d="M229.5,11.5L229.5,9" stroke="rgba(150,0,0,1)" stroke-width="1" />
<path d="M229.5,6.5L229.5,4" stroke-width="1" stroke="rgba(150,0,0,1)" />
<path d="M229.5,1.5L229.5,-1" stroke-width="1" stroke="rgba(150,0,0,1)" />
<path d="M229.5,-3.5L229.5,-6" stroke-width="1" stroke="rgba(150,0,0,1)" />
</svg>
