<svg xmlns="http://www.w3.org/2000/svg" viewBox="-1001 -12 1226.5 1068">
<path d="M62,44L62,44" />
<path d="M62,44L67,44L67,39L62,39L62,44" fill="rgba(0,0,0,0)" />
<path d="M62,39L67,39L67,34L62,34L62,39" fill="rgba(0,0,0,0)" />
<path d="M62,34L67,34L67,29L62,29L62,34" fill="rgba(0,0,0,0)" />
<path d="M62,29L67,29L67,24L62,24L62,29" fill="rgba(0,0,0,0)" />
<path d="M62,24L67,24L67,19L62,19L62,24" fill="rgba(0,0,100,1)" />
<path d="M67,44L67,44" />
<path d="M67,44L72,44L72,39L67,39L67,44" fill="rgba(0,0,100,1)" />
<path d="M67,39L72,39L72,34L67,34L67,39" fill="rgba(0,0,100,1)" />
<path d="M67,34L72,34L72,29L67,29L67,34" fill="rgba(0,0,100,1)" />
<path d="M67,29L72,29L72,24L67,24L67,29" fill="rgba(0,0,100,1)" />
<path d="M67,24L72,24L72,19L67,19L67,24" fill="rgba(0,0,100,1)" />
<path d="M72,44L72,44" />
<path d="M72,44L77,44L77,39L72,39L72,44" fill="rgba(0,0,0,0)" />
<path d="M72,39L77,39L77,34L72,34L72,39" fill="rgba(0,0,0,0)" />
<path d="M72,34L77,34L77,29L72,29L72,34" fill="rgba(0,0,0,0)" />
<path d="M72,29L77,29L77,24L72,24L72,29" fill="rgba(0,0,0,0)" />
<path d="M72,24L77,24L77,19L72,19L72,24" fill="rgba(0,0,100,1)" />
<path d="M82,44L82,44" />
<path d="M82,44L87,44L87,39L82,39L82,44" fill="rgba(0,0,100,1)" />
<path d="M82,39L87,39L87,34L82,34L82,39" fill="rgba(0,0,100,1)" />
<path d="M82,34L87,34L87,29L82,29L82,34" fill="rgba(0,0,100,1)" />
<path d="M82,29L87,29L87,24L82,24L82,29" fill="rgba(0,0,100,1)" />
<path d="M82,24L87,24L87,19L82,19L82,24" fill="rgba(0,0,100,1)" />
<path d="M87,44L87,44" />
<path d="M87,44L92,44L92,39L87,39L87,44" fill="rgba(0,0,100,1)" />
<path d="M87,39L92,39L92,34L87,34L87,39" fill="rgba(0,0,0,0)" />
<path d="M87,34L92,34L92,29L87,29L87,34" fill="rgba(0,0,100,1)" />
<path d="M87,29L92,29L92,24L87,24L87,29" fill="rgba(0,0,0,0)" />
<path d="M87,24L92,24L92,19L87,19L87,24" fill="rgba(0,0,100,1)" />
<path d="M92,44L92,44" />
<path d="M92,44L97,44L97,39L92,39L92,44" fill="rgba(0,0,100,1)" />
<path d="M92,39L97,39L97,34L92,34L92,39" fill="rgba(0,0,0,0)" />
<path d="M92,34L97,34L97,29L92,29L92,34" fill="rgba(0,0,100,1)" />
<path d="M92,29L97,29L97,24L92,24L92,29" fill="rgba(0,0,0,0)" />
<path d="M92,24L97,24L97,19L92,19L92,24" fill="rgba(0,0,100,1)" />
<path d="M97,44L97,44" />
<path d="M97,44L102,44L102,39L97,39L97,44" fill="rgba(0,0,100,1)" />
<path d="M97,39L102,39L102,34L97,34L97,39" fill="rgba(0,0,0,0)" />
<path d="M97,34L102,34L102,29L97,29L97,34" fill="rgba(0,0,100,1)" />
<path d="M97,29L102,29L102,24L97,24L97,29" fill="rgba(0,0,0,0)" />
<path d="M97,24L102,24L102,19L97,19L97,24" fill="rgba(0,0,100,1)" />
<path d="M107,44L107,44" />
<path d="M107,44L112,44L112,39L107,39L107,44" fill="rgba(0,0,100,1)" />
<path d="M107,39L112,39L112,34L107,34L107,39" fill="rgba(0,0,0,0)" />
<path d="M107,34L112,34L112,29L107,29L107,34" fill="rgba(0,0,100,1)" />
<path d="M107,29L112,29L112,24L107,24L107,29" fill="rgba(0,0,100,1)" />
<path d="M107,24L112,24L112,19L107,19L107,24" fill="rgba(0,0,0,0)" />
<path d="M112,44L112,44" />
<path d="M112,44L117,44L117,39L112,39L112,44" fill="rgba(0,0,100,1)" />
<path d="M112,39L117,39L117,34L112,34L112,39" fill="rgba(0,0,0,0)" />
<path d="M112,34L117,34L117,29L112,29L112,34" fill="rgba(0,0,100,1)" />
<path d="M112,29L117,29L117,24L112,24L112,29" fill="rgba(0,0,0,0)" />
<path d="M112,24L117,24L117,19L112,19L112,24" fill="rgba(0,0,100,1)" />
<path d="M117,44L117,44" />
<path d="M117,44L122,44L122,39L117,39L117,44" fill="rgba(0,0,100,1)" />
<path d="M117,39L122,39L122,34L117,34L117,39" fill="rgba(0,0,0,0)" />
<path d="M117,34L122,34L122,29L117,29L117,34" fill="rgba(0,0,100,1)" />
<path d="M117,29L122,29L122,24L117,24L117,29" fill="rgba(0,0,0,0)" />
<path d="M117,24L122,24L122,19L117,19L117,24" fill="rgba(0,0,100,1)" />
<path d="M122,44L122,44" />
<path d="M122,44L127,44L127,39L122,39L122,44" fill="rgba(0,0,100,1)" />
<path d="M122,39L127,39L127,34L122,34L122,39" fill="rgba(0,0,100,1)" />
<path d="M122,34L127,34L127,29L122,29L122,34" fill="rgba(0,0,100,1)" />
<path d="M122,29L127,29L127,24L122,24L122,29" fill="rgba(0,0,0,0)" />
<path d="M122,24L127,24L127,19L122,19L122,24" fill="rgba(0,0,100,1)" />
<path d="M132,44L132,44" />
<path d="M132,44L137,44L137,39L132,39L132,44" fill="rgba(0,0,0,0)" />
<path d="M132,39L137,39L137,34L132,34L132,39" fill="rgba(0,0,0,0)" />
<path d="M132,34L137,34L137,29L132,29L132,34" fill="rgba(0,0,0,0)" />
<path d="M132,29L137,29L137,24L132,24L132,29" fill="rgba(0,0,0,0)" />
<path d="M132,24L137,24L137,19L132,19L132,24" fill="rgba(0,0,100,1)" />
<path d="M137,44L137,44" />
<path d="M137,44L142,44L142,39L137,39L137,44" fill="rgba(0,0,100,1)" />
<path d="M137,39L142,39L142,34L137,34L137,39" fill="rgba(0,0,100,1)" />
<path d="M137,34L142,34L142,29L137,29L137,34" fill="rgba(0,0,100,1)" />
<path d="M137,29L142,29L142,24L137,24L137,29" fill="rgba(0,0,100,1)" />
<path d="M137,24L142,24L142,19L137,19L137,24" fill="rgba(0,0,100,1)" />
<path d="M142,44L142,44" />
<path d="M142,44L147,44L147,39L142,39L142,44" fill="rgba(0,0,0,0)" />
<path d="M142,39L147,39L147,34L142,34L142,39" fill="rgba(0,0,0,0)" />
<path d="M142,34L147,34L147,29L142,29L142,34" fill="rgba(0,0,0,0)" />
<path d="M142,29L147,29L147,24L142,24L142,29" fill="rgba(0,0,0,0)" />
<path d="M142,24L147,24L147,19L142,19L142,24" fill="rgba(0,0,100,1)" />
<path d="M-15.5,14L-15.5,14" />
<path d="M-15.5,14L-10.5,14L-10.5,9L-15.5,9L-15.5,14" fill="rgba(0,0,100,1)" />
<path d="M-15.5,9L-10.5,9L-10.5,4L-15.5,4L-15.5,9" fill="rgba(0,0,100,1)" />
<path d="M-15.5,4L-10.5,4L-10.5,-1L-15.5,-1L-15.5,4" fill="rgba(0,0,100,1)" />
<path d="M-15.5,-1L-10.5,-1L-10.5,-6L-15.5,-6L-15.5,-1" fill="rgba(0,0,100,1)" />
<path d="M-15.5,-6L-10.5,-6L-10.5,-11L-15.5,-11L-15.5,-6" fill="rgba(0,0,0,0)" />
<path d="M-10.5,14L-10.5,14" />
<path d="M-10.5,14L-5.5,14L-5.5,9L-10.5,9L-10.5,14" fill="rgba(0,0,0,0)" />
<path d="M-10.5,9L-5.5,9L-5.5,4L-10.5,4L-10.5,9" fill="rgba(0,0,100,1)" />
<path d="M-10.5,4L-5.5,4L-5.5,-1L-10.5,-1L-10.5,4" fill="rgba(0,0,0,0)" />
<path d="M-10.5,-1L-5.5,-1L-5.5,-6L-10.5,-6L-10.5,-1" fill="rgba(0,0,0,0)" />
<path d="M-10.5,-6L-5.5,-6L-5.5,-11L-10.5,-11L-10.5,-6" fill="rgba(0,0,100,1)" />
<path d="M-5.5,14L-5.5,14" />
<path d="M-5.5,14L-0.5,14L-0.5,9L-5.5,9L-5.5,14" fill="rgba(0,0,0,0)" />
<path d="M-5.5,9L-0.5,9L-0.5,4L-5.5,4L-5.5,9" fill="rgba(0,0,100,1)" />
<path d="M-5.5,4L-0.5,4L-0.5,-1L-5.5,-1L-5.5,4" fill="rgba(0,0,0,0)" />
<path d="M-5.5,-1L-0.5,-1L-0.5,-6L-5.5,-6L-5.5,-1" fill="rgba(0,0,0,0)" />
<path d="M-5.5,-6L-0.5,-6L-0.5,-11L-5.5,-11L-5.5,-6" fill="rgba(0,0,100,1)" />
<path d="M-0.5,14L-0.5,14" />
<path d="M-0.5,14L4.5,14L4.5,9L-0.5,9L-0.5,14" fill="rgba(0,0,100,1)" />
<path d="M-0.5,9L4.5,9L4.5,4L-0.5,4L-0.5,9" fill="rgba(0,0,100,1)" />
<path d="M-0.5,4L4.5,4L4.5,-1L-0.5,-1L-0.5,4" fill="rgba(0,0,100,1)" />
<path d="M-0.5,-1L4.5,-1L4.5,-6L-0.5,-6L-0.5,-1" fill="rgba(0,0,100,1)" />
<path d="M-0.5,-6L4.5,-6L4.5,-11L-0.5,-11L-0.5,-6" fill="rgba(0,0,0,0)" />
<path d="M9.5,14L9.5,14" />
<path d="M9.5,14L14.5,14L14.5,9L9.5,9L9.5,14" fill="rgba(0,0,0,0)" />
<path d="M9.5,9L14.5,9L14.5,4L9.5,4L9.5,9" fill="rgba(0,0,100,1)" />
<path d="M9.5,4L14.5,4L14.5,-1L9.5,-1L9.5,4" fill="rgba(0,0,100,1)" />
<path d="M9.5,-1L14.5,-1L14.5,-6L9.5,-6L9.5,-1" fill="rgba(0,0,100,1)" />
<path d="M9.5,-6L14.5,-6L14.5,-11L9.5,-11L9.5,-6" fill="rgba(0,0,0,0)" />
<path d="M14.5,14L14.5,14" />
<path d="M14.5,14L19.5,14L19.5,9L14.5,9L14.5,14" fill="rgba(0,0,100,1)" />
<path d="M14.5,9L19.5,9L19.5,4L14.5,4L14.5,9" fill="rgba(0,0,0,0)" />
<path d="M14.5,4L19.5,4L19.5,-1L14.5,-1L14.5,4" fill="rgba(0,0,0,0)" />
<path d="M14.5,-1L19.5,-1L19.5,-6L14.5,-6L14.5,-1" fill="rgba(0,0,0,0)" />
<path d="M14.5,-6L19.5,-6L19.5,-11L14.5,-11L14.5,-6" fill="rgba(0,0,100,1)" />
<path d="M19.5,14L19.5,14" />
<path d="M19.5,14L24.5,14L24.5,9L19.5,9L19.5,14" fill="rgba(0,0,100,1)" />
<path d="M19.5,9L24.5,9L24.5,4L19.5,4L19.5,9" fill="rgba(0,0,0,0)" />
<path d="M19.5,4L24.5,4L24.5,-1L19.5,-1L19.5,4" fill="rgba(0,0,0,0)" />
<path d="M19.5,-1L24.5,-1L24.5,-6L19.5,-6L19.5,-1" fill="rgba(0,0,0,0)" />
<path d="M19.5,-6L24.5,-6L24.5,-11L19.5,-11L19.5,-6" fill="rgba(0,0,100,1)" />
<path d="M24.5,14L24.5,14" />
<path d="M24.5,14L29.5,14L29.5,9L24.5,9L24.5,14" fill="rgba(0,0,100,1)" />
<path d="M24.5,9L29.5,9L29.5,4L24.5,4L24.5,9" fill="rgba(0,0,0,0)" />
<path d="M24.5,4L29.5,4L29.5,-1L24.5,-1L24.5,4" fill="rgba(0,0,0,0)" />
<path d="M24.5,-1L29.5,-1L29.5,-6L24.5,-6L24.5,-1" fill="rgba(0,0,0,0)" />
<path d="M24.5,-6L29.5,-6L29.5,-11L24.5,-11L24.5,-6" fill="rgba(0,0,100,1)" />
<path d="M34.5,14L34.5,14" />
<path d="M34.5,14L39.5,14L39.5,9L34.5,9L34.5,14" fill="rgba(0,0,0,0)" />
<path d="M34.5,9L39.5,9L39.5,4L34.5,4L34.5,9" fill="rgba(0,0,100,1)" />
<path d="M34.5,4L39.5,4L39.5,-1L34.5,-1L34.5,4" fill="rgba(0,0,100,1)" />
<path d="M34.5,-1L39.5,-1L39.5,-6L34.5,-6L34.5,-1" fill="rgba(0,0,100,1)" />
<path d="M34.5,-6L39.5,-6L39.5,-11L34.5,-11L34.5,-6" fill="rgba(0,0,0,0)" />
<path d="M39.5,14L39.5,14" />
<path d="M39.5,14L44.5,14L44.5,9L39.5,9L39.5,14" fill="rgba(0,0,100,1)" />
<path d="M39.5,9L44.5,9L44.5,4L39.5,4L39.5,9" fill="rgba(0,0,0,0)" />
<path d="M39.5,4L44.5,4L44.5,-1L39.5,-1L39.5,4" fill="rgba(0,0,0,0)" />
<path d="M39.5,-1L44.5,-1L44.5,-6L39.5,-6L39.5,-1" fill="rgba(0,0,0,0)" />
<path d="M39.5,-6L44.5,-6L44.5,-11L39.5,-11L39.5,-6" fill="rgba(0,0,100,1)" />
<path d="M44.5,14L44.5,14" />
<path d="M44.5,14L49.5,14L49.5,9L44.5,9L44.5,14" fill="rgba(0,0,100,1)" />
<path d="M44.5,9L49.5,9L49.5,4L44.5,4L44.5,9" fill="rgba(0,0,0,0)" />
<path d="M44.5,4L49.5,4L49.5,-1L44.5,-1L44.5,4" fill="rgba(0,0,0,0)" />
<path d="M44.5,-1L49.5,-1L49.5,-6L44.5,-6L44.5,-1" fill="rgba(0,0,0,0)" />
<path d="M44.5,-6L49.5,-6L49.5,-11L44.5,-11L44.5,-6" fill="rgba(0,0,100,1)" />
<path d="M49.5,14L49.5,14" />
<path d="M49.5,14L54.5,14L54.5,9L49.5,9L49.5,14" fill="rgba(0,0,100,1)" />
<path d="M49.5,9L54.5,9L54.5,4L49.5,4L49.5,9" fill="rgba(0,0,0,0)" />
<path d="M49.5,4L54.5,4L54.5,-1L49.5,-1L49.5,4" fill="rgba(0,0,0,0)" />
<path d="M49.5,-1L54.5,-1L54.5,-6L49.5,-6L49.5,-1" fill="rgba(0,0,0,0)" />
<path d="M49.5,-6L54.5,-6L54.5,-11L49.5,-11L49.5,-6" fill="rgba(0,0,100,1)" />
<path d="M59.5,14L59.5,14" />
<path d="M59.5,14L64.5,14L64.5,9L59.5,9L59.5,14" fill="rgba(0,0,100,1)" />
<path d="M59.5,9L64.5,9L64.5,4L59.5,4L59.5,9" fill="rgba(0,0,100,1)" />
<path d="M59.5,4L64.5,4L64.5,-1L59.5,-1L59.5,4" fill="rgba(0,0,100,1)" />
<path d="M59.5,-1L64.5,-1L64.5,-6L59.5,-6L59.5,-1" fill="rgba(0,0,100,1)" />
<path d="M59.5,-6L64.5,-6L64.5,-11L59.5,-11L59.5,-6" fill="rgba(0,0,100,1)" />
<path d="M64.5,14L64.5,14" />
<path d="M64.5,14L69.5,14L69.5,9L64.5,9L64.5,14" fill="rgba(0,0,100,1)" />
<path d="M64.5,9L69.5,9L69.5,4L64.5,4L64.5,9" fill="rgba(0,0,0,0)" />
<path d="M64.5,4L69.5,4L69.5,-1L64.5,-1L64.5,4" fill="rgba(0,0,100,1)" />
<path d="M64.5,-1L69.5,-1L69.5,-6L64.5,-6L64.5,-1" fill="rgba(0,0,0,0)" />
<path d="M64.5,-6L69.5,-6L69.5,-11L64.5,-11L64.5,-6" fill="rgba(0,0,100,1)" />
<path d="M69.5,14L69.5,14" />
<path d="M69.5,14L74.5,14L74.5,9L69.5,9L69.5,14" fill="rgba(0,0,100,1)" />
<path d="M69.5,9L74.5,9L74.5,4L69.5,4L69.5,9" fill="rgba(0,0,0,0)" />
<path d="M69.5,4L74.5,4L74.5,-1L69.5,-1L69.5,4" fill="rgba(0,0,100,1)" />
<path d="M69.5,-1L74.5,-1L74.5,-6L69.5,-6L69.5,-1" fill="rgba(0,0,0,0)" />
<path d="M69.5,-6L74.5,-6L74.5,-11L69.5,-11L69.5,-6" fill="rgba(0,0,100,1)" />
<path d="M74.5,14L74.5,14" />
<path d="M74.5,14L79.5,14L79.5,9L74.5,9L74.5,14" fill="rgba(0,0,100,1)" />
<path d="M74.5,9L79.5,9L79.5,4L74.5,4L74.5,9" fill="rgba(0,0,0,0)" />
<path d="M74.5,4L79.5,4L79.5,-1L74.5,-1L74.5,4" fill="rgba(0,0,100,1)" />
<path d="M74.5,-1L79.5,-1L79.5,-6L74.5,-6L74.5,-1" fill="rgba(0,0,0,0)" />
<path d="M74.5,-6L79.5,-6L79.5,-11L74.5,-11L74.5,-6" fill="rgba(0,0,100,1)" />
<path d="M84.5,14L84.5,14" />
<path d="M84.5,14L89.5,14L89.5,9L84.5,9L84.5,14" fill="rgba(0,0,100,1)" />
<path d="M84.5,9L89.5,9L89.5,4L84.5,4L84.5,9" fill="rgba(0,0,100,1)" />
<path d="M84.5,4L89.5,4L89.5,-1L84.5,-1L84.5,4" fill="rgba(0,0,100,1)" />
<path d="M84.5,-1L89.5,-1L89.5,-6L84.5,-6L84.5,-1" fill="rgba(0,0,100,1)" />
<path d="M84.5,-6L89.5,-6L89.5,-11L84.5,-11L84.5,-6" fill="rgba(0,0,100,1)" />
<path d="M89.5,14L89.5,14" />
<path d="M89.5,14L94.5,14L94.5,9L89.5,9L89.5,14" fill="rgba(0,0,0,0)" />
<path d="M89.5,9L94.5,9L94.5,4L89.5,4L89.5,9" fill="rgba(0,0,0,0)" />
<path d="M89.5,4L94.5,4L94.5,-1L89.5,-1L89.5,4" fill="rgba(0,0,100,1)" />
<path d="M89.5,-1L94.5,-1L94.5,-6L89.5,-6L89.5,-1" fill="rgba(0,0,0,0)" />
<path d="M89.5,-6L94.5,-6L94.5,-11L89.5,-11L89.5,-6" fill="rgba(0,0,100,1)" />
<path d="M94.5,14L94.5,14" />
<path d="M94.5,14L99.5,14L99.5,9L94.5,9L94.5,14" fill="rgba(0,0,0,0)" />
<path d="M94.5,9L99.5,9L99.5,4L94.5,4L94.5,9" fill="rgba(0,0,0,0)" />
<path d="M94.5,4L99.5,4L99.5,-1L94.5,-1L94.5,4" fill="rgba(0,0,100,1)" />
<path d="M94.5,-1L99.5,-1L99.5,-6L94.5,-6L94.5,-1" fill="rgba(0,0,100,1)" />
<path d="M94.5,-6L99.5,-6L99.5,-11L94.5,-11L94.5,-6" fill="rgba(0,0,100,1)" />
<path d="M104.5,14L104.5,14" />
<path d="M104.5,14L109.5,14L109.5,9L104.5,9L104.5,14" fill="rgba(0,0,0,0)" />
<path d="M104.5,9L109.5,9L109.5,4L104.5,4L104.5,9" fill="rgba(0,0,0,0)" />
<path d="M104.5,4L109.5,4L109.5,-1L104.5,-1L104.5,4" fill="rgba(0,0,0,0)" />
<path d="M104.5,-1L109.5,-1L109.5,-6L104.5,-6L104.5,-1" fill="rgba(0,0,0,0)" />
<path d="M104.5,-6L109.5,-6L109.5,-11L104.5,-11L104.5,-6" fill="rgba(0,0,100,1)" />
<path d="M109.5,14L109.5,14" />
<path d="M109.5,14L114.5,14L114.5,9L109.5,9L109.5,14" fill="rgba(0,0,100,1)" />
<path d="M109.5,9L114.5,9L114.5,4L109.5,4L109.5,9" fill="rgba(0,0,100,1)" />
<path d="M109.5,4L114.5,4L114.5,-1L109.5,-1L109.5,4" fill="rgba(0,0,100,1)" />
<path d="M109.5,-1L114.5,-1L114.5,-6L109.5,-6L109.5,-1" fill="rgba(0,0,100,1)" />
<path d="M109.5,-6L114.5,-6L114.5,-11L109.5,-11L109.5,-6" fill="rgba(0,0,100,1)" />
<path d="M114.5,14L114.5,14" />
<path d="M114.5,14L119.5,14L119.5,9L114.5,9L114.5,14" fill="rgba(0,0,0,0)" />
<path d="M114.5,9L119.5,9L119.5,4L114.5,4L114.5,9" fill="rgba(0,0,0,0)" />
<path d="M114.5,4L119.5,4L119.5,-1L114.5,-1L114.5,4" fill="rgba(0,0,0,0)" />
<path d="M114.5,-1L119.5,-1L119.5,-6L114.5,-6L114.5,-1" fill="rgba(0,0,0,0)" />
<path d="M114.5,-6L119.5,-6L119.5,-11L114.5,-11L114.5,-6" fill="rgba(0,0,100,1)" />
<path d="M124.5,14L124.5,14" />
<path d="M124.5,14L129.5,14L129.5,9L124.5,9L124.5,14" fill="rgba(0,0,100,1)" />
<path d="M124.5,9L129.5,9L129.5,4L124.5,4L124.5,9" fill="rgba(0,0,100,1)" />
<path d="M124.5,4L129.5,4L129.5,-1L124.5,-1L124.5,4" fill="rgba(0,0,100,1)" />
<path d="M124.5,-1L129.5,-1L129.5,-6L124.5,-6L124.5,-1" fill="rgba(0,0,100,1)" />
<path d="M124.5,-6L129.5,-6L129.5,-11L124.5,-11L124.5,-6" fill="rgba(0,0,0,0)" />
<path d="M129.5,14L129.5,14" />
<path d="M129.5,14L134.5,14L134.5,9L129.5,9L129.5,14" fill="rgba(0,0,0,0)" />
<path d="M129.5,9L134.5,9L134.5,4L129.5,4L129.5,9" fill="rgba(0,0,100,1)" />
<path d="M129.5,4L134.5,4L134.5,-1L129.5,-1L129.5,4" fill="rgba(0,0,0,0)" />
<path d="M129.5,-1L134.5,-1L134.5,-6L129.5,-6L129.5,-1" fill="rgba(0,0,0,0)" />
<path d="M129.5,-6L134.5,-6L134.5,-11L129.5,-11L129.5,-6" fill="rgba(0,0,100,1)" />
<path d="M134.5,14L134.5,14" />
<path d="M134.5,14L139.5,14L139.5,9L134.5,9L134.5,14" fill="rgba(0,0,0,0)" />
<path d="M134.5,9L139.5,9L139.5,4L134.5,4L134.5,9" fill="rgba(0,0,100,1)" />
<path d="M134.5,4L139.5,4L139.5,-1L134.5,-1L134.5,4" fill="rgba(0,0,0,0)" />
<path d="M134.5,-1L139.5,-1L139.5,-6L134.5,-6L134.5,-1" fill="rgba(0,0,0,0)" />
<path d="M134.5,-6L139.5,-6L139.5,-11L134.5,-11L134.5,-6" fill="rgba(0,0,100,1)" />
<path d="M139.5,14L139.5,14" />
<path d="M139.5,14L144.5,14L144.5,9L139.5,9L139.5,14" fill="rgba(0,0,100,1)" />
<path d="M139.5,9L144.5,9L144.5,4L139.5,4L139.5,9" fill="rgba(0,0,100,1)" />
<path d="M139.5,4L144.5,4L144.5,-1L139.5,-1L139.5,4" fill="rgba(0,0,100,1)" />
<path d="M139.5,-1L144.5,-1L144.5,-6L139.5,-6L139.5,-1" fill="rgba(0,0,100,1)" />
<path d="M139.5,-6L144.5,-6L144.5,-11L139.5,-11L139.5,-6" fill="rgba(0,0,0,0)" />
<path d="M149.5,14L149.5,14" />
<path d="M149.5,14L154.5,14L154.5,9L149.5,9L149.5,14" fill="rgba(0,0,100,1)" />
<path d="M149.5,9L154.5,9L154.5,4L149.5,4L149.5,9" fill="rgba(0,0,100,1)" />
<path d="M149.5,4L154.5,4L154.5,-1L149.5,-1L149.5,4" fill="rgba(0,0,100,1)" />
<path d="M149.5,-1L154.5,-1L154.5,-6L149.5,-6L149.5,-1" fill="rgba(0,0,100,1)" />
<path d="M149.5,-6L154.5,-6L154.5,-11L149.5,-11L149.5,-6" fill="rgba(0,0,100,1)" />
<path d="M154.5,14L154.5,14" />
<path d="M154.5,14L159.5,14L159.5,9L154.5,9L154.5,14" fill="rgba(0,0,0,0)" />
<path d="M154.5,9L159.5,9L159.5,4L154.5,4L154.5,9" fill="rgba(0,0,0,0)" />
<path d="M154.5,4L159.5,4L159.5,-1L154.5,-1L154.5,4" fill="rgba(0,0,0,0)" />
<path d="M154.5,-1L159.5,-1L159.5,-6L154.5,-6L154.5,-1" fill="rgba(0,0,100,1)" />
<path d="M154.5,-6L159.5,-6L159.5,-11L154.5,-11L154.5,-6" fill="rgba(0,0,0,0)" />
<path d="M159.5,14L159.5,14" />
<path d="M159.5,14L164.5,14L164.5,9L159.5,9L159.5,14" fill="rgba(0,0,0,0)" />
<path d="M159.5,9L164.5,9L164.5,4L159.5,4L159.5,9" fill="rgba(0,0,0,0)" />
<path d="M159.5,4L164.5,4L164.5,-1L159.5,-1L159.5,4" fill="rgba(0,0,100,1)" />
<path d="M159.5,-1L164.5,-1L164.5,-6L159.5,-6L159.5,-1" fill="rgba(0,0,0,0)" />
<path d="M159.5,-6L164.5,-6L164.5,-11L159.5,-11L159.5,-6" fill="rgba(0,0,0,0)" />
<path d="M164.5,14L164.5,14" />
<path d="M164.5,14L169.5,14L169.5,9L164.5,9L164.5,14" fill="rgba(0,0,0,0)" />
<path d="M164.5,9L169.5,9L169.5,4L164.5,4L164.5,9" fill="rgba(0,0,100,1)" />
<path d="M164.5,4L169.5,4L169.5,-1L164.5,-1L164.5,4" fill="rgba(0,0,0,0)" />
<path d="M164.5,-1L169.5,-1L169.5,-6L164.5,-6L164.5,-1" fill="rgba(0,0,0,0)" />
<path d="M164.5,-6L169.5,-6L169.5,-11L164.5,-11L164.5,-6" fill="rgba(0,0,0,0)" />
<path d="M169.5,14L169.5,14" />
<path d="M169.5,14L174.5,14L174.5,9L169.5,9L169.5,14" fill="rgba(0,0,100,1)" />
<path d="M169.5,9L174.5,9L174.5,4L169.5,4L169.5,9" fill="rgba(0,0,100,1)" />
<path d="M169.5,4L174.5,4L174.5,-1L169.5,-1L169.5,4" fill="rgba(0,0,100,1)" />
<path d="M169.5,-1L174.5,-1L174.5,-6L169.5,-6L169.5,-1" fill="rgba(0,0,100,1)" />
<path d="M169.5,-6L174.5,-6L174.5,-11L169.5,-11L169.5,-6" fill="rgba(0,0,100,1)" />
<path d="M179.5,14L179.5,14" />
<path d="M179.5,14L184.5,14L184.5,9L179.5,9L179.5,14" fill="rgba(0,0,0,0)" />
<path d="M179.5,9L184.5,9L184.5,4L179.5,4L179.5,9" fill="rgba(0,0,100,1)" />
<path d="M179.5,4L184.5,4L184.5,-1L179.5,-1L179.5,4" fill="rgba(0,0,100,1)" />
<path d="M179.5,-1L184.5,-1L184.5,-6L179.5,-6L179.5,-1" fill="rgba(0,0,100,1)" />
<path d="M179.5,-6L184.5,-6L184.5,-11L179.5,-11L179.5,-6" fill="rgba(0,0,0,0)" />
<path d="M184.5,14L184.5,14" />
<path d="M184.5,14L189.5,14L189.5,9L184.5,9L184.5,14" fill="rgba(0,0,100,1)" />
<path d="M184.5,9L189.5,9L189.5,4L184.5,4L184.5,9" fill="rgba(0,0,0,0)" />
<path d="M184.5,4L189.5,4L189.5,-1L184.5,-1L184.5,4" fill="rgba(0,0,0,0)" />
<path d="M184.5,-1L189.5,-1L189.5,-6L184.5,-6L184.5,-1" fill="rgba(0,0,0,0)" />
<path d="M184.5,-6L189.5,-6L189.5,-11L184.5,-11L184.5,-6" fill="rgba(0,0,100,1)" />
<path d="M189.5,14L189.5,14" />
<path d="M189.5,14L194.5,14L194.5,9L189.5,9L189.5,14" fill="rgba(0,0,100,1)" />
<path d="M189.5,9L194.5,9L194.5,4L189.5,4L189.5,9" fill="rgba(0,0,0,0)" />
<path d="M189.5,4L194.5,4L194.5,-1L189.5,-1L189.5,4" fill="rgba(0,0,0,0)" />
<path d="M189.5,-1L194.5,-1L194.5,-6L189.5,-6L189.5,-1" fill="rgba(0,0,0,0)" />
<path d="M189.5,-6L194.5,-6L194.5,-11L189.5,-11L189.5,-6" fill="rgba(0,0,100,1)" />
<path d="M194.5,14L194.5,14" />
<path d="M194.5,14L199.5,14L199.5,9L194.5,9L194.5,14" fill="rgba(0,0,100,1)" />
<path d="M194.5,9L199.5,9L199.5,4L194.5,4L194.5,9" fill="rgba(0,0,0,0)" />
<path d="M194.5,4L199.5,4L199.5,-1L194.5,-1L194.5,4" fill="rgba(0,0,0,0)" />
<path d="M194.5,-1L199.5,-1L199.5,-6L194.5,-6L194.5,-1" fill="rgba(0,0,0,0)" />
<path d="M194.5,-6L199.5,-6L199.5,-11L194.5,-11L194.5,-6" fill="rgba(0,0,100,1)" />
<path d="M204.5,14L204.5,14" />
<path d="M204.5,14L209.5,14L209.5,9L204.5,9L204.5,14" fill="rgba(0,0,100,1)" />
<path d="M204.5,9L209.5,9L209.5,4L204.5,4L204.5,9" fill="rgba(0,0,100,1)" />
<path d="M204.5,4L209.5,4L209.5,-1L204.5,-1L204.5,4" fill="rgba(0,0,100,1)" />
<path d="M204.5,-1L209.5,-1L209.5,-6L204.5,-6L204.5,-1" fill="rgba(0,0,100,1)" />
<path d="M204.5,-6L209.5,-6L209.5,-11L204.5,-11L204.5,-6" fill="rgba(0,0,100,1)" />
<path d="M209.5,14L209.5,14" />
<path d="M209.5,14L214.5,14L214.5,9L209.5,9L209.5,14" fill="rgba(0,0,100,1)" />
<path d="M209.5,9L214.5,9L214.5,4L209.5,4L209.5,9" fill="rgba(0,0,0,0)" />
<path d="M209.5,4L214.5,4L214.5,-1L209.5,-1L209.5,4" fill="rgba(0,0,100,1)" />
<path d="M209.5,-1L214.5,-1L214.5,-6L209.5,-6L209.5,-1" fill="rgba(0,0,0,0)" />
<path d="M209.5,-6L214.5,-6L214.5,-11L209.5,-11L209.5,-6" fill="rgba(0,0,100,1)" />
<path d="M214.5,14L214.5,14" />
<path d="M214.5,14L219.5,14L219.5,9L214.5,9L214.5,14" fill="rgba(0,0,100,1)" />
<path d="M214.5,9L219.5,9L219.5,4L214.5,4L214.5,9" fill="rgba(0,0,0,0)" />
<path d="M214.5,4L219.5,4L219.5,-1L214.5,-1L214.5,4" fill="rgba(0,0,100,1)" />
<path d="M214.5,-1L219.5,-1L219.5,-6L214.5,-6L214.5,-1" fill="rgba(0,0,0,0)" />
<path d="M214.5,-6L219.5,-6L219.5,-11L214.5,-11L214.5,-6" fill="rgba(0,0,100,1)" />
<path d="M219.5,14L219.5,14" />
<path d="M219.5,14L224.5,14L224.5,9L219.5,9L219.5,14" fill="rgba(0,0,100,1)" />
<path d="M219.5,9L224.5,9L224.5,4L219.5,4L219.5,9" fill="rgba(0,0,0,0)" />
<path d="M219.5,4L224.5,4L224.5,-1L219.5,-1L219.5,4" fill="rgba(0,0,100,1)" />
<path d="M219.5,-1L224.5,-1L224.5,-6L219.5,-6L219.5,-1" fill="rgba(0,0,0,0)" />
<path d="M219.5,-6L224.5,-6L224.5,-11L219.5,-11L219.5,-6" fill="rgba(0,0,100,1)" />
<path d="M222,-11L219.5,-11" stroke="rgba(0,255,0,1)" stroke-width="1" />
<path d="M217,-11L214.5,-11" stroke="rgba(0,255,0,1)" stroke-width="1" />
<path d="M212,-11L209.5,-11" stroke="rgba(0,255,0,1)" stroke-width="1" />
<path d="M207,-11L204.5,-11" stroke-width="1" stroke="rgba(0,255,0,1)" />
<path d="M202,-11L199.5,-11" stroke="rgba(0,255,0,1)" stroke-width="1" />
<path d="M197,-11L194.5,-11" stroke="rgba(0,255,0,1)" stroke-width="1" />
<path d="M192,-11L189.5,-11" stroke-width="1" stroke="rgba(0,255,0,1)" />
<path d="M187,-11L184.5,-11" stroke-width="1" stroke="rgba(0,255,0,1)" />
<path d="M182,-11L179.5,-11" stroke-width="1" stroke="rgba(0,255,0,1)" />
<path d="M177,-11L174.5,-11" stroke="rgba(0,255,0,1)" stroke-width="1" />
<path d="M172,-11L169.5,-11" stroke="rgba(0,255,0,1)" stroke-width="1" />
<path d="M167,-11L164.5,-11" stroke="rgba(0,255,0,1)" stroke-width="1" />
<path d="M162,-11L159.5,-11" stroke-width="1" stroke="rgba(0,255,0,1)" />
<path d="M157,-11L154.5,-11" stroke-width="1" stroke="rgba(0,255,0,1)" />
<path d="M152,-11L149.5,-11" stroke="rgba(0,255,0,1)" stroke-width="1" />
<path d="M147,-11L144.5,-11" stroke="rgba(0,255,0,1)" stroke-width="1" />
<path d="M142,-11L139.5,-11" stroke-width="1" stroke="rgba(0,255,0,1)" />
<path d="M137,-11L134.5,-11" stroke-width="1" stroke="rgba(0,255,0,1)" />
<path d="M132,-11L129.5,-11" stroke-width="1" stroke="rgba(0,255,0,1)" />
<path d="M127,-11L124.5,-11" stroke-width="1" stroke="rgba(0,255,0,1)" />
<path d="M122,-11L119.5,-11" stroke-width="1" stroke="rgba(0,255,0,1)" />
<path d="M117,-11L114.5,-11" stroke-width="1" stroke="rgba(0,255,0,1)" />
<path d="M112,-11L109.5,-11" stroke="rgba(0,255,0,1)" stroke-width="1" />
<path d="M107,-11L104.5,-11" stroke-width="1" stroke="rgba(0,255,0,1)" />
<path d="M102,-11L99.50000000000001,-11" stroke="rgba(0,255,0,1)" stroke-width="1" />
<path d="M96.99999999999999,-11L94.5,-11" stroke="rgba(0,255,0,1)" stroke-width="1" />
<path d="M92,-11L89.5,-11" stroke-width="1" stroke="rgba(0,255,0,1)" />
<path d="M87,-11L84.5,-11" stroke-width="1" stroke="rgba(0,255,0,1)" />
<path d="M82,-11L79.5,-11" stroke-width="1" stroke="rgba(0,255,0,1)" />
<path d="M77,-11L74.5,-11" stroke="rgba(0,255,0,1)" stroke-width="1" />
<path d="M72,-11L69.5,-11" stroke-width="1" stroke="rgba(0,255,0,1)" />
<path d="M67,-11L64.5,-11" stroke="rgba(0,255,0,1)" stroke-width="1" />
<path d="M62,-11L59.5,-11" stroke-width="1" stroke="rgba(0,255,0,1)" />
<path d="M57,-11L54.5,-11" stroke-width="1" stroke="rgba(0,255,0,1)" />
<path d="M52,-11L49.5,-11" stroke="rgba(0,255,0,1)" stroke-width="1" />
<path d="M47,-11L44.5,-11" stroke="rgba(0,255,0,1)" stroke-width="1" />
<path d="M42,-11L39.5,-11" stroke="rgba(0,255,0,1)" stroke-width="1" />
<path d="M37,-11L34.5,-11" stroke="rgba(0,255,0,1)" stroke-width="1" />
<path d="M32,-11L29.5,-11" stroke="rgba(0,255,0,1)" stroke-width="1" />
<path d="M27,-11L24.5,-11" stroke-width="1" stroke="rgba(0,255,0,1)" />
<path d="M22,-11L19.5,-11" stroke="rgba(0,255,0,1)" stroke-width="1" />
<path d="M17,-11L14.5,-11" stroke-width="1" stroke="rgba(0,255,0,1)" />
<path d="M12,-11L9.5,-11" stroke="rgba(0,255,0,1)" stroke-width="1" />
<path d="M7,-11L4.5,-11" stroke="rgba(0,255,0,1)" stroke-width="1" />
<path d="M2,-11L-0.5,-11" stroke-width="1" stroke="rgba(0,255,0,1)" />
<path d="M-3,-11L-5.5,-11" stroke-width="1" stroke="rgba(0,255,0,1)" />
<path d="M-8,-11L-10.5,-11" stroke-width="1" stroke="rgba(0,255,0,1)" />
<path d="M-13,-11L-15.5,-11" stroke-width="1" stroke="rgba(0,255,0,1)" />
<path d="M222,44L219.5,44" stroke-width="1" stroke="rgba(0,255,0,1)" />
<path d="M217,44L214.5,44" stroke-width="1" stroke="rgba(0,255,0,1)" />
<path d="M212,44L209.5,44" stroke="rgba(0,255,0,1)" stroke-width="1" />
<path d="M207,44L204.5,44" stroke-width="1" stroke="rgba(0,255,0,1)" />
<path d="M202,44L199.5,44" stroke-width="1" stroke="rgba(0,255,0,1)" />
<path d="M197,44L194.5,44" stroke-width="1" stroke="rgba(0,255,0,1)" />
<path d="M192,44L189.5,44" stroke="rgba(0,255,0,1)" stroke-width="1" />
<path d="M187,44L184.5,44" stroke-width="1" stroke="rgba(0,255,0,1)" />
<path d="M182,44L179.5,44" stroke-width="1" stroke="rgba(0,255,0,1)" />
<path d="M177,44L174.5,44" stroke-width="1" stroke="rgba(0,255,0,1)" />
<path d="M172,44L169.5,44" stroke="rgba(0,255,0,1)" stroke-width="1" />
<path d="M167,44L164.5,44" stroke-width="1" stroke="rgba(0,255,0,1)" />
<path d="M162,44L159.5,44" stroke-width="1" stroke="rgba(0,255,0,1)" />
<path d="M157,44L154.5,44" stroke-width="1" stroke="rgba(0,255,0,1)" />
<path d="M152,44L149.5,44" stroke-width="1" stroke="rgba(0,255,0,1)" />
<path d="M147,44L144.5,44" stroke="rgba(0,255,0,1)" stroke-width="1" />
<path d="M142,44L139.5,44" stroke="rgba(0,255,0,1)" stroke-width="1" />
<path d="M137,44L134.5,44" stroke="rgba(0,255,0,1)" stroke-width="1" />
<path d="M132,44L129.5,44" stroke-width="1" stroke="rgba(0,255,0,1)" />
<path d="M127,44L124.5,44" stroke="rgba(0,255,0,1)" stroke-width="1" />
<path d="M122,44L119.5,44" stroke="rgba(0,255,0,1)" stroke-width="1" />
<path d="M117,44L114.5,44" stroke="rgba(0,255,0,1)" stroke-width="1" />
<path d="M112,44L109.5,44" stroke-width="1" stroke="rgba(0,255,0,1)" />
<path d="M107,44L104.5,44" stroke-width="1" stroke="rgba(0,255,0,1)" />
<path d="M102,44L99.50000000000001,44" stroke-width="1" stroke="rgba(0,255,0,1)" />
<path d="M96.99999999999999,44L94.5,44" stroke="rgba(0,255,0,1)" stroke-width="1" />
<path d="M92,44L89.5,44" stroke="rgba(0,255,0,1)" stroke-width="1" />
<path d="M87,44L84.5,44" stroke-width="1" stroke="rgba(0,255,0,1)" />
<path d="M82,44L79.5,44" stroke="rgba(0,255,0,1)" stroke-width="1" />
<path d="M77,44L74.5,44" stroke="rgba(0,255,0,1)" stroke-width="1" />
<path d="M72,44L69.5,44" stroke-width="1" stroke="rgba(0,255,0,1)" />
<path d="M67,44L64.5,44" stroke-width="1" stroke="rgba(0,255,0,1)" />
<path d="M62,44L59.5,44" stroke="rgba(0,255,0,1)" stroke-width="1" />
<path d="M57,44L54.5,44" stroke-width="1" stroke="rgba(0,255,0,1)" />
<path d="M52,44L49.5,44" stroke-width="1" stroke="rgba(0,255,0,1)" />
<path d="M47,44L44.5,44" stroke="rgba(0,255,0,1)" stroke-width="1" />
<path d="M42,44L39.5,44" stroke="rgba(0,255,0,1)" stroke-width="1" />
<path d="M37,44L34.5,44" stroke="rgba(0,255,0,1)" stroke-width="1" />
<path d="M32,44L29.5,44" stroke="rgba(0,255,0,1)" stroke-width="1" />
<path d="M27,44L24.5,44" stroke="rgba(0,255,0,1)" stroke-width="1" />
<path d="M22,44L19.5,44" stroke-width="1" stroke="rgba(0,255,0,1)" />
<path d="M17,44L14.5,44" stroke="rgba(0,255,0,1)" stroke-width="1" />
<path d="M12,44L9.5,44" stroke-width="1" stroke="rgba(0,255,0,1)" />
<path d="M7,44L4.5,44" stroke="rgba(0,255,0,1)" stroke-width="1" />
<path d="M2,44L-0.5,44" stroke="rgba(0,255,0,1)" stroke-width="1" />
<path d="M-3,44L-5.5,44" stroke-width="1" stroke="rgba(0,255,0,1)" />
<path d="M-8,44L-10.5,44" stroke="rgba(0,255,0,1)" stroke-width="1" />
<path d="M-13,44L-15.5,44" stroke="rgba(0,255,0,1)" stroke-width="1" />
<path d="M-15.5,41.5L-15.5,39" stroke="rgba(0,255,0,1)" stroke-width="1" />
<path d="M-15.5,36.5L-15.5,34" stroke-width="1" stroke="rgba(0,255,0,1)" />
<path d="M-15.5,31.5L-15.5,29" stroke="rgba(0,255,0,1)" stroke-width="1" />
<path d="M-15.5,26.5L-15.5,24" stroke-width="1" stroke="rgba(0,255,0,1)" />
<path d="M-15.5,21.5L-15.5,19" stroke="rgba(0,255,0,1)" stroke-width="1" />
<path d="M-15.5,16.5L-15.5,14" stroke-width="1" stroke="rgba(0,255,0,1)" />
<path d="M-15.5,11.500000000000004L-15.5,9" stroke="rgba(0,255,0,1)" stroke-width="1" />
<path d="M-15.5,6.5L-15.5,4" stroke="rgba(0,255,0,1)" stroke-width="1" />
<path d="M-15.5,1.5L-15.5,-1" stroke-width="1" stroke="rgba(0,255,0,1)" />
<path d="M-15.5,-3.5L-15.5,-6" stroke="rgba(0,255,0,1)" stroke-width="1" />
<path d="M-15.5,-8.5L-15.5,-11" stroke="rgba(0,255,0,1)" stroke-width="1" />
<path d="M224.5,41.5L224.5,39" stroke-width="1" stroke="rgba(0,255,0,1)" />
<path d="M224.5,36.5L224.5,34" stroke="rgba(0,255,0,1)" stroke-width="1" />
<path d="M224.5,31.5L224.5,29" stroke="rgba(0,255,0,1)" stroke-width="1" />
<path d="M224.5,26.5L224.5,24" stroke="rgba(0,255,0,1)" stroke-width="1" />
<path d="M224.5,21.5L224.5,19" stroke-width="1" stroke="rgba(0,255,0,1)" />
<path d="M224.5,16.5L224.5,14" stroke="rgba(0,255,0,1)" stroke-width="1" />
<path d="M224.5,11.500000000000004L224.5,9" stroke-width="1" stroke="rgba(0,255,0,1)" />
<path d="M224.5,6.5L224.5,4" stroke-width="1" stroke="rgba(0,255,0,1)" />
<path d="M224.5,1.5L224.5,-1" stroke="rgba(0,255,0,1)" stroke-width="1" />
<path d="M224.5,-3.5L224.5,-6" stroke="rgba(0,255,0,1)" stroke-width="1" />
<path d="M224.5,-8.5L224.5,-11" stroke-width="1" stroke="rgba(0,255,0,1)" />
<path d="M-922.5,1055L-922.5,1055" />
<path d="M-922.5,1055L-917.5,1055L-917.5,1050L-922.5,1050L-922.5,1055" fill="rgba(0,0,0,0)" />
<path d="M-922.5,1050L-917.5,1050L-917.5,1045L-922.5,1045L-922.5,1050" fill="rgba(0,0,0,0)" />
<path d="M-922.5,1045L-917.5,1045L-917.5,1040L-922.5,1040L-922.5,1045" fill="rgba(0,0,0,0)" />
<path d="M-922.5,1040L-917.5,1040L-917.5,1035L-922.5,1035L-922.5,1040" fill="rgba(0,0,0,0)" />
<path d="M-922.5,1035L-917.5,1035L-917.5,1030L-922.5,1030L-922.5,1035" fill="rgba(0,0,100,1)" />
<path d="M-917.5,1055L-917.5,1055" />
<path d="M-917.5,1055L-912.5,1055L-912.5,1050L-917.5,1050L-917.5,1055" fill="rgba(0,0,100,1)" />
<path d="M-917.5,1050L-912.5,1050L-912.5,1045L-917.5,1045L-917.5,1050" fill="rgba(0,0,100,1)" />
<path d="M-917.5,1045L-912.5,1045L-912.5,1040L-917.5,1040L-917.5,1045" fill="rgba(0,0,100,1)" />
<path d="M-917.5,1040L-912.5,1040L-912.5,1035L-917.5,1035L-917.5,1040" fill="rgba(0,0,100,1)" />
<path d="M-917.5,1035L-912.5,1035L-912.5,1030L-917.5,1030L-917.5,1035" fill="rgba(0,0,100,1)" />
<path d="M-912.5,1055L-912.5,1055" />
<path d="M-912.5,1055L-907.5,1055L-907.5,1050L-912.5,1050L-912.5,1055" fill="rgba(0,0,0,0)" />
<path d="M-912.5,1050L-907.5,1050L-907.5,1045L-912.5,1045L-912.5,1050" fill="rgba(0,0,0,0)" />
<path d="M-912.5,1045L-907.5,1045L-907.5,1040L-912.5,1040L-912.5,1045" fill="rgba(0,0,0,0)" />
<path d="M-912.5,1040L-907.5,1040L-907.5,1035L-912.5,1035L-912.5,1040" fill="rgba(0,0,0,0)" />
<path d="M-912.5,1035L-907.5,1035L-907.5,1030L-912.5,1030L-912.5,1035" fill="rgba(0,0,100,1)" />
<path d="M-902.5,1055L-902.5,1055" />
<path d="M-902.5,1055L-897.5,1055L-897.5,1050L-902.5,1050L-902.5,1055" fill="rgba(0,0,100,1)" />
<path d="M-902.5,1050L-897.5,1050L-897.5,1045L-902.5,1045L-902.5,1050" fill="rgba(0,0,100,1)" />
<path d="M-902.5,1045L-897.5,1045L-897.5,1040L-902.5,1040L-902.5,1045" fill="rgba(0,0,100,1)" />
<path d="M-902.5,1040L-897.5,1040L-897.5,1035L-902.5,1035L-902.5,1040" fill="rgba(0,0,100,1)" />
<path d="M-902.5,1035L-897.5,1035L-897.5,1030L-902.5,1030L-902.5,1035" fill="rgba(0,0,100,1)" />
<path d="M-897.5,1055L-897.5,1055" />
<path d="M-897.5,1055L-892.5,1055L-892.5,1050L-897.5,1050L-897.5,1055" fill="rgba(0,0,100,1)" />
<path d="M-897.5,1050L-892.5,1050L-892.5,1045L-897.5,1045L-897.5,1050" fill="rgba(0,0,0,0)" />
<path d="M-897.5,1045L-892.5,1045L-892.5,1040L-897.5,1040L-897.5,1045" fill="rgba(0,0,100,1)" />
<path d="M-897.5,1040L-892.5,1040L-892.5,1035L-897.5,1035L-897.5,1040" fill="rgba(0,0,0,0)" />
<path d="M-897.5,1035L-892.5,1035L-892.5,1030L-897.5,1030L-897.5,1035" fill="rgba(0,0,100,1)" />
<path d="M-892.5,1055L-892.5,1055" />
<path d="M-892.5,1055L-887.5,1055L-887.5,1050L-892.5,1050L-892.5,1055" fill="rgba(0,0,100,1)" />
<path d="M-892.5,1050L-887.5,1050L-887.5,1045L-892.5,1045L-892.5,1050" fill="rgba(0,0,0,0)" />
<path d="M-892.5,1045L-887.5,1045L-887.5,1040L-892.5,1040L-892.5,1045" fill="rgba(0,0,100,1)" />
<path d="M-892.5,1040L-887.5,1040L-887.5,1035L-892.5,1035L-892.5,1040" fill="rgba(0,0,0,0)" />
<path d="M-892.5,1035L-887.5,1035L-887.5,1030L-892.5,1030L-892.5,1035" fill="rgba(0,0,100,1)" />
<path d="M-887.5,1055L-887.5,1055" />
<path d="M-887.5,1055L-882.5,1055L-882.5,1050L-887.5,1050L-887.5,1055" fill="rgba(0,0,100,1)" />
<path d="M-887.5,1050L-882.5,1050L-882.5,1045L-887.5,1045L-887.5,1050" fill="rgba(0,0,0,0)" />
<path d="M-887.5,1045L-882.5,1045L-882.5,1040L-887.5,1040L-887.5,1045" fill="rgba(0,0,100,1)" />
<path d="M-887.5,1040L-882.5,1040L-882.5,1035L-887.5,1035L-887.5,1040" fill="rgba(0,0,0,0)" />
<path d="M-887.5,1035L-882.5,1035L-882.5,1030L-887.5,1030L-887.5,1035" fill="rgba(0,0,100,1)" />
<path d="M-877.5,1055L-877.5,1055" />
<path d="M-877.5,1055L-872.5,1055L-872.5,1050L-877.5,1050L-877.5,1055" fill="rgba(0,0,100,1)" />
<path d="M-877.5,1050L-872.5,1050L-872.5,1045L-877.5,1045L-877.5,1050" fill="rgba(0,0,0,0)" />
<path d="M-877.5,1045L-872.5,1045L-872.5,1040L-877.5,1040L-877.5,1045" fill="rgba(0,0,100,1)" />
<path d="M-877.5,1040L-872.5,1040L-872.5,1035L-877.5,1035L-877.5,1040" fill="rgba(0,0,100,1)" />
<path d="M-877.5,1035L-872.5,1035L-872.5,1030L-877.5,1030L-877.5,1035" fill="rgba(0,0,0,0)" />
<path d="M-872.5,1055L-872.5,1055" />
<path d="M-872.5,1055L-867.5,1055L-867.5,1050L-872.5,1050L-872.5,1055" fill="rgba(0,0,100,1)" />
<path d="M-872.5,1050L-867.5,1050L-867.5,1045L-872.5,1045L-872.5,1050" fill="rgba(0,0,0,0)" />
<path d="M-872.5,1045L-867.5,1045L-867.5,1040L-872.5,1040L-872.5,1045" fill="rgba(0,0,100,1)" />
<path d="M-872.5,1040L-867.5,1040L-867.5,1035L-872.5,1035L-872.5,1040" fill="rgba(0,0,0,0)" />
<path d="M-872.5,1035L-867.5,1035L-867.5,1030L-872.5,1030L-872.5,1035" fill="rgba(0,0,100,1)" />
<path d="M-867.5,1055L-867.5,1055" />
<path d="M-867.5,1055L-862.5,1055L-862.5,1050L-867.5,1050L-867.5,1055" fill="rgba(0,0,100,1)" />
<path d="M-867.5,1050L-862.5,1050L-862.5,1045L-867.5,1045L-867.5,1050" fill="rgba(0,0,0,0)" />
<path d="M-867.5,1045L-862.5,1045L-862.5,1040L-867.5,1040L-867.5,1045" fill="rgba(0,0,100,1)" />
<path d="M-867.5,1040L-862.5,1040L-862.5,1035L-867.5,1035L-867.5,1040" fill="rgba(0,0,0,0)" />
<path d="M-867.5,1035L-862.5,1035L-862.5,1030L-867.5,1030L-867.5,1035" fill="rgba(0,0,100,1)" />
<path d="M-862.5,1055L-862.5,1055" />
<path d="M-862.5,1055L-857.5,1055L-857.5,1050L-862.5,1050L-862.5,1055" fill="rgba(0,0,100,1)" />
<path d="M-862.5,1050L-857.5,1050L-857.5,1045L-862.5,1045L-862.5,1050" fill="rgba(0,0,100,1)" />
<path d="M-862.5,1045L-857.5,1045L-857.5,1040L-862.5,1040L-862.5,1045" fill="rgba(0,0,100,1)" />
<path d="M-862.5,1040L-857.5,1040L-857.5,1035L-862.5,1035L-862.5,1040" fill="rgba(0,0,0,0)" />
<path d="M-862.5,1035L-857.5,1035L-857.5,1030L-862.5,1030L-862.5,1035" fill="rgba(0,0,100,1)" />
<path d="M-852.5,1055L-852.5,1055" />
<path d="M-852.5,1055L-847.5,1055L-847.5,1050L-852.5,1050L-852.5,1055" fill="rgba(0,0,0,0)" />
<path d="M-852.5,1050L-847.5,1050L-847.5,1045L-852.5,1045L-852.5,1050" fill="rgba(0,0,0,0)" />
<path d="M-852.5,1045L-847.5,1045L-847.5,1040L-852.5,1040L-852.5,1045" fill="rgba(0,0,0,0)" />
<path d="M-852.5,1040L-847.5,1040L-847.5,1035L-852.5,1035L-852.5,1040" fill="rgba(0,0,0,0)" />
<path d="M-852.5,1035L-847.5,1035L-847.5,1030L-852.5,1030L-852.5,1035" fill="rgba(0,0,100,1)" />
<path d="M-847.5,1055L-847.5,1055" />
<path d="M-847.5,1055L-842.5,1055L-842.5,1050L-847.5,1050L-847.5,1055" fill="rgba(0,0,100,1)" />
<path d="M-847.5,1050L-842.5,1050L-842.5,1045L-847.5,1045L-847.5,1050" fill="rgba(0,0,100,1)" />
<path d="M-847.5,1045L-842.5,1045L-842.5,1040L-847.5,1040L-847.5,1045" fill="rgba(0,0,100,1)" />
<path d="M-847.5,1040L-842.5,1040L-842.5,1035L-847.5,1035L-847.5,1040" fill="rgba(0,0,100,1)" />
<path d="M-847.5,1035L-842.5,1035L-842.5,1030L-847.5,1030L-847.5,1035" fill="rgba(0,0,100,1)" />
<path d="M-842.5,1055L-842.5,1055" />
<path d="M-842.5,1055L-837.5,1055L-837.5,1050L-842.5,1050L-842.5,1055" fill="rgba(0,0,0,0)" />
<path d="M-842.5,1050L-837.5,1050L-837.5,1045L-842.5,1045L-842.5,1050" fill="rgba(0,0,0,0)" />
<path d="M-842.5,1045L-837.5,1045L-837.5,1040L-842.5,1040L-842.5,1045" fill="rgba(0,0,0,0)" />
<path d="M-842.5,1040L-837.5,1040L-837.5,1035L-842.5,1035L-842.5,1040" fill="rgba(0,0,0,0)" />
<path d="M-842.5,1035L-837.5,1035L-837.5,1030L-842.5,1030L-842.5,1035" fill="rgba(0,0,100,1)" />
<path d="M-1000,1025L-1000,1025" />
<path d="M-1000,1025L-995,1025L-995,1020L-1000,1020L-1000,1025" fill="rgba(0,0,100,1)" />
<path d="M-1000,1020L-995,1020L-995,1015L-1000,1015L-1000,1020" fill="rgba(0,0,100,1)" />
<path d="M-1000,1015L-995,1015L-995,1010L-1000,1010L-1000,1015" fill="rgba(0,0,100,1)" />
<path d="M-1000,1010L-995,1010L-995,1005L-1000,1005L-1000,1010" fill="rgba(0,0,100,1)" />
<path d="M-1000,1005L-995,1005L-995,1000L-1000,1000L-1000,1005" fill="rgba(0,0,0,0)" />
<path d="M-995,1025L-995,1025" />
<path d="M-995,1025L-990,1025L-990,1020L-995,1020L-995,1025" fill="rgba(0,0,0,0)" />
<path d="M-995,1020L-990,1020L-990,1015L-995,1015L-995,1020" fill="rgba(0,0,100,1)" />
<path d="M-995,1015L-990,1015L-990,1010L-995,1010L-995,1015" fill="rgba(0,0,0,0)" />
<path d="M-995,1010L-990,1010L-990,1005L-995,1005L-995,1010" fill="rgba(0,0,0,0)" />
<path d="M-995,1005L-990,1005L-990,1000L-995,1000L-995,1005" fill="rgba(0,0,100,1)" />
<path d="M-990,1025L-990,1025" />
<path d="M-990,1025L-985,1025L-985,1020L-990,1020L-990,1025" fill="rgba(0,0,0,0)" />
<path d="M-990,1020L-985,1020L-985,1015L-990,1015L-990,1020" fill="rgba(0,0,100,1)" />
<path d="M-990,1015L-985,1015L-985,1010L-990,1010L-990,1015" fill="rgba(0,0,0,0)" />
<path d="M-990,1010L-985,1010L-985,1005L-990,1005L-990,1010" fill="rgba(0,0,0,0)" />
<path d="M-990,1005L-985,1005L-985,1000L-990,1000L-990,1005" fill="rgba(0,0,100,1)" />
<path d="M-985,1025L-985,1025" />
<path d="M-985,1025L-980,1025L-980,1020L-985,1020L-985,1025" fill="rgba(0,0,100,1)" />
<path d="M-985,1020L-980,1020L-980,1015L-985,1015L-985,1020" fill="rgba(0,0,100,1)" />
<path d="M-985,1015L-980,1015L-980,1010L-985,1010L-985,1015" fill="rgba(0,0,100,1)" />
<path d="M-985,1010L-980,1010L-980,1005L-985,1005L-985,1010" fill="rgba(0,0,100,1)" />
<path d="M-985,1005L-980,1005L-980,1000L-985,1000L-985,1005" fill="rgba(0,0,0,0)" />
<path d="M-975,1025L-975,1025" />
<path d="M-975,1025L-970,1025L-970,1020L-975,1020L-975,1025" fill="rgba(0,0,0,0)" />
<path d="M-975,1020L-970,1020L-970,1015L-975,1015L-975,1020" fill="rgba(0,0,100,1)" />
<path d="M-975,1015L-970,1015L-970,1010L-975,1010L-975,1015" fill="rgba(0,0,100,1)" />
<path d="M-975,1010L-970,1010L-970,1005L-975,1005L-975,1010" fill="rgba(0,0,100,1)" />
<path d="M-975,1005L-970,1005L-970,1000L-975,1000L-975,1005" fill="rgba(0,0,0,0)" />
<path d="M-970,1025L-970,1025" />
<path d="M-970,1025L-965,1025L-965,1020L-970,1020L-970,1025" fill="rgba(0,0,100,1)" />
<path d="M-970,1020L-965,1020L-965,1015L-970,1015L-970,1020" fill="rgba(0,0,0,0)" />
<path d="M-970,1015L-965,1015L-965,1010L-970,1010L-970,1015" fill="rgba(0,0,0,0)" />
<path d="M-970,1010L-965,1010L-965,1005L-970,1005L-970,1010" fill="rgba(0,0,0,0)" />
<path d="M-970,1005L-965,1005L-965,1000L-970,1000L-970,1005" fill="rgba(0,0,100,1)" />
<path d="M-965,1025L-965,1025" />
<path d="M-965,1025L-960,1025L-960,1020L-965,1020L-965,1025" fill="rgba(0,0,100,1)" />
<path d="M-965,1020L-960,1020L-960,1015L-965,1015L-965,1020" fill="rgba(0,0,0,0)" />
<path d="M-965,1015L-960,1015L-960,1010L-965,1010L-965,1015" fill="rgba(0,0,0,0)" />
<path d="M-965,1010L-960,1010L-960,1005L-965,1005L-965,1010" fill="rgba(0,0,0,0)" />
<path d="M-965,1005L-960,1005L-960,1000L-965,1000L-965,1005" fill="rgba(0,0,100,1)" />
<path d="M-960,1025L-960,1025" />
<path d="M-960,1025L-955,1025L-955,1020L-960,1020L-960,1025" fill="rgba(0,0,100,1)" />
<path d="M-960,1020L-955,1020L-955,1015L-960,1015L-960,1020" fill="rgba(0,0,0,0)" />
<path d="M-960,1015L-955,1015L-955,1010L-960,1010L-960,1015" fill="rgba(0,0,0,0)" />
<path d="M-960,1010L-955,1010L-955,1005L-960,1005L-960,1010" fill="rgba(0,0,0,0)" />
<path d="M-960,1005L-955,1005L-955,1000L-960,1000L-960,1005" fill="rgba(0,0,100,1)" />
<path d="M-950,1025L-950,1025" />
<path d="M-950,1025L-945,1025L-945,1020L-950,1020L-950,1025" fill="rgba(0,0,0,0)" />
<path d="M-950,1020L-945,1020L-945,1015L-950,1015L-950,1020" fill="rgba(0,0,100,1)" />
<path d="M-950,1015L-945,1015L-945,1010L-950,1010L-950,1015" fill="rgba(0,0,100,1)" />
<path d="M-950,1010L-945,1010L-945,1005L-950,1005L-950,1010" fill="rgba(0,0,100,1)" />
<path d="M-950,1005L-945,1005L-945,1000L-950,1000L-950,1005" fill="rgba(0,0,0,0)" />
<path d="M-945,1025L-945,1025" />
<path d="M-945,1025L-940,1025L-940,1020L-945,1020L-945,1025" fill="rgba(0,0,100,1)" />
<path d="M-945,1020L-940,1020L-940,1015L-945,1015L-945,1020" fill="rgba(0,0,0,0)" />
<path d="M-945,1015L-940,1015L-940,1010L-945,1010L-945,1015" fill="rgba(0,0,0,0)" />
<path d="M-945,1010L-940,1010L-940,1005L-945,1005L-945,1010" fill="rgba(0,0,0,0)" />
<path d="M-945,1005L-940,1005L-940,1000L-945,1000L-945,1005" fill="rgba(0,0,100,1)" />
<path d="M-940,1025L-940,1025" />
<path d="M-940,1025L-935,1025L-935,1020L-940,1020L-940,1025" fill="rgba(0,0,100,1)" />
<path d="M-940,1020L-935,1020L-935,1015L-940,1015L-940,1020" fill="rgba(0,0,0,0)" />
<path d="M-940,1015L-935,1015L-935,1010L-940,1010L-940,1015" fill="rgba(0,0,0,0)" />
<path d="M-940,1010L-935,1010L-935,1005L-940,1005L-940,1010" fill="rgba(0,0,0,0)" />
<path d="M-940,1005L-935,1005L-935,1000L-940,1000L-940,1005" fill="rgba(0,0,100,1)" />
<path d="M-935,1025L-935,1025" />
<path d="M-935,1025L-930,1025L-930,1020L-935,1020L-935,1025" fill="rgba(0,0,100,1)" />
<path d="M-935,1020L-930,1020L-930,1015L-935,1015L-935,1020" fill="rgba(0,0,0,0)" />
<path d="M-935,1015L-930,1015L-930,1010L-935,1010L-935,1015" fill="rgba(0,0,0,0)" />
<path d="M-935,1010L-930,1010L-930,1005L-935,1005L-935,1010" fill="rgba(0,0,0,0)" />
<path d="M-935,1005L-930,1005L-930,1000L-935,1000L-935,1005" fill="rgba(0,0,100,1)" />
<path d="M-925,1025L-925,1025" />
<path d="M-925,1025L-920,1025L-920,1020L-925,1020L-925,1025" fill="rgba(0,0,100,1)" />
<path d="M-925,1020L-920,1020L-920,1015L-925,1015L-925,1020" fill="rgba(0,0,100,1)" />
<path d="M-925,1015L-920,1015L-920,1010L-925,1010L-925,1015" fill="rgba(0,0,100,1)" />
<path d="M-925,1010L-920,1010L-920,1005L-925,1005L-925,1010" fill="rgba(0,0,100,1)" />
<path d="M-925,1005L-920,1005L-920,1000L-925,1000L-925,1005" fill="rgba(0,0,100,1)" />
<path d="M-920,1025L-920,1025" />
<path d="M-920,1025L-915,1025L-915,1020L-920,1020L-920,1025" fill="rgba(0,0,100,1)" />
<path d="M-920,1020L-915,1020L-915,1015L-920,1015L-920,1020" fill="rgba(0,0,0,0)" />
<path d="M-920,1015L-915,1015L-915,1010L-920,1010L-920,1015" fill="rgba(0,0,100,1)" />
<path d="M-920,1010L-915,1010L-915,1005L-920,1005L-920,1010" fill="rgba(0,0,0,0)" />
<path d="M-920,1005L-915,1005L-915,1000L-920,1000L-920,1005" fill="rgba(0,0,100,1)" />
<path d="M-915,1025L-915,1025" />
<path d="M-915,1025L-910,1025L-910,1020L-915,1020L-915,1025" fill="rgba(0,0,100,1)" />
<path d="M-915,1020L-910,1020L-910,1015L-915,1015L-915,1020" fill="rgba(0,0,0,0)" />
<path d="M-915,1015L-910,1015L-910,1010L-915,1010L-915,1015" fill="rgba(0,0,100,1)" />
<path d="M-915,1010L-910,1010L-910,1005L-915,1005L-915,1010" fill="rgba(0,0,0,0)" />
<path d="M-915,1005L-910,1005L-910,1000L-915,1000L-915,1005" fill="rgba(0,0,100,1)" />
<path d="M-910,1025L-910,1025" />
<path d="M-910,1025L-905,1025L-905,1020L-910,1020L-910,1025" fill="rgba(0,0,100,1)" />
<path d="M-910,1020L-905,1020L-905,1015L-910,1015L-910,1020" fill="rgba(0,0,0,0)" />
<path d="M-910,1015L-905,1015L-905,1010L-910,1010L-910,1015" fill="rgba(0,0,100,1)" />
<path d="M-910,1010L-905,1010L-905,1005L-910,1005L-910,1010" fill="rgba(0,0,0,0)" />
<path d="M-910,1005L-905,1005L-905,1000L-910,1000L-910,1005" fill="rgba(0,0,100,1)" />
<path d="M-900,1025L-900,1025" />
<path d="M-900,1025L-895,1025L-895,1020L-900,1020L-900,1025" fill="rgba(0,0,100,1)" />
<path d="M-900,1020L-895,1020L-895,1015L-900,1015L-900,1020" fill="rgba(0,0,100,1)" />
<path d="M-900,1015L-895,1015L-895,1010L-900,1010L-900,1015" fill="rgba(0,0,100,1)" />
<path d="M-900,1010L-895,1010L-895,1005L-900,1005L-900,1010" fill="rgba(0,0,100,1)" />
<path d="M-900,1005L-895,1005L-895,1000L-900,1000L-900,1005" fill="rgba(0,0,100,1)" />
<path d="M-895,1025L-895,1025" />
<path d="M-895,1025L-890,1025L-890,1020L-895,1020L-895,1025" fill="rgba(0,0,0,0)" />
<path d="M-895,1020L-890,1020L-890,1015L-895,1015L-895,1020" fill="rgba(0,0,0,0)" />
<path d="M-895,1015L-890,1015L-890,1010L-895,1010L-895,1015" fill="rgba(0,0,100,1)" />
<path d="M-895,1010L-890,1010L-890,1005L-895,1005L-895,1010" fill="rgba(0,0,0,0)" />
<path d="M-895,1005L-890,1005L-890,1000L-895,1000L-895,1005" fill="rgba(0,0,100,1)" />
<path d="M-890,1025L-890,1025" />
<path d="M-890,1025L-885,1025L-885,1020L-890,1020L-890,1025" fill="rgba(0,0,0,0)" />
<path d="M-890,1020L-885,1020L-885,1015L-890,1015L-890,1020" fill="rgba(0,0,0,0)" />
<path d="M-890,1015L-885,1015L-885,1010L-890,1010L-890,1015" fill="rgba(0,0,100,1)" />
<path d="M-890,1010L-885,1010L-885,1005L-890,1005L-890,1010" fill="rgba(0,0,100,1)" />
<path d="M-890,1005L-885,1005L-885,1000L-890,1000L-890,1005" fill="rgba(0,0,100,1)" />
<path d="M-880,1025L-880,1025" />
<path d="M-880,1025L-875,1025L-875,1020L-880,1020L-880,1025" fill="rgba(0,0,0,0)" />
<path d="M-880,1020L-875,1020L-875,1015L-880,1015L-880,1020" fill="rgba(0,0,0,0)" />
<path d="M-880,1015L-875,1015L-875,1010L-880,1010L-880,1015" fill="rgba(0,0,0,0)" />
<path d="M-880,1010L-875,1010L-875,1005L-880,1005L-880,1010" fill="rgba(0,0,0,0)" />
<path d="M-880,1005L-875,1005L-875,1000L-880,1000L-880,1005" fill="rgba(0,0,100,1)" />
<path d="M-875,1025L-875,1025" />
<path d="M-875,1025L-870,1025L-870,1020L-875,1020L-875,1025" fill="rgba(0,0,100,1)" />
<path d="M-875,1020L-870,1020L-870,1015L-875,1015L-875,1020" fill="rgba(0,0,100,1)" />
<path d="M-875,1015L-870,1015L-870,1010L-875,1010L-875,1015" fill="rgba(0,0,100,1)" />
<path d="M-875,1010L-870,1010L-870,1005L-875,1005L-875,1010" fill="rgba(0,0,100,1)" />
<path d="M-875,1005L-870,1005L-870,1000L-875,1000L-875,1005" fill="rgba(0,0,100,1)" />
<path d="M-870,1025L-870,1025" />
<path d="M-870,1025L-865,1025L-865,1020L-870,1020L-870,1025" fill="rgba(0,0,0,0)" />
<path d="M-870,1020L-865,1020L-865,1015L-870,1015L-870,1020" fill="rgba(0,0,0,0)" />
<path d="M-870,1015L-865,1015L-865,1010L-870,1010L-870,1015" fill="rgba(0,0,0,0)" />
<path d="M-870,1010L-865,1010L-865,1005L-870,1005L-870,1010" fill="rgba(0,0,0,0)" />
<path d="M-870,1005L-865,1005L-865,1000L-870,1000L-870,1005" fill="rgba(0,0,100,1)" />
<path d="M-860,1025L-860,1025" />
<path d="M-860,1025L-855,1025L-855,1020L-860,1020L-860,1025" fill="rgba(0,0,100,1)" />
<path d="M-860,1020L-855,1020L-855,1015L-860,1015L-860,1020" fill="rgba(0,0,100,1)" />
<path d="M-860,1015L-855,1015L-855,1010L-860,1010L-860,1015" fill="rgba(0,0,100,1)" />
<path d="M-860,1010L-855,1010L-855,1005L-860,1005L-860,1010" fill="rgba(0,0,100,1)" />
<path d="M-860,1005L-855,1005L-855,1000L-860,1000L-860,1005" fill="rgba(0,0,0,0)" />
<path d="M-855,1025L-855,1025" />
<path d="M-855,1025L-850,1025L-850,1020L-855,1020L-855,1025" fill="rgba(0,0,0,0)" />
<path d="M-855,1020L-850,1020L-850,1015L-855,1015L-855,1020" fill="rgba(0,0,100,1)" />
<path d="M-855,1015L-850,1015L-850,1010L-855,1010L-855,1015" fill="rgba(0,0,0,0)" />
<path d="M-855,1010L-850,1010L-850,1005L-855,1005L-855,1010" fill="rgba(0,0,0,0)" />
<path d="M-855,1005L-850,1005L-850,1000L-855,1000L-855,1005" fill="rgba(0,0,100,1)" />
<path d="M-850,1025L-850,1025" />
<path d="M-850,1025L-845,1025L-845,1020L-850,1020L-850,1025" fill="rgba(0,0,0,0)" />
<path d="M-850,1020L-845,1020L-845,1015L-850,1015L-850,1020" fill="rgba(0,0,100,1)" />
<path d="M-850,1015L-845,1015L-845,1010L-850,1010L-850,1015" fill="rgba(0,0,0,0)" />
<path d="M-850,1010L-845,1010L-845,1005L-850,1005L-850,1010" fill="rgba(0,0,0,0)" />
<path d="M-850,1005L-845,1005L-845,1000L-850,1000L-850,1005" fill="rgba(0,0,100,1)" />
<path d="M-845,1025L-845,1025" />
<path d="M-845,1025L-840,1025L-840,1020L-845,1020L-845,1025" fill="rgba(0,0,100,1)" />
<path d="M-845,1020L-840,1020L-840,1015L-845,1015L-845,1020" fill="rgba(0,0,100,1)" />
<path d="M-845,1015L-840,1015L-840,1010L-845,1010L-845,1015" fill="rgba(0,0,100,1)" />
<path d="M-845,1010L-840,1010L-840,1005L-845,1005L-845,1010" fill="rgba(0,0,100,1)" />
<path d="M-845,1005L-840,1005L-840,1000L-845,1000L-845,1005" fill="rgba(0,0,0,0)" />
<path d="M-835,1025L-835,1025" />
<path d="M-835,1025L-830,1025L-830,1020L-835,1020L-835,1025" fill="rgba(0,0,100,1)" />
<path d="M-835,1020L-830,1020L-830,1015L-835,1015L-835,1020" fill="rgba(0,0,100,1)" />
<path d="M-835,1015L-830,1015L-830,1010L-835,1010L-835,1015" fill="rgba(0,0,100,1)" />
<path d="M-835,1010L-830,1010L-830,1005L-835,1005L-835,1010" fill="rgba(0,0,100,1)" />
<path d="M-835,1005L-830,1005L-830,1000L-835,1000L-835,1005" fill="rgba(0,0,100,1)" />
<path d="M-830,1025L-830,1025" />
<path d="M-830,1025L-825,1025L-825,1020L-830,1020L-830,1025" fill="rgba(0,0,0,0)" />
<path d="M-830,1020L-825,1020L-825,1015L-830,1015L-830,1020" fill="rgba(0,0,0,0)" />
<path d="M-830,1015L-825,1015L-825,1010L-830,1010L-830,1015" fill="rgba(0,0,0,0)" />
<path d="M-830,1010L-825,1010L-825,1005L-830,1005L-830,1010" fill="rgba(0,0,100,1)" />
<path d="M-830,1005L-825,1005L-825,1000L-830,1000L-830,1005" fill="rgba(0,0,0,0)" />
<path d="M-825,1025L-825,1025" />
<path d="M-825,1025L-820,1025L-820,1020L-825,1020L-825,1025" fill="rgba(0,0,0,0)" />
<path d="M-825,1020L-820,1020L-820,1015L-825,1015L-825,1020" fill="rgba(0,0,0,0)" />
<path d="M-825,1015L-820,1015L-820,1010L-825,1010L-825,1015" fill="rgba(0,0,100,1)" />
<path d="M-825,1010L-820,1010L-820,1005L-825,1005L-825,1010" fill="rgba(0,0,0,0)" />
<path d="M-825,1005L-820,1005L-820,1000L-825,1000L-825,1005" fill="rgba(0,0,0,0)" />
<path d="M-820,1025L-820,1025" />
<path d="M-820,1025L-815,1025L-815,1020L-820,1020L-820,1025" fill="rgba(0,0,0,0)" />
<path d="M-820,1020L-815,1020L-815,1015L-820,1015L-820,1020" fill="rgba(0,0,100,1)" />
<path d="M-820,1015L-815,1015L-815,1010L-820,1010L-820,1015" fill="rgba(0,0,0,0)" />
<path d="M-820,1010L-815,1010L-815,1005L-820,1005L-820,1010" fill="rgba(0,0,0,0)" />
<path d="M-820,1005L-815,1005L-815,1000L-820,1000L-820,1005" fill="rgba(0,0,0,0)" />
<path d="M-815,1025L-815,1025" />
<path d="M-815,1025L-810,1025L-810,1020L-815,1020L-815,1025" fill="rgba(0,0,100,1)" />
<path d="M-815,1020L-810,1020L-810,1015L-815,1015L-815,1020" fill="rgba(0,0,100,1)" />
<path d="M-815,1015L-810,1015L-810,1010L-815,1010L-815,1015" fill="rgba(0,0,100,1)" />
<path d="M-815,1010L-810,1010L-810,1005L-815,1005L-815,1010" fill="rgba(0,0,100,1)" />
<path d="M-815,1005L-810,1005L-810,1000L-815,1000L-815,1005" fill="rgba(0,0,100,1)" />
<path d="M-805,1025L-805,1025" />
<path d="M-805,1025L-800,1025L-800,1020L-805,1020L-805,1025" fill="rgba(0,0,0,0)" />
<path d="M-805,1020L-800,1020L-800,1015L-805,1015L-805,1020" fill="rgba(0,0,100,1)" />
<path d="M-805,1015L-800,1015L-800,1010L-805,1010L-805,1015" fill="rgba(0,0,100,1)" />
<path d="M-805,1010L-800,1010L-800,1005L-805,1005L-805,1010" fill="rgba(0,0,100,1)" />
<path d="M-805,1005L-800,1005L-800,1000L-805,1000L-805,1005" fill="rgba(0,0,0,0)" />
<path d="M-800,1025L-800,1025" />
<path d="M-800,1025L-795,1025L-795,1020L-800,1020L-800,1025" fill="rgba(0,0,100,1)" />
<path d="M-800,1020L-795,1020L-795,1015L-800,1015L-800,1020" fill="rgba(0,0,0,0)" />
<path d="M-800,1015L-795,1015L-795,1010L-800,1010L-800,1015" fill="rgba(0,0,0,0)" />
<path d="M-800,1010L-795,1010L-795,1005L-800,1005L-800,1010" fill="rgba(0,0,0,0)" />
<path d="M-800,1005L-795,1005L-795,1000L-800,1000L-800,1005" fill="rgba(0,0,100,1)" />
<path d="M-795,1025L-795,1025" />
<path d="M-795,1025L-790,1025L-790,1020L-795,1020L-795,1025" fill="rgba(0,0,100,1)" />
<path d="M-795,1020L-790,1020L-790,1015L-795,1015L-795,1020" fill="rgba(0,0,0,0)" />
<path d="M-795,1015L-790,1015L-790,1010L-795,1010L-795,1015" fill="rgba(0,0,0,0)" />
<path d="M-795,1010L-790,1010L-790,1005L-795,1005L-795,1010" fill="rgba(0,0,0,0)" />
<path d="M-795,1005L-790,1005L-790,1000L-795,1000L-795,1005" fill="rgba(0,0,100,1)" />
<path d="M-790,1025L-790,1025" />
<path d="M-790,1025L-785,1025L-785,1020L-790,1020L-790,1025" fill="rgba(0,0,100,1)" />
<path d="M-790,1020L-785,1020L-785,1015L-790,1015L-790,1020" fill="rgba(0,0,0,0)" />
<path d="M-790,1015L-785,1015L-785,1010L-790,1010L-790,1015" fill="rgba(0,0,0,0)" />
<path d="M-790,1010L-785,1010L-785,1005L-790,1005L-790,1010" fill="rgba(0,0,0,0)" />
<path d="M-790,1005L-785,1005L-785,1000L-790,1000L-790,1005" fill="rgba(0,0,100,1)" />
<path d="M-780,1025L-780,1025" />
<path d="M-780,1025L-775,1025L-775,1020L-780,1020L-780,1025" fill="rgba(0,0,100,1)" />
<path d="M-780,1020L-775,1020L-775,1015L-780,1015L-780,1020" fill="rgba(0,0,100,1)" />
<path d="M-780,1015L-775,1015L-775,1010L-780,1010L-780,1015" fill="rgba(0,0,100,1)" />
<path d="M-780,1010L-775,1010L-775,1005L-780,1005L-780,1010" fill="rgba(0,0,100,1)" />
<path d="M-780,1005L-775,1005L-775,1000L-780,1000L-780,1005" fill="rgba(0,0,100,1)" />
<path d="M-775,1025L-775,1025" />
<path d="M-775,1025L-770,1025L-770,1020L-775,1020L-775,1025" fill="rgba(0,0,100,1)" />
<path d="M-775,1020L-770,1020L-770,1015L-775,1015L-775,1020" fill="rgba(0,0,0,0)" />
<path d="M-775,1015L-770,1015L-770,1010L-775,1010L-775,1015" fill="rgba(0,0,100,1)" />
<path d="M-775,1010L-770,1010L-770,1005L-775,1005L-775,1010" fill="rgba(0,0,0,0)" />
<path d="M-775,1005L-770,1005L-770,1000L-775,1000L-775,1005" fill="rgba(0,0,100,1)" />
<path d="M-770,1025L-770,1025" />
<path d="M-770,1025L-765,1025L-765,1020L-770,1020L-770,1025" fill="rgba(0,0,100,1)" />
<path d="M-770,1020L-765,1020L-765,1015L-770,1015L-770,1020" fill="rgba(0,0,0,0)" />
<path d="M-770,1015L-765,1015L-765,1010L-770,1010L-770,1015" fill="rgba(0,0,100,1)" />
<path d="M-770,1010L-765,1010L-765,1005L-770,1005L-770,1010" fill="rgba(0,0,0,0)" />
<path d="M-770,1005L-765,1005L-765,1000L-770,1000L-770,1005" fill="rgba(0,0,100,1)" />
<path d="M-765,1025L-765,1025" />
<path d="M-765,1025L-760,1025L-760,1020L-765,1020L-765,1025" fill="rgba(0,0,100,1)" />
<path d="M-765,1020L-760,1020L-760,1015L-765,1015L-765,1020" fill="rgba(0,0,0,0)" />
<path d="M-765,1015L-760,1015L-760,1010L-765,1010L-765,1015" fill="rgba(0,0,100,1)" />
<path d="M-765,1010L-760,1010L-760,1005L-765,1005L-765,1010" fill="rgba(0,0,0,0)" />
<path d="M-765,1005L-760,1005L-760,1000L-765,1000L-765,1005" fill="rgba(0,0,100,1)" />
<path d="M-762.5,1000L-765,1000" stroke-width="1" stroke="rgba(150,0,0,1)" />
<path d="M-767.5,1000L-770,1000" stroke="rgba(150,0,0,1)" stroke-width="1" />
<path d="M-772.5,1000L-775,1000" stroke-width="1" stroke="rgba(150,0,0,1)" />
<path d="M-777.5,1000L-780,1000" stroke-width="1" stroke="rgba(150,0,0,1)" />
<path d="M-782.5,1000L-785,1000" stroke-width="1" stroke="rgba(150,0,0,1)" />
<path d="M-787.5,1000L-790,1000" stroke="rgba(150,0,0,1)" stroke-width="1" />
<path d="M-792.5,1000L-795,1000" stroke="rgba(150,0,0,1)" stroke-width="1" />
<path d="M-797.5,1000L-800,1000" stroke="rgba(150,0,0,1)" stroke-width="1" />
<path d="M-802.5,1000L-805,1000" stroke-width="1" stroke="rgba(150,0,0,1)" />
<path d="M-807.5,1000L-810,1000" stroke="rgba(150,0,0,1)" stroke-width="1" />
<path d="M-812.5,1000L-815,1000" stroke-width="1" stroke="rgba(150,0,0,1)" />
<path d="M-817.5,1000L-820,1000" stroke-width="1" stroke="rgba(150,0,0,1)" />
<path d="M-822.5,1000L-825,1000" stroke-width="1" stroke="rgba(150,0,0,1)" />
<path d="M-827.5,1000L-830,1000" stroke="rgba(150,0,0,1)" stroke-width="1" />
<path d="M-832.5,1000L-835,1000" stroke-width="1" stroke="rgba(150,0,0,1)" />
<path d="M-837.5,1000L-840,1000" stroke-width="1" stroke="rgba(150,0,0,1)" />
<path d="M-842.5,1000L-845,1000" stroke-width="1" stroke="rgba(150,0,0,1)" />
<path d="M-847.5,1000L-850,1000" stroke="rgba(150,0,0,1)" stroke-width="1" />
<path d="M-852.5,1000L-855,1000" stroke="rgba(150,0,0,1)" stroke-width="1" />
<path d="M-857.5,1000L-860,1000" stroke-width="1" stroke="rgba(150,0,0,1)" />
<path d="M-862.5,1000L-865,1000" stroke-width="1" stroke="rgba(150,0,0,1)" />
<path d="M-867.5,1000L-870,1000" stroke="rgba(150,0,0,1)" stroke-width="1" />
<path d="M-872.5,1000L-875,1000" stroke-width="1" stroke="rgba(150,0,0,1)" />
<path d="M-877.5,1000L-880,1000" stroke="rgba(150,0,0,1)" stroke-width="1" />
<path d="M-882.5,1000L-885,1000" stroke="rgba(150,0,0,1)" stroke-width="1" />
<path d="M-887.5,1000L-890,1000" stroke="rgba(150,0,0,1)" stroke-width="1" />
<path d="M-892.5,1000L-895,1000" stroke-width="1" stroke="rgba(150,0,0,1)" />
<path d="M-897.5,1000L-900,1000" stroke="rgba(150,0,0,1)" stroke-width="1" />
<path d="M-902.5,1000L-905,1000" stroke-width="1" stroke="rgba(150,0,0,1)" />
<path d="M-907.5,1000L-910,1000" stroke-width="1" stroke="rgba(150,0,0,1)" />
<path d="M-912.5,1000L-915,1000" stroke-width="1" stroke="rgba(150,0,0,1)" />
<path d="M-917.5,1000L-920,1000" stroke-width="1" stroke="rgba(150,0,0,1)" />
<path d="M-922.5,1000L-925,1000" stroke="rgba(150,0,0,1)" stroke-width="1" />
<path d="M-927.5,1000L-930,1000" stroke-width="1" stroke="rgba(150,0,0,1)" />
<path d="M-932.5,1000L-935,1000" stroke="rgba(150,0,0,1)" stroke-width="1" />
<path d="M-937.5,1000L-940,1000" stroke-width="1" stroke="rgba(150,0,0,1)" />
<path d="M-942.5,1000L-945,1000" stroke-width="1" stroke="rgba(150,0,0,1)" />
<path d="M-947.5,1000L-950,1000" stroke-width="1" stroke="rgba(150,0,0,1)" />
<path d="M-952.5,1000L-955,1000" stroke-width="1" stroke="rgba(150,0,0,1)" />
<path d="M-957.5,1000L-960,1000" stroke-width="1" stroke="rgba(150,0,0,1)" />
<path d="M-962.5,1000L-965,1000" stroke-width="1" stroke="rgba(150,0,0,1)" />
<path d="M-967.5,1000L-970,1000" stroke-width="1" stroke="rgba(150,0,0,1)" />
<path d="M-972.5,1000L-975,1000" stroke-width="1" stroke="rgba(150,0,0,1)" />
<path d="M-977.5,1000L-980,1000" stroke-width="1" stroke="rgba(150,0,0,1)" />
<path d="M-982.5,1000L-985,1000" stroke="rgba(150,0,0,1)" stroke-width="1" />
<path d="M-987.5,1000L-990,1000" stroke-width="1" stroke="rgba(150,0,0,1)" />
<path d="M-992.5,1000L-995,1000" stroke="rgba(150,0,0,1)" stroke-width="1" />
<path d="M-997.5,1000L-1000,1000" stroke="rgba(150,0,0,1)" stroke-width="1" />
<path d="M-762.5,1055L-765,1055" stroke-width="1" stroke="rgba(150,0,0,1)" />
<path d="M-767.5,1055L-770,1055" stroke="rgba(150,0,0,1)" stroke-width="1" />
<path d="M-772.5,1055L-775,1055" stroke="rgba(150,0,0,1)" stroke-width="1" />
<path d="M-777.5,1055L-780,1055" stroke-width="1" stroke="rgba(150,0,0,1)" />
<path d="M-782.5,1055L-785,1055" stroke-width="1" stroke="rgba(150,0,0,1)" />
<path d="M-787.5,1055L-790,1055" stroke="rgba(150,0,0,1)" stroke-width="1" />
<path d="M-792.5,1055L-795,1055" stroke-width="1" stroke="rgba(150,0,0,1)" />
<path d="M-797.5,1055L-800,1055" stroke="rgba(150,0,0,1)" stroke-width="1" />
<path d="M-802.5,1055L-805,1055" stroke-width="1" stroke="rgba(150,0,0,1)" />
<path d="M-807.5,1055L-810,1055" stroke-width="1" stroke="rgba(150,0,0,1)" />
<path d="M-812.5,1055L-815,1055" stroke-width="1" stroke="rgba(150,0,0,1)" />
<path d="M-817.5,1055L-820,1055" stroke="rgba(150,0,0,1)" stroke-width="1" />
<path d="M-822.5,1055L-825,1055" stroke-width="1" stroke="rgba(150,0,0,1)" />
<path d="M-827.5,1055L-830,1055" stroke="rgba(150,0,0,1)" stroke-width="1" />
<path d="M-832.5,1055L-835,1055" stroke="rgba(150,0,0,1)" stroke-width="1" />
<path d="M-837.5,1055L-840,1055" stroke="rgba(150,0,0,1)" stroke-width="1" />
<path d="M-842.5,1055L-845,1055" stroke="rgba(150,0,0,1)" stroke-width="1" />
<path d="M-847.5,1055L-850,1055" stroke="rgba(150,0,0,1)" stroke-width="1" />
<path d="M-852.5,1055L-855,1055" stroke-width="1" stroke="rgba(150,0,0,1)" />
<path d="M-857.5,1055L-860,1055" stroke="rgba(150,0,0,1)" stroke-width="1" />
<path d="M-862.5,1055L-865,1055" stroke-width="1" stroke="rgba(150,0,0,1)" />
<path d="M-867.5,1055L-870,1055" stroke="rgba(150,0,0,1)" stroke-width="1" />
<path d="M-872.5,1055L-875,1055" stroke-width="1" stroke="rgba(150,0,0,1)" />
<path d="M-877.5,1055L-880,1055" stroke="rgba(150,0,0,1)" stroke-width="1" />
<path d="M-882.5,1055L-885,1055" stroke="rgba(150,0,0,1)" stroke-width="1" />
<path d="M-887.5,1055L-890,1055" stroke-width="1" stroke="rgba(150,0,0,1)" />
<path d="M-892.5,1055L-895,1055" stroke="rgba(150,0,0,1)" stroke-width="1" />
<path d="M-897.5,1055L-900,1055" stroke-width="1" stroke="rgba(150,0,0,1)" />
<path d="M-902.5,1055L-905,1055" stroke-width="1" stroke="rgba(150,0,0,1)" />
<path d="M-907.5,1055L-910,1055" stroke="rgba(150,0,0,1)" stroke-width="1" />
<path d="M-912.5,1055L-915,1055" stroke-width="1" stroke="rgba(150,0,0,1)" />
<path d="M-917.5,1055L-920,1055" stroke="rgba(150,0,0,1)" stroke-width="1" />
<path d="M-922.5,1055L-925,1055" stroke="rgba(150,0,0,1)" stroke-width="1" />
<path d="M-927.5,1055L-930,1055" stroke-width="1" stroke="rgba(150,0,0,1)" />
<path d="M-932.5,1055L-935,1055" stroke-width="1" stroke="rgba(150,0,0,1)" />
<path d="M-937.5,1055L-940,1055" stroke-width="1" stroke="rgba(150,0,0,1)" />
<path d="M-942.5,1055L-945,1055" stroke-width="1" stroke="rgba(150,0,0,1)" />
<path d="M-947.5,1055L-950,1055" stroke="rgba(150,0,0,1)" stroke-width="1" />
<path d="M-952.5,1055L-955,1055" stroke-width="1" stroke="rgba(150,0,0,1)" />
<path d="M-957.5,1055L-960,1055" stroke="rgba(150,0,0,1)" stroke-width="1" />
<path d="M-962.5,1055L-965,1055" stroke="rgba(150,0,0,1)" stroke-width="1" />
<path d="M-967.5,1055L-970,1055" stroke-width="1" stroke="rgba(150,0,0,1)" />
<path d="M-972.5,1055L-975,1055" stroke-width="1" stroke="rgba(150,0,0,1)" />
<path d="M-977.5,1055L-980,1055" stroke-width="1" stroke="rgba(150,0,0,1)" />
<path d="M-982.5,1055L-985,1055" stroke="rgba(150,0,0,1)" stroke-width="1" />
<path d="M-987.5,1055L-990,1055" stroke-width="1" stroke="rgba(150,0,0,1)" />
<path d="M-992.5,1055L-995,1055" stroke-width="1" stroke="rgba(150,0,0,1)" />
<path d="M-997.5,1055L-1000,1055" stroke-width="1" stroke="rgba(150,0,0,1)" />
<path d="M-1000,1052.5L-1000,1050" stroke-width="1" stroke="rgba(150,0,0,1)" />
<path d="M-1000,1047.5L-1000,1045" stroke="rgba(150,0,0,1)" stroke-width="1" />
<path d="M-1000,1042.5L-1000,1040" stroke-width="1" stroke="rgba(150,0,0,1)" />
<path d="M-1000,1037.5L-1000,1035" stroke-width="1" stroke="rgba(150,0,0,1)" />
<path d="M-1000,1032.5L-1000,1030" stroke-width="1" stroke="rgba(150,0,0,1)" />
<path d="M-1000,1027.5L-1000,1025" stroke-width="1" stroke="rgba(150,0,0,1)" />
<path d="M-1000,1022.5L-1000,1020" stroke="rgba(150,0,0,1)" stroke-width="1" />
<path d="M-1000,1017.5L-1000,1015" stroke="rgba(150,0,0,1)" stroke-width="1" />
<path d="M-1000,1012.5L-1000,1010" stroke="rgba(150,0,0,1)" stroke-width="1" />
<path d="M-1000,1007.5L-1000,1005" stroke="rgba(150,0,0,1)" stroke-width="1" />
<path d="M-1000,1002.5L-1000,1000" stroke="rgba(150,0,0,1)" stroke-width="1" />
<path d="M-760,1052.5L-760,1050" stroke-width="1" stroke="rgba(150,0,0,1)" />
<path d="M-760,1047.5L-760,1045" stroke="rgba(150,0,0,1)" stroke-width="1" />
<path d="M-760,1042.5L-760,1040" stroke="rgba(150,0,0,1)" stroke-width="1" />
<path d="M-760,1037.5L-760,1035" stroke-width="1" stroke="rgba(150,0,0,1)" />
<path d="M-760,1032.5L-760,1030" stroke-width="1" stroke="rgba(150,0,0,1)" />
<path d="M-760,1027.5L-760,1025" stroke-width="1" stroke="rgba(150,0,0,1)" />
<path d="M-760,1022.5L-760,1020" stroke-width="1" stroke="rgba(150,0,0,1)" />
<path d="M-760,1017.5L-760,1015" stroke-width="1" stroke="rgba(150,0,0,1)" />
<path d="M-760,1012.5L-760,1010" stroke-width="1" stroke="rgba(150,0,0,1)" />
<path d="M-760,1007.5L-760,1005" stroke-width="1" stroke="rgba(150,0,0,1)" />
<path d="M-760,1002.5L-760,1000" stroke-width="1" stroke="rgba(150,0,0,1)" />
</svg>
