<svg xmlns="http://www.w3.org/2000/svg" viewBox="-16.5 -12 2 2">
<path d="M-15.5,-11L-15.5,-11" />
<path d="M-15.5,-11L-15.5,-11L-15.5,-11L-15.5,-11L-15.5,-11" fill="rgba(0,0,0,0)" />
<path d="M-15.5,-11L-15.5,-11L-15.5,-11L-15.5,-11L-15.5,-11" fill="rgba(0,0,0,0)" />
<path d="M-15.5,-11L-15.5,-11L-15.5,-11L-15.5,-11L-15.5,-11" fill="rgba(0,0,0,0)" />
<path d="M-15.5,-11L-15.5,-11L-15.5,-11L-15.5,-11L-15.5,-11" fill="rgba(0,0,0,0)" />
<path d="M-15.5,-11L-15.5,-11L-15.5,-11L-15.5,-11L-15.5,-11" fill="rgba(0,0,100,1)" />
<path d="M-15.5,-11L-15.5,-11" />
<path d="M-15.5,-11L-15.5,-11L-15.5,-11L-15.5,-11L-15.5,-11" fill="rgba(0,0,100,1)" />
<path d="M-15.5,-11L-15.5,-11L-15.5,-11L-15.5,-11L-15.5,-11" fill="rgba(0,0,100,1)" />
<path d="M-15.5,-11L-15.5,-11L-15.5,-11L-15.5,-11L-15.5,-11" fill="rgba(0,0,100,1)" />
<path d="M-15.5,-11L-15.5,-11L-15.5,-11L-15.5,-11L-15.5,-11" fill="rgba(0,0,100,1)" />
<path d="M-15.5,-11L-15.5,-11L-15.5,-11L-15.5,-11L-15.5,-11" fill="rgba(0,0,100,1)" />
<path d="M-15.5,-11L-15.5,-11" />
<path d="M-15.5,-11L-15.5,-11L-15.5,-11L-15.5,-11L-15.5,-11" fill="rgba(0,0,0,0)" />
<path d="M-15.5,-11L-15.5,-11L-15.5,-11L-15.5,-11L-15.5,-11" fill="rgba(0,0,0,0)" />
<path d="M-15.5,-11L-15.5,-11L-15.5,-11L-15.5,-11L-15.5,-11" fill="rgba(0,0,0,0)" />
<path d="M-15.5,-11L-15.5,-11L-15.5,-11L-15.5,-11L-15.5,-11" fill="rgba(0,0,0,0)" />
<path d="M-15.5,-11L-15.5,-11L-15.5,-11L-15.5,-11L-15.5,-11" fill="rgba(0,0,100,1)" />
<path d="M-15.5,-11L-15.5,-11" />
<path d="M-15.5,-11L-15.5,-11L-15.5,-11L-15.5,-11L-15.5,-11" fill="rgba(0,0,100,1)" />
<path d="M-15.5,-11L-15.5,-11L-15.5,-11L-15.5,-11L-15.5,-11" fill="rgba(0,0,100,1)" />
<path d="M-15.5,-11L-15.5,-11L-15.5,-11L-15.5,-11L-15.5,-11" fill="rgba(0,0,100,1)" />
<path d="M-15.5,-11L-15.5,-11L-15.5,-11L-15.5,-11L-15.5,-11" fill="rgba(0,0,100,1)" />
<path d="M-15.5,-11L-15.5,-11L-15.5,-11L-15.5,-11L-15.5,-11" fill="rgba(0,0,100,1)" />
<path d="M-15.5,-11L-15.5,-11" />
<path d="M-15.5,-11L-15.5,-11L-15.5,-11L-15.5,-11L-15.5,-11" fill="rgba(0,0,100,1)" />
<path d="M-15.5,-11L-15.5,-11L-15.5,-11L-15.5,-11L-15.5,-11" fill="rgba(0,0,0,0)" />
<path d="M-15.5,-11L-15.5,-11L-15.5,-11L-15.5,-11L-15.5,-11" fill="rgba(0,0,100,1)" />
<path d="M-15.5,-11L-15.5,-11L-15.5,-11L-15.5,-11L-15.5,-11" fill="rgba(0,0,0,0)" />
<path d="M-15.5,-11L-15.5,-11L-15.5,-11L-15.5,-11L-15.5,-11" fill="rgba(0,0,100,1)" />
<path d="M-15.5,-11L-15.5,-11" />
<path d="M-15.5,-11L-15.5,-11L-15.5,-11L-15.5,-11L-15.5,-11" fill="rgba(0,0,100,1)" />
<path d="M-15.5,-11L-15.5,-11L-15.5,-11L-15.5,-11L-15.5,-11" fill="rgba(0,0,0,0)" />
<path d="M-15.5,-11L-15.5,-11L-15.5,-11L-15.5,-11L-15.5,-11" fill="rgba(0,0,100,1)" />
<path d="M-15.5,-11L-15.5,-11L-15.5,-11L-15.5,-11L-15.5,-11" fill="rgba(0,0,0,0)" />
<path d="M-15.5,-11L-15.5,-11L-15.5,-11L-15.5,-11L-15.5,-11" fill="rgba(0,0,100,1)" />
<path d="M-15.5,-11L-15.5,-11" />
<path d="M-15.5,-11L-15.5,-11L-15.5,-11L-15.5,-11L-15.5,-11" fill="rgba(0,0,100,1)" />
<path d="M-15.5,-11L-15.5,-11L-15.5,-11L-15.5,-11L-15.5,-11" fill="rgba(0,0,0,0)" />
<path d="M-15.5,-11L-15.5,-11L-15.5,-11L-15.5,-11L-15.5,-11" fill="rgba(0,0,100,1)" />
<path d="M-15.5,-11L-15.5,-11L-15.5,-11L-15.5,-11L-15.5,-11" fill="rgba(0,0,0,0)" />
<path d="M-15.5,-11L-15.5,-11L-15.5,-11L-15.5,-11L-15.5,-11" fill="rgba(0,0,100,1)" />
<path d="M-15.5,-11L-15.5,-11" />
<path d="M-15.5,-11L-15.5,-11L-15.5,-11L-15.5,-11L-15.5,-11" fill="rgba(0,0,100,1)" />
<path d="M-15.5,-11L-15.5,-11L-15.5,-11L-15.5,-11L-15.5,-11" fill="rgba(0,0,0,0)" />
<path d="M-15.5,-11L-15.5,-11L-15.5,-11L-15.5,-11L-15.5,-11" fill="rgba(0,0,100,1)" />
<path d="M-15.5,-11L-15.5,-11L-15.5,-11L-15.5,-11L-15.5,-11" fill="rgba(0,0,100,1)" />
<path d="M-15.5,-11L-15.5,-11L-15.5,-11L-15.5,-11L-15.5,-11" fill="rgba(0,0,0,0)" />
<path d="M-15.5,-11L-15.5,-11" />
<path d="M-15.5,-11L-15.5,-11L-15.5,-11L-15.5,-11L-15.5,-11" fill="rgba(0,0,100,1)" />
<path d="M-15.5,-11L-15.5,-11L-15.5,-11L-15.5,-11L-15.5,-11" fill="rgba(0,0,0,0)" />
<path d="M-15.5,-11L-15.5,-11L-15.5,-11L-15.5,-11L-15.5,-11" fill="rgba(0,0,100,1)" />
<path d="M-15.5,-11L-15.5,-11L-15.5,-11L-15.5,-11L-15.5,-11" fill="rgba(0,0,0,0)" />
<path d="M-15.5,-11L-15.5,-11L-15.5,-11L-15.5,-11L-15.5,-11" fill="rgba(0,0,100,1)" />
<path d="M-15.5,-11L-15.5,-11" />
<path d="M-15.5,-11L-15.5,-11L-15.5,-11L-15.5,-11L-15.5,-11" fill="rgba(0,0,100,1)" />
<path d="M-15.5,-11L-15.5,-11L-15.5,-11L-15.5,-11L-15.5,-11" fill="rgba(0,0,0,0)" />
<path d="M-15.5,-11L-15.5,-11L-15.5,-11L-15.5,-11L-15.5,-11" fill="rgba(0,0,100,1)" />
<path d="M-15.5,-11L-15.5,-11L-15.5,-11L-15.5,-11L-15.5,-11" fill="rgba(0,0,0,0)" />
<path d="M-15.5,-11L-15.5,-11L-15.5,-11L-15.5,-11L-15.5,-11" fill="rgba(0,0,100,1)" />
<path d="M-15.5,-11L-15.5,-11" />
<path d="M-15.5,-11L-15.5,-11L-15.5,-11L-15.5,-11L-15.5,-11" fill="rgba(0,0,100,1)" />
<path d="M-15.5,-11L-15.5,-11L-15.5,-11L-15.5,-11L-15.5,-11" fill="rgba(0,0,100,1)" />
<path d="M-15.5,-11L-15.5,-11L-15.5,-11L-15.5,-11L-15.5,-11" fill="rgba(0,0,100,1)" />
<path d="M-15.5,-11L-15.5,-11L-15.5,-11L-15.5,-11L-15.5,-11" fill="rgba(0,0,0,0)" />
<path d="M-15.5,-11L-15.5,-11L-15.5,-11L-15.5,-11L-15.5,-11" fill="rgba(0,0,100,1)" />
<path d="M-15.5,-11L-15.5,-11" />
<path d="M-15.5,-11L-15.5,-11L-15.5,-11L-15.5,-11L-15.5,-11" fill="rgba(0,0,0,0)" />
<path d="M-15.5,-11L-15.5,-11L-15.5,-11L-15.5,-11L-15.5,-11" fill="rgba(0,0,0,0)" />
<path d="M-15.5,-11L-15.5,-11L-15.5,-11L-15.5,-11L-15.5,-11" fill="rgba(0,0,0,0)" />
<path d="M-15.5,-11L-15.5,-11L-15.5,-11L-15.5,-11L-15.5,-11" fill="rgba(0,0,0,0)" />
<path d="M-15.5,-11L-15.5,-11L-15.5,-11L-15.5,-11L-15.5,-11" fill="rgba(0,0,100,1)" />
<path d="M-15.5,-11L-15.5,-11" />
<path d="M-15.5,-11L-15.5,-11L-15.5,-11L-15.5,-11L-15.5,-11" fill="rgba(0,0,100,1)" />
<path d="M-15.5,-11L-15.5,-11L-15.5,-11L-15.5,-11L-15.5,-11" fill="rgba(0,0,100,1)" />
<path d="M-15.5,-11L-15.5,-11L-15.5,-11L-15.5,-11L-15.5,-11" fill="rgba(0,0,100,1)" />
<path d="M-15.5,-11L-15.5,-11L-15.5,-11L-15.5,-11L-15.5,-11" fill="rgba(0,0,100,1)" />
<path d="M-15.5,-11L-15.5,-11L-15.5,-11L-15.5,-11L-15.5,-11" fill="rgba(0,0,100,1)" />
<path d="M-15.5,-11L-15.5,-11" />
<path d="M-15.5,-11L-15.5,-11L-15.5,-11L-15.5,-11L-15.5,-11" fill="rgba(0,0,0,0)" />
<path d="M-15.5,-11L-15.5,-11L-15.5,-11L-15.5,-11L-15.5,-11" fill="rgba(0,0,0,0)" />
<path d="M-15.5,-11L-15.5,-11L-15.5,-11L-15.5,-11L-15.5,-11" fill="rgba(0,0,0,0)" />
<path d="M-15.5,-11L-15.5,-11L-15.5,-11L-15.5,-11L-15.5,-11" fill="rgba(0,0,0,0)" />
<path d="M-15.5,-11L-15.5,-11L-15.5,-11L-15.5,-11L-15.5,-11" fill="rgba(0,0,100,1)" />
<path d="M-15.5,-11L-15.5,-11" />
<path d="M-15.5,-11L-15.5,-11L-15.5,-11L-15.5,-11L-15.5,-11" fill="rgba(0,0,100,1)" />
<path d="M-15.5,-11L-15.5,-11L-15.5,-11L-15.5,-11L-15.5,-11" fill="rgba(0,0,100,1)" />
<path d="M-15.5,-11L-15.5,-11L-15.5,-11L-15.5,-11L-15.5,-11" fill="rgba(0,0,100,1)" />
<path d="M-15.5,-11L-15.5,-11L-15.5,-11L-15.5,-11L-15.5,-11" fill="rgba(0,0,100,1)" />
<path d="M-15.5,-11L-15.5,-11L-15.5,-11L-15.5,-11L-15.5,-11" fill="rgba(0,0,0,0)" />
<path d="M-15.5,-11L-15.5,-11" />
<path d="M-15.5,-11L-15.5,-11L-15.5,-11L-15.5,-11L-15.5,-11" fill="rgba(0,0,0,0)" />
<path d="M-15.5,-11L-15.5,-11L-15.5,-11L-15.5,-11L-15.5,-11" fill="rgba(0,0,100,1)" />
<path d="M-15.5,-11L-15.5,-11L-15.5,-11L-15.5,-11L-15.5,-11" fill="rgba(0,0,0,0)" />
<path d="M-15.5,-11L-15.5,-11L-15.5,-11L-15.5,-11L-15.5,-11" fill="rgba(0,0,0,0)" />
<path d="M-15.5,-11L-15.5,-11L-15.5,-11L-15.5,-11L-15.5,-11" fill="rgba(0,0,100,1)" />
<path d="M-15.5,-11L-15.5,-11" />
<path d="M-15.5,-11L-15.5,-11L-15.5,-11L-15.5,-11L-15.5,-11" fill="rgba(0,0,0,0)" />
<path d="M-15.5,-11L-15.5,-11L-15.5,-11L-15.5,-11L-15.5,-11" fill="rgba(0,0,100,1)" />
<path d="M-15.5,-11L-15.5,-11L-15.5,-11L-15.5,-11L-15.5,-11" fill="rgba(0,0,0,0)" />
<path d="M-15.5,-11L-15.5,-11L-15.5,-11L-15.5,-11L-15.5,-11" fill="rgba(0,0,0,0)" />
<path d="M-15.5,-11L-15.5,-11L-15.5,-11L-15.5,-11L-15.5,-11" fill="rgba(0,0,100,1)" />
<path d="M-15.5,-11L-15.5,-11" />
<path d="M-15.5,-11L-15.5,-11L-15.5,-11L-15.5,-11L-15.5,-11" fill="rgba(0,0,100,1)" />
<path d="M-15.5,-11L-15.5,-11L-15.5,-11L-15.5,-11L-15.5,-11" fill="rgba(0,0,100,1)" />
<path d="M-15.5,-11L-15.5,-11L-15.5,-11L-15.5,-11L-15.5,-11" fill="rgba(0,0,100,1)" />
<path d="M-15.5,-11L-15.5,-11L-15.5,-11L-15.5,-11L-15.5,-11" fill="rgba(0,0,100,1)" />
<path d="M-15.5,-11L-15.5,-11L-15.5,-11L-15.5,-11L-15.5,-11" fill="rgba(0,0,0,0)" />
<path d="M-15.5,-11L-15.5,-11" />
<path d="M-15.5,-11L-15.5,-11L-15.5,-11L-15.5,-11L-15.5,-11" fill="rgba(0,0,0,0)" />
<path d="M-15.5,-11L-15.5,-11L-15.5,-11L-15.5,-11L-15.5,-11" fill="rgba(0,0,100,1)" />
<path d="M-15.5,-11L-15.5,-11L-15.5,-11L-15.5,-11L-15.5,-11" fill="rgba(0,0,100,1)" />
<path d="M-15.5,-11L-15.5,-11L-15.5,-11L-15.5,-11L-15.5,-11" fill="rgba(0,0,100,1)" />
<path d="M-15.5,-11L-15.5,-11L-15.5,-11L-15.5,-11L-15.5,-11" fill="rgba(0,0,0,0)" />
<path d="M-15.5,-11L-15.5,-11" />
<path d="M-15.5,-11L-15.5,-11L-15.5,-11L-15.5,-11L-15.5,-11" fill="rgba(0,0,100,1)" />
<path d="M-15.5,-11L-15.5,-11L-15.5,-11L-15.5,-11L-15.5,-11" fill="rgba(0,0,0,0)" />
<path d="M-15.5,-11L-15.5,-11L-15.5,-11L-15.5,-11L-15.5,-11" fill="rgba(0,0,0,0)" />
<path d="M-15.5,-11L-15.5,-11L-15.5,-11L-15.5,-11L-15.5,-11" fill="rgba(0,0,0,0)" />
<path d="M-15.5,-11L-15.5,-11L-15.5,-11L-15.5,-11L-15.5,-11" fill="rgba(0,0,100,1)" />
<path d="M-15.5,-11L-15.5,-11" />
<path d="M-15.5,-11L-15.5,-11L-15.5,-11L-15.5,-11L-15.5,-11" fill="rgba(0,0,100,1)" />
<path d="M-15.5,-11L-15.5,-11L-15.5,-11L-15.5,-11L-15.5,-11" fill="rgba(0,0,0,0)" />
<path d="M-15.5,-11L-15.5,-11L-15.5,-11L-15.5,-11L-15.5,-11" fill="rgba(0,0,0,0)" />
<path d="M-15.5,-11L-15.5,-11L-15.5,-11L-15.5,-11L-15.5,-11" fill="rgba(0,0,0,0)" />
<path d="M-15.5,-11L-15.5,-11L-15.5,-11L-15.5,-11L-15.5,-11" fill="rgba(0,0,100,1)" />
<path d="M-15.5,-11L-15.5,-11" />
<path d="M-15.5,-11L-15.5,-11L-15.5,-11L-15.5,-11L-15.5,-11" fill="rgba(0,0,100,1)" />
<path d="M-15.5,-11L-15.5,-11L-15.5,-11L-15.5,-11L-15.5,-11" fill="rgba(0,0,0,0)" />
<path d="M-15.5,-11L-15.5,-11L-15.5,-11L-15.5,-11L-15.5,-11" fill="rgba(0,0,0,0)" />
<path d="M-15.5,-11L-15.5,-11L-15.5,-11L-15.5,-11L-15.5,-11" fill="rgba(0,0,0,0)" />
<path d="M-15.5,-11L-15.5,-11L-15.5,-11L-15.5,-11L-15.5,-11" fill="rgba(0,0,100,1)" />
<path d="M-15.5,-11L-15.5,-11" />
<path d="M-15.5,-11L-15.5,-11L-15.5,-11L-15.5,-11L-15.5,-11" fill="rgba(0,0,0,0)" />
<path d="M-15.5,-11L-15.5,-11L-15.5,-11L-15.5,-11L-15.5,-11" fill="rgba(0,0,100,1)" />
<path d="M-15.5,-11L-15.5,-11L-15.5,-11L-15.5,-11L-15.5,-11" fill="rgba(0,0,100,1)" />
<path d="M-15.5,-11L-15.5,-11L-15.5,-11L-15.5,-11L-15.5,-11" fill="rgba(0,0,100,1)" />
<path d="M-15.5,-11L-15.5,-11L-15.5,-11L-15.5,-11L-15.5,-11" fill="rgba(0,0,0,0)" />
<path d="M-15.5,-11L-15.5,-11" />
<path d="M-15.5,-11L-15.5,-11L-15.5,-11L-15.5,-11L-15.5,-11" fill="rgba(0,0,100,1)" />
<path d="M-15.5,-11L-15.5,-11L-15.5,-11L-15.5,-11L-15.5,-11" fill="rgba(0,0,0,0)" />
<path d="M-15.5,-11L-15.5,-11L-15.5,-11L-15.5,-11L-15.5,-11" fill="rgba(0,0,0,0)" />
<path d="M-15.5,-11L-15.5,-11L-15.5,-11L-15.5,-11L-15.5,-11" fill="rgba(0,0,0,0)" />
<path d="M-15.5,-11L-15.5,-11L-15.5,-11L-15.5,-11L-15.5,-11" fill="rgba(0,0,100,1)" />
<path d="M-15.5,-11L-15.5,-11" />
<path d="M-15.5,-11L-15.5,-11L-15.5,-11L-15.5,-11L-15.5,-11" fill="rgba(0,0,100,1)" />
<path d="M-15.5,-11L-15.5,-11L-15.5,-11L-15.5,-11L-15.5,-11" fill="rgba(0,0,0,0)" />
<path d="M-15.5,-11L-15.5,-11L-15.5,-11L-15.5,-11L-15.5,-11" fill="rgba(0,0,0,0)" />
<path d="M-15.5,-11L-15.5,-11L-15.5,-11L-15.5,-11L-15.5,-11" fill="rgba(0,0,0,0)" />
<path d="M-15.5,-11L-15.5,-11L-15.5,-11L-15.5,-11L-15.5,-11" fill="rgba(0,0,100,1)" />
<path d="M-15.5,-11L-15.5,-11" />
<path d="M-15.5,-11L-15.5,-11L-15.5,-11L-15.5,-11L-15.5,-11" fill="rgba(0,0,100,1)" />
<path d="M-15.5,-11L-15.5,-11L-15.5,-11L-15.5,-11L-15.5,-11" fill="rgba(0,0,0,0)" />
<path d="M-15.5,-11L-15.5,-11L-15.5,-11L-15.5,-11L-15.5,-11" fill="rgba(0,0,0,0)" />
<path d="M-15.5,-11L-15.5,-11L-15.5,-11L-15.5,-11L-15.5,-11" fill="rgba(0,0,0,0)" />
<path d="M-15.5,-11L-15.5,-11L-15.5,-11L-15.5,-11L-15.5,-11" fill="rgba(0,0,100,1)" />
<path d="M-15.5,-11L-15.5,-11" />
<path d="M-15.5,-11L-15.5,-11L-15.5,-11L-15.5,-11L-15.5,-11" fill="rgba(0,0,100,1)" />
<path d="M-15.5,-11L-15.5,-11L-15.5,-11L-15.5,-11L-15.5,-11" fill="rgba(0,0,100,1)" />
<path d="M-15.5,-11L-15.5,-11L-15.5,-11L-15.5,-11L-15.5,-11" fill="rgba(0,0,100,1)" />
<path d="M-15.5,-11L-15.5,-11L-15.5,-11L-15.5,-11L-15.5,-11" fill="rgba(0,0,100,1)" />
<path d="M-15.5,-11L-15.5,-11L-15.5,-11L-15.5,-11L-15.5,-11" fill="rgba(0,0,100,1)" />
<path d="M-15.5,-11L-15.5,-11" />
<path d="M-15.5,-11L-15.5,-11L-15.5,-11L-15.5,-11L-15.5,-11" fill="rgba(0,0,100,1)" />
<path d="M-15.5,-11L-15.5,-11L-15.5,-11L-15.5,-11L-15.5,-11" fill="rgba(0,0,0,0)" />
<path d="M-15.5,-11L-15.5,-11L-15.5,-11L-15.5,-11L-15.5,-11" fill="rgba(0,0,100,1)" />
<path d="M-15.5,-11L-15.5,-11L-15.5,-11L-15.5,-11L-15.5,-11" fill="rgba(0,0,0,0)" />
<path d="M-15.5,-11L-15.5,-11L-15.5,-11L-15.5,-11L-15.5,-11" fill="rgba(0,0,100,1)" />
<path d="M-15.5,-11L-15.5,-11" />
<path d="M-15.5,-11L-15.5,-11L-15.5,-11L-15.5,-11L-15.5,-11" fill="rgba(0,0,100,1)" />
<path d="M-15.5,-11L-15.5,-11L-15.5,-11L-15.5,-11L-15.5,-11" fill="rgba(0,0,0,0)" />
<path d="M-15.5,-11L-15.5,-11L-15.5,-11L-15.5,-11L-15.5,-11" fill="rgba(0,0,100,1)" />
<path d="M-15.5,-11L-15.5,-11L-15.5,-11L-15.5,-11L-15.5,-11" fill="rgba(0,0,0,0)" />
<path d="M-15.5,-11L-15.5,-11L-15.5,-11L-15.5,-11L-15.5,-11" fill="rgba(0,0,100,1)" />
<path d="M-15.5,-11L-15.5,-11" />
<path d="M-15.5,-11L-15.5,-11L-15.5,-11L-15.5,-11L-15.5,-11" fill="rgba(0,0,100,1)" />
<path d="M-15.5,-11L-15.5,-11L-15.5,-11L-15.5,-11L-15.5,-11" fill="rgba(0,0,0,0)" />
<path d="M-15.5,-11L-15.5,-11L-15.5,-11L-15.5,-11L-15.5,-11" fill="rgba(0,0,100,1)" />
<path d="M-15.5,-11L-15.5,-11L-15.5,-11L-15.5,-11L-15.5,-11" fill="rgba(0,0,0,0)" />
<path d="M-15.5,-11L-15.5,-11L-15.5,-11L-15.5,-11L-15.5,-11" fill="rgba(0,0,100,1)" />
<path d="M-15.5,-11L-15.5,-11" />
<path d="M-15.5,-11L-15.5,-11L-15.5,-11L-15.5,-11L-15.5,-11" fill="rgba(0,0,100,1)" />
<path d="M-15.5,-11L-15.5,-11L-15.5,-11L-15.5,-11L-15.5,-11" fill="rgba(0,0,100,1)" />
<path d="M-15.5,-11L-15.5,-11L-15.5,-11L-15.5,-11L-15.5,-11" fill="rgba(0,0,100,1)" />
<path d="M-15.5,-11L-15.5,-11L-15.5,-11L-15.5,-11L-15.5,-11" fill="rgba(0,0,100,1)" />
<path d="M-15.5,-11L-15.5,-11L-15.5,-11L-15.5,-11L-15.5,-11" fill="rgba(0,0,100,1)" />
<path d="M-15.5,-11L-15.5,-11" />
<path d="M-15.5,-11L-15.5,-11L-15.5,-11L-15.5,-11L-15.5,-11" fill="rgba(0,0,0,0)" />
<path d="M-15.5,-11L-15.5,-11L-15.5,-11L-15.5,-11L-15.5,-11" fill="rgba(0,0,0,0)" />
<path d="M-15.5,-11L-15.5,-11L-15.5,-11L-15.5,-11L-15.5,-11" fill="rgba(0,0,100,1)" />
<path d="M-15.5,-11L-15.5,-11L-15.5,-11L-15.5,-11L-15.5,-11" fill="rgba(0,0,0,0)" />
<path d="M-15.5,-11L-15.5,-11L-15.5,-11L-15.5,-11L-15.5,-11" fill="rgba(0,0,100,1)" />
<path d="M-15.5,-11L-15.5,-11" />
<path d="M-15.5,-11L-15.5,-11L-15.5,-11L-15.5,-11L-15.5,-11" fill="rgba(0,0,0,0)" />
<path d="M-15.5,-11L-15.5,-11L-15.5,-11L-15.5,-11L-15.5,-11" fill="rgba(0,0,0,0)" />
<path d="M-15.5,-11L-15.5,-11L-15.5,-11L-15.5,-11L-15.5,-11" fill="rgba(0,0,100,1)" />
<path d="M-15.5,-11L-15.5,-11L-15.5,-11L-15.5,-11L-15.5,-11" fill="rgba(0,0,100,1)" />
<path d="M-15.5,-11L-15.5,-11L-15.5,-11L-15.5,-11L-15.5,-11" fill="rgba(0,0,100,1)" />
<path d="M-15.5,-11L-15.5,-11" />
<path d="M-15.5,-11L-15.5,-11L-15.5,-11L-15.5,-11L-15.5,-11" fill="rgba(0,0,0,0)" />
<path d="M-15.5,-11L-15.5,-11L-15.5,-11L-15.5,-11L-15.5,-11" fill="rgba(0,0,0,0)" />
<path d="M-15.5,-11L-15.5,-11L-15.5,-11L-15.5,-11L-15.5,-11" fill="rgba(0,0,0,0)" />
<path d="M-15.5,-11L-15.5,-11L-15.5,-11L-15.5,-11L-15.5,-11" fill="rgba(0,0,0,0)" />
<path d="M-15.5,-11L-15.5,-11L-15.5,-11L-15.5,-11L-15.5,-11" fill="rgba(0,0,100,1)" />
<path d="M-15.5,-11L-15.5,-11" />
<path d="M-15.5,-11L-15.5,-11L-15.5,-11L-15.5,-11L-15.5,-11" fill="rgba(0,0,100,1)" />
<path d="M-15.5,-11L-15.5,-11L-15.5,-11L-15.5,-11L-15.5,-11" fill="rgba(0,0,100,1)" />
<path d="M-15.5,-11L-15.5,-11L-15.5,-11L-15.5,-11L-15.5,-11" fill="rgba(0,0,100,1)" />
<path d="M-15.5,-11L-15.5,-11L-15.5,-11L-15.5,-11L-15.5,-11" fill="rgba(0,0,100,1)" />
<path d="M-15.5,-11L-15.5,-11L-15.5,-11L-15.5,-11L-15.5,-11" fill="rgba(0,0,100,1)" />
<path d="M-15.5,-11L-15.5,-11" />
<path d="M-15.5,-11L-15.5,-11L-15.5,-11L-15.5,-11L-15.5,-11" fill="rgba(0,0,0,0)" />
<path d="M-15.5,-11L-15.5,-11L-15.5,-11L-15.5,-11L-15.5,-11" fill="rgba(0,0,0,0)" />
<path d="M-15.5,-11L-15.5,-11L-15.5,-11L-15.5,-11L-15.5,-11" fill="rgba(0,0,0,0)" />
<path d="M-15.5,-11L-15.5,-11L-15.5,-11L-15.5,-11L-15.5,-11" fill="rgba(0,0,0,0)" />
<path d="M-15.5,-11L-15.5,-11L-15.5,-11L-15.5,-11L-15.5,-11" fill="rgba(0,0,100,1)" />
<path d="M-15.5,-11L-15.5,-11" />
<path d="M-15.5,-11L-15.5,-11L-15.5,-11L-15.5,-11L-15.5,-11" fill="rgba(0,0,100,1)" />
<path d="M-15.5,-11L-15.5,-11L-15.5,-11L-15.5,-11L-15.5,-11" fill="rgba(0,0,100,1)" />
<path d="M-15.5,-11L-15.5,-11L-15.5,-11L-15.5,-11L-15.5,-11" fill="rgba(0,0,100,1)" />
<path d="M-15.5,-11L-15.5,-11L-15.5,-11L-15.5,-11L-15.5,-11" fill="rgba(0,0,100,1)" />
<path d="M-15.5,-11L-15.5,-11L-15.5,-11L-15.5,-11L-15.5,-11" fill="rgba(0,0,0,0)" />
<path d="M-15.5,-11L-15.5,-11" />
<path d="M-15.5,-11L-15.5,-11L-15.5,-11L-15.5,-11L-15.5,-11" fill="rgba(0,0,0,0)" />
<path d="M-15.5,-11L-15.5,-11L-15.5,-11L-15.5,-11L-15.5,-11" fill="rgba(0,0,100,1)" />
<path d="M-15.5,-11L-15.5,-11L-15.5,-11L-15.5,-11L-15.5,-11" fill="rgba(0,0,0,0)" />
<path d="M-15.5,-11L-15.5,-11L-15.5,-11L-15.5,-11L-15.5,-11" fill="rgba(0,0,0,0)" />
<path d="M-15.5,-11L-15.5,-11L-15.5,-11L-15.5,-11L-15.5,-11" fill="rgba(0,0,100,1)" />
<path d="M-15.5,-11L-15.5,-11" />
<path d="M-15.5,-11L-15.5,-11L-15.5,-11L-15.5,-11L-15.5,-11" fill="rgba(0,0,0,0)" />
<path d="M-15.5,-11L-15.5,-11L-15.5,-11L-15.5,-11L-15.5,-11" fill="rgba(0,0,100,1)" />
<path d="M-15.5,-11L-15.5,-11L-15.5,-11L-15.5,-11L-15.5,-11" fill="rgba(0,0,0,0)" />
<path d="M-15.5,-11L-15.5,-11L-15.5,-11L-15.5,-11L-15.5,-11" fill="rgba(0,0,0,0)" />
<path d="M-15.5,-11L-15.5,-11L-15.5,-11L-15.5,-11L-15.5,-11" fill="rgba(0,0,100,1)" />
<path d="M-15.5,-11L-15.5,-11" />
<path d="M-15.5,-11L-15.5,-11L-15.5,-11L-15.5,-11L-15.5,-11" fill="rgba(0,0,100,1)" />
<path d="M-15.5,-11L-15.5,-11L-15.5,-11L-15.5,-11L-15.5,-11" fill="rgba(0,0,100,1)" />
<path d="M-15.5,-11L-15.5,-11L-15.5,-11L-15.5,-11L-15.5,-11" fill="rgba(0,0,100,1)" />
<path d="M-15.5,-11L-15.5,-11L-15.5,-11L-15.5,-11L-15.5,-11" fill="rgba(0,0,100,1)" />
<path d="M-15.5,-11L-15.5,-11L-15.5,-11L-15.5,-11L-15.5,-11" fill="rgba(0,0,0,0)" />
<path d="M-15.5,-11L-15.5,-11" />
<path d="M-15.5,-11L-15.5,-11L-15.5,-11L-15.5,-11L-15.5,-11" fill="rgba(0,0,100,1)" />
<path d="M-15.5,-11L-15.5,-11L-15.5,-11L-15.5,-11L-15.5,-11" fill="rgba(0,0,100,1)" />
<path d="M-15.5,-11L-15.5,-11L-15.5,-11L-15.5,-11L-15.5,-11" fill="rgba(0,0,100,1)" />
<path d="M-15.5,-11L-15.5,-11L-15.5,-11L-15.5,-11L-15.5,-11" fill="rgba(0,0,100,1)" />
<path d="M-15.5,-11L-15.5,-11L-15.5,-11L-15.5,-11L-15.5,-11" fill="rgba(0,0,100,1)" />
<path d="M-15.5,-11L-15.5,-11" />
<path d="M-15.5,-11L-15.5,-11L-15.5,-11L-15.5,-11L-15.5,-11" fill="rgba(0,0,0,0)" />
<path d="M-15.5,-11L-15.5,-11L-15.5,-11L-15.5,-11L-15.5,-11" fill="rgba(0,0,0,0)" />
<path d="M-15.5,-11L-15.5,-11L-15.5,-11L-15.5,-11L-15.5,-11" fill="rgba(0,0,0,0)" />
<path d="M-15.5,-11L-15.5,-11L-15.5,-11L-15.5,-11L-15.5,-11" fill="rgba(0,0,100,1)" />
<path d="M-15.5,-11L-15.5,-11L-15.5,-11L-15.5,-11L-15.5,-11" fill="rgba(0,0,0,0)" />
<path d="M-15.5,-11L-15.5,-11" />
<path d="M-15.5,-11L-15.5,-11L-15.5,-11L-15.5,-11L-15.5,-11" fill="rgba(0,0,0,0)" />
<path d="M-15.5,-11L-15.5,-11L-15.5,-11L-15.5,-11L-15.5,-11" fill="rgba(0,0,0,0)" />
<path d="M-15.5,-11L-15.5,-11L-15.5,-11L-15.5,-11L-15.5,-11" fill="rgba(0,0,100,1)" />
<path d="M-15.5,-11L-15.5,-11L-15.5,-11L-15.5,-11L-15.5,-11" fill="rgba(0,0,0,0)" />
<path d="M-15.5,-11L-15.5,-11L-15.5,-11L-15.5,-11L-15.5,-11" fill="rgba(0,0,0,0)" />
<path d="M-15.5,-11L-15.5,-11" />
<path d="M-15.5,-11L-15.5,-11L-15.5,-11L-15.5,-11L-15.5,-11" fill="rgba(0,0,0,0)" />
<path d="M-15.5,-11L-15.5,-11L-15.5,-11L-15.5,-11L-15.5,-11" fill="rgba(0,0,100,1)" />
<path d="M-15.5,-11L-15.5,-11L-15.5,-11L-15.5,-11L-15.5,-11" fill="rgba(0,0,0,0)" />
<path d="M-15.5,-11L-15.5,-11L-15.5,-11L-15.5,-11L-15.5,-11" fill="rgba(0,0,0,0)" />
<path d="M-15.5,-11L-15.5,-11L-15.5,-11L-15.5,-11L-15.5,-11" fill="rgba(0,0,0,0)" />
<path d="M-15.5,-11L-15.5,-11" />
<path d="M-15.5,-11L-15.5,-11L-15.5,-11L-15.5,-11L-15.5,-11" fill="rgba(0,0,100,1)" />
<path d="M-15.5,-11L-15.5,-11L-15.5,-11L-15.5,-11L-15.5,-11" fill="rgba(0,0,100,1)" />
<path d="M-15.5,-11L-15.5,-11L-15.5,-11L-15.5,-11L-15.5,-11" fill="rgba(0,0,100,1)" />
<path d="M-15.5,-11L-15.5,-11L-15.5,-11L-15.5,-11L-15.5,-11" fill="rgba(0,0,100,1)" />
<path d="M-15.5,-11L-15.5,-11L-15.5,-11L-15.5,-11L-15.5,-11" fill="rgba(0,0,100,1)" />
<path d="M-15.5,-11L-15.5,-11" />
<path d="M-15.5,-11L-15.5,-11L-15.5,-11L-15.5,-11L-15.5,-11" fill="rgba(0,0,0,0)" />
<path d="M-15.5,-11L-15.5,-11L-15.5,-11L-15.5,-11L-15.5,-11" fill="rgba(0,0,100,1)" />
<path d="M-15.5,-11L-15.5,-11L-15.5,-11L-15.5,-11L-15.5,-11" fill="rgba(0,0,100,1)" />
<path d="M-15.5,-11L-15.5,-11L-15.5,-11L-15.5,-11L-15.5,-11" fill="rgba(0,0,100,1)" />
<path d="M-15.5,-11L-15.5,-11L-15.5,-11L-15.5,-11L-15.5,-11" fill="rgba(0,0,0,0)" />
<path d="M-15.5,-11L-15.5,-11" />
<path d="M-15.5,-11L-15.5,-11L-15.5,-11L-15.5,-11L-15.5,-11" fill="rgba(0,0,100,1)" />
<path d="M-15.5,-11L-15.5,-11L-15.5,-11L-15.5,-11L-15.5,-11" fill="rgba(0,0,0,0)" />
<path d="M-15.5,-11L-15.5,-11L-15.5,-11L-15.5,-11L-15.5,-11" fill="rgba(0,0,0,0)" />
<path d="M-15.5,-11L-15.5,-11L-15.5,-11L-15.5,-11L-15.5,-11" fill="rgba(0,0,0,0)" />
<path d="M-15.5,-11L-15.5,-11L-15.5,-11L-15.5,-11L-15.5,-11" fill="rgba(0,0,100,1)" />
<path d="M-15.5,-11L-15.5,-11" />
<path d="M-15.5,-11L-15.5,-11L-15.5,-11L-15.5,-11L-15.5,-11" fill="rgba(0,0,100,1)" />
<path d="M-15.5,-11L-15.5,-11L-15.5,-11L-15.5,-11L-15.5,-11" fill="rgba(0,0,0,0)" />
<path d="M-15.5,-11L-15.5,-11L-15.5,-11L-15.5,-11L-15.5,-11" fill="rgba(0,0,0,0)" />
<path d="M-15.5,-11L-15.5,-11L-15.5,-11L-15.5,-11L-15.5,-11" fill="rgba(0,0,0,0)" />
<path d="M-15.5,-11L-15.5,-11L-15.5,-11L-15.5,-11L-15.5,-11" fill="rgba(0,0,100,1)" />
<path d="M-15.5,-11L-15.5,-11" />
<path d="M-15.5,-11L-15.5,-11L-15.5,-11L-15.5,-11L-15.5,-11" fill="rgba(0,0,100,1)" />
<path d="M-15.5,-11L-15.5,-11L-15.5,-11L-15.5,-11L-15.5,-11" fill="rgba(0,0,0,0)" />
<path d="M-15.5,-11L-15.5,-11L-15.5,-11L-15.5,-11L-15.5,-11" fill="rgba(0,0,0,0)" />
<path d="M-15.5,-11L-15.5,-11L-15.5,-11L-15.5,-11L-15.5,-11" fill="rgba(0,0,0,0)" />
<path d="M-15.5,-11L-15.5,-11L-15.5,-11L-15.5,-11L-15.5,-11" fill="rgba(0,0,100,1)" />
<path d="M-15.5,-11L-15.5,-11" />
<path d="M-15.5,-11L-15.5,-11L-15.5,-11L-15.5,-11L-15.5,-11" fill="rgba(0,0,100,1)" />
<path d="M-15.5,-11L-15.5,-11L-15.5,-11L-15.5,-11L-15.5,-11" fill="rgba(0,0,100,1)" />
<path d="M-15.5,-11L-15.5,-11L-15.5,-11L-15.5,-11L-15.5,-11" fill="rgba(0,0,100,1)" />
<path d="M-15.5,-11L-15.5,-11L-15.5,-11L-15.5,-11L-15.5,-11" fill="rgba(0,0,100,1)" />
<path d="M-15.5,-11L-15.5,-11L-15.5,-11L-15.5,-11L-15.5,-11" fill="rgba(0,0,100,1)" />
<path d="M-15.5,-11L-15.5,-11" />
<path d="M-15.5,-11L-15.5,-11L-15.5,-11L-15.5,-11L-15.5,-11" fill="rgba(0,0,100,1)" />
<path d="M-15.5,-11L-15.5,-11L-15.5,-11L-15.5,-11L-15.5,-11" fill="rgba(0,0,0,0)" />
<path d="M-15.5,-11L-15.5,-11L-15.5,-11L-15.5,-11L-15.5,-11" fill="rgba(0,0,100,1)" />
<path d="M-15.5,-11L-15.5,-11L-15.5,-11L-15.5,-11L-15.5,-11" fill="rgba(0,0,0,0)" />
<path d="M-15.5,-11L-15.5,-11L-15.5,-11L-15.5,-11L-15.5,-11" fill="rgba(0,0,100,1)" />
<path d="M-15.5,-11L-15.5,-11" />
<path d="M-15.5,-11L-15.5,-11L-15.5,-11L-15.5,-11L-15.5,-11" fill="rgba(0,0,100,1)" />
<path d="M-15.5,-11L-15.5,-11L-15.5,-11L-15.5,-11L-15.5,-11" fill="rgba(0,0,0,0)" />
<path d="M-15.5,-11L-15.5,-11L-15.5,-11L-15.5,-11L-15.5,-11" fill="rgba(0,0,100,1)" />
<path d="M-15.5,-11L-15.5,-11L-15.5,-11L-15.5,-11L-15.5,-11" fill="rgba(0,0,0,0)" />
<path d="M-15.5,-11L-15.5,-11L-15.5,-11L-15.5,-11L-15.5,-11" fill="rgba(0,0,100,1)" />
<path d="M-15.5,-11L-15.5,-11" />
<path d="M-15.5,-11L-15.5,-11L-15.5,-11L-15.5,-11L-15.5,-11" fill="rgba(0,0,100,1)" />
<path d="M-15.5,-11L-15.5,-11L-15.5,-11L-15.5,-11L-15.5,-11" fill="rgba(0,0,0,0)" />
<path d="M-15.5,-11L-15.5,-11L-15.5,-11L-15.5,-11L-15.5,-11" fill="rgba(0,0,100,1)" />
<path d="M-15.5,-11L-15.5,-11L-15.5,-11L-15.5,-11L-15.5,-11" fill="rgba(0,0,0,0)" />
<path d="M-15.5,-11L-15.5,-11L-15.5,-11L-15.5,-11L-15.5,-11" fill="rgba(0,0,100,1)" />
<path d="M-15.5,-11L-15.5,-11" stroke="rgba(0,133,133,1)" stroke-width="1" />
<path d="M-15.5,-11L-15.5,-11" stroke-width="1" stroke="rgba(0,133,133,1)" />
<path d="M-15.5,-11L-15.5,-11" stroke="rgba(0,133,133,1)" stroke-width="1" />
<path d="M-15.5,-11L-15.5,-11" stroke="rgba(0,133,133,1)" stroke-width="1" />
<path d="M-15.5,-11L-15.5,-11" stroke-width="1" stroke="rgba(0,133,133,1)" />
<path d="M-15.5,-11L-15.5,-11" stroke="rgba(0,133,133,1)" stroke-width="1" />
<path d="M-15.5,-11L-15.5,-11" stroke-width="1" stroke="rgba(0,133,133,1)" />
<path d="M-15.5,-11L-15.5,-11" stroke="rgba(0,133,133,1)" stroke-width="1" />
<path d="M-15.5,-11L-15.5,-11" stroke-width="1" stroke="rgba(0,133,133,1)" />
<path d="M-15.5,-11L-15.5,-11" stroke="rgba(0,133,133,1)" stroke-width="1" />
<path d="M-15.5,-11L-15.5,-11" stroke="rgba(0,133,133,1)" stroke-width="1" />
<path d="M-15.5,-11L-15.5,-11" stroke="rgba(0,133,133,1)" stroke-width="1" />
<path d="M-15.5,-11L-15.5,-11" stroke="rgba(0,133,133,1)" stroke-width="1" />
<path d="M-15.5,-11L-15.5,-11" stroke="rgba(0,133,133,1)" stroke-width="1" />
<path d="M-15.5,-11L-15.5,-11" stroke="rgba(0,133,133,1)" stroke-width="1" />
<path d="M-15.5,-11L-15.5,-11" stroke="rgba(0,133,133,1)" stroke-width="1" />
<path d="M-15.5,-11L-15.5,-11" stroke-width="1" stroke="rgba(0,133,133,1)" />
<path d="M-15.5,-11L-15.5,-11" stroke="rgba(0,133,133,1)" stroke-width="1" />
<path d="M-15.5,-11L-15.5,-11" stroke-width="1" stroke="rgba(0,133,133,1)" />
<path d="M-15.5,-11L-15.5,-11" stroke="rgba(0,133,133,1)" stroke-width="1" />
<path d="M-15.5,-11L-15.5,-11" stroke="rgba(0,133,133,1)" stroke-width="1" />
<path d="M-15.5,-11L-15.5,-11" stroke="rgba(0,133,133,1)" stroke-width="1" />
<path d="M-15.5,-11L-15.5,-11" stroke="rgba(0,133,133,1)" stroke-width="1" />
<path d="M-15.5,-11L-15.5,-11" stroke="rgba(0,133,133,1)" stroke-width="1" />
<path d="M-15.5,-11L-15.5,-11" stroke-width="1" stroke="rgba(0,133,133,1)" />
<path d="M-15.5,-11L-15.5,-11" stroke="rgba(0,133,133,1)" stroke-width="1" />
<path d="M-15.5,-11L-15.5,-11" stroke="rgba(0,133,133,1)" stroke-width="1" />
<path d="M-15.5,-11L-15.5,-11" stroke-width="1" stroke="rgba(0,133,133,1)" />
<path d="M-15.5,-11L-15.5,-11" stroke="rgba(0,133,133,1)" stroke-width="1" />
<path d="M-15.5,-11L-15.5,-11" stroke-width="1" stroke="rgba(0,133,133,1)" />
<path d="M-15.5,-11L-15.5,-11" stroke="rgba(0,133,133,1)" stroke-width="1" />
<path d="M-15.5,-11L-15.5,-11" stroke-width="1" stroke="rgba(0,133,133,1)" />
<path d="M-15.5,-11L-15.5,-11" stroke-width="1" stroke="rgba(0,133,133,1)" />
<path d="M-15.5,-11L-15.5,-11" stroke-width="1" stroke="rgba(0,133,133,1)" />
<path d="M-15.5,-11L-15.5,-11" stroke="rgba(0,133,133,1)" stroke-width="1" />
<path d="M-15.5,-11L-15.5,-11" stroke="rgba(0,133,133,1)" stroke-width="1" />
<path d="M-15.5,-11L-15.5,-11" stroke="rgba(0,133,133,1)" stroke-width="1" />
<path d="M-15.5,-11L-15.5,-11" stroke="rgba(0,133,133,1)" stroke-width="1" />
<path d="M-15.5,-11L-15.5,-11" stroke-width="1" stroke="rgba(0,133,133,1)" />
<path d="M-15.5,-11L-15.5,-11" stroke="rgba(0,133,133,1)" stroke-width="1" />
<path d="M-15.5,-11L-15.5,-11" stroke="rgba(0,133,133,1)" stroke-width="1" />
<path d="M-15.5,-11L-15.5,-11" stroke-width="1" stroke="rgba(0,133,133,1)" />
<path d="M-15.5,-11L-15.5,-11" stroke="rgba(0,133,133,1)" stroke-width="1" />
<path d="M-15.5,-11L-15.5,-11" stroke="rgba(0,133,133,1)" stroke-width="1" />
<path d="M-15.5,-11L-15.5,-11" stroke="rgba(0,133,133,1)" stroke-width="1" />
<path d="M-15.5,-11L-15.5,-11" stroke-width="1" stroke="rgba(0,133,133,1)" />
<path d="M-15.5,-11L-15.5,-11" stroke="rgba(0,133,133,1)" stroke-width="1" />
<path d="M-15.5,-11L-15.5,-11" stroke-width="1" stroke="rgba(0,133,133,1)" />
<path d="M-15.5,-11L-15.5,-11" stroke="rgba(0,133,133,1)" stroke-width="1" />
<path d="M-15.5,-11L-15.5,-11" stroke-width="1" stroke="rgba(0,133,133,1)" />
<path d="M-15.5,-11L-15.5,-11" stroke-width="1" stroke="rgba(0,133,133,1)" />
<path d="M-15.5,-11L-15.5,-11" stroke-width="1" stroke="rgba(0,133,133,1)" />
<path d="M-15.5,-11L-15.5,-11" stroke-width="1" stroke="rgba(0,133,133,1)" />
<path d="M-15.5,-11L-15.5,-11" stroke="rgba(0,133,133,1)" stroke-width="1" />
<path d="M-15.5,-11L-15.5,-11" stroke-width="1" stroke="rgba(0,133,133,1)" />
<path d="M-15.5,-11L-15.5,-11" stroke-width="1" stroke="rgba(0,133,133,1)" />
<path d="M-15.5,-11L-15.5,-11" stroke="rgba(0,133,133,1)" stroke-width="1" />
<path d="M-15.5,-11L-15.5,-11" stroke="rgba(0,133,133,1)" stroke-width="1" />
<path d="M-15.5,-11L-15.5,-11" stroke-width="1" stroke="rgba(0,133,133,1)" />
<path d="M-15.5,-11L-15.5,-11" stroke-width="1" stroke="rgba(0,133,133,1)" />
<path d="M-15.5,-11L-15.5,-11" stroke-width="1" stroke="rgba(0,133,133,1)" />
<path d="M-15.5,-11L-15.5,-11" stroke-width="1" stroke="rgba(0,133,133,1)" />
<path d="M-15.5,-11L-15.5,-11" stroke-width="1" stroke="rgba(0,133,133,1)" />
<path d="M-15.5,-11L-15.5,-11" stroke-width="1" stroke="rgba(0,133,133,1)" />
<path d="M-15.5,-11L-15.5,-11" stroke-width="1" stroke="rgba(0,133,133,1)" />
<path d="M-15.5,-11L-15.5,-11" stroke-width="1" stroke="rgba(0,133,133,1)" />
<path d="M-15.5,-11L-15.5,-11" stroke-width="1" stroke="rgba(0,133,133,1)" />
<path d="M-15.5,-11L-15.5,-11" stroke="rgba(0,133,133,1)" stroke-width="1" />
<path d="M-15.5,-11L-15.5,-11" stroke="rgba(0,133,133,1)" stroke-width="1" />
<path d="M-15.5,-11L-15.5,-11" stroke="rgba(0,133,133,1)" stroke-width="1" />
<path d="M-15.5,-11L-15.5,-11" stroke="rgba(0,133,133,1)" stroke-width="1" />
<path d="M-15.5,-11L-15.5,-11" stroke="rgba(0,133,133,1)" stroke-width="1" />
<path d="M-15.5,-11L-15.5,-11" stroke="rgba(0,133,133,1)" stroke-width="1" />
<path d="M-15.5,-11L-15.5,-11" stroke="rgba(0,133,133,1)" stroke-width="1" />
<path d="M-15.5,-11L-15.5,-11" stroke="rgba(0,133,133,1)" stroke-width="1" />
<path d="M-15.5,-11L-15.5,-11" stroke-width="1" stroke="rgba(0,133,133,1)" />
<path d="M-15.5,-11L-15.5,-11" stroke-width="1" stroke="rgba(0,133,133,1)" />
<path d="M-15.5,-11L-15.5,-11" stroke="rgba(0,133,133,1)" stroke-width="1" />
<path d="M-15.5,-11L-15.5,-11" stroke="rgba(0,133,133,1)" stroke-width="1" />
<path d="M-15.5,-11L-15.5,-11" stroke-width="1" stroke="rgba(0,133,133,1)" />
<path d="M-15.5,-11L-15.5,-11" stroke-width="1" stroke="rgba(0,133,133,1)" />
<path d="M-15.5,-11L-15.5,-11" stroke-width="1" stroke="rgba(0,133,133,1)" />
<path d="M-15.5,-11L-15.5,-11" stroke="rgba(0,133,133,1)" stroke-width="1" />
<path d="M-15.5,-11L-15.5,-11" stroke="rgba(0,133,133,1)" stroke-width="1" />
<path d="M-15.5,-11L-15.5,-11" stroke-width="1" stroke="rgba(0,133,133,1)" />
<path d="M-15.5,-11L-15.5,-11" stroke="rgba(0,133,133,1)" stroke-width="1" />
<path d="M-15.5,-11L-15.5,-11" stroke="rgba(0,133,133,1)" stroke-width="1" />
<path d="M-15.5,-11L-15.5,-11" stroke="rgba(0,133,133,1)" stroke-width="1" />
<path d="M-15.5,-11L-15.5,-11" stroke="rgba(0,133,133,1)" stroke-width="1" />
<path d="M-15.5,-11L-15.5,-11" stroke="rgba(0,133,133,1)" stroke-width="1" />
<path d="M-15.5,-11L-15.5,-11" stroke="rgba(0,133,133,1)" stroke-width="1" />
<path d="M-15.5,-11L-15.5,-11" stroke="rgba(0,133,133,1)" stroke-width="1" />
<path d="M-15.5,-11L-15.5,-11" stroke="rgba(0,133,133,1)" stroke-width="1" />
<path d="M-15.5,-11L-15.5,-11" stroke="rgba(0,133,133,1)" stroke-width="1" />
<path d="M-15.5,-11L-15.5,-11" stroke-width="1" stroke="rgba(0,133,133,1)" />
<path d="M-15.5,-11L-15.5,-11" stroke="rgba(0,133,133,1)" stroke-width="1" />
<path d="M-15.5,-11L-15.5,-11" stroke-width="1" stroke="rgba(0,133,133,1)" />
<path d="M-15.5,-11L-15.5,-11" stroke-width="1" stroke="rgba(0,133,133,1)" />
<path d="M-15.5,-11L-15.5,-11" stroke-width="1" stroke="rgba(0,133,133,1)" />
<path d="M-15.5,-11L-15.5,-11" stroke-width="1" stroke="rgba(0,133,133,1)" />
<path d="M-15.5,-11L-15.5,-11" stroke-width="1" stroke="rgba(0,133,133,1)" />
<path d="M-15.5,-11L-15.5,-11" stroke="rgba(0,133,133,1)" stroke-width="1" />
<path d="M-15.5,-11L-15.5,-11" stroke-width="1" stroke="rgba(0,133,133,1)" />
<path d="M-15.5,-11L-15.5,-11" stroke="rgba(0,133,133,1)" stroke-width="1" />
<path d="M-15.5,-11L-15.5,-11" stroke-width="1" stroke="rgba(0,133,133,1)" />
<path d="M-15.5,-11L-15.5,-11" stroke="rgba(0,133,133,1)" stroke-width="1" />
<path d="M-15.5,-11L-15.5,-11" stroke-width="1" stroke="rgba(0,133,133,1)" />
<path d="M-15.5,-11L-15.5,-11" stroke-width="1" stroke="rgba(0,133,133,1)" />
<path d="M-15.5,-11L-15.5,-11" stroke-width="1" stroke="rgba(0,133,133,1)" />
<path d="M-15.5,-11L-15.5,-11" stroke="rgba(0,133,133,1)" stroke-width="1" />
<path d="M-15.5,-11L-15.5,-11" stroke="rgba(0,133,133,1)" stroke-width="1" />
<path d="M-15.5,-11L-15.5,-11" stroke-width="1" stroke="rgba(0,133,133,1)" />
<path d="M-15.5,-11L-15.5,-11" stroke="rgba(0,133,133,1)" stroke-width="1" />
<path d="M-15.5,-11L-15.5,-11" stroke-width="1" stroke="rgba(0,133,133,1)" />
<path d="M-15.5,-11L-15.5,-11" stroke-width="1" stroke="rgba(0,133,133,1)" />
<path d="M-15.5,-11L-15.5,-11" stroke="rgba(0,133,133,1)" stroke-width="1" />
<path d="M-15.5,-11L-15.5,-11" stroke="rgba(0,133,133,1)" stroke-width="1" />
<path d="M-15.5,-11L-15.5,-11" stroke="rgba(0,133,133,1)" stroke-width="1" />
</svg>
