<svg xmlns="http://www.w3.org/2000/svg" viewBox="-1 -1 73 7">
<path d="M0,0L0,0" />
<path d="M1,5L1,5" />
<path d="M1,5L2,5L2,4L1,4L1,5" fill="rgba(0,0,100,1)" />
<path d="M1,4L2,4L2,3L1,3L1,4" fill="rgba(0,0,100,1)" />
<path d="M1,3L2,3L2,2L1,2L1,3" fill="rgba(0,0,100,1)" />
<path d="M1,2L2,2L2,1L1,1L1,2" fill="rgba(0,0,100,1)" />
<path d="M1,1L2,1L2,0L1,0L1,1" fill="rgba(0,0,0,0)" />
<path d="M2,5L2,5" />
<path d="M2,5L3,5L3,4L2,4L2,5" fill="rgba(0,0,0,0)" />
<path d="M2,4L3,4L3,3L2,3L2,4" fill="rgba(0,0,100,1)" />
<path d="M2,3L3,3L3,2L2,2L2,3" fill="rgba(0,0,0,0)" />
<path d="M2,2L3,2L3,1L2,1L2,2" fill="rgba(0,0,0,0)" />
<path d="M2,1L3,1L3,0L2,0L2,1" fill="rgba(0,0,100,1)" />
<path d="M3,5L3,5" />
<path d="M3,5L4,5L4,4L3,4L3,5" fill="rgba(0,0,0,0)" />
<path d="M3,4L4,4L4,3L3,3L3,4" fill="rgba(0,0,100,1)" />
<path d="M3,3L4,3L4,2L3,2L3,3" fill="rgba(0,0,0,0)" />
<path d="M3,2L4,2L4,1L3,1L3,2" fill="rgba(0,0,0,0)" />
<path d="M3,1L4,1L4,0L3,0L3,1" fill="rgba(0,0,100,1)" />
<path d="M4,5L4,5" />
<path d="M4,5L5,5L5,4L4,4L4,5" fill="rgba(0,0,100,1)" />
<path d="M4,4L5,4L5,3L4,3L4,4" fill="rgba(0,0,100,1)" />
<path d="M4,3L5,3L5,2L4,2L4,3" fill="rgba(0,0,100,1)" />
<path d="M4,2L5,2L5,1L4,1L4,2" fill="rgba(0,0,100,1)" />
<path d="M4,1L5,1L5,0L4,0L4,1" fill="rgba(0,0,0,0)" />
<path d="M6,5L6,5" />
<path d="M6,5L7,5L7,4L6,4L6,5" fill="rgba(0,0,0,0)" />
<path d="M6,4L7,4L7,3L6,3L6,4" fill="rgba(0,0,100,1)" />
<path d="M6,3L7,3L7,2L6,2L6,3" fill="rgba(0,0,100,1)" />
<path d="M6,2L7,2L7,1L6,1L6,2" fill="rgba(0,0,100,1)" />
<path d="M6,1L7,1L7,0L6,0L6,1" fill="rgba(0,0,0,0)" />
<path d="M7,5L7,5" />
<path d="M7,5L8,5L8,4L7,4L7,5" fill="rgba(0,0,100,1)" />
<path d="M7,4L8,4L8,3L7,3L7,4" fill="rgba(0,0,0,0)" />
<path d="M7,3L8,3L8,2L7,2L7,3" fill="rgba(0,0,0,0)" />
<path d="M7,2L8,2L8,1L7,1L7,2" fill="rgba(0,0,0,0)" />
<path d="M7,1L8,1L8,0L7,0L7,1" fill="rgba(0,0,100,1)" />
<path d="M8,5L8,5" />
<path d="M8,5L9,5L9,4L8,4L8,5" fill="rgba(0,0,100,1)" />
<path d="M8,4L9,4L9,3L8,3L8,4" fill="rgba(0,0,0,0)" />
<path d="M8,3L9,3L9,2L8,2L8,3" fill="rgba(0,0,0,0)" />
<path d="M8,2L9,2L9,1L8,1L8,2" fill="rgba(0,0,0,0)" />
<path d="M8,1L9,1L9,0L8,0L8,1" fill="rgba(0,0,100,1)" />
<path d="M9,5L9,5" />
<path d="M9,5L10,5L10,4L9,4L9,5" fill="rgba(0,0,100,1)" />
<path d="M9,4L10,4L10,3L9,3L9,4" fill="rgba(0,0,0,0)" />
<path d="M9,3L10,3L10,2L9,2L9,3" fill="rgba(0,0,0,0)" />
<path d="M9,2L10,2L10,1L9,1L9,2" fill="rgba(0,0,0,0)" />
<path d="M9,1L10,1L10,0L9,0L9,1" fill="rgba(0,0,100,1)" />
<path d="M11,5L11,5" />
<path d="M11,5L12,5L12,4L11,4L11,5" fill="rgba(0,0,0,0)" />
<path d="M11,4L12,4L12,3L11,3L11,4" fill="rgba(0,0,100,1)" />
<path d="M11,3L12,3L12,2L11,2L11,3" fill="rgba(0,0,100,1)" />
<path d="M11,2L12,2L12,1L11,1L11,2" fill="rgba(0,0,100,1)" />
<path d="M11,1L12,1L12,0L11,0L11,1" fill="rgba(0,0,0,0)" />
<path d="M12,5L12,5" />
<path d="M12,5L13,5L13,4L12,4L12,5" fill="rgba(0,0,100,1)" />
<path d="M12,4L13,4L13,3L12,3L12,4" fill="rgba(0,0,0,0)" />
<path d="M12,3L13,3L13,2L12,2L12,3" fill="rgba(0,0,0,0)" />
<path d="M12,2L13,2L13,1L12,1L12,2" fill="rgba(0,0,0,0)" />
<path d="M12,1L13,1L13,0L12,0L12,1" fill="rgba(0,0,100,1)" />
<path d="M13,5L13,5" />
<path d="M13,5L14,5L14,4L13,4L13,5" fill="rgba(0,0,100,1)" />
<path d="M13,4L14,4L14,3L13,3L13,4" fill="rgba(0,0,0,0)" />
<path d="M13,3L14,3L14,2L13,2L13,3" fill="rgba(0,0,0,0)" />
<path d="M13,2L14,2L14,1L13,1L13,2" fill="rgba(0,0,0,0)" />
<path d="M13,1L14,1L14,0L13,0L13,1" fill="rgba(0,0,100,1)" />
<path d="M14,5L14,5" />
<path d="M14,5L15,5L15,4L14,4L14,5" fill="rgba(0,0,100,1)" />
<path d="M14,4L15,4L15,3L14,3L14,4" fill="rgba(0,0,0,0)" />
<path d="M14,3L15,3L15,2L14,2L14,3" fill="rgba(0,0,0,0)" />
<path d="M14,2L15,2L15,1L14,1L14,2" fill="rgba(0,0,0,0)" />
<path d="M14,1L15,1L15,0L14,0L14,1" fill="rgba(0,0,100,1)" />
<path d="M16,5L16,5" />
<path d="M16,5L17,5L17,4L16,4L16,5" fill="rgba(0,0,100,1)" />
<path d="M16,4L17,4L17,3L16,3L16,4" fill="rgba(0,0,100,1)" />
<path d="M16,3L17,3L17,2L16,2L16,3" fill="rgba(0,0,100,1)" />
<path d="M16,2L17,2L17,1L16,1L16,2" fill="rgba(0,0,100,1)" />
<path d="M16,1L17,1L17,0L16,0L16,1" fill="rgba(0,0,100,1)" />
<path d="M17,5L17,5" />
<path d="M17,5L18,5L18,4L17,4L17,5" fill="rgba(0,0,100,1)" />
<path d="M17,4L18,4L18,3L17,3L17,4" fill="rgba(0,0,0,0)" />
<path d="M17,3L18,3L18,2L17,2L17,3" fill="rgba(0,0,100,1)" />
<path d="M17,2L18,2L18,1L17,1L17,2" fill="rgba(0,0,0,0)" />
<path d="M17,1L18,1L18,0L17,0L17,1" fill="rgba(0,0,100,1)" />
<path d="M18,5L18,5" />
<path d="M18,5L19,5L19,4L18,4L18,5" fill="rgba(0,0,100,1)" />
<path d="M18,4L19,4L19,3L18,3L18,4" fill="rgba(0,0,0,0)" />
<path d="M18,3L19,3L19,2L18,2L18,3" fill="rgba(0,0,100,1)" />
<path d="M18,2L19,2L19,1L18,1L18,2" fill="rgba(0,0,0,0)" />
<path d="M18,1L19,1L19,0L18,0L18,1" fill="rgba(0,0,100,1)" />
<path d="M19,5L19,5" />
<path d="M19,5L20,5L20,4L19,4L19,5" fill="rgba(0,0,100,1)" />
<path d="M19,4L20,4L20,3L19,3L19,4" fill="rgba(0,0,0,0)" />
<path d="M19,3L20,3L20,2L19,2L19,3" fill="rgba(0,0,100,1)" />
<path d="M19,2L20,2L20,1L19,1L19,2" fill="rgba(0,0,0,0)" />
<path d="M19,1L20,1L20,0L19,0L19,1" fill="rgba(0,0,100,1)" />
<path d="M21,5L21,5" />
<path d="M21,5L22,5L22,4L21,4L21,5" fill="rgba(0,0,100,1)" />
<path d="M21,4L22,4L22,3L21,3L21,4" fill="rgba(0,0,100,1)" />
<path d="M21,3L22,3L22,2L21,2L21,3" fill="rgba(0,0,100,1)" />
<path d="M21,2L22,2L22,1L21,1L21,2" fill="rgba(0,0,100,1)" />
<path d="M21,1L22,1L22,0L21,0L21,1" fill="rgba(0,0,100,1)" />
<path d="M22,5L22,5" />
<path d="M22,5L23,5L23,4L22,4L22,5" fill="rgba(0,0,0,0)" />
<path d="M22,4L23,4L23,3L22,3L22,4" fill="rgba(0,0,0,0)" />
<path d="M22,3L23,3L23,2L22,2L22,3" fill="rgba(0,0,100,1)" />
<path d="M22,2L23,2L23,1L22,1L22,2" fill="rgba(0,0,0,0)" />
<path d="M22,1L23,1L23,0L22,0L22,1" fill="rgba(0,0,100,1)" />
<path d="M23,5L23,5" />
<path d="M23,5L24,5L24,4L23,4L23,5" fill="rgba(0,0,0,0)" />
<path d="M23,4L24,4L24,3L23,3L23,4" fill="rgba(0,0,0,0)" />
<path d="M23,3L24,3L24,2L23,2L23,3" fill="rgba(0,0,100,1)" />
<path d="M23,2L24,2L24,1L23,1L23,2" fill="rgba(0,0,100,1)" />
<path d="M23,1L24,1L24,0L23,0L23,1" fill="rgba(0,0,100,1)" />
<path d="M25,5L25,5" />
<path d="M25,5L26,5L26,4L25,4L25,5" fill="rgba(0,0,0,0)" />
<path d="M25,4L26,4L26,3L25,3L25,4" fill="rgba(0,0,0,0)" />
<path d="M25,3L26,3L26,2L25,2L25,3" fill="rgba(0,0,0,0)" />
<path d="M25,2L26,2L26,1L25,1L25,2" fill="rgba(0,0,0,0)" />
<path d="M25,1L26,1L26,0L25,0L25,1" fill="rgba(0,0,100,1)" />
<path d="M26,5L26,5" />
<path d="M26,5L27,5L27,4L26,4L26,5" fill="rgba(0,0,100,1)" />
<path d="M26,4L27,4L27,3L26,3L26,4" fill="rgba(0,0,100,1)" />
<path d="M26,3L27,3L27,2L26,2L26,3" fill="rgba(0,0,100,1)" />
<path d="M26,2L27,2L27,1L26,1L26,2" fill="rgba(0,0,100,1)" />
<path d="M26,1L27,1L27,0L26,0L26,1" fill="rgba(0,0,100,1)" />
<path d="M27,5L27,5" />
<path d="M27,5L28,5L28,4L27,4L27,5" fill="rgba(0,0,0,0)" />
<path d="M27,4L28,4L28,3L27,3L27,4" fill="rgba(0,0,0,0)" />
<path d="M27,3L28,3L28,2L27,2L27,3" fill="rgba(0,0,0,0)" />
<path d="M27,2L28,2L28,1L27,1L27,2" fill="rgba(0,0,0,0)" />
<path d="M27,1L28,1L28,0L27,0L27,1" fill="rgba(0,0,100,1)" />
<path d="M29,5L29,5" />
<path d="M29,5L30,5L30,4L29,4L29,5" fill="rgba(0,0,100,1)" />
<path d="M29,4L30,4L30,3L29,3L29,4" fill="rgba(0,0,100,1)" />
<path d="M29,3L30,3L30,2L29,2L29,3" fill="rgba(0,0,100,1)" />
<path d="M29,2L30,2L30,1L29,1L29,2" fill="rgba(0,0,100,1)" />
<path d="M29,1L30,1L30,0L29,0L29,1" fill="rgba(0,0,0,0)" />
<path d="M30,5L30,5" />
<path d="M30,5L31,5L31,4L30,4L30,5" fill="rgba(0,0,0,0)" />
<path d="M30,4L31,4L31,3L30,3L30,4" fill="rgba(0,0,100,1)" />
<path d="M30,3L31,3L31,2L30,2L30,3" fill="rgba(0,0,0,0)" />
<path d="M30,2L31,2L31,1L30,1L30,2" fill="rgba(0,0,0,0)" />
<path d="M30,1L31,1L31,0L30,0L30,1" fill="rgba(0,0,100,1)" />
<path d="M31,5L31,5" />
<path d="M31,5L32,5L32,4L31,4L31,5" fill="rgba(0,0,0,0)" />
<path d="M31,4L32,4L32,3L31,3L31,4" fill="rgba(0,0,100,1)" />
<path d="M31,3L32,3L32,2L31,2L31,3" fill="rgba(0,0,0,0)" />
<path d="M31,2L32,2L32,1L31,1L31,2" fill="rgba(0,0,0,0)" />
<path d="M31,1L32,1L32,0L31,0L31,1" fill="rgba(0,0,100,1)" />
<path d="M32,5L32,5" />
<path d="M32,5L33,5L33,4L32,4L32,5" fill="rgba(0,0,100,1)" />
<path d="M32,4L33,4L33,3L32,3L32,4" fill="rgba(0,0,100,1)" />
<path d="M32,3L33,3L33,2L32,2L32,3" fill="rgba(0,0,100,1)" />
<path d="M32,2L33,2L33,1L32,1L32,2" fill="rgba(0,0,100,1)" />
<path d="M32,1L33,1L33,0L32,0L32,1" fill="rgba(0,0,0,0)" />
<path d="M34,5L34,5" />
<path d="M34,5L35,5L35,4L34,4L34,5" fill="rgba(0,0,100,1)" />
<path d="M34,4L35,4L35,3L34,3L34,4" fill="rgba(0,0,100,1)" />
<path d="M34,3L35,3L35,2L34,2L34,3" fill="rgba(0,0,100,1)" />
<path d="M34,2L35,2L35,1L34,1L34,2" fill="rgba(0,0,100,1)" />
<path d="M34,1L35,1L35,0L34,0L34,1" fill="rgba(0,0,100,1)" />
<path d="M35,5L35,5" />
<path d="M35,5L36,5L36,4L35,4L35,5" fill="rgba(0,0,0,0)" />
<path d="M35,4L36,4L36,3L35,3L35,4" fill="rgba(0,0,0,0)" />
<path d="M35,3L36,3L36,2L35,2L35,3" fill="rgba(0,0,0,0)" />
<path d="M35,2L36,2L36,1L35,1L35,2" fill="rgba(0,0,100,1)" />
<path d="M35,1L36,1L36,0L35,0L35,1" fill="rgba(0,0,0,0)" />
<path d="M36,5L36,5" />
<path d="M36,5L37,5L37,4L36,4L36,5" fill="rgba(0,0,0,0)" />
<path d="M36,4L37,4L37,3L36,3L36,4" fill="rgba(0,0,0,0)" />
<path d="M36,3L37,3L37,2L36,2L36,3" fill="rgba(0,0,100,1)" />
<path d="M36,2L37,2L37,1L36,1L36,2" fill="rgba(0,0,0,0)" />
<path d="M36,1L37,1L37,0L36,0L36,1" fill="rgba(0,0,0,0)" />
<path d="M37,5L37,5" />
<path d="M37,5L38,5L38,4L37,4L37,5" fill="rgba(0,0,0,0)" />
<path d="M37,4L38,4L38,3L37,3L37,4" fill="rgba(0,0,100,1)" />
<path d="M37,3L38,3L38,2L37,2L37,3" fill="rgba(0,0,0,0)" />
<path d="M37,2L38,2L38,1L37,1L37,2" fill="rgba(0,0,0,0)" />
<path d="M37,1L38,1L38,0L37,0L37,1" fill="rgba(0,0,0,0)" />
<path d="M38,5L38,5" />
<path d="M38,5L39,5L39,4L38,4L38,5" fill="rgba(0,0,100,1)" />
<path d="M38,4L39,4L39,3L38,3L38,4" fill="rgba(0,0,100,1)" />
<path d="M38,3L39,3L39,2L38,2L38,3" fill="rgba(0,0,100,1)" />
<path d="M38,2L39,2L39,1L38,1L38,2" fill="rgba(0,0,100,1)" />
<path d="M38,1L39,1L39,0L38,0L38,1" fill="rgba(0,0,100,1)" />
<path d="M40,5L40,5" />
<path d="M40,5L41,5L41,4L40,4L40,5" fill="rgba(0,0,0,0)" />
<path d="M40,4L41,4L41,3L40,3L40,4" fill="rgba(0,0,100,1)" />
<path d="M40,3L41,3L41,2L40,2L40,3" fill="rgba(0,0,100,1)" />
<path d="M40,2L41,2L41,1L40,1L40,2" fill="rgba(0,0,100,1)" />
<path d="M40,1L41,1L41,0L40,0L40,1" fill="rgba(0,0,0,0)" />
<path d="M41,5L41,5" />
<path d="M41,5L42,5L42,4L41,4L41,5" fill="rgba(0,0,100,1)" />
<path d="M41,4L42,4L42,3L41,3L41,4" fill="rgba(0,0,0,0)" />
<path d="M41,3L42,3L42,2L41,2L41,3" fill="rgba(0,0,0,0)" />
<path d="M41,2L42,2L42,1L41,1L41,2" fill="rgba(0,0,0,0)" />
<path d="M41,1L42,1L42,0L41,0L41,1" fill="rgba(0,0,100,1)" />
<path d="M42,5L42,5" />
<path d="M42,5L43,5L43,4L42,4L42,5" fill="rgba(0,0,100,1)" />
<path d="M42,4L43,4L43,3L42,3L42,4" fill="rgba(0,0,0,0)" />
<path d="M42,3L43,3L43,2L42,2L42,3" fill="rgba(0,0,0,0)" />
<path d="M42,2L43,2L43,1L42,1L42,2" fill="rgba(0,0,0,0)" />
<path d="M42,1L43,1L43,0L42,0L42,1" fill="rgba(0,0,100,1)" />
<path d="M43,5L43,5" />
<path d="M43,5L44,5L44,4L43,4L43,5" fill="rgba(0,0,100,1)" />
<path d="M43,4L44,4L44,3L43,3L43,4" fill="rgba(0,0,0,0)" />
<path d="M43,3L44,3L44,2L43,2L43,3" fill="rgba(0,0,0,0)" />
<path d="M43,2L44,2L44,1L43,1L43,2" fill="rgba(0,0,0,0)" />
<path d="M43,1L44,1L44,0L43,0L43,1" fill="rgba(0,0,100,1)" />
<path d="M45,5L45,5" />
<path d="M45,5L46,5L46,4L45,4L45,5" fill="rgba(0,0,100,1)" />
<path d="M45,4L46,4L46,3L45,3L45,4" fill="rgba(0,0,100,1)" />
<path d="M45,3L46,3L46,2L45,2L45,3" fill="rgba(0,0,100,1)" />
<path d="M45,2L46,2L46,1L45,1L45,2" fill="rgba(0,0,100,1)" />
<path d="M45,1L46,1L46,0L45,0L45,1" fill="rgba(0,0,100,1)" />
<path d="M46,5L46,5" />
<path d="M46,5L47,5L47,4L46,4L46,5" fill="rgba(0,0,100,1)" />
<path d="M46,4L47,4L47,3L46,3L46,4" fill="rgba(0,0,0,0)" />
<path d="M46,3L47,3L47,2L46,2L46,3" fill="rgba(0,0,100,1)" />
<path d="M46,2L47,2L47,1L46,1L46,2" fill="rgba(0,0,0,0)" />
<path d="M46,1L47,1L47,0L46,0L46,1" fill="rgba(0,0,100,1)" />
<path d="M47,5L47,5" />
<path d="M47,5L48,5L48,4L47,4L47,5" fill="rgba(0,0,100,1)" />
<path d="M47,4L48,4L48,3L47,3L47,4" fill="rgba(0,0,0,0)" />
<path d="M47,3L48,3L48,2L47,2L47,3" fill="rgba(0,0,100,1)" />
<path d="M47,2L48,2L48,1L47,1L47,2" fill="rgba(0,0,0,0)" />
<path d="M47,1L48,1L48,0L47,0L47,1" fill="rgba(0,0,100,1)" />
<path d="M48,5L48,5" />
<path d="M48,5L49,5L49,4L48,4L48,5" fill="rgba(0,0,100,1)" />
<path d="M48,4L49,4L49,3L48,3L48,4" fill="rgba(0,0,0,0)" />
<path d="M48,3L49,3L49,2L48,2L48,3" fill="rgba(0,0,100,1)" />
<path d="M48,2L49,2L49,1L48,1L48,2" fill="rgba(0,0,0,0)" />
<path d="M48,1L49,1L49,0L48,0L48,1" fill="rgba(0,0,100,1)" />
<path d="M49,1L49,1" />
<path d="M49,1L50,1L50,0L49,0L49,1" fill="rgba(0,0,0,0)" />
<path d="M52,1L52,1" />
<path d="M52,1L53,1L53,0L52,0L52,1" fill="rgba(0,0,0,0)" />
<path d="M54,5L54,5" />
<path d="M54,5L55,5L55,4L54,4L54,5" fill="rgba(0,0,0,0)" />
<path d="M54,4L55,4L55,3L54,3L54,4" fill="rgba(0,0,0,0)" />
<path d="M54,3L55,3L55,2L54,2L54,3" fill="rgba(0,0,0,0)" />
<path d="M54,2L55,2L55,1L54,1L54,2" fill="rgba(0,0,0,0)" />
<path d="M54,1L55,1L55,0L54,0L54,1" fill="rgba(0,0,100,1)" />
<path d="M55,5L55,5" />
<path d="M55,5L56,5L56,4L55,4L55,5" fill="rgba(0,0,100,1)" />
<path d="M55,4L56,4L56,3L55,3L55,4" fill="rgba(0,0,100,1)" />
<path d="M55,3L56,3L56,2L55,2L55,3" fill="rgba(0,0,100,1)" />
<path d="M55,2L56,2L56,1L55,1L55,2" fill="rgba(0,0,100,1)" />
<path d="M55,1L56,1L56,0L55,0L55,1" fill="rgba(0,0,100,1)" />
<path d="M56,5L56,5" />
<path d="M56,5L57,5L57,4L56,4L56,5" fill="rgba(0,0,0,0)" />
<path d="M56,4L57,4L57,3L56,3L56,4" fill="rgba(0,0,0,0)" />
<path d="M56,3L57,3L57,2L56,2L56,3" fill="rgba(0,0,0,0)" />
<path d="M56,2L57,2L57,1L56,1L56,2" fill="rgba(0,0,0,0)" />
<path d="M56,1L57,1L57,0L56,0L56,1" fill="rgba(0,0,100,1)" />
<path d="M58,5L58,5" />
<path d="M58,5L59,5L59,4L58,4L58,5" fill="rgba(0,0,100,1)" />
<path d="M58,4L59,4L59,3L58,3L58,4" fill="rgba(0,0,100,1)" />
<path d="M58,3L59,3L59,2L58,2L58,3" fill="rgba(0,0,100,1)" />
<path d="M58,2L59,2L59,1L58,1L58,2" fill="rgba(0,0,100,1)" />
<path d="M58,1L59,1L59,0L58,0L58,1" fill="rgba(0,0,100,1)" />
<path d="M59,5L59,5" />
<path d="M59,5L60,5L60,4L59,4L59,5" fill="rgba(0,0,100,1)" />
<path d="M59,4L60,4L60,3L59,3L59,4" fill="rgba(0,0,0,0)" />
<path d="M59,3L60,3L60,2L59,2L59,3" fill="rgba(0,0,100,1)" />
<path d="M59,2L60,2L60,1L59,1L59,2" fill="rgba(0,0,0,0)" />
<path d="M59,1L60,1L60,0L59,0L59,1" fill="rgba(0,0,100,1)" />
<path d="M60,5L60,5" />
<path d="M60,5L61,5L61,4L60,4L60,5" fill="rgba(0,0,100,1)" />
<path d="M60,4L61,4L61,3L60,3L60,4" fill="rgba(0,0,0,0)" />
<path d="M60,3L61,3L61,2L60,2L60,3" fill="rgba(0,0,100,1)" />
<path d="M60,2L61,2L61,1L60,1L60,2" fill="rgba(0,0,0,0)" />
<path d="M60,1L61,1L61,0L60,0L60,1" fill="rgba(0,0,100,1)" />
<path d="M61,5L61,5" />
<path d="M61,5L62,5L62,4L61,4L61,5" fill="rgba(0,0,100,1)" />
<path d="M61,4L62,4L62,3L61,3L61,4" fill="rgba(0,0,0,0)" />
<path d="M61,3L62,3L62,2L61,2L61,3" fill="rgba(0,0,100,1)" />
<path d="M61,2L62,2L62,1L61,1L61,2" fill="rgba(0,0,0,0)" />
<path d="M61,1L62,1L62,0L61,0L61,1" fill="rgba(0,0,100,1)" />
<path d="M63,5L63,5" />
<path d="M63,5L64,5L64,4L63,4L63,5" fill="rgba(0,0,100,1)" />
<path d="M63,4L64,4L64,3L63,3L63,4" fill="rgba(0,0,0,0)" />
<path d="M63,3L64,3L64,2L63,2L63,3" fill="rgba(0,0,100,1)" />
<path d="M63,2L64,2L64,1L63,1L63,2" fill="rgba(0,0,100,1)" />
<path d="M63,1L64,1L64,0L63,0L63,1" fill="rgba(0,0,0,0)" />
<path d="M64,5L64,5" />
<path d="M64,5L65,5L65,4L64,4L64,5" fill="rgba(0,0,100,1)" />
<path d="M64,4L65,4L65,3L64,3L64,4" fill="rgba(0,0,0,0)" />
<path d="M64,3L65,3L65,2L64,2L64,3" fill="rgba(0,0,100,1)" />
<path d="M64,2L65,2L65,1L64,1L64,2" fill="rgba(0,0,0,0)" />
<path d="M64,1L65,1L65,0L64,0L64,1" fill="rgba(0,0,100,1)" />
<path d="M65,5L65,5" />
<path d="M65,5L66,5L66,4L65,4L65,5" fill="rgba(0,0,100,1)" />
<path d="M65,4L66,4L66,3L65,3L65,4" fill="rgba(0,0,0,0)" />
<path d="M65,3L66,3L66,2L65,2L65,3" fill="rgba(0,0,100,1)" />
<path d="M65,2L66,2L66,1L65,1L65,2" fill="rgba(0,0,0,0)" />
<path d="M65,1L66,1L66,0L65,0L65,1" fill="rgba(0,0,100,1)" />
<path d="M66,5L66,5" />
<path d="M66,5L67,5L67,4L66,4L66,5" fill="rgba(0,0,100,1)" />
<path d="M66,4L67,4L67,3L66,3L66,4" fill="rgba(0,0,100,1)" />
<path d="M66,3L67,3L67,2L66,2L66,3" fill="rgba(0,0,100,1)" />
<path d="M66,2L67,2L67,1L66,1L66,2" fill="rgba(0,0,0,0)" />
<path d="M66,1L67,1L67,0L66,0L66,1" fill="rgba(0,0,100,1)" />
<path d="M68,5L68,5" />
<path d="M68,5L69,5L69,4L68,4L68,5" fill="rgba(0,0,0,0)" />
<path d="M68,4L69,4L69,3L68,3L68,4" fill="rgba(0,0,0,0)" />
<path d="M68,3L69,3L69,2L68,2L68,3" fill="rgba(0,0,0,0)" />
<path d="M68,2L69,2L69,1L68,1L68,2" fill="rgba(0,0,0,0)" />
<path d="M68,1L69,1L69,0L68,0L68,1" fill="rgba(0,0,100,1)" />
<path d="M69,5L69,5" />
<path d="M69,5L70,5L70,4L69,4L69,5" fill="rgba(0,0,100,1)" />
<path d="M69,4L70,4L70,3L69,3L69,4" fill="rgba(0,0,100,1)" />
<path d="M69,3L70,3L70,2L69,2L69,3" fill="rgba(0,0,100,1)" />
<path d="M69,2L70,2L70,1L69,1L69,2" fill="rgba(0,0,100,1)" />
<path d="M69,1L70,1L70,0L69,0L69,1" fill="rgba(0,0,100,1)" />
<path d="M70,5L70,5" />
<path d="M70,5L71,5L71,4L70,4L70,5" fill="rgba(0,0,0,0)" />
<path d="M70,4L71,4L71,3L70,3L70,4" fill="rgba(0,0,0,0)" />
<path d="M70,3L71,3L71,2L70,2L70,3" fill="rgba(0,0,0,0)" />
<path d="M70,2L71,2L71,1L70,1L70,2" fill="rgba(0,0,0,0)" />
<path d="M70,1L71,1L71,0L70,0L70,1" fill="rgba(0,0,100,1)" />
</svg>
