<svg xmlns="http://www.w3.org/2000/svg" viewBox="-12.5 -8.5 113 109">
<path d="M0,100L0,0" stroke="rgba(0,0,0,1)" />
<path d="M0,100L5,95" stroke="rgba(0,0,0,1)" />
<path d="M0,100L-5,95" stroke="rgba(0,0,0,1)" />
<path d="M100,0L95,-5" stroke="rgba(0,0,0,1)" />
<path d="M100,0L95,5" stroke="rgba(0,0,0,1)" />
<path d="M0,0L100,0" stroke="rgba(0,0,0,1)" />
<path d="M-0.000000000000003552713678800501,-1.5000827849999998C0.8301402899999966,-1.4981037749999997 1.4981037749999961,-0.8301402899999997 1.5000827849999965,0.0000000000000002220446049250313L1.5000827849999965,0.0000000000000002220446049250313C1.4981037749999961,0.8301402900000003 0.8301402899999966,1.498103775 -0.000000000000003552713678800501,1.5000827850000003L-0.000000000000003552713678800501,1.5000827850000003C-0.8301402900000034,1.498103775 -1.4981037750000035,0.8301402900000003 -1.5000827850000036,0.0000000000000002220446049250313L-1.5000827850000036,0.0000000000000002220446049250313C-1.4981037750000035,-0.8301402899999997 -0.8301402900000034,-1.4981037749999997 -0.000000000000003552713678800501,-1.5000827849999998L-0.000000000000003552713678800501,-1.5000827849999998" fill="rgba(200,29,51,1)" />
<path d="M-12,-7L-12,-8" />
<path d="M-11,-7L-11,-8" />
<path d="M-9,-8L-11,-8" stroke="rgba(200,29,51,1)" />
<path d="M-11,-3L-11,-8" stroke="rgba(200,29,51,1)" />
<path d="M-11,-3L-9,-3" stroke="rgba(200,29,51,1)" />
<path d="M-8,-7L-8,-8" />
<path d="M-8,-8L-6,-8" stroke="rgba(200,29,51,1)" />
<path d="M-6,-3L-6,-8" stroke="rgba(200,29,51,1)" />
<path d="M-6,-3L-8,-3" stroke="rgba(200,29,51,1)" />
<path d="M-8,-8L-8,-3" stroke="rgba(200,29,51,1)" />
<path d="M-5,-2L-5,-3" />
<path d="M-5,-2.2857142857142856L-4.285714285714286,-3" stroke="rgba(200,29,51,1)" />
<path d="M-5,-3L-3,-3" stroke="rgba(0,0,0,0)" />
<path d="M-5,-3L-5,-8" stroke="rgba(0,0,0,0)" />
<path d="M-2,-7L-2,-8" />
<path d="M-2,-8L0,-8" stroke="rgba(200,29,51,1)" />
<path d="M0,-3L0,-8" stroke="rgba(200,29,51,1)" />
<path d="M0,-3L-2,-3" stroke="rgba(200,29,51,1)" />
<path d="M-2,-8L-2,-3" stroke="rgba(200,29,51,1)" />
<path d="M1,-7L1,-8" />
<path d="M1,-8L3,-8" stroke="rgba(200,29,51,1)" />
<path d="M3,-3L3,-8" stroke="rgba(200,29,51,1)" />
<path d="M3,-3L1,-3" stroke="rgba(200,29,51,1)" />
</svg>
