<svg xmlns="http://www.w3.org/2000/svg" viewBox="-50.5 -50.5 101 101">
<path d="M0,-50L0,50" stroke="rgba(0,0,0,1)" />
<path d="M0,-50L5,-45" stroke="rgba(0,0,0,1)" />
<path d="M0,-50L-5,-45" stroke="rgba(0,0,0,1)" />
<path d="M50,0L45,-5" stroke="rgba(0,0,0,1)" />
<path d="M50,0L45,5" stroke="rgba(0,0,0,1)" />
<path d="M-50,0L50,0" stroke="rgba(0,0,0,1)" />
<path d="M-0.000000000000003552713678800501,-1.5000827849999998C0.8301402899999966,-1.4981037749999997 1.4981037749999961,-0.8301402899999997 1.5000827849999965,0.0000000000000002220446049250313L1.5000827849999965,0.0000000000000002220446049250313C1.4981037749999961,0.8301402900000003 0.8301402899999966,1.498103775 -0.000000000000003552713678800501,1.5000827850000003L-0.000000000000003552713678800501,1.5000827850000003C-0.8301402900000034,1.498103775 -1.4981037750000035,0.8301402900000003 -1.5000827850000036,0.0000000000000002220446049250313L-1.5000827850000036,0.0000000000000002220446049250313C-1.4981037750000035,-0.8301402899999997 -0.8301402900000034,-1.4981037749999997 -0.000000000000003552713678800501,-1.5000827849999998L-0.000000000000003552713678800501,-1.5000827849999998" fill="rgba(200,29,51,1)" />
<path d="M4,7L4,6" />
<path d="M5,7L5,6" />
<path d="M7,6L5,6" stroke="rgba(200,29,51,1)" />
<path d="M5,11L5,6" stroke="rgba(200,29,51,1)" />
<path d="M5,11L7,11" stroke="rgba(200,29,51,1)" />
<path d="M8,7L8,6" />
<path d="M8,6L10,6" stroke="rgba(200,29,51,1)" />
<path d="M10,11L10,6" stroke="rgba(200,29,51,1)" />
<path d="M10,11L8,11" stroke="rgba(200,29,51,1)" />
<path d="M8,6L8,11" stroke="rgba(200,29,51,1)" />
<path d="M11,12L11,11" />
<path d="M11,11.714285714285715L11.714285714285715,11" stroke="rgba(200,29,51,1)" />
<path d="M11,11L13,11" stroke="rgba(0,0,0,0)" />
<path d="M11,11L11,6" stroke="rgba(0,0,0,0)" />
<path d="M14,7L14,6" />
<path d="M14,6L16,6" stroke="rgba(200,29,51,1)" />
<path d="M16,11L16,6" stroke="rgba(200,29,51,1)" />
<path d="M16,11L14,11" stroke="rgba(200,29,51,1)" />
<path d="M14,6L14,11" stroke="rgba(200,29,51,1)" />
<path d="M17,7L17,6" />
<path d="M17,6L19,6" stroke="rgba(200,29,51,1)" />
<path d="M19,11L19,6" stroke="rgba(200,29,51,1)" />
<path d="M19,11L17,11" stroke="rgba(200,29,51,1)" />
</svg>
