<svg xmlns="http://www.w3.org/2000/svg" viewBox="-10.5 -269.25 191 337.25">
<path d="M-5,-0Q-10,-0 -10,5L-10,5L-10,45L-10,45Q-10,50 -5,50L-5,50L15,50L15,50Q20,50 20,45L20,45L20,5L20,5Q20,-0 15,-0L15,-0L-5,-0L-5,-0" fill="rgba(0,0,0,0)" stroke="rgba(0,0,0,1)" stroke-width="1" />
<path d="M-5,45L15,25L-5,5" stroke="rgba(128,0,255,0.39215686274509803)" fill="rgba(0,0,0,0)"/>
<path d="M-4,57.5L-4,57.5" fill="rgba(0,0,0,0)"/>
<path d="M-4,57.5L-3,57.5L-3,56.5L-4,56.5L-4,57.5" fill="rgba(0,0,0,1)" />
<path d="M-4,56.5L-3,56.5L-3,55.5L-4,55.5L-4,56.5" fill="rgba(0,0,0,1)" />
<path d="M-4,55.5L-3,55.5L-3,54.5L-4,54.5L-4,55.5" fill="rgba(0,0,0,1)" />
<path d="M-4,54.5L-3,54.5L-3,53.5L-4,53.5L-4,54.5" fill="rgba(0,0,0,1)" />
<path d="M-4,53.5L-3,53.5L-3,52.5L-4,52.5L-4,53.5" fill="rgba(0,0,0,1)" />
<path d="M-3,57.5L-3,57.5" fill="rgba(0,0,0,0)"/>
<path d="M-3,57.5L-2,57.5L-2,56.5L-3,56.5L-3,57.5" fill="rgba(0,0,0,1)" />
<path d="M-3,56.5L-2,56.5L-2,55.5L-3,55.5L-3,56.5" fill="rgba(0,0,0,0)" />
<path d="M-3,55.5L-2,55.5L-2,54.5L-3,54.5L-3,55.5" fill="rgba(0,0,0,0)" />
<path d="M-3,54.5L-2,54.5L-2,53.5L-3,53.5L-3,54.5" fill="rgba(0,0,0,0)" />
<path d="M-3,53.5L-2,53.5L-2,52.5L-3,52.5L-3,53.5" fill="rgba(0,0,0,0)" />
<path d="M-2,57.5L-2,57.5" fill="rgba(0,0,0,0)"/>
<path d="M-2,57.5L-1,57.5L-1,56.5L-2,56.5L-2,57.5" fill="rgba(0,0,0,1)" />
<path d="M-2,56.5L-1,56.5L-1,55.5L-2,55.5L-2,56.5" fill="rgba(0,0,0,0)" />
<path d="M-2,55.5L-1,55.5L-1,54.5L-2,54.5L-2,55.5" fill="rgba(0,0,0,0)" />
<path d="M-2,54.5L-1,54.5L-1,53.5L-2,53.5L-2,54.5" fill="rgba(0,0,0,0)" />
<path d="M-2,53.5L-1,53.5L-1,52.5L-2,52.5L-2,53.5" fill="rgba(0,0,0,0)" />
<path d="M-1,57.5L-1,57.5" fill="rgba(0,0,0,0)"/>
<path d="M-1,57.5L0,57.5L0,56.5L-1,56.5L-1,57.5" fill="rgba(0,0,0,1)" />
<path d="M-1,56.5L0,56.5L0,55.5L-1,55.5L-1,56.5" fill="rgba(0,0,0,0)" />
<path d="M-1,55.5L0,55.5L0,54.5L-1,54.5L-1,55.5" fill="rgba(0,0,0,0)" />
<path d="M-1,54.5L0,54.5L0,53.5L-1,53.5L-1,54.5" fill="rgba(0,0,0,0)" />
<path d="M-1,53.5L0,53.5L0,52.5L-1,52.5L-1,53.5" fill="rgba(0,0,0,0)" />
<path d="M1,57.5L1,57.5" fill="rgba(0,0,0,0)"/>
<path d="M1,57.5L2,57.5L2,56.5L1,56.5L1,57.5" fill="rgba(0,0,0,1)" />
<path d="M1,56.5L2,56.5L2,55.5L1,55.5L1,56.5" fill="rgba(0,0,0,1)" />
<path d="M1,55.5L2,55.5L2,54.5L1,54.5L1,55.5" fill="rgba(0,0,0,1)" />
<path d="M1,54.5L2,54.5L2,53.5L1,53.5L1,54.5" fill="rgba(0,0,0,1)" />
<path d="M1,53.5L2,53.5L2,52.5L1,52.5L1,53.5" fill="rgba(0,0,0,1)" />
<path d="M2,57.5L2,57.5" fill="rgba(0,0,0,0)"/>
<path d="M2,57.5L3,57.5L3,56.5L2,56.5L2,57.5" fill="rgba(0,0,0,1)" />
<path d="M2,56.5L3,56.5L3,55.5L2,55.5L2,56.5" fill="rgba(0,0,0,0)" />
<path d="M2,55.5L3,55.5L3,54.5L2,54.5L2,55.5" fill="rgba(0,0,0,1)" />
<path d="M2,54.5L3,54.5L3,53.5L2,53.5L2,54.5" fill="rgba(0,0,0,0)" />
<path d="M2,53.5L3,53.5L3,52.5L2,52.5L2,53.5" fill="rgba(0,0,0,1)" />
<path d="M3,57.5L3,57.5" fill="rgba(0,0,0,0)"/>
<path d="M3,57.5L4,57.5L4,56.5L3,56.5L3,57.5" fill="rgba(0,0,0,1)" />
<path d="M3,56.5L4,56.5L4,55.5L3,55.5L3,56.5" fill="rgba(0,0,0,0)" />
<path d="M3,55.5L4,55.5L4,54.5L3,54.5L3,55.5" fill="rgba(0,0,0,1)" />
<path d="M3,54.5L4,54.5L4,53.5L3,53.5L3,54.5" fill="rgba(0,0,0,0)" />
<path d="M3,53.5L4,53.5L4,52.5L3,52.5L3,53.5" fill="rgba(0,0,0,1)" />
<path d="M4,57.5L4,57.5" fill="rgba(0,0,0,0)"/>
<path d="M4,57.5L5,57.5L5,56.5L4,56.5L4,57.5" fill="rgba(0,0,0,1)" />
<path d="M4,56.5L5,56.5L5,55.5L4,55.5L4,56.5" fill="rgba(0,0,0,0)" />
<path d="M4,55.5L5,55.5L5,54.5L4,54.5L4,55.5" fill="rgba(0,0,0,1)" />
<path d="M4,54.5L5,54.5L5,53.5L4,53.5L4,54.5" fill="rgba(0,0,0,0)" />
<path d="M4,53.5L5,53.5L5,52.5L4,52.5L4,53.5" fill="rgba(0,0,0,1)" />
<path d="M6,57.5L6,57.5" fill="rgba(0,0,0,0)"/>
<path d="M6,57.5L7,57.5L7,56.5L6,56.5L6,57.5" fill="rgba(0,0,0,1)" />
<path d="M6,56.5L7,56.5L7,55.5L6,55.5L6,56.5" fill="rgba(0,0,0,1)" />
<path d="M6,55.5L7,55.5L7,54.5L6,54.5L6,55.5" fill="rgba(0,0,0,1)" />
<path d="M6,54.5L7,54.5L7,53.5L6,53.5L6,54.5" fill="rgba(0,0,0,1)" />
<path d="M6,53.5L7,53.5L7,52.5L6,52.5L6,53.5" fill="rgba(0,0,0,1)" />
<path d="M7,57.5L7,57.5" fill="rgba(0,0,0,0)"/>
<path d="M7,57.5L8,57.5L8,56.5L7,56.5L7,57.5" fill="rgba(0,0,0,0)" />
<path d="M7,56.5L8,56.5L8,55.5L7,55.5L7,56.5" fill="rgba(0,0,0,0)" />
<path d="M7,55.5L8,55.5L8,54.5L7,54.5L7,55.5" fill="rgba(0,0,0,1)" />
<path d="M7,54.5L8,54.5L8,53.5L7,53.5L7,54.5" fill="rgba(0,0,0,0)" />
<path d="M7,53.5L8,53.5L8,52.5L7,52.5L7,53.5" fill="rgba(0,0,0,1)" />
<path d="M8,57.5L8,57.5" fill="rgba(0,0,0,0)"/>
<path d="M8,57.5L9,57.5L9,56.5L8,56.5L8,57.5" fill="rgba(0,0,0,0)" />
<path d="M8,56.5L9,56.5L9,55.5L8,55.5L8,56.5" fill="rgba(0,0,0,0)" />
<path d="M8,55.5L9,55.5L9,54.5L8,54.5L8,55.5" fill="rgba(0,0,0,1)" />
<path d="M8,54.5L9,54.5L9,53.5L8,53.5L8,54.5" fill="rgba(0,0,0,0)" />
<path d="M8,53.5L9,53.5L9,52.5L8,52.5L8,53.5" fill="rgba(0,0,0,1)" />
<path d="M9,57.5L9,57.5" fill="rgba(0,0,0,0)"/>
<path d="M9,57.5L10,57.5L10,56.5L9,56.5L9,57.5" fill="rgba(0,0,0,0)" />
<path d="M9,56.5L10,56.5L10,55.5L9,55.5L9,56.5" fill="rgba(0,0,0,0)" />
<path d="M9,55.5L10,55.5L10,54.5L9,54.5L9,55.5" fill="rgba(0,0,0,0)" />
<path d="M9,54.5L10,54.5L10,53.5L9,53.5L9,54.5" fill="rgba(0,0,0,0)" />
<path d="M9,53.5L10,53.5L10,52.5L9,52.5L9,53.5" fill="rgba(0,0,0,1)" />
<path d="M11,57.5L11,57.5" fill="rgba(0,0,0,0)"/>
<path d="M11,57.5L12,57.5L12,56.5L11,56.5L11,57.5" fill="rgba(0,0,0,0)" />
<path d="M11,56.5L12,56.5L12,55.5L11,55.5L11,56.5" fill="rgba(0,0,0,0)" />
<path d="M11,55.5L12,55.5L12,54.5L11,54.5L11,55.5" fill="rgba(0,0,0,0)" />
<path d="M11,54.5L12,54.5L12,53.5L11,53.5L11,54.5" fill="rgba(0,0,0,0)" />
<path d="M11,53.5L12,53.5L12,52.5L11,52.5L11,53.5" fill="rgba(0,0,0,1)" />
<path d="M12,57.5L12,57.5" fill="rgba(0,0,0,0)"/>
<path d="M12,57.5L13,57.5L13,56.5L12,56.5L12,57.5" fill="rgba(0,0,0,1)" />
<path d="M12,56.5L13,56.5L13,55.5L12,55.5L12,56.5" fill="rgba(0,0,0,1)" />
<path d="M12,55.5L13,55.5L13,54.5L12,54.5L12,55.5" fill="rgba(0,0,0,1)" />
<path d="M12,54.5L13,54.5L13,53.5L12,53.5L12,54.5" fill="rgba(0,0,0,1)" />
<path d="M12,53.5L13,53.5L13,52.5L12,52.5L12,53.5" fill="rgba(0,0,0,1)" />
<path d="M13,57.5L13,57.5" fill="rgba(0,0,0,0)"/>
<path d="M13,57.5L14,57.5L14,56.5L13,56.5L13,57.5" fill="rgba(0,0,0,0)" />
<path d="M13,56.5L14,56.5L14,55.5L13,55.5L13,56.5" fill="rgba(0,0,0,0)" />
<path d="M13,55.5L14,55.5L14,54.5L13,54.5L13,55.5" fill="rgba(0,0,0,0)" />
<path d="M13,54.5L14,54.5L14,53.5L13,53.5L13,54.5" fill="rgba(0,0,0,0)" />
<path d="M13,53.5L14,53.5L14,52.5L13,52.5L13,53.5" fill="rgba(0,0,0,1)" />
<path d="M32.5,-0Q27.5,-0 27.5,5L27.5,5L27.5,45L27.5,45Q27.5,50 32.5,50L32.5,50L52.5,50L52.5,50Q57.5,50 57.5,45L57.5,45L57.5,5L57.5,5Q57.5,-0 52.5,-0L52.5,-0L32.5,-0L32.5,-0" fill="rgba(0,0,0,0)" stroke="rgba(0,0,0,1)" stroke-width="1" />
<path d="M52.5,5L32.5,25L52.5,45" stroke="rgba(255,0,128,0.39215686274509803)" fill="rgba(0,0,0,0)"/>
<path d="M31.5,57.5L31.5,57.5" fill="rgba(0,0,0,0)"/>
<path d="M31.5,57.5L32.5,57.5L32.5,56.5L31.5,56.5L31.5,57.5" fill="rgba(0,0,0,1)" />
<path d="M31.5,56.5L32.5,56.5L32.5,55.5L31.5,55.5L31.5,56.5" fill="rgba(0,0,0,1)" />
<path d="M31.5,55.5L32.5,55.5L32.5,54.5L31.5,54.5L31.5,55.5" fill="rgba(0,0,0,1)" />
<path d="M31.5,54.5L32.5,54.5L32.5,53.5L31.5,53.5L31.5,54.5" fill="rgba(0,0,0,1)" />
<path d="M31.5,53.5L32.5,53.5L32.5,52.5L31.5,52.5L31.5,53.5" fill="rgba(0,0,0,1)" />
<path d="M32.5,57.5L32.5,57.5" fill="rgba(0,0,0,0)"/>
<path d="M32.5,57.5L33.5,57.5L33.5,56.5L32.5,56.5L32.5,57.5" fill="rgba(0,0,0,0)" />
<path d="M32.5,56.5L33.5,56.5L33.5,55.5L32.5,55.5L32.5,56.5" fill="rgba(0,0,0,0)" />
<path d="M32.5,55.5L33.5,55.5L33.5,54.5L32.5,54.5L32.5,55.5" fill="rgba(0,0,0,1)" />
<path d="M32.5,54.5L33.5,54.5L33.5,53.5L32.5,53.5L32.5,54.5" fill="rgba(0,0,0,0)" />
<path d="M32.5,53.5L33.5,53.5L33.5,52.5L32.5,52.5L32.5,53.5" fill="rgba(0,0,0,1)" />
<path d="M33.5,57.5L33.5,57.5" fill="rgba(0,0,0,0)"/>
<path d="M33.5,57.5L34.5,57.5L34.5,56.5L33.5,56.5L33.5,57.5" fill="rgba(0,0,0,0)" />
<path d="M33.5,56.5L34.5,56.5L34.5,55.5L33.5,55.5L33.5,56.5" fill="rgba(0,0,0,1)" />
<path d="M33.5,55.5L34.5,55.5L34.5,54.5L33.5,54.5L33.5,55.5" fill="rgba(0,0,0,1)" />
<path d="M33.5,54.5L34.5,54.5L34.5,53.5L33.5,53.5L33.5,54.5" fill="rgba(0,0,0,0)" />
<path d="M33.5,53.5L34.5,53.5L34.5,52.5L33.5,52.5L33.5,53.5" fill="rgba(0,0,0,1)" />
<path d="M34.5,57.5L34.5,57.5" fill="rgba(0,0,0,0)"/>
<path d="M34.5,57.5L35.5,57.5L35.5,56.5L34.5,56.5L34.5,57.5" fill="rgba(0,0,0,1)" />
<path d="M34.5,56.5L35.5,56.5L35.5,55.5L34.5,55.5L34.5,56.5" fill="rgba(0,0,0,0)" />
<path d="M34.5,55.5L35.5,55.5L35.5,54.5L34.5,54.5L34.5,55.5" fill="rgba(0,0,0,1)" />
<path d="M34.5,54.5L35.5,54.5L35.5,53.5L34.5,53.5L34.5,54.5" fill="rgba(0,0,0,1)" />
<path d="M34.5,53.5L35.5,53.5L35.5,52.5L34.5,52.5L34.5,53.5" fill="rgba(0,0,0,1)" />
<path d="M36.5,57.5L36.5,57.5" fill="rgba(0,0,0,0)"/>
<path d="M36.5,57.5L37.5,57.5L37.5,56.5L36.5,56.5L36.5,57.5" fill="rgba(0,0,0,1)" />
<path d="M36.5,56.5L37.5,56.5L37.5,55.5L36.5,55.5L36.5,56.5" fill="rgba(0,0,0,0)" />
<path d="M36.5,55.5L37.5,55.5L37.5,54.5L36.5,54.5L36.5,55.5" fill="rgba(0,0,0,0)" />
<path d="M36.5,54.5L37.5,54.5L37.5,53.5L36.5,53.5L36.5,54.5" fill="rgba(0,0,0,0)" />
<path d="M36.5,53.5L37.5,53.5L37.5,52.5L36.5,52.5L36.5,53.5" fill="rgba(0,0,0,1)" />
<path d="M37.5,57.5L37.5,57.5" fill="rgba(0,0,0,0)"/>
<path d="M37.5,57.5L38.5,57.5L38.5,56.5L37.5,56.5L37.5,57.5" fill="rgba(0,0,0,1)" />
<path d="M37.5,56.5L38.5,56.5L38.5,55.5L37.5,55.5L37.5,56.5" fill="rgba(0,0,0,1)" />
<path d="M37.5,55.5L38.5,55.5L38.5,54.5L37.5,54.5L37.5,55.5" fill="rgba(0,0,0,1)" />
<path d="M37.5,54.5L38.5,54.5L38.5,53.5L37.5,53.5L37.5,54.5" fill="rgba(0,0,0,1)" />
<path d="M37.5,53.5L38.5,53.5L38.5,52.5L37.5,52.5L37.5,53.5" fill="rgba(0,0,0,1)" />
<path d="M38.5,57.5L38.5,57.5" fill="rgba(0,0,0,0)"/>
<path d="M38.5,57.5L39.5,57.5L39.5,56.5L38.5,56.5L38.5,57.5" fill="rgba(0,0,0,1)" />
<path d="M38.5,56.5L39.5,56.5L39.5,55.5L38.5,55.5L38.5,56.5" fill="rgba(0,0,0,0)" />
<path d="M38.5,55.5L39.5,55.5L39.5,54.5L38.5,54.5L38.5,55.5" fill="rgba(0,0,0,0)" />
<path d="M38.5,54.5L39.5,54.5L39.5,53.5L38.5,53.5L38.5,54.5" fill="rgba(0,0,0,0)" />
<path d="M38.5,53.5L39.5,53.5L39.5,52.5L38.5,52.5L38.5,53.5" fill="rgba(0,0,0,1)" />
<path d="M40.5,57.5L40.5,57.5" fill="rgba(0,0,0,0)"/>
<path d="M40.5,57.5L41.5,57.5L41.5,56.5L40.5,56.5L40.5,57.5" fill="rgba(0,0,0,1)" />
<path d="M40.5,56.5L41.5,56.5L41.5,55.5L40.5,55.5L40.5,56.5" fill="rgba(0,0,0,1)" />
<path d="M40.5,55.5L41.5,55.5L41.5,54.5L40.5,54.5L40.5,55.5" fill="rgba(0,0,0,1)" />
<path d="M40.5,54.5L41.5,54.5L41.5,53.5L40.5,53.5L40.5,54.5" fill="rgba(0,0,0,1)" />
<path d="M40.5,53.5L41.5,53.5L41.5,52.5L40.5,52.5L40.5,53.5" fill="rgba(0,0,0,0)" />
<path d="M41.5,57.5L41.5,57.5" fill="rgba(0,0,0,0)"/>
<path d="M41.5,57.5L42.5,57.5L42.5,56.5L41.5,56.5L41.5,57.5" fill="rgba(0,0,0,1)" />
<path d="M41.5,56.5L42.5,56.5L42.5,55.5L41.5,55.5L41.5,56.5" fill="rgba(0,0,0,0)" />
<path d="M41.5,55.5L42.5,55.5L42.5,54.5L41.5,54.5L41.5,55.5" fill="rgba(0,0,0,0)" />
<path d="M41.5,54.5L42.5,54.5L42.5,53.5L41.5,53.5L41.5,54.5" fill="rgba(0,0,0,0)" />
<path d="M41.5,53.5L42.5,53.5L42.5,52.5L41.5,52.5L41.5,53.5" fill="rgba(0,0,0,1)" />
<path d="M42.5,57.5L42.5,57.5" fill="rgba(0,0,0,0)"/>
<path d="M42.5,57.5L43.5,57.5L43.5,56.5L42.5,56.5L42.5,57.5" fill="rgba(0,0,0,1)" />
<path d="M42.5,56.5L43.5,56.5L43.5,55.5L42.5,55.5L42.5,56.5" fill="rgba(0,0,0,0)" />
<path d="M42.5,55.5L43.5,55.5L43.5,54.5L42.5,54.5L42.5,55.5" fill="rgba(0,0,0,1)" />
<path d="M42.5,54.5L43.5,54.5L43.5,53.5L42.5,53.5L42.5,54.5" fill="rgba(0,0,0,0)" />
<path d="M42.5,53.5L43.5,53.5L43.5,52.5L42.5,52.5L42.5,53.5" fill="rgba(0,0,0,1)" />
<path d="M43.5,57.5L43.5,57.5" fill="rgba(0,0,0,0)"/>
<path d="M43.5,57.5L44.5,57.5L44.5,56.5L43.5,56.5L43.5,57.5" fill="rgba(0,0,0,1)" />
<path d="M43.5,56.5L44.5,56.5L44.5,55.5L43.5,55.5L43.5,56.5" fill="rgba(0,0,0,1)" />
<path d="M43.5,55.5L44.5,55.5L44.5,54.5L43.5,54.5L43.5,55.5" fill="rgba(0,0,0,1)" />
<path d="M43.5,54.5L44.5,54.5L44.5,53.5L43.5,53.5L43.5,54.5" fill="rgba(0,0,0,0)" />
<path d="M43.5,53.5L44.5,53.5L44.5,52.5L43.5,52.5L43.5,53.5" fill="rgba(0,0,0,1)" />
<path d="M45.5,57.5L45.5,57.5" fill="rgba(0,0,0,0)"/>
<path d="M45.5,57.5L46.5,57.5L46.5,56.5L45.5,56.5L45.5,57.5" fill="rgba(0,0,0,1)" />
<path d="M45.5,56.5L46.5,56.5L46.5,55.5L45.5,55.5L45.5,56.5" fill="rgba(0,0,0,1)" />
<path d="M45.5,55.5L46.5,55.5L46.5,54.5L45.5,54.5L45.5,55.5" fill="rgba(0,0,0,1)" />
<path d="M45.5,54.5L46.5,54.5L46.5,53.5L45.5,53.5L45.5,54.5" fill="rgba(0,0,0,1)" />
<path d="M45.5,53.5L46.5,53.5L46.5,52.5L45.5,52.5L45.5,53.5" fill="rgba(0,0,0,1)" />
<path d="M46.5,57.5L46.5,57.5" fill="rgba(0,0,0,0)"/>
<path d="M46.5,57.5L47.5,57.5L47.5,56.5L46.5,56.5L46.5,57.5" fill="rgba(0,0,0,0)" />
<path d="M46.5,56.5L47.5,56.5L47.5,55.5L46.5,55.5L46.5,56.5" fill="rgba(0,0,0,0)" />
<path d="M46.5,55.5L47.5,55.5L47.5,54.5L46.5,54.5L46.5,55.5" fill="rgba(0,0,0,1)" />
<path d="M46.5,54.5L47.5,54.5L47.5,53.5L46.5,53.5L46.5,54.5" fill="rgba(0,0,0,0)" />
<path d="M46.5,53.5L47.5,53.5L47.5,52.5L46.5,52.5L46.5,53.5" fill="rgba(0,0,0,0)" />
<path d="M47.5,57.5L47.5,57.5" fill="rgba(0,0,0,0)"/>
<path d="M47.5,57.5L48.5,57.5L48.5,56.5L47.5,56.5L47.5,57.5" fill="rgba(0,0,0,0)" />
<path d="M47.5,56.5L48.5,56.5L48.5,55.5L47.5,55.5L47.5,56.5" fill="rgba(0,0,0,0)" />
<path d="M47.5,55.5L48.5,55.5L48.5,54.5L47.5,54.5L47.5,55.5" fill="rgba(0,0,0,1)" />
<path d="M47.5,54.5L48.5,54.5L48.5,53.5L47.5,53.5L47.5,54.5" fill="rgba(0,0,0,0)" />
<path d="M47.5,53.5L48.5,53.5L48.5,52.5L47.5,52.5L47.5,53.5" fill="rgba(0,0,0,0)" />
<path d="M48.5,57.5L48.5,57.5" fill="rgba(0,0,0,0)"/>
<path d="M48.5,57.5L49.5,57.5L49.5,56.5L48.5,56.5L48.5,57.5" fill="rgba(0,0,0,1)" />
<path d="M48.5,56.5L49.5,56.5L49.5,55.5L48.5,55.5L48.5,56.5" fill="rgba(0,0,0,1)" />
<path d="M48.5,55.5L49.5,55.5L49.5,54.5L48.5,54.5L48.5,55.5" fill="rgba(0,0,0,1)" />
<path d="M48.5,54.5L49.5,54.5L49.5,53.5L48.5,53.5L48.5,54.5" fill="rgba(0,0,0,1)" />
<path d="M48.5,53.5L49.5,53.5L49.5,52.5L48.5,52.5L48.5,53.5" fill="rgba(0,0,0,1)" />
<path d="M50.5,57.5L50.5,57.5" fill="rgba(0,0,0,0)"/>
<path d="M50.5,57.5L51.5,57.5L51.5,56.5L50.5,56.5L50.5,57.5" fill="rgba(0,0,0,0)" />
<path d="M50.5,56.5L51.5,56.5L51.5,55.5L50.5,55.5L50.5,56.5" fill="rgba(0,0,0,0)" />
<path d="M50.5,55.5L51.5,55.5L51.5,54.5L50.5,54.5L50.5,55.5" fill="rgba(0,0,0,0)" />
<path d="M50.5,54.5L51.5,54.5L51.5,53.5L50.5,53.5L50.5,54.5" fill="rgba(0,0,0,0)" />
<path d="M50.5,53.5L51.5,53.5L51.5,52.5L50.5,52.5L50.5,53.5" fill="rgba(0,0,0,1)" />
<path d="M51.5,57.5L51.5,57.5" fill="rgba(0,0,0,0)"/>
<path d="M51.5,57.5L52.5,57.5L52.5,56.5L51.5,56.5L51.5,57.5" fill="rgba(0,0,0,1)" />
<path d="M51.5,56.5L52.5,56.5L52.5,55.5L51.5,55.5L51.5,56.5" fill="rgba(0,0,0,1)" />
<path d="M51.5,55.5L52.5,55.5L52.5,54.5L51.5,54.5L51.5,55.5" fill="rgba(0,0,0,1)" />
<path d="M51.5,54.5L52.5,54.5L52.5,53.5L51.5,53.5L51.5,54.5" fill="rgba(0,0,0,1)" />
<path d="M51.5,53.5L52.5,53.5L52.5,52.5L51.5,52.5L51.5,53.5" fill="rgba(0,0,0,1)" />
<path d="M52.5,57.5L52.5,57.5" fill="rgba(0,0,0,0)"/>
<path d="M52.5,57.5L53.5,57.5L53.5,56.5L52.5,56.5L52.5,57.5" fill="rgba(0,0,0,0)" />
<path d="M52.5,56.5L53.5,56.5L53.5,55.5L52.5,55.5L52.5,56.5" fill="rgba(0,0,0,0)" />
<path d="M52.5,55.5L53.5,55.5L53.5,54.5L52.5,54.5L52.5,55.5" fill="rgba(0,0,0,0)" />
<path d="M52.5,54.5L53.5,54.5L53.5,53.5L52.5,53.5L52.5,54.5" fill="rgba(0,0,0,0)" />
<path d="M52.5,53.5L53.5,53.5L53.5,52.5L52.5,52.5L52.5,53.5" fill="rgba(0,0,0,1)" />
<path d="M5,-86.25Q0,-86.25 0,-81.25L0,-81.25L0,-41.25L0,-41.25Q0,-36.25 5,-36.25L5,-36.25L45,-36.25L45,-36.25Q50,-36.25 50,-41.25L50,-41.25L50,-81.25L50,-81.25Q50,-86.25 45,-86.25L45,-86.25L5,-86.25L5,-86.25" stroke="rgba(0,0,0,1)" stroke-width="1" fill="rgba(0,0,0,0)" />
<path d="M25,-81.25L5,-61.25L25,-41.25" stroke="rgba(255,0,128,0.39215686274509803)" fill="rgba(0,0,0,0)"/>
<path d="M25,-41.25L45,-61.25L25,-81.25" stroke="rgba(128,0,255,0.39215686274509803)" fill="rgba(0,0,0,0)"/>
<path d="M7.5,-28.75L7.5,-28.75" fill="rgba(0,0,0,0)"/>
<path d="M7.5,-28.75L8.5,-28.75L8.5,-29.75L7.5,-29.75L7.5,-28.75" fill="rgba(0,0,0,0)" />
<path d="M7.5,-29.75L8.5,-29.75L8.5,-30.75L7.5,-30.75L7.5,-29.75" fill="rgba(0,0,0,1)" />
<path d="M7.5,-30.75L8.5,-30.75L8.5,-31.75L7.5,-31.75L7.5,-30.75" fill="rgba(0,0,0,1)" />
<path d="M7.5,-31.75L8.5,-31.75L8.5,-32.75L7.5,-32.75L7.5,-31.75" fill="rgba(0,0,0,1)" />
<path d="M7.5,-32.75L8.5,-32.75L8.5,-33.75L7.5,-33.75L7.5,-32.75" fill="rgba(0,0,0,0)" />
<path d="M8.5,-28.75L8.5,-28.75" fill="rgba(0,0,0,0)"/>
<path d="M8.5,-28.75L9.5,-28.75L9.5,-29.75L8.5,-29.75L8.5,-28.75" fill="rgba(0,0,0,1)" />
<path d="M8.5,-29.75L9.5,-29.75L9.5,-30.75L8.5,-30.75L8.5,-29.75" fill="rgba(0,0,0,0)" />
<path d="M8.5,-30.75L9.5,-30.75L9.5,-31.75L8.5,-31.75L8.5,-30.75" fill="rgba(0,0,0,0)" />
<path d="M8.5,-31.75L9.5,-31.75L9.5,-32.75L8.5,-32.75L8.5,-31.75" fill="rgba(0,0,0,0)" />
<path d="M8.5,-32.75L9.5,-32.75L9.5,-33.75L8.5,-33.75L8.5,-32.75" fill="rgba(0,0,0,1)" />
<path d="M9.5,-28.75L9.5,-28.75" fill="rgba(0,0,0,0)"/>
<path d="M9.5,-28.75L10.5,-28.75L10.5,-29.75L9.5,-29.75L9.5,-28.75" fill="rgba(0,0,0,1)" />
<path d="M9.5,-29.75L10.5,-29.75L10.5,-30.75L9.5,-30.75L9.5,-29.75" fill="rgba(0,0,0,0)" />
<path d="M9.5,-30.75L10.5,-30.75L10.5,-31.75L9.5,-31.75L9.5,-30.75" fill="rgba(0,0,0,0)" />
<path d="M9.5,-31.75L10.5,-31.75L10.5,-32.75L9.5,-32.75L9.5,-31.75" fill="rgba(0,0,0,0)" />
<path d="M9.5,-32.75L10.5,-32.75L10.5,-33.75L9.5,-33.75L9.5,-32.75" fill="rgba(0,0,0,1)" />
<path d="M10.5,-28.75L10.5,-28.75" fill="rgba(0,0,0,0)"/>
<path d="M10.5,-28.75L11.5,-28.75L11.5,-29.75L10.5,-29.75L10.5,-28.75" fill="rgba(0,0,0,1)" />
<path d="M10.5,-29.75L11.5,-29.75L11.5,-30.75L10.5,-30.75L10.5,-29.75" fill="rgba(0,0,0,0)" />
<path d="M10.5,-30.75L11.5,-30.75L11.5,-31.75L10.5,-31.75L10.5,-30.75" fill="rgba(0,0,0,0)" />
<path d="M10.5,-31.75L11.5,-31.75L11.5,-32.75L10.5,-32.75L10.5,-31.75" fill="rgba(0,0,0,0)" />
<path d="M10.5,-32.75L11.5,-32.75L11.5,-33.75L10.5,-33.75L10.5,-32.75" fill="rgba(0,0,0,1)" />
<path d="M12.5,-28.75L12.5,-28.75" fill="rgba(0,0,0,0)"/>
<path d="M12.5,-28.75L13.5,-28.75L13.5,-29.75L12.5,-29.75L12.5,-28.75" fill="rgba(0,0,0,0)" />
<path d="M12.5,-29.75L13.5,-29.75L13.5,-30.75L12.5,-30.75L12.5,-29.75" fill="rgba(0,0,0,1)" />
<path d="M12.5,-30.75L13.5,-30.75L13.5,-31.75L12.5,-31.75L12.5,-30.75" fill="rgba(0,0,0,1)" />
<path d="M12.5,-31.75L13.5,-31.75L13.5,-32.75L12.5,-32.75L12.5,-31.75" fill="rgba(0,0,0,1)" />
<path d="M12.5,-32.75L13.5,-32.75L13.5,-33.75L12.5,-33.75L12.5,-32.75" fill="rgba(0,0,0,0)" />
<path d="M13.5,-28.75L13.5,-28.75" fill="rgba(0,0,0,0)"/>
<path d="M13.5,-28.75L14.5,-28.75L14.5,-29.75L13.5,-29.75L13.5,-28.75" fill="rgba(0,0,0,1)" />
<path d="M13.5,-29.75L14.5,-29.75L14.5,-30.75L13.5,-30.75L13.5,-29.75" fill="rgba(0,0,0,0)" />
<path d="M13.5,-30.75L14.5,-30.75L14.5,-31.75L13.5,-31.75L13.5,-30.75" fill="rgba(0,0,0,0)" />
<path d="M13.5,-31.75L14.5,-31.75L14.5,-32.75L13.5,-32.75L13.5,-31.75" fill="rgba(0,0,0,0)" />
<path d="M13.5,-32.75L14.5,-32.75L14.5,-33.75L13.5,-33.75L13.5,-32.75" fill="rgba(0,0,0,1)" />
<path d="M14.5,-28.75L14.5,-28.75" fill="rgba(0,0,0,0)"/>
<path d="M14.5,-28.75L15.5,-28.75L15.5,-29.75L14.5,-29.75L14.5,-28.75" fill="rgba(0,0,0,1)" />
<path d="M14.5,-29.75L15.5,-29.75L15.5,-30.75L14.5,-30.75L14.5,-29.75" fill="rgba(0,0,0,0)" />
<path d="M14.5,-30.75L15.5,-30.75L15.5,-31.75L14.5,-31.75L14.5,-30.75" fill="rgba(0,0,0,0)" />
<path d="M14.5,-31.75L15.5,-31.75L15.5,-32.75L14.5,-32.75L14.5,-31.75" fill="rgba(0,0,0,0)" />
<path d="M14.5,-32.75L15.5,-32.75L15.5,-33.75L14.5,-33.75L14.5,-32.75" fill="rgba(0,0,0,1)" />
<path d="M15.5,-28.75L15.5,-28.75" fill="rgba(0,0,0,0)"/>
<path d="M15.5,-28.75L16.5,-28.75L16.5,-29.75L15.5,-29.75L15.5,-28.75" fill="rgba(0,0,0,0)" />
<path d="M15.5,-29.75L16.5,-29.75L16.5,-30.75L15.5,-30.75L15.5,-29.75" fill="rgba(0,0,0,1)" />
<path d="M15.5,-30.75L16.5,-30.75L16.5,-31.75L15.5,-31.75L15.5,-30.75" fill="rgba(0,0,0,1)" />
<path d="M15.5,-31.75L16.5,-31.75L16.5,-32.75L15.5,-32.75L15.5,-31.75" fill="rgba(0,0,0,1)" />
<path d="M15.5,-32.75L16.5,-32.75L16.5,-33.75L15.5,-33.75L15.5,-32.75" fill="rgba(0,0,0,0)" />
<path d="M17.5,-28.75L17.5,-28.75" fill="rgba(0,0,0,0)"/>
<path d="M17.5,-28.75L18.5,-28.75L18.5,-29.75L17.5,-29.75L17.5,-28.75" fill="rgba(0,0,0,1)" />
<path d="M17.5,-29.75L18.5,-29.75L18.5,-30.75L17.5,-30.75L17.5,-29.75" fill="rgba(0,0,0,1)" />
<path d="M17.5,-30.75L18.5,-30.75L18.5,-31.75L17.5,-31.75L17.5,-30.75" fill="rgba(0,0,0,1)" />
<path d="M17.5,-31.75L18.5,-31.75L18.5,-32.75L17.5,-32.75L17.5,-31.75" fill="rgba(0,0,0,1)" />
<path d="M17.5,-32.75L18.5,-32.75L18.5,-33.75L17.5,-33.75L17.5,-32.75" fill="rgba(0,0,0,1)" />
<path d="M18.5,-28.75L18.5,-28.75" fill="rgba(0,0,0,0)"/>
<path d="M18.5,-28.75L19.5,-28.75L19.5,-29.75L18.5,-29.75L18.5,-28.75" fill="rgba(0,0,0,0)" />
<path d="M18.5,-29.75L19.5,-29.75L19.5,-30.75L18.5,-30.75L18.5,-29.75" fill="rgba(0,0,0,0)" />
<path d="M18.5,-30.75L19.5,-30.75L19.5,-31.75L18.5,-31.75L18.5,-30.75" fill="rgba(0,0,0,0)" />
<path d="M18.5,-31.75L19.5,-31.75L19.5,-32.75L18.5,-32.75L18.5,-31.75" fill="rgba(0,0,0,1)" />
<path d="M18.5,-32.75L19.5,-32.75L19.5,-33.75L18.5,-33.75L18.5,-32.75" fill="rgba(0,0,0,0)" />
<path d="M19.5,-28.75L19.5,-28.75" fill="rgba(0,0,0,0)"/>
<path d="M19.5,-28.75L20.5,-28.75L20.5,-29.75L19.5,-29.75L19.5,-28.75" fill="rgba(0,0,0,0)" />
<path d="M19.5,-29.75L20.5,-29.75L20.5,-30.75L19.5,-30.75L19.5,-29.75" fill="rgba(0,0,0,0)" />
<path d="M19.5,-30.75L20.5,-30.75L20.5,-31.75L19.5,-31.75L19.5,-30.75" fill="rgba(0,0,0,1)" />
<path d="M19.5,-31.75L20.5,-31.75L20.5,-32.75L19.5,-32.75L19.5,-31.75" fill="rgba(0,0,0,0)" />
<path d="M19.5,-32.75L20.5,-32.75L20.5,-33.75L19.5,-33.75L19.5,-32.75" fill="rgba(0,0,0,0)" />
<path d="M20.5,-28.75L20.5,-28.75" fill="rgba(0,0,0,0)"/>
<path d="M20.5,-28.75L21.5,-28.75L21.5,-29.75L20.5,-29.75L20.5,-28.75" fill="rgba(0,0,0,0)" />
<path d="M20.5,-29.75L21.5,-29.75L21.5,-30.75L20.5,-30.75L20.5,-29.75" fill="rgba(0,0,0,0)" />
<path d="M20.5,-30.75L21.5,-30.75L21.5,-31.75L20.5,-31.75L20.5,-30.75" fill="rgba(0,0,0,0)" />
<path d="M20.5,-31.75L21.5,-31.75L21.5,-32.75L20.5,-32.75L20.5,-31.75" fill="rgba(0,0,0,1)" />
<path d="M20.5,-32.75L21.5,-32.75L21.5,-33.75L20.5,-33.75L20.5,-32.75" fill="rgba(0,0,0,0)" />
<path d="M21.5,-28.75L21.5,-28.75" fill="rgba(0,0,0,0)"/>
<path d="M21.5,-28.75L22.5,-28.75L22.5,-29.75L21.5,-29.75L21.5,-28.75" fill="rgba(0,0,0,1)" />
<path d="M21.5,-29.75L22.5,-29.75L22.5,-30.75L21.5,-30.75L21.5,-29.75" fill="rgba(0,0,0,1)" />
<path d="M21.5,-30.75L22.5,-30.75L22.5,-31.75L21.5,-31.75L21.5,-30.75" fill="rgba(0,0,0,1)" />
<path d="M21.5,-31.75L22.5,-31.75L22.5,-32.75L21.5,-32.75L21.5,-31.75" fill="rgba(0,0,0,1)" />
<path d="M21.5,-32.75L22.5,-32.75L22.5,-33.75L21.5,-33.75L21.5,-32.75" fill="rgba(0,0,0,1)" />
<path d="M23.5,-28.75L23.5,-28.75" fill="rgba(0,0,0,0)"/>
<path d="M23.5,-28.75L24.5,-28.75L24.5,-29.75L23.5,-29.75L23.5,-28.75" fill="rgba(0,0,0,1)" />
<path d="M23.5,-29.75L24.5,-29.75L24.5,-30.75L23.5,-30.75L23.5,-29.75" fill="rgba(0,0,0,1)" />
<path d="M23.5,-30.75L24.5,-30.75L24.5,-31.75L23.5,-31.75L23.5,-30.75" fill="rgba(0,0,0,1)" />
<path d="M23.5,-31.75L24.5,-31.75L24.5,-32.75L23.5,-32.75L23.5,-31.75" fill="rgba(0,0,0,1)" />
<path d="M23.5,-32.75L24.5,-32.75L24.5,-33.75L23.5,-33.75L23.5,-32.75" fill="rgba(0,0,0,1)" />
<path d="M24.5,-28.75L24.5,-28.75" fill="rgba(0,0,0,0)"/>
<path d="M24.5,-28.75L25.5,-28.75L25.5,-29.75L24.5,-29.75L24.5,-28.75" fill="rgba(0,0,0,1)" />
<path d="M24.5,-29.75L25.5,-29.75L25.5,-30.75L24.5,-30.75L24.5,-29.75" fill="rgba(0,0,0,0)" />
<path d="M24.5,-30.75L25.5,-30.75L25.5,-31.75L24.5,-31.75L24.5,-30.75" fill="rgba(0,0,0,1)" />
<path d="M24.5,-31.75L25.5,-31.75L25.5,-32.75L24.5,-32.75L24.5,-31.75" fill="rgba(0,0,0,0)" />
<path d="M24.5,-32.75L25.5,-32.75L25.5,-33.75L24.5,-33.75L24.5,-32.75" fill="rgba(0,0,0,1)" />
<path d="M25.5,-28.75L25.5,-28.75" fill="rgba(0,0,0,0)"/>
<path d="M25.5,-28.75L26.5,-28.75L26.5,-29.75L25.5,-29.75L25.5,-28.75" fill="rgba(0,0,0,1)" />
<path d="M25.5,-29.75L26.5,-29.75L26.5,-30.75L25.5,-30.75L25.5,-29.75" fill="rgba(0,0,0,0)" />
<path d="M25.5,-30.75L26.5,-30.75L26.5,-31.75L25.5,-31.75L25.5,-30.75" fill="rgba(0,0,0,1)" />
<path d="M25.5,-31.75L26.5,-31.75L26.5,-32.75L25.5,-32.75L25.5,-31.75" fill="rgba(0,0,0,0)" />
<path d="M25.5,-32.75L26.5,-32.75L26.5,-33.75L25.5,-33.75L25.5,-32.75" fill="rgba(0,0,0,1)" />
<path d="M26.5,-28.75L26.5,-28.75" fill="rgba(0,0,0,0)"/>
<path d="M26.5,-28.75L27.5,-28.75L27.5,-29.75L26.5,-29.75L26.5,-28.75" fill="rgba(0,0,0,0)" />
<path d="M26.5,-29.75L27.5,-29.75L27.5,-30.75L26.5,-30.75L26.5,-29.75" fill="rgba(0,0,0,1)" />
<path d="M26.5,-30.75L27.5,-30.75L27.5,-31.75L26.5,-31.75L26.5,-30.75" fill="rgba(0,0,0,1)" />
<path d="M26.5,-31.75L27.5,-31.75L27.5,-32.75L26.5,-32.75L26.5,-31.75" fill="rgba(0,0,0,1)" />
<path d="M26.5,-32.75L27.5,-32.75L27.5,-33.75L26.5,-33.75L26.5,-32.75" fill="rgba(0,0,0,0)" />
<path d="M28.5,-28.75L28.5,-28.75" fill="rgba(0,0,0,0)"/>
<path d="M28.5,-28.75L29.5,-28.75L29.5,-29.75L28.5,-29.75L28.5,-28.75" fill="rgba(0,0,0,1)" />
<path d="M28.5,-29.75L29.5,-29.75L29.5,-30.75L28.5,-30.75L28.5,-29.75" fill="rgba(0,0,0,0)" />
<path d="M28.5,-30.75L29.5,-30.75L29.5,-31.75L28.5,-31.75L28.5,-30.75" fill="rgba(0,0,0,0)" />
<path d="M28.5,-31.75L29.5,-31.75L29.5,-32.75L28.5,-32.75L28.5,-31.75" fill="rgba(0,0,0,0)" />
<path d="M28.5,-32.75L29.5,-32.75L29.5,-33.75L28.5,-33.75L28.5,-32.75" fill="rgba(0,0,0,1)" />
<path d="M29.5,-28.75L29.5,-28.75" fill="rgba(0,0,0,0)"/>
<path d="M29.5,-28.75L30.5,-28.75L30.5,-29.75L29.5,-29.75L29.5,-28.75" fill="rgba(0,0,0,1)" />
<path d="M29.5,-29.75L30.5,-29.75L30.5,-30.75L29.5,-30.75L29.5,-29.75" fill="rgba(0,0,0,1)" />
<path d="M29.5,-30.75L30.5,-30.75L30.5,-31.75L29.5,-31.75L29.5,-30.75" fill="rgba(0,0,0,1)" />
<path d="M29.5,-31.75L30.5,-31.75L30.5,-32.75L29.5,-32.75L29.5,-31.75" fill="rgba(0,0,0,1)" />
<path d="M29.5,-32.75L30.5,-32.75L30.5,-33.75L29.5,-33.75L29.5,-32.75" fill="rgba(0,0,0,1)" />
<path d="M30.5,-28.75L30.5,-28.75" fill="rgba(0,0,0,0)"/>
<path d="M30.5,-28.75L31.5,-28.75L31.5,-29.75L30.5,-29.75L30.5,-28.75" fill="rgba(0,0,0,1)" />
<path d="M30.5,-29.75L31.5,-29.75L31.5,-30.75L30.5,-30.75L30.5,-29.75" fill="rgba(0,0,0,0)" />
<path d="M30.5,-30.75L31.5,-30.75L31.5,-31.75L30.5,-31.75L30.5,-30.75" fill="rgba(0,0,0,0)" />
<path d="M30.5,-31.75L31.5,-31.75L31.5,-32.75L30.5,-32.75L30.5,-31.75" fill="rgba(0,0,0,0)" />
<path d="M30.5,-32.75L31.5,-32.75L31.5,-33.75L30.5,-33.75L30.5,-32.75" fill="rgba(0,0,0,1)" />
<path d="M32.5,-28.75L32.5,-28.75" fill="rgba(0,0,0,0)"/>
<path d="M32.5,-28.75L33.5,-28.75L33.5,-29.75L32.5,-29.75L32.5,-28.75" fill="rgba(0,0,0,1)" />
<path d="M32.5,-29.75L33.5,-29.75L33.5,-30.75L32.5,-30.75L32.5,-29.75" fill="rgba(0,0,0,1)" />
<path d="M32.5,-30.75L33.5,-30.75L33.5,-31.75L32.5,-31.75L32.5,-30.75" fill="rgba(0,0,0,1)" />
<path d="M32.5,-31.75L33.5,-31.75L33.5,-32.75L32.5,-32.75L32.5,-31.75" fill="rgba(0,0,0,1)" />
<path d="M32.5,-32.75L33.5,-32.75L33.5,-33.75L32.5,-33.75L32.5,-32.75" fill="rgba(0,0,0,1)" />
<path d="M33.5,-28.75L33.5,-28.75" fill="rgba(0,0,0,0)"/>
<path d="M33.5,-28.75L34.5,-28.75L34.5,-29.75L33.5,-29.75L33.5,-28.75" fill="rgba(0,0,0,0)" />
<path d="M33.5,-29.75L34.5,-29.75L34.5,-30.75L33.5,-30.75L33.5,-29.75" fill="rgba(0,0,0,0)" />
<path d="M33.5,-30.75L34.5,-30.75L34.5,-31.75L33.5,-31.75L33.5,-30.75" fill="rgba(0,0,0,0)" />
<path d="M33.5,-31.75L34.5,-31.75L34.5,-32.75L33.5,-32.75L33.5,-31.75" fill="rgba(0,0,0,1)" />
<path d="M33.5,-32.75L34.5,-32.75L34.5,-33.75L33.5,-33.75L33.5,-32.75" fill="rgba(0,0,0,0)" />
<path d="M34.5,-28.75L34.5,-28.75" fill="rgba(0,0,0,0)"/>
<path d="M34.5,-28.75L35.5,-28.75L35.5,-29.75L34.5,-29.75L34.5,-28.75" fill="rgba(0,0,0,0)" />
<path d="M34.5,-29.75L35.5,-29.75L35.5,-30.75L34.5,-30.75L34.5,-29.75" fill="rgba(0,0,0,0)" />
<path d="M34.5,-30.75L35.5,-30.75L35.5,-31.75L34.5,-31.75L34.5,-30.75" fill="rgba(0,0,0,1)" />
<path d="M34.5,-31.75L35.5,-31.75L35.5,-32.75L34.5,-32.75L34.5,-31.75" fill="rgba(0,0,0,0)" />
<path d="M34.5,-32.75L35.5,-32.75L35.5,-33.75L34.5,-33.75L34.5,-32.75" fill="rgba(0,0,0,0)" />
<path d="M35.5,-28.75L35.5,-28.75" fill="rgba(0,0,0,0)"/>
<path d="M35.5,-28.75L36.5,-28.75L36.5,-29.75L35.5,-29.75L35.5,-28.75" fill="rgba(0,0,0,0)" />
<path d="M35.5,-29.75L36.5,-29.75L36.5,-30.75L35.5,-30.75L35.5,-29.75" fill="rgba(0,0,0,1)" />
<path d="M35.5,-30.75L36.5,-30.75L36.5,-31.75L35.5,-31.75L35.5,-30.75" fill="rgba(0,0,0,0)" />
<path d="M35.5,-31.75L36.5,-31.75L36.5,-32.75L35.5,-32.75L35.5,-31.75" fill="rgba(0,0,0,0)" />
<path d="M35.5,-32.75L36.5,-32.75L36.5,-33.75L35.5,-33.75L35.5,-32.75" fill="rgba(0,0,0,0)" />
<path d="M36.5,-28.75L36.5,-28.75" fill="rgba(0,0,0,0)"/>
<path d="M36.5,-28.75L37.5,-28.75L37.5,-29.75L36.5,-29.75L36.5,-28.75" fill="rgba(0,0,0,1)" />
<path d="M36.5,-29.75L37.5,-29.75L37.5,-30.75L36.5,-30.75L36.5,-29.75" fill="rgba(0,0,0,1)" />
<path d="M36.5,-30.75L37.5,-30.75L37.5,-31.75L36.5,-31.75L36.5,-30.75" fill="rgba(0,0,0,1)" />
<path d="M36.5,-31.75L37.5,-31.75L37.5,-32.75L36.5,-32.75L36.5,-31.75" fill="rgba(0,0,0,1)" />
<path d="M36.5,-32.75L37.5,-32.75L37.5,-33.75L36.5,-33.75L36.5,-32.75" fill="rgba(0,0,0,1)" />
<path d="M38.5,-28.75L38.5,-28.75" fill="rgba(0,0,0,0)"/>
<path d="M38.5,-28.75L39.5,-28.75L39.5,-29.75L38.5,-29.75L38.5,-28.75" fill="rgba(0,0,0,1)" />
<path d="M38.5,-29.75L39.5,-29.75L39.5,-30.75L38.5,-30.75L38.5,-29.75" fill="rgba(0,0,0,1)" />
<path d="M38.5,-30.75L39.5,-30.75L39.5,-31.75L38.5,-31.75L38.5,-30.75" fill="rgba(0,0,0,1)" />
<path d="M38.5,-31.75L39.5,-31.75L39.5,-32.75L38.5,-32.75L38.5,-31.75" fill="rgba(0,0,0,1)" />
<path d="M38.5,-32.75L39.5,-32.75L39.5,-33.75L38.5,-33.75L38.5,-32.75" fill="rgba(0,0,0,1)" />
<path d="M39.5,-28.75L39.5,-28.75" fill="rgba(0,0,0,0)"/>
<path d="M39.5,-28.75L40.5,-28.75L40.5,-29.75L39.5,-29.75L39.5,-28.75" fill="rgba(0,0,0,1)" />
<path d="M39.5,-29.75L40.5,-29.75L40.5,-30.75L39.5,-30.75L39.5,-29.75" fill="rgba(0,0,0,0)" />
<path d="M39.5,-30.75L40.5,-30.75L40.5,-31.75L39.5,-31.75L39.5,-30.75" fill="rgba(0,0,0,1)" />
<path d="M39.5,-31.75L40.5,-31.75L40.5,-32.75L39.5,-32.75L39.5,-31.75" fill="rgba(0,0,0,0)" />
<path d="M39.5,-32.75L40.5,-32.75L40.5,-33.75L39.5,-33.75L39.5,-32.75" fill="rgba(0,0,0,1)" />
<path d="M40.5,-28.75L40.5,-28.75" fill="rgba(0,0,0,0)"/>
<path d="M40.5,-28.75L41.5,-28.75L41.5,-29.75L40.5,-29.75L40.5,-28.75" fill="rgba(0,0,0,1)" />
<path d="M40.5,-29.75L41.5,-29.75L41.5,-30.75L40.5,-30.75L40.5,-29.75" fill="rgba(0,0,0,0)" />
<path d="M40.5,-30.75L41.5,-30.75L41.5,-31.75L40.5,-31.75L40.5,-30.75" fill="rgba(0,0,0,1)" />
<path d="M40.5,-31.75L41.5,-31.75L41.5,-32.75L40.5,-32.75L40.5,-31.75" fill="rgba(0,0,0,0)" />
<path d="M40.5,-32.75L41.5,-32.75L41.5,-33.75L40.5,-33.75L40.5,-32.75" fill="rgba(0,0,0,1)" />
<path d="M41.5,-28.75L41.5,-28.75" fill="rgba(0,0,0,0)"/>
<path d="M41.5,-28.75L42.5,-28.75L42.5,-29.75L41.5,-29.75L41.5,-28.75" fill="rgba(0,0,0,1)" />
<path d="M41.5,-29.75L42.5,-29.75L42.5,-30.75L41.5,-30.75L41.5,-29.75" fill="rgba(0,0,0,0)" />
<path d="M41.5,-30.75L42.5,-30.75L42.5,-31.75L41.5,-31.75L41.5,-30.75" fill="rgba(0,0,0,1)" />
<path d="M41.5,-31.75L42.5,-31.75L42.5,-32.75L41.5,-32.75L41.5,-31.75" fill="rgba(0,0,0,0)" />
<path d="M41.5,-32.75L42.5,-32.75L42.5,-33.75L41.5,-33.75L41.5,-32.75" fill="rgba(0,0,0,1)" />
<path d="M5,-172.5Q0,-172.5 0,-167.5L0,-167.5L0,-117.5L0,-117.5Q0,-112.5 5,-112.5L5,-112.5L55,-112.5L55,-112.5Q60,-112.5 60,-117.5L60,-117.5L60,-167.5L60,-167.5Q60,-172.5 55,-172.5L55,-172.5L5,-172.5L5,-172.5" fill="rgba(0,0,0,0)" stroke-width="1" stroke="rgba(0,0,0,1)" />
<path d="M5,-117.5L55,-117.5L55,-167.5L5,-167.5L5,-117.5" fill="rgba(0,0,0,0)" stroke="rgba(0,0,255,0.39215686274509803)" stroke-width="1" />
<path d="M15,-105L15,-105" fill="rgba(0,0,0,0)"/>
<path d="M15,-105L16,-105L16,-106L15,-106L15,-105" fill="rgba(0,0,0,1)" />
<path d="M15,-106L16,-106L16,-107L15,-107L15,-106" fill="rgba(0,0,0,0)" />
<path d="M15,-107L16,-107L16,-108L15,-108L15,-107" fill="rgba(0,0,0,1)" />
<path d="M15,-108L16,-108L16,-109L15,-109L15,-108" fill="rgba(0,0,0,1)" />
<path d="M15,-109L16,-109L16,-110L15,-110L15,-109" fill="rgba(0,0,0,0)" />
<path d="M16,-105L16,-105" fill="rgba(0,0,0,0)"/>
<path d="M16,-105L17,-105L17,-106L16,-106L16,-105" fill="rgba(0,0,0,1)" />
<path d="M16,-106L17,-106L17,-107L16,-107L16,-106" fill="rgba(0,0,0,0)" />
<path d="M16,-107L17,-107L17,-108L16,-108L16,-107" fill="rgba(0,0,0,1)" />
<path d="M16,-108L17,-108L17,-109L16,-109L16,-108" fill="rgba(0,0,0,0)" />
<path d="M16,-109L17,-109L17,-110L16,-110L16,-109" fill="rgba(0,0,0,1)" />
<path d="M17,-105L17,-105" fill="rgba(0,0,0,0)"/>
<path d="M17,-105L18,-105L18,-106L17,-106L17,-105" fill="rgba(0,0,0,1)" />
<path d="M17,-106L18,-106L18,-107L17,-107L17,-106" fill="rgba(0,0,0,0)" />
<path d="M17,-107L18,-107L18,-108L17,-108L17,-107" fill="rgba(0,0,0,1)" />
<path d="M17,-108L18,-108L18,-109L17,-109L17,-108" fill="rgba(0,0,0,0)" />
<path d="M17,-109L18,-109L18,-110L17,-110L17,-109" fill="rgba(0,0,0,1)" />
<path d="M18,-105L18,-105" fill="rgba(0,0,0,0)"/>
<path d="M18,-105L19,-105L19,-106L18,-106L18,-105" fill="rgba(0,0,0,1)" />
<path d="M18,-106L19,-106L19,-107L18,-107L18,-106" fill="rgba(0,0,0,1)" />
<path d="M18,-107L19,-107L19,-108L18,-108L18,-107" fill="rgba(0,0,0,1)" />
<path d="M18,-108L19,-108L19,-109L18,-109L18,-108" fill="rgba(0,0,0,0)" />
<path d="M18,-109L19,-109L19,-110L18,-110L18,-109" fill="rgba(0,0,0,1)" />
<path d="M20,-105L20,-105" fill="rgba(0,0,0,0)"/>
<path d="M20,-105L21,-105L21,-106L20,-106L20,-105" fill="rgba(0,0,0,0)" />
<path d="M20,-106L21,-106L21,-107L20,-107L20,-106" fill="rgba(0,0,0,1)" />
<path d="M20,-107L21,-107L21,-108L20,-108L20,-107" fill="rgba(0,0,0,1)" />
<path d="M20,-108L21,-108L21,-109L20,-109L20,-108" fill="rgba(0,0,0,1)" />
<path d="M20,-109L21,-109L21,-110L20,-110L20,-109" fill="rgba(0,0,0,0)" />
<path d="M21,-105L21,-105" fill="rgba(0,0,0,0)"/>
<path d="M21,-105L22,-105L22,-106L21,-106L21,-105" fill="rgba(0,0,0,1)" />
<path d="M21,-106L22,-106L22,-107L21,-107L21,-106" fill="rgba(0,0,0,0)" />
<path d="M21,-107L22,-107L22,-108L21,-108L21,-107" fill="rgba(0,0,0,0)" />
<path d="M21,-108L22,-108L22,-109L21,-109L21,-108" fill="rgba(0,0,0,0)" />
<path d="M21,-109L22,-109L22,-110L21,-110L21,-109" fill="rgba(0,0,0,1)" />
<path d="M22,-105L22,-105" fill="rgba(0,0,0,0)"/>
<path d="M22,-105L23,-105L23,-106L22,-106L22,-105" fill="rgba(0,0,0,1)" />
<path d="M22,-106L23,-106L23,-107L22,-107L22,-106" fill="rgba(0,0,0,0)" />
<path d="M22,-107L23,-107L23,-108L22,-108L22,-107" fill="rgba(0,0,0,1)" />
<path d="M22,-108L23,-108L23,-109L22,-109L22,-108" fill="rgba(0,0,0,0)" />
<path d="M22,-109L23,-109L23,-110L22,-110L22,-109" fill="rgba(0,0,0,1)" />
<path d="M23,-105L23,-105" fill="rgba(0,0,0,0)"/>
<path d="M23,-105L24,-105L24,-106L23,-106L23,-105" fill="rgba(0,0,0,0)" />
<path d="M23,-106L24,-106L24,-107L23,-107L23,-106" fill="rgba(0,0,0,1)" />
<path d="M23,-107L24,-107L24,-108L23,-108L23,-107" fill="rgba(0,0,0,0)" />
<path d="M23,-108L24,-108L24,-109L23,-109L23,-108" fill="rgba(0,0,0,0)" />
<path d="M23,-109L24,-109L24,-110L23,-110L23,-109" fill="rgba(0,0,0,1)" />
<path d="M24,-105L24,-105" fill="rgba(0,0,0,0)"/>
<path d="M24,-105L25,-105L25,-106L24,-106L24,-105" fill="rgba(0,0,0,1)" />
<path d="M24,-106L25,-106L25,-107L24,-107L24,-106" fill="rgba(0,0,0,0)" />
<path d="M24,-107L25,-107L25,-108L24,-108L24,-107" fill="rgba(0,0,0,1)" />
<path d="M24,-108L25,-108L25,-109L24,-109L24,-108" fill="rgba(0,0,0,1)" />
<path d="M24,-109L25,-109L25,-110L24,-110L24,-109" fill="rgba(0,0,0,1)" />
<path d="M26,-105L26,-105" fill="rgba(0,0,0,0)"/>
<path d="M26,-105L27,-105L27,-106L26,-106L26,-105" fill="rgba(0,0,0,0)" />
<path d="M26,-106L27,-106L27,-107L26,-107L26,-106" fill="rgba(0,0,0,1)" />
<path d="M26,-107L27,-107L27,-108L26,-108L26,-107" fill="rgba(0,0,0,1)" />
<path d="M26,-108L27,-108L27,-109L26,-109L26,-108" fill="rgba(0,0,0,1)" />
<path d="M26,-109L27,-109L27,-110L26,-110L26,-109" fill="rgba(0,0,0,1)" />
<path d="M27,-105L27,-105" fill="rgba(0,0,0,0)"/>
<path d="M27,-105L28,-105L28,-106L27,-106L27,-105" fill="rgba(0,0,0,1)" />
<path d="M27,-106L28,-106L28,-107L27,-107L27,-106" fill="rgba(0,0,0,0)" />
<path d="M27,-107L28,-107L28,-108L27,-108L27,-107" fill="rgba(0,0,0,0)" />
<path d="M27,-108L28,-108L28,-109L27,-109L27,-108" fill="rgba(0,0,0,0)" />
<path d="M27,-109L28,-109L28,-110L27,-110L27,-109" fill="rgba(0,0,0,0)" />
<path d="M28,-105L28,-105" fill="rgba(0,0,0,0)"/>
<path d="M28,-105L29,-105L29,-106L28,-106L28,-105" fill="rgba(0,0,0,1)" />
<path d="M28,-106L29,-106L29,-107L28,-107L28,-106" fill="rgba(0,0,0,0)" />
<path d="M28,-107L29,-107L29,-108L28,-108L28,-107" fill="rgba(0,0,0,0)" />
<path d="M28,-108L29,-108L29,-109L28,-109L28,-108" fill="rgba(0,0,0,0)" />
<path d="M28,-109L29,-109L29,-110L28,-110L28,-109" fill="rgba(0,0,0,0)" />
<path d="M29,-105L29,-105" fill="rgba(0,0,0,0)"/>
<path d="M29,-105L30,-105L30,-106L29,-106L29,-105" fill="rgba(0,0,0,0)" />
<path d="M29,-106L30,-106L30,-107L29,-107L29,-106" fill="rgba(0,0,0,1)" />
<path d="M29,-107L30,-107L30,-108L29,-108L29,-107" fill="rgba(0,0,0,1)" />
<path d="M29,-108L30,-108L30,-109L29,-109L29,-108" fill="rgba(0,0,0,1)" />
<path d="M29,-109L30,-109L30,-110L29,-110L29,-109" fill="rgba(0,0,0,1)" />
<path d="M31,-105L31,-105" fill="rgba(0,0,0,0)"/>
<path d="M31,-105L32,-105L32,-106L31,-106L31,-105" fill="rgba(0,0,0,1)" />
<path d="M31,-106L32,-106L32,-107L31,-107L31,-106" fill="rgba(0,0,0,1)" />
<path d="M31,-107L32,-107L32,-108L31,-108L31,-107" fill="rgba(0,0,0,1)" />
<path d="M31,-108L32,-108L32,-109L31,-109L31,-108" fill="rgba(0,0,0,1)" />
<path d="M31,-109L32,-109L32,-110L31,-110L31,-109" fill="rgba(0,0,0,0)" />
<path d="M32,-105L32,-105" fill="rgba(0,0,0,0)"/>
<path d="M32,-105L33,-105L33,-106L32,-106L32,-105" fill="rgba(0,0,0,0)" />
<path d="M32,-106L33,-106L33,-107L32,-107L32,-106" fill="rgba(0,0,0,1)" />
<path d="M32,-107L33,-107L33,-108L32,-108L32,-107" fill="rgba(0,0,0,0)" />
<path d="M32,-108L33,-108L33,-109L32,-109L32,-108" fill="rgba(0,0,0,0)" />
<path d="M32,-109L33,-109L33,-110L32,-110L32,-109" fill="rgba(0,0,0,1)" />
<path d="M33,-105L33,-105" fill="rgba(0,0,0,0)"/>
<path d="M33,-105L34,-105L34,-106L33,-106L33,-105" fill="rgba(0,0,0,0)" />
<path d="M33,-106L34,-106L34,-107L33,-107L33,-106" fill="rgba(0,0,0,1)" />
<path d="M33,-107L34,-107L34,-108L33,-108L33,-107" fill="rgba(0,0,0,0)" />
<path d="M33,-108L34,-108L34,-109L33,-109L33,-108" fill="rgba(0,0,0,0)" />
<path d="M33,-109L34,-109L34,-110L33,-110L33,-109" fill="rgba(0,0,0,1)" />
<path d="M34,-105L34,-105" fill="rgba(0,0,0,0)"/>
<path d="M34,-105L35,-105L35,-106L34,-106L34,-105" fill="rgba(0,0,0,1)" />
<path d="M34,-106L35,-106L35,-107L34,-107L34,-106" fill="rgba(0,0,0,1)" />
<path d="M34,-107L35,-107L35,-108L34,-108L34,-107" fill="rgba(0,0,0,1)" />
<path d="M34,-108L35,-108L35,-109L34,-109L34,-108" fill="rgba(0,0,0,1)" />
<path d="M34,-109L35,-109L35,-110L34,-110L34,-109" fill="rgba(0,0,0,0)" />
<path d="M36,-105L36,-105" fill="rgba(0,0,0,0)"/>
<path d="M36,-105L37,-105L37,-106L36,-106L36,-105" fill="rgba(0,0,0,1)" />
<path d="M36,-106L37,-106L37,-107L36,-107L36,-106" fill="rgba(0,0,0,1)" />
<path d="M36,-107L37,-107L37,-108L36,-108L36,-107" fill="rgba(0,0,0,1)" />
<path d="M36,-108L37,-108L37,-109L36,-109L36,-108" fill="rgba(0,0,0,1)" />
<path d="M36,-109L37,-109L37,-110L36,-110L36,-109" fill="rgba(0,0,0,1)" />
<path d="M37,-105L37,-105" fill="rgba(0,0,0,0)"/>
<path d="M37,-105L38,-105L38,-106L37,-106L37,-105" fill="rgba(0,0,0,0)" />
<path d="M37,-106L38,-106L38,-107L37,-107L37,-106" fill="rgba(0,0,0,0)" />
<path d="M37,-107L38,-107L38,-108L37,-108L37,-107" fill="rgba(0,0,0,1)" />
<path d="M37,-108L38,-108L38,-109L37,-109L37,-108" fill="rgba(0,0,0,0)" />
<path d="M37,-109L38,-109L38,-110L37,-110L37,-109" fill="rgba(0,0,0,1)" />
<path d="M38,-105L38,-105" fill="rgba(0,0,0,0)"/>
<path d="M38,-105L39,-105L39,-106L38,-106L38,-105" fill="rgba(0,0,0,0)" />
<path d="M38,-106L39,-106L39,-107L38,-107L38,-106" fill="rgba(0,0,0,1)" />
<path d="M38,-107L39,-107L39,-108L38,-108L38,-107" fill="rgba(0,0,0,1)" />
<path d="M38,-108L39,-108L39,-109L38,-109L38,-108" fill="rgba(0,0,0,0)" />
<path d="M38,-109L39,-109L39,-110L38,-110L38,-109" fill="rgba(0,0,0,1)" />
<path d="M39,-105L39,-105" fill="rgba(0,0,0,0)"/>
<path d="M39,-105L40,-105L40,-106L39,-106L39,-105" fill="rgba(0,0,0,1)" />
<path d="M39,-106L40,-106L40,-107L39,-107L39,-106" fill="rgba(0,0,0,0)" />
<path d="M39,-107L40,-107L40,-108L39,-108L39,-107" fill="rgba(0,0,0,1)" />
<path d="M39,-108L40,-108L40,-109L39,-109L39,-108" fill="rgba(0,0,0,1)" />
<path d="M39,-109L40,-109L40,-110L39,-110L39,-109" fill="rgba(0,0,0,1)" />
<path d="M41,-105L41,-105" fill="rgba(0,0,0,0)"/>
<path d="M41,-105L42,-105L42,-106L41,-106L41,-105" fill="rgba(0,0,0,1)" />
<path d="M41,-106L42,-106L42,-107L41,-107L41,-106" fill="rgba(0,0,0,1)" />
<path d="M41,-107L42,-107L42,-108L41,-108L41,-107" fill="rgba(0,0,0,1)" />
<path d="M41,-108L42,-108L42,-109L41,-109L41,-108" fill="rgba(0,0,0,1)" />
<path d="M41,-109L42,-109L42,-110L41,-110L41,-109" fill="rgba(0,0,0,1)" />
<path d="M42,-105L42,-105" fill="rgba(0,0,0,0)"/>
<path d="M42,-105L43,-105L43,-106L42,-106L42,-105" fill="rgba(0,0,0,1)" />
<path d="M42,-106L43,-106L43,-107L42,-107L42,-106" fill="rgba(0,0,0,0)" />
<path d="M42,-107L43,-107L43,-108L42,-108L42,-107" fill="rgba(0,0,0,1)" />
<path d="M42,-108L43,-108L43,-109L42,-109L42,-108" fill="rgba(0,0,0,0)" />
<path d="M42,-109L43,-109L43,-110L42,-110L42,-109" fill="rgba(0,0,0,1)" />
<path d="M43,-105L43,-105" fill="rgba(0,0,0,0)"/>
<path d="M43,-105L44,-105L44,-106L43,-106L43,-105" fill="rgba(0,0,0,1)" />
<path d="M43,-106L44,-106L44,-107L43,-107L43,-106" fill="rgba(0,0,0,0)" />
<path d="M43,-107L44,-107L44,-108L43,-108L43,-107" fill="rgba(0,0,0,1)" />
<path d="M43,-108L44,-108L44,-109L43,-109L43,-108" fill="rgba(0,0,0,0)" />
<path d="M43,-109L44,-109L44,-110L43,-110L43,-109" fill="rgba(0,0,0,1)" />
<path d="M44,-105L44,-105" fill="rgba(0,0,0,0)"/>
<path d="M44,-105L45,-105L45,-106L44,-106L44,-105" fill="rgba(0,0,0,1)" />
<path d="M44,-106L45,-106L45,-107L44,-107L44,-106" fill="rgba(0,0,0,0)" />
<path d="M44,-107L45,-107L45,-108L44,-108L44,-107" fill="rgba(0,0,0,1)" />
<path d="M44,-108L45,-108L45,-109L44,-109L44,-108" fill="rgba(0,0,0,0)" />
<path d="M44,-109L45,-109L45,-110L44,-110L44,-109" fill="rgba(0,0,0,1)" />
<path d="M5,-268.75Q0,-268.75 0,-263.75L0,-263.75L0,-213.75L0,-213.75Q0,-208.75 5,-208.75L5,-208.75L55,-208.75L55,-208.75Q60,-208.75 60,-213.75L60,-213.75L60,-263.75L60,-263.75Q60,-268.75 55,-268.75L55,-268.75L5,-268.75L5,-268.75" stroke-width="1" fill="rgba(0,0,0,0)" stroke="rgba(0,0,0,1)" />
<path d="M5,-213.75L55,-213.75L30,-263.75L5,-213.75" stroke-width="1" fill="rgba(0,0,0,0)" stroke="rgba(0,255,0,0.39215686274509803)" />
<path d="M11,-201.25L11,-201.25" fill="rgba(0,0,0,0)"/>
<path d="M11,-201.25L12,-201.25L12,-202.25L11,-202.25L11,-201.25" fill="rgba(0,0,0,0)" />
<path d="M11,-202.25L12,-202.25L12,-203.25L11,-203.25L11,-202.25" fill="rgba(0,0,0,0)" />
<path d="M11,-203.25L12,-203.25L12,-204.25L11,-204.25L11,-203.25" fill="rgba(0,0,0,0)" />
<path d="M11,-204.25L12,-204.25L12,-205.25L11,-205.25L11,-204.25" fill="rgba(0,0,0,0)" />
<path d="M11,-205.25L12,-205.25L12,-206.25L11,-206.25L11,-205.25" fill="rgba(0,0,0,1)" />
<path d="M12,-201.25L12,-201.25" fill="rgba(0,0,0,0)"/>
<path d="M12,-201.25L13,-201.25L13,-202.25L12,-202.25L12,-201.25" fill="rgba(0,0,0,1)" />
<path d="M12,-202.25L13,-202.25L13,-203.25L12,-203.25L12,-202.25" fill="rgba(0,0,0,1)" />
<path d="M12,-203.25L13,-203.25L13,-204.25L12,-204.25L12,-203.25" fill="rgba(0,0,0,1)" />
<path d="M12,-204.25L13,-204.25L13,-205.25L12,-205.25L12,-204.25" fill="rgba(0,0,0,1)" />
<path d="M12,-205.25L13,-205.25L13,-206.25L12,-206.25L12,-205.25" fill="rgba(0,0,0,1)" />
<path d="M13,-201.25L13,-201.25" fill="rgba(0,0,0,0)"/>
<path d="M13,-201.25L14,-201.25L14,-202.25L13,-202.25L13,-201.25" fill="rgba(0,0,0,0)" />
<path d="M13,-202.25L14,-202.25L14,-203.25L13,-203.25L13,-202.25" fill="rgba(0,0,0,0)" />
<path d="M13,-203.25L14,-203.25L14,-204.25L13,-204.25L13,-203.25" fill="rgba(0,0,0,0)" />
<path d="M13,-204.25L14,-204.25L14,-205.25L13,-205.25L13,-204.25" fill="rgba(0,0,0,0)" />
<path d="M13,-205.25L14,-205.25L14,-206.25L13,-206.25L13,-205.25" fill="rgba(0,0,0,1)" />
<path d="M15,-201.25L15,-201.25" fill="rgba(0,0,0,0)"/>
<path d="M15,-201.25L16,-201.25L16,-202.25L15,-202.25L15,-201.25" fill="rgba(0,0,0,1)" />
<path d="M15,-202.25L16,-202.25L16,-203.25L15,-203.25L15,-202.25" fill="rgba(0,0,0,1)" />
<path d="M15,-203.25L16,-203.25L16,-204.25L15,-204.25L15,-203.25" fill="rgba(0,0,0,1)" />
<path d="M15,-204.25L16,-204.25L16,-205.25L15,-205.25L15,-204.25" fill="rgba(0,0,0,1)" />
<path d="M15,-205.25L16,-205.25L16,-206.25L15,-206.25L15,-205.25" fill="rgba(0,0,0,1)" />
<path d="M16,-201.25L16,-201.25" fill="rgba(0,0,0,0)"/>
<path d="M16,-201.25L17,-201.25L17,-202.25L16,-202.25L16,-201.25" fill="rgba(0,0,0,0)" />
<path d="M16,-202.25L17,-202.25L17,-203.25L16,-203.25L16,-202.25" fill="rgba(0,0,0,0)" />
<path d="M16,-203.25L17,-203.25L17,-204.25L16,-204.25L16,-203.25" fill="rgba(0,0,0,1)" />
<path d="M16,-204.25L17,-204.25L17,-205.25L16,-205.25L16,-204.25" fill="rgba(0,0,0,0)" />
<path d="M16,-205.25L17,-205.25L17,-206.25L16,-206.25L16,-205.25" fill="rgba(0,0,0,1)" />
<path d="M17,-201.25L17,-201.25" fill="rgba(0,0,0,0)"/>
<path d="M17,-201.25L18,-201.25L18,-202.25L17,-202.25L17,-201.25" fill="rgba(0,0,0,0)" />
<path d="M17,-202.25L18,-202.25L18,-203.25L17,-203.25L17,-202.25" fill="rgba(0,0,0,1)" />
<path d="M17,-203.25L18,-203.25L18,-204.25L17,-204.25L17,-203.25" fill="rgba(0,0,0,1)" />
<path d="M17,-204.25L18,-204.25L18,-205.25L17,-205.25L17,-204.25" fill="rgba(0,0,0,0)" />
<path d="M17,-205.25L18,-205.25L18,-206.25L17,-206.25L17,-205.25" fill="rgba(0,0,0,1)" />
<path d="M18,-201.25L18,-201.25" fill="rgba(0,0,0,0)"/>
<path d="M18,-201.25L19,-201.25L19,-202.25L18,-202.25L18,-201.25" fill="rgba(0,0,0,1)" />
<path d="M18,-202.25L19,-202.25L19,-203.25L18,-203.25L18,-202.25" fill="rgba(0,0,0,0)" />
<path d="M18,-203.25L19,-203.25L19,-204.25L18,-204.25L18,-203.25" fill="rgba(0,0,0,1)" />
<path d="M18,-204.25L19,-204.25L19,-205.25L18,-205.25L18,-204.25" fill="rgba(0,0,0,1)" />
<path d="M18,-205.25L19,-205.25L19,-206.25L18,-206.25L18,-205.25" fill="rgba(0,0,0,1)" />
<path d="M20,-201.25L20,-201.25" fill="rgba(0,0,0,0)"/>
<path d="M20,-201.25L21,-201.25L21,-202.25L20,-202.25L20,-201.25" fill="rgba(0,0,0,1)" />
<path d="M20,-202.25L21,-202.25L21,-203.25L20,-203.25L20,-202.25" fill="rgba(0,0,0,0)" />
<path d="M20,-203.25L21,-203.25L21,-204.25L20,-204.25L20,-203.25" fill="rgba(0,0,0,0)" />
<path d="M20,-204.25L21,-204.25L21,-205.25L20,-205.25L20,-204.25" fill="rgba(0,0,0,0)" />
<path d="M20,-205.25L21,-205.25L21,-206.25L20,-206.25L20,-205.25" fill="rgba(0,0,0,1)" />
<path d="M21,-201.25L21,-201.25" fill="rgba(0,0,0,0)"/>
<path d="M21,-201.25L22,-201.25L22,-202.25L21,-202.25L21,-201.25" fill="rgba(0,0,0,1)" />
<path d="M21,-202.25L22,-202.25L22,-203.25L21,-203.25L21,-202.25" fill="rgba(0,0,0,1)" />
<path d="M21,-203.25L22,-203.25L22,-204.25L21,-204.25L21,-203.25" fill="rgba(0,0,0,1)" />
<path d="M21,-204.25L22,-204.25L22,-205.25L21,-205.25L21,-204.25" fill="rgba(0,0,0,1)" />
<path d="M21,-205.25L22,-205.25L22,-206.25L21,-206.25L21,-205.25" fill="rgba(0,0,0,1)" />
<path d="M22,-201.25L22,-201.25" fill="rgba(0,0,0,0)"/>
<path d="M22,-201.25L23,-201.25L23,-202.25L22,-202.25L22,-201.25" fill="rgba(0,0,0,1)" />
<path d="M22,-202.25L23,-202.25L23,-203.25L22,-203.25L22,-202.25" fill="rgba(0,0,0,0)" />
<path d="M22,-203.25L23,-203.25L23,-204.25L22,-204.25L22,-203.25" fill="rgba(0,0,0,0)" />
<path d="M22,-204.25L23,-204.25L23,-205.25L22,-205.25L22,-204.25" fill="rgba(0,0,0,0)" />
<path d="M22,-205.25L23,-205.25L23,-206.25L22,-206.25L22,-205.25" fill="rgba(0,0,0,1)" />
<path d="M24,-201.25L24,-201.25" fill="rgba(0,0,0,0)"/>
<path d="M24,-201.25L25,-201.25L25,-202.25L24,-202.25L24,-201.25" fill="rgba(0,0,0,1)" />
<path d="M24,-202.25L25,-202.25L25,-203.25L24,-203.25L24,-202.25" fill="rgba(0,0,0,1)" />
<path d="M24,-203.25L25,-203.25L25,-204.25L24,-204.25L24,-203.25" fill="rgba(0,0,0,1)" />
<path d="M24,-204.25L25,-204.25L25,-205.25L24,-205.25L24,-204.25" fill="rgba(0,0,0,1)" />
<path d="M24,-205.25L25,-205.25L25,-206.25L24,-206.25L24,-205.25" fill="rgba(0,0,0,0)" />
<path d="M25,-201.25L25,-201.25" fill="rgba(0,0,0,0)"/>
<path d="M25,-201.25L26,-201.25L26,-202.25L25,-202.25L25,-201.25" fill="rgba(0,0,0,0)" />
<path d="M25,-202.25L26,-202.25L26,-203.25L25,-203.25L25,-202.25" fill="rgba(0,0,0,1)" />
<path d="M25,-203.25L26,-203.25L26,-204.25L25,-204.25L25,-203.25" fill="rgba(0,0,0,0)" />
<path d="M25,-204.25L26,-204.25L26,-205.25L25,-205.25L25,-204.25" fill="rgba(0,0,0,0)" />
<path d="M25,-205.25L26,-205.25L26,-206.25L25,-206.25L25,-205.25" fill="rgba(0,0,0,1)" />
<path d="M26,-201.25L26,-201.25" fill="rgba(0,0,0,0)"/>
<path d="M26,-201.25L27,-201.25L27,-202.25L26,-202.25L26,-201.25" fill="rgba(0,0,0,0)" />
<path d="M26,-202.25L27,-202.25L27,-203.25L26,-203.25L26,-202.25" fill="rgba(0,0,0,1)" />
<path d="M26,-203.25L27,-203.25L27,-204.25L26,-204.25L26,-203.25" fill="rgba(0,0,0,0)" />
<path d="M26,-204.25L27,-204.25L27,-205.25L26,-205.25L26,-204.25" fill="rgba(0,0,0,0)" />
<path d="M26,-205.25L27,-205.25L27,-206.25L26,-206.25L26,-205.25" fill="rgba(0,0,0,1)" />
<path d="M27,-201.25L27,-201.25" fill="rgba(0,0,0,0)"/>
<path d="M27,-201.25L28,-201.25L28,-202.25L27,-202.25L27,-201.25" fill="rgba(0,0,0,1)" />
<path d="M27,-202.25L28,-202.25L28,-203.25L27,-203.25L27,-202.25" fill="rgba(0,0,0,1)" />
<path d="M27,-203.25L28,-203.25L28,-204.25L27,-204.25L27,-203.25" fill="rgba(0,0,0,1)" />
<path d="M27,-204.25L28,-204.25L28,-205.25L27,-205.25L27,-204.25" fill="rgba(0,0,0,1)" />
<path d="M27,-205.25L28,-205.25L28,-206.25L27,-206.25L27,-205.25" fill="rgba(0,0,0,0)" />
<path d="M29,-201.25L29,-201.25" fill="rgba(0,0,0,0)"/>
<path d="M29,-201.25L30,-201.25L30,-202.25L29,-202.25L29,-201.25" fill="rgba(0,0,0,1)" />
<path d="M29,-202.25L30,-202.25L30,-203.25L29,-203.25L29,-202.25" fill="rgba(0,0,0,1)" />
<path d="M29,-203.25L30,-203.25L30,-204.25L29,-204.25L29,-203.25" fill="rgba(0,0,0,1)" />
<path d="M29,-204.25L30,-204.25L30,-205.25L29,-205.25L29,-204.25" fill="rgba(0,0,0,1)" />
<path d="M29,-205.25L30,-205.25L30,-206.25L29,-206.25L29,-205.25" fill="rgba(0,0,0,1)" />
<path d="M30,-201.25L30,-201.25" fill="rgba(0,0,0,0)"/>
<path d="M30,-201.25L31,-201.25L31,-202.25L30,-202.25L30,-201.25" fill="rgba(0,0,0,0)" />
<path d="M30,-202.25L31,-202.25L31,-203.25L30,-203.25L30,-202.25" fill="rgba(0,0,0,0)" />
<path d="M30,-203.25L31,-203.25L31,-204.25L30,-204.25L30,-203.25" fill="rgba(0,0,0,0)" />
<path d="M30,-204.25L31,-204.25L31,-205.25L30,-205.25L30,-204.25" fill="rgba(0,0,0,1)" />
<path d="M30,-205.25L31,-205.25L31,-206.25L30,-206.25L30,-205.25" fill="rgba(0,0,0,0)" />
<path d="M31,-201.25L31,-201.25" fill="rgba(0,0,0,0)"/>
<path d="M31,-201.25L32,-201.25L32,-202.25L31,-202.25L31,-201.25" fill="rgba(0,0,0,0)" />
<path d="M31,-202.25L32,-202.25L32,-203.25L31,-203.25L31,-202.25" fill="rgba(0,0,0,0)" />
<path d="M31,-203.25L32,-203.25L32,-204.25L31,-204.25L31,-203.25" fill="rgba(0,0,0,1)" />
<path d="M31,-204.25L32,-204.25L32,-205.25L31,-205.25L31,-204.25" fill="rgba(0,0,0,0)" />
<path d="M31,-205.25L32,-205.25L32,-206.25L31,-206.25L31,-205.25" fill="rgba(0,0,0,0)" />
<path d="M32,-201.25L32,-201.25" fill="rgba(0,0,0,0)"/>
<path d="M32,-201.25L33,-201.25L33,-202.25L32,-202.25L32,-201.25" fill="rgba(0,0,0,0)" />
<path d="M32,-202.25L33,-202.25L33,-203.25L32,-203.25L32,-202.25" fill="rgba(0,0,0,1)" />
<path d="M32,-203.25L33,-203.25L33,-204.25L32,-204.25L32,-203.25" fill="rgba(0,0,0,0)" />
<path d="M32,-204.25L33,-204.25L33,-205.25L32,-205.25L32,-204.25" fill="rgba(0,0,0,0)" />
<path d="M32,-205.25L33,-205.25L33,-206.25L32,-206.25L32,-205.25" fill="rgba(0,0,0,0)" />
<path d="M33,-201.25L33,-201.25" fill="rgba(0,0,0,0)"/>
<path d="M33,-201.25L34,-201.25L34,-202.25L33,-202.25L33,-201.25" fill="rgba(0,0,0,1)" />
<path d="M33,-202.25L34,-202.25L34,-203.25L33,-203.25L33,-202.25" fill="rgba(0,0,0,1)" />
<path d="M33,-203.25L34,-203.25L34,-204.25L33,-204.25L33,-203.25" fill="rgba(0,0,0,1)" />
<path d="M33,-204.25L34,-204.25L34,-205.25L33,-205.25L33,-204.25" fill="rgba(0,0,0,1)" />
<path d="M33,-205.25L34,-205.25L34,-206.25L33,-206.25L33,-205.25" fill="rgba(0,0,0,1)" />
<path d="M35,-201.25L35,-201.25" fill="rgba(0,0,0,0)"/>
<path d="M35,-201.25L36,-201.25L36,-202.25L35,-202.25L35,-201.25" fill="rgba(0,0,0,1)" />
<path d="M35,-202.25L36,-202.25L36,-203.25L35,-203.25L35,-202.25" fill="rgba(0,0,0,1)" />
<path d="M35,-203.25L36,-203.25L36,-204.25L35,-204.25L35,-203.25" fill="rgba(0,0,0,1)" />
<path d="M35,-204.25L36,-204.25L36,-205.25L35,-205.25L35,-204.25" fill="rgba(0,0,0,1)" />
<path d="M35,-205.25L36,-205.25L36,-206.25L35,-206.25L35,-205.25" fill="rgba(0,0,0,0)" />
<path d="M36,-201.25L36,-201.25" fill="rgba(0,0,0,0)"/>
<path d="M36,-201.25L37,-201.25L37,-202.25L36,-202.25L36,-201.25" fill="rgba(0,0,0,1)" />
<path d="M36,-202.25L37,-202.25L37,-203.25L36,-203.25L36,-202.25" fill="rgba(0,0,0,0)" />
<path d="M36,-203.25L37,-203.25L37,-204.25L36,-204.25L36,-203.25" fill="rgba(0,0,0,0)" />
<path d="M36,-204.25L37,-204.25L37,-205.25L36,-205.25L36,-204.25" fill="rgba(0,0,0,0)" />
<path d="M36,-205.25L37,-205.25L37,-206.25L36,-206.25L36,-205.25" fill="rgba(0,0,0,1)" />
<path d="M37,-201.25L37,-201.25" fill="rgba(0,0,0,0)"/>
<path d="M37,-201.25L38,-201.25L38,-202.25L37,-202.25L37,-201.25" fill="rgba(0,0,0,1)" />
<path d="M37,-202.25L38,-202.25L38,-203.25L37,-203.25L37,-202.25" fill="rgba(0,0,0,0)" />
<path d="M37,-203.25L38,-203.25L38,-204.25L37,-204.25L37,-203.25" fill="rgba(0,0,0,1)" />
<path d="M37,-204.25L38,-204.25L38,-205.25L37,-205.25L37,-204.25" fill="rgba(0,0,0,0)" />
<path d="M37,-205.25L38,-205.25L38,-206.25L37,-206.25L37,-205.25" fill="rgba(0,0,0,1)" />
<path d="M38,-201.25L38,-201.25" fill="rgba(0,0,0,0)"/>
<path d="M38,-201.25L39,-201.25L39,-202.25L38,-202.25L38,-201.25" fill="rgba(0,0,0,1)" />
<path d="M38,-202.25L39,-202.25L39,-203.25L38,-203.25L38,-202.25" fill="rgba(0,0,0,1)" />
<path d="M38,-203.25L39,-203.25L39,-204.25L38,-204.25L38,-203.25" fill="rgba(0,0,0,1)" />
<path d="M38,-204.25L39,-204.25L39,-205.25L38,-205.25L38,-204.25" fill="rgba(0,0,0,0)" />
<path d="M38,-205.25L39,-205.25L39,-206.25L38,-206.25L38,-205.25" fill="rgba(0,0,0,1)" />
<path d="M40,-201.25L40,-201.25" fill="rgba(0,0,0,0)"/>
<path d="M40,-201.25L41,-201.25L41,-202.25L40,-202.25L40,-201.25" fill="rgba(0,0,0,1)" />
<path d="M40,-202.25L41,-202.25L41,-203.25L40,-203.25L40,-202.25" fill="rgba(0,0,0,1)" />
<path d="M40,-203.25L41,-203.25L41,-204.25L40,-204.25L40,-203.25" fill="rgba(0,0,0,1)" />
<path d="M40,-204.25L41,-204.25L41,-205.25L40,-205.25L40,-204.25" fill="rgba(0,0,0,1)" />
<path d="M40,-205.25L41,-205.25L41,-206.25L40,-206.25L40,-205.25" fill="rgba(0,0,0,1)" />
<path d="M41,-201.25L41,-201.25" fill="rgba(0,0,0,0)"/>
<path d="M41,-201.25L42,-201.25L42,-202.25L41,-202.25L41,-201.25" fill="rgba(0,0,0,1)" />
<path d="M41,-202.25L42,-202.25L42,-203.25L41,-203.25L41,-202.25" fill="rgba(0,0,0,0)" />
<path d="M41,-203.25L42,-203.25L42,-204.25L41,-204.25L41,-203.25" fill="rgba(0,0,0,0)" />
<path d="M41,-204.25L42,-204.25L42,-205.25L41,-205.25L41,-204.25" fill="rgba(0,0,0,0)" />
<path d="M41,-205.25L42,-205.25L42,-206.25L41,-206.25L41,-205.25" fill="rgba(0,0,0,0)" />
<path d="M42,-201.25L42,-201.25" fill="rgba(0,0,0,0)"/>
<path d="M42,-201.25L43,-201.25L43,-202.25L42,-202.25L42,-201.25" fill="rgba(0,0,0,1)" />
<path d="M42,-202.25L43,-202.25L43,-203.25L42,-203.25L42,-202.25" fill="rgba(0,0,0,0)" />
<path d="M42,-203.25L43,-203.25L43,-204.25L42,-204.25L42,-203.25" fill="rgba(0,0,0,0)" />
<path d="M42,-204.25L43,-204.25L43,-205.25L42,-205.25L42,-204.25" fill="rgba(0,0,0,0)" />
<path d="M42,-205.25L43,-205.25L43,-206.25L42,-206.25L42,-205.25" fill="rgba(0,0,0,0)" />
<path d="M43,-201.25L43,-201.25" fill="rgba(0,0,0,0)"/>
<path d="M43,-201.25L44,-201.25L44,-202.25L43,-202.25L43,-201.25" fill="rgba(0,0,0,1)" />
<path d="M43,-202.25L44,-202.25L44,-203.25L43,-203.25L43,-202.25" fill="rgba(0,0,0,0)" />
<path d="M43,-203.25L44,-203.25L44,-204.25L43,-204.25L43,-203.25" fill="rgba(0,0,0,0)" />
<path d="M43,-204.25L44,-204.25L44,-205.25L43,-205.25L43,-204.25" fill="rgba(0,0,0,0)" />
<path d="M43,-205.25L44,-205.25L44,-206.25L43,-206.25L43,-205.25" fill="rgba(0,0,0,0)" />
<path d="M45,-201.25L45,-201.25" fill="rgba(0,0,0,0)"/>
<path d="M45,-201.25L46,-201.25L46,-202.25L45,-202.25L45,-201.25" fill="rgba(0,0,0,1)" />
<path d="M45,-202.25L46,-202.25L46,-203.25L45,-203.25L45,-202.25" fill="rgba(0,0,0,1)" />
<path d="M45,-203.25L46,-203.25L46,-204.25L45,-204.25L45,-203.25" fill="rgba(0,0,0,1)" />
<path d="M45,-204.25L46,-204.25L46,-205.25L45,-205.25L45,-204.25" fill="rgba(0,0,0,1)" />
<path d="M45,-205.25L46,-205.25L46,-206.25L45,-206.25L45,-205.25" fill="rgba(0,0,0,1)" />
<path d="M46,-201.25L46,-201.25" fill="rgba(0,0,0,0)"/>
<path d="M46,-201.25L47,-201.25L47,-202.25L46,-202.25L46,-201.25" fill="rgba(0,0,0,1)" />
<path d="M46,-202.25L47,-202.25L47,-203.25L46,-203.25L46,-202.25" fill="rgba(0,0,0,0)" />
<path d="M46,-203.25L47,-203.25L47,-204.25L46,-204.25L46,-203.25" fill="rgba(0,0,0,1)" />
<path d="M46,-204.25L47,-204.25L47,-205.25L46,-205.25L46,-204.25" fill="rgba(0,0,0,0)" />
<path d="M46,-205.25L47,-205.25L47,-206.25L46,-206.25L46,-205.25" fill="rgba(0,0,0,1)" />
<path d="M47,-201.25L47,-201.25" fill="rgba(0,0,0,0)"/>
<path d="M47,-201.25L48,-201.25L48,-202.25L47,-202.25L47,-201.25" fill="rgba(0,0,0,1)" />
<path d="M47,-202.25L48,-202.25L48,-203.25L47,-203.25L47,-202.25" fill="rgba(0,0,0,0)" />
<path d="M47,-203.25L48,-203.25L48,-204.25L47,-204.25L47,-203.25" fill="rgba(0,0,0,1)" />
<path d="M47,-204.25L48,-204.25L48,-205.25L47,-205.25L47,-204.25" fill="rgba(0,0,0,0)" />
<path d="M47,-205.25L48,-205.25L48,-206.25L47,-206.25L47,-205.25" fill="rgba(0,0,0,1)" />
<path d="M48,-201.25L48,-201.25" fill="rgba(0,0,0,0)"/>
<path d="M48,-201.25L49,-201.25L49,-202.25L48,-202.25L48,-201.25" fill="rgba(0,0,0,1)" />
<path d="M48,-202.25L49,-202.25L49,-203.25L48,-203.25L48,-202.25" fill="rgba(0,0,0,0)" />
<path d="M48,-203.25L49,-203.25L49,-204.25L48,-204.25L48,-203.25" fill="rgba(0,0,0,1)" />
<path d="M48,-204.25L49,-204.25L49,-205.25L48,-205.25L48,-204.25" fill="rgba(0,0,0,0)" />
<path d="M48,-205.25L49,-205.25L49,-206.25L48,-206.25L48,-205.25" fill="rgba(0,0,0,1)" />
<path d="M125,-0Q120,-0 120,5L120,5L120,55L120,55Q120,60 125,60L125,60L175,60L175,60Q180,60 180,55L180,55L180,5L180,5Q180,-0 175,-0L175,-0L125,-0L125,-0" stroke-width="1" fill="rgba(0,0,0,0)" stroke="rgba(0,0,0,1)" />
<path d="M125,55L175,55L150,5L125,55" stroke-width="1" fill="rgba(0,0,0,0)" stroke="rgba(0,255,0,0.39215686274509803)" />
<path d="M150,10L130,30L150,50" stroke="rgba(255,0,128,0.39215686274509803)" fill="rgba(0,0,0,0)"/>
<path d="M150,50L170,30L150,10" stroke="rgba(128,0,255,0.39215686274509803)" fill="rgba(0,0,0,0)"/>
<path d="M125,55L175,55L175,5L125,5L125,55" fill="rgba(0,0,0,0)" stroke="rgba(0,0,255,0.39215686274509803)" stroke-width="1" />
<path d="M140,67.5L140,67.5" fill="rgba(0,0,0,0)"/>
<path d="M140,67.5L141,67.5L141,66.5L140,66.5L140,67.5" fill="rgba(0,0,0,1)" />
<path d="M140,66.5L141,66.5L141,65.5L140,65.5L140,66.5" fill="rgba(0,0,0,1)" />
<path d="M140,65.5L141,65.5L141,64.5L140,64.5L140,65.5" fill="rgba(0,0,0,1)" />
<path d="M140,64.5L141,64.5L141,63.5L140,63.5L140,64.5" fill="rgba(0,0,0,1)" />
<path d="M140,63.5L141,63.5L141,62.5L140,62.5L140,63.5" fill="rgba(0,0,0,1)" />
<path d="M141,67.5L141,67.5" fill="rgba(0,0,0,0)"/>
<path d="M141,67.5L142,67.5L142,66.5L141,66.5L141,67.5" fill="rgba(0,0,0,0)" />
<path d="M141,66.5L142,66.5L142,65.5L141,65.5L141,66.5" fill="rgba(0,0,0,0)" />
<path d="M141,65.5L142,65.5L142,64.5L141,64.5L141,65.5" fill="rgba(0,0,0,0)" />
<path d="M141,64.5L142,64.5L142,63.5L141,63.5L141,64.5" fill="rgba(0,0,0,1)" />
<path d="M141,63.5L142,63.5L142,62.5L141,62.5L141,63.5" fill="rgba(0,0,0,0)" />
<path d="M142,67.5L142,67.5" fill="rgba(0,0,0,0)"/>
<path d="M142,67.5L143,67.5L143,66.5L142,66.5L142,67.5" fill="rgba(0,0,0,0)" />
<path d="M142,66.5L143,66.5L143,65.5L142,65.5L142,66.5" fill="rgba(0,0,0,0)" />
<path d="M142,65.5L143,65.5L143,64.5L142,64.5L142,65.5" fill="rgba(0,0,0,1)" />
<path d="M142,64.5L143,64.5L143,63.5L142,63.5L142,64.5" fill="rgba(0,0,0,0)" />
<path d="M142,63.5L143,63.5L143,62.5L142,62.5L142,63.5" fill="rgba(0,0,0,0)" />
<path d="M143,67.5L143,67.5" fill="rgba(0,0,0,0)"/>
<path d="M143,67.5L144,67.5L144,66.5L143,66.5L143,67.5" fill="rgba(0,0,0,0)" />
<path d="M143,66.5L144,66.5L144,65.5L143,65.5L143,66.5" fill="rgba(0,0,0,0)" />
<path d="M143,65.5L144,65.5L144,64.5L143,64.5L143,65.5" fill="rgba(0,0,0,0)" />
<path d="M143,64.5L144,64.5L144,63.5L143,63.5L143,64.5" fill="rgba(0,0,0,1)" />
<path d="M143,63.5L144,63.5L144,62.5L143,62.5L143,63.5" fill="rgba(0,0,0,0)" />
<path d="M144,67.5L144,67.5" fill="rgba(0,0,0,0)"/>
<path d="M144,67.5L145,67.5L145,66.5L144,66.5L144,67.5" fill="rgba(0,0,0,1)" />
<path d="M144,66.5L145,66.5L145,65.5L144,65.5L144,66.5" fill="rgba(0,0,0,1)" />
<path d="M144,65.5L145,65.5L145,64.5L144,64.5L144,65.5" fill="rgba(0,0,0,1)" />
<path d="M144,64.5L145,64.5L145,63.5L144,63.5L144,64.5" fill="rgba(0,0,0,1)" />
<path d="M144,63.5L145,63.5L145,62.5L144,62.5L144,63.5" fill="rgba(0,0,0,1)" />
<path d="M146,67.5L146,67.5" fill="rgba(0,0,0,0)"/>
<path d="M146,67.5L147,67.5L147,66.5L146,66.5L146,67.5" fill="rgba(0,0,0,1)" />
<path d="M146,66.5L147,66.5L147,65.5L146,65.5L146,66.5" fill="rgba(0,0,0,1)" />
<path d="M146,65.5L147,65.5L147,64.5L146,64.5L146,65.5" fill="rgba(0,0,0,1)" />
<path d="M146,64.5L147,64.5L147,63.5L146,63.5L146,64.5" fill="rgba(0,0,0,1)" />
<path d="M146,63.5L147,63.5L147,62.5L146,62.5L146,63.5" fill="rgba(0,0,0,0)" />
<path d="M147,67.5L147,67.5" fill="rgba(0,0,0,0)"/>
<path d="M147,67.5L148,67.5L148,66.5L147,66.5L147,67.5" fill="rgba(0,0,0,0)" />
<path d="M147,66.5L148,66.5L148,65.5L147,65.5L147,66.5" fill="rgba(0,0,0,1)" />
<path d="M147,65.5L148,65.5L148,64.5L147,64.5L147,65.5" fill="rgba(0,0,0,0)" />
<path d="M147,64.5L148,64.5L148,63.5L147,63.5L147,64.5" fill="rgba(0,0,0,0)" />
<path d="M147,63.5L148,63.5L148,62.5L147,62.5L147,63.5" fill="rgba(0,0,0,1)" />
<path d="M148,67.5L148,67.5" fill="rgba(0,0,0,0)"/>
<path d="M148,67.5L149,67.5L149,66.5L148,66.5L148,67.5" fill="rgba(0,0,0,0)" />
<path d="M148,66.5L149,66.5L149,65.5L148,65.5L148,66.5" fill="rgba(0,0,0,1)" />
<path d="M148,65.5L149,65.5L149,64.5L148,64.5L148,65.5" fill="rgba(0,0,0,0)" />
<path d="M148,64.5L149,64.5L149,63.5L148,63.5L148,64.5" fill="rgba(0,0,0,0)" />
<path d="M148,63.5L149,63.5L149,62.5L148,62.5L148,63.5" fill="rgba(0,0,0,1)" />
<path d="M149,67.5L149,67.5" fill="rgba(0,0,0,0)"/>
<path d="M149,67.5L150,67.5L150,66.5L149,66.5L149,67.5" fill="rgba(0,0,0,1)" />
<path d="M149,66.5L150,66.5L150,65.5L149,65.5L149,66.5" fill="rgba(0,0,0,1)" />
<path d="M149,65.5L150,65.5L150,64.5L149,64.5L149,65.5" fill="rgba(0,0,0,1)" />
<path d="M149,64.5L150,64.5L150,63.5L149,63.5L149,64.5" fill="rgba(0,0,0,1)" />
<path d="M149,63.5L150,63.5L150,62.5L149,62.5L149,63.5" fill="rgba(0,0,0,0)" />
<path d="M151,67.5L151,67.5" fill="rgba(0,0,0,0)"/>
<path d="M151,67.5L152,67.5L152,66.5L151,66.5L151,67.5" fill="rgba(0,0,0,1)" />
<path d="M151,66.5L152,66.5L152,65.5L151,65.5L151,66.5" fill="rgba(0,0,0,0)" />
<path d="M151,65.5L152,65.5L152,64.5L151,64.5L151,65.5" fill="rgba(0,0,0,0)" />
<path d="M151,64.5L152,64.5L152,63.5L151,63.5L151,64.5" fill="rgba(0,0,0,0)" />
<path d="M151,63.5L152,63.5L152,62.5L151,62.5L151,63.5" fill="rgba(0,0,0,1)" />
<path d="M152,67.5L152,67.5" fill="rgba(0,0,0,0)"/>
<path d="M152,67.5L153,67.5L153,66.5L152,66.5L152,67.5" fill="rgba(0,0,0,1)" />
<path d="M152,66.5L153,66.5L153,65.5L152,65.5L152,66.5" fill="rgba(0,0,0,1)" />
<path d="M152,65.5L153,65.5L153,64.5L152,64.5L152,65.5" fill="rgba(0,0,0,1)" />
<path d="M152,64.5L153,64.5L153,63.5L152,63.5L152,64.5" fill="rgba(0,0,0,1)" />
<path d="M152,63.5L153,63.5L153,62.5L152,62.5L152,63.5" fill="rgba(0,0,0,1)" />
<path d="M153,67.5L153,67.5" fill="rgba(0,0,0,0)"/>
<path d="M153,67.5L154,67.5L154,66.5L153,66.5L153,67.5" fill="rgba(0,0,0,1)" />
<path d="M153,66.5L154,66.5L154,65.5L153,65.5L153,66.5" fill="rgba(0,0,0,0)" />
<path d="M153,65.5L154,65.5L154,64.5L153,64.5L153,65.5" fill="rgba(0,0,0,0)" />
<path d="M153,64.5L154,64.5L154,63.5L153,63.5L153,64.5" fill="rgba(0,0,0,0)" />
<path d="M153,63.5L154,63.5L154,62.5L153,62.5L153,63.5" fill="rgba(0,0,0,1)" />
<path d="M155,67.5L155,67.5" fill="rgba(0,0,0,0)"/>
<path d="M155,67.5L156,67.5L156,66.5L155,66.5L155,67.5" fill="rgba(0,0,0,1)" />
<path d="M155,66.5L156,66.5L156,65.5L155,65.5L155,66.5" fill="rgba(0,0,0,1)" />
<path d="M155,65.5L156,65.5L156,64.5L155,64.5L155,65.5" fill="rgba(0,0,0,1)" />
<path d="M155,64.5L156,64.5L156,63.5L155,63.5L155,64.5" fill="rgba(0,0,0,1)" />
<path d="M155,63.5L156,63.5L156,62.5L155,62.5L155,63.5" fill="rgba(0,0,0,1)" />
<path d="M156,67.5L156,67.5" fill="rgba(0,0,0,0)"/>
<path d="M156,67.5L157,67.5L157,66.5L156,66.5L156,67.5" fill="rgba(0,0,0,0)" />
<path d="M156,66.5L157,66.5L157,65.5L156,65.5L156,66.5" fill="rgba(0,0,0,0)" />
<path d="M156,65.5L157,65.5L157,64.5L156,64.5L156,65.5" fill="rgba(0,0,0,0)" />
<path d="M156,64.5L157,64.5L157,63.5L156,63.5L156,64.5" fill="rgba(0,0,0,1)" />
<path d="M156,63.5L157,63.5L157,62.5L156,62.5L156,63.5" fill="rgba(0,0,0,0)" />
<path d="M157,67.5L157,67.5" fill="rgba(0,0,0,0)"/>
<path d="M157,67.5L158,67.5L158,66.5L157,66.5L157,67.5" fill="rgba(0,0,0,0)" />
<path d="M157,66.5L158,66.5L158,65.5L157,65.5L157,66.5" fill="rgba(0,0,0,0)" />
<path d="M157,65.5L158,65.5L158,64.5L157,64.5L157,65.5" fill="rgba(0,0,0,1)" />
<path d="M157,64.5L158,64.5L158,63.5L157,63.5L157,64.5" fill="rgba(0,0,0,0)" />
<path d="M157,63.5L158,63.5L158,62.5L157,62.5L157,63.5" fill="rgba(0,0,0,0)" />
<path d="M158,67.5L158,67.5" fill="rgba(0,0,0,0)"/>
<path d="M158,67.5L159,67.5L159,66.5L158,66.5L158,67.5" fill="rgba(0,0,0,0)" />
<path d="M158,66.5L159,66.5L159,65.5L158,65.5L158,66.5" fill="rgba(0,0,0,1)" />
<path d="M158,65.5L159,65.5L159,64.5L158,64.5L158,65.5" fill="rgba(0,0,0,0)" />
<path d="M158,64.5L159,64.5L159,63.5L158,63.5L158,64.5" fill="rgba(0,0,0,0)" />
<path d="M158,63.5L159,63.5L159,62.5L158,62.5L158,63.5" fill="rgba(0,0,0,0)" />
<path d="M159,67.5L159,67.5" fill="rgba(0,0,0,0)"/>
<path d="M159,67.5L160,67.5L160,66.5L159,66.5L159,67.5" fill="rgba(0,0,0,1)" />
<path d="M159,66.5L160,66.5L160,65.5L159,65.5L159,66.5" fill="rgba(0,0,0,1)" />
<path d="M159,65.5L160,65.5L160,64.5L159,64.5L159,65.5" fill="rgba(0,0,0,1)" />
<path d="M159,64.5L160,64.5L160,63.5L159,63.5L159,64.5" fill="rgba(0,0,0,1)" />
<path d="M159,63.5L160,63.5L160,62.5L159,62.5L159,63.5" fill="rgba(0,0,0,1)" />
</svg>
