<svg xmlns="http://www.w3.org/2000/svg" viewBox="-1 -451 1002 452">
<path d="M0,0L1000,0L1000,-450L0,-450L0,0" fill="rgba(173,216,230,1)" />
<path d="M929.9972405,-430C957.6685835,-429.934033 979.934033,-407.6685835 980,-379.9972405L980,-379.9972405C979.934033,-352.3258975 957.6685835,-330.060448 929.9972405,-329.994481L929.9972405,-329.994481C902.3258975,-330.060448 880.060448,-352.3258975 879.994481,-379.9972405L879.994481,-379.9972405C880.060448,-407.6685835 902.3258975,-429.934033 929.9972405,-430L929.9972405,-430" fill="rgba(255,234,0,1)" />
<path d="M375,-112L625,-112L625,-262L375,-262L375,-112" fill="rgba(0,0,255,1)" />
<path d="M410,-188L447,-188L447,-225L410,-225L410,-187.5L410,-188" stroke="rgba(0,0,0,1)" stroke-width="2" fill="rgba(173,216,230,1)" />
<path d="M410,-207L447,-207" stroke-width="2" stroke="rgba(0,0,0,1)" />
<path d="M428,-188L428,-225" stroke="rgba(0,0,0,1)" stroke-width="2" />
<path d="M469,-112L531,-112L531,-187L469,-187L469,-112" fill="rgba(0,0,0,1)" />
<path d="M375,-262L625,-262L500,-337L375,-262" fill="rgba(0,0,0,1)" />
</svg>
