<svg xmlns="http://www.w3.org/2000/svg" viewBox="-2.5 -17.5 3601 1901">
<path d="M198,983Q-2,983 -2,1183L-2,1183L-2,1683L-2,1683Q-2,1883 198,1883L198,1883L598,1883L598,1883Q798,1883 798,1683L798,1683L798,1183L798,1183Q798,983 598,983L598,983L198,983L198,983" stroke-width="1" stroke="rgba(0,0,0,0)" fill="rgba(67,178,236,1)" />
<path d="M198,1683L198,1683" />
<path d="M198,1683L298,1683L298,1583L198,1583L198,1683" fill="rgba(255,255,255,1)" />
<path d="M198,1583L298,1583L298,1483L198,1483L198,1583" fill="rgba(255,255,255,1)" />
<path d="M198,1483L298,1483L298,1383L198,1383L198,1483" fill="rgba(255,255,255,1)" />
<path d="M198,1383L298,1383L298,1283L198,1283L198,1383" fill="rgba(255,255,255,1)" />
<path d="M198,1283L298,1283L298,1183L198,1183L198,1283" fill="rgba(255,255,255,1)" />
<path d="M298,1683L298,1683" />
<path d="M298,1683L398,1683L398,1583L298,1583L298,1683" fill="rgba(255,255,255,1)" />
<path d="M298,1583L398,1583L398,1483L298,1483L298,1583" fill="rgba(0,0,0,0)" />
<path d="M298,1483L398,1483L398,1383L298,1383L298,1483" fill="rgba(0,0,0,0)" />
<path d="M298,1383L398,1383L398,1283L298,1283L298,1383" fill="rgba(0,0,0,0)" />
<path d="M298,1283L398,1283L398,1183L298,1183L298,1283" fill="rgba(255,255,255,1)" />
<path d="M398,1683L398,1683" />
<path d="M398,1683L498,1683L498,1583L398,1583L398,1683" fill="rgba(255,255,255,1)" />
<path d="M398,1583L498,1583L498,1483L398,1483L398,1583" fill="rgba(0,0,0,0)" />
<path d="M398,1483L498,1483L498,1383L398,1383L398,1483" fill="rgba(0,0,0,0)" />
<path d="M398,1383L498,1383L498,1283L398,1283L398,1383" fill="rgba(0,0,0,0)" />
<path d="M398,1283L498,1283L498,1183L398,1183L398,1283" fill="rgba(255,255,255,1)" />
<path d="M498,1683L498,1683" />
<path d="M498,1683L598,1683L598,1583L498,1583L498,1683" fill="rgba(0,0,0,0)" />
<path d="M498,1583L598,1583L598,1483L498,1483L498,1583" fill="rgba(255,255,255,1)" />
<path d="M498,1483L598,1483L598,1383L498,1383L498,1483" fill="rgba(255,255,255,1)" />
<path d="M498,1383L598,1383L598,1283L498,1283L498,1383" fill="rgba(255,255,255,1)" />
<path d="M498,1283L598,1283L598,1183L498,1183L498,1283" fill="rgba(0,0,0,0)" />
<path d="M1098,983Q898,983 898,1183L898,1183L898,1683L898,1683Q898,1883 1098,1883L1098,1883L1498,1883L1498,1883Q1698,1883 1698,1683L1698,1683L1698,1183L1698,1183Q1698,983 1498,983L1498,983L1098,983L1098,983" stroke="rgba(0,0,0,0)" fill="rgba(163,200,46,1)" stroke-width="1" />
<path d="M1098,1683L1098,1683" />
<path d="M1098,1683L1198,1683L1198,1583L1098,1583L1098,1683" fill="rgba(255,255,255,1)" />
<path d="M1098,1583L1198,1583L1198,1483L1098,1483L1098,1583" fill="rgba(255,255,255,1)" />
<path d="M1098,1483L1198,1483L1198,1383L1098,1383L1098,1483" fill="rgba(255,255,255,1)" />
<path d="M1098,1383L1198,1383L1198,1283L1098,1283L1098,1383" fill="rgba(255,255,255,1)" />
<path d="M1098,1283L1198,1283L1198,1183L1098,1183L1098,1283" fill="rgba(255,255,255,1)" />
<path d="M1198,1683L1198,1683" />
<path d="M1198,1683L1298,1683L1298,1583L1198,1583L1198,1683" fill="rgba(255,255,255,1)" />
<path d="M1198,1583L1298,1583L1298,1483L1198,1483L1198,1583" fill="rgba(0,0,0,0)" />
<path d="M1198,1483L1298,1483L1298,1383L1198,1383L1198,1483" fill="rgba(255,255,255,1)" />
<path d="M1198,1383L1298,1383L1298,1283L1198,1283L1198,1383" fill="rgba(0,0,0,0)" />
<path d="M1198,1283L1298,1283L1298,1183L1198,1183L1198,1283" fill="rgba(255,255,255,1)" />
<path d="M1298,1683L1298,1683" />
<path d="M1298,1683L1398,1683L1398,1583L1298,1583L1298,1683" fill="rgba(255,255,255,1)" />
<path d="M1298,1583L1398,1583L1398,1483L1298,1483L1298,1583" fill="rgba(0,0,0,0)" />
<path d="M1298,1483L1398,1483L1398,1383L1298,1383L1298,1483" fill="rgba(255,255,255,1)" />
<path d="M1298,1383L1398,1383L1398,1283L1298,1283L1298,1383" fill="rgba(0,0,0,0)" />
<path d="M1298,1283L1398,1283L1398,1183L1298,1183L1298,1283" fill="rgba(255,255,255,1)" />
<path d="M1398,1683L1398,1683" />
<path d="M1398,1683L1498,1683L1498,1583L1398,1583L1398,1683" fill="rgba(255,255,255,1)" />
<path d="M1398,1583L1498,1583L1498,1483L1398,1483L1398,1583" fill="rgba(0,0,0,0)" />
<path d="M1398,1483L1498,1483L1498,1383L1398,1383L1398,1483" fill="rgba(255,255,255,1)" />
<path d="M1398,1383L1498,1383L1498,1283L1398,1283L1398,1383" fill="rgba(0,0,0,0)" />
<path d="M1398,1283L1498,1283L1498,1183L1398,1183L1398,1283" fill="rgba(255,255,255,1)" />
<path d="M1998,983Q1798,983 1798,1183L1798,1183L1798,1683L1798,1683Q1798,1883 1998,1883L1998,1883L2498,1883L2498,1883Q2698,1883 2698,1683L2698,1683L2698,1183L2698,1183Q2698,983 2498,983L2498,983L1998,983L1998,983" fill="rgba(78,197,165,1)" stroke="rgba(0,0,0,0)" stroke-width="1" />
<path d="M1998,1683L1998,1683" />
<path d="M1998,1683L2098,1683L2098,1583L1998,1583L1998,1683" fill="rgba(255,255,255,1)" />
<path d="M1998,1583L2098,1583L2098,1483L1998,1483L1998,1583" fill="rgba(255,255,255,1)" />
<path d="M1998,1483L2098,1483L2098,1383L1998,1383L1998,1483" fill="rgba(255,255,255,1)" />
<path d="M1998,1383L2098,1383L2098,1283L1998,1283L1998,1383" fill="rgba(255,255,255,1)" />
<path d="M1998,1283L2098,1283L2098,1183L1998,1183L1998,1283" fill="rgba(255,255,255,1)" />
<path d="M2098,1683L2098,1683" />
<path d="M2098,1683L2198,1683L2198,1583L2098,1583L2098,1683" fill="rgba(0,0,0,0)" />
<path d="M2098,1583L2198,1583L2198,1483L2098,1483L2098,1583" fill="rgba(0,0,0,0)" />
<path d="M2098,1483L2198,1483L2198,1383L2098,1383L2098,1483" fill="rgba(0,0,0,0)" />
<path d="M2098,1383L2198,1383L2198,1283L2098,1283L2098,1383" fill="rgba(255,255,255,1)" />
<path d="M2098,1283L2198,1283L2198,1183L2098,1183L2098,1283" fill="rgba(0,0,0,0)" />
<path d="M2198,1683L2198,1683" />
<path d="M2198,1683L2298,1683L2298,1583L2198,1583L2198,1683" fill="rgba(0,0,0,0)" />
<path d="M2198,1583L2298,1583L2298,1483L2198,1483L2198,1583" fill="rgba(0,0,0,0)" />
<path d="M2198,1483L2298,1483L2298,1383L2198,1383L2198,1483" fill="rgba(255,255,255,1)" />
<path d="M2198,1383L2298,1383L2298,1283L2198,1283L2198,1383" fill="rgba(0,0,0,0)" />
<path d="M2198,1283L2298,1283L2298,1183L2198,1183L2198,1283" fill="rgba(0,0,0,0)" />
<path d="M2298,1683L2298,1683" />
<path d="M2298,1683L2398,1683L2398,1583L2298,1583L2298,1683" fill="rgba(0,0,0,0)" />
<path d="M2298,1583L2398,1583L2398,1483L2298,1483L2298,1583" fill="rgba(0,0,0,0)" />
<path d="M2298,1483L2398,1483L2398,1383L2298,1383L2298,1483" fill="rgba(0,0,0,0)" />
<path d="M2298,1383L2398,1383L2398,1283L2298,1283L2298,1383" fill="rgba(255,255,255,1)" />
<path d="M2298,1283L2398,1283L2398,1183L2298,1183L2298,1283" fill="rgba(0,0,0,0)" />
<path d="M2398,1683L2398,1683" />
<path d="M2398,1683L2498,1683L2498,1583L2398,1583L2398,1683" fill="rgba(255,255,255,1)" />
<path d="M2398,1583L2498,1583L2498,1483L2398,1483L2398,1583" fill="rgba(255,255,255,1)" />
<path d="M2398,1483L2498,1483L2498,1383L2398,1383L2398,1483" fill="rgba(255,255,255,1)" />
<path d="M2398,1383L2498,1383L2498,1283L2398,1283L2398,1383" fill="rgba(255,255,255,1)" />
<path d="M2398,1283L2498,1283L2498,1183L2398,1183L2398,1283" fill="rgba(255,255,255,1)" />
<path d="M2998,983Q2798,983 2798,1183L2798,1183L2798,1683L2798,1683Q2798,1883 2998,1883L2998,1883L3398,1883L3398,1883Q3598,1883 3598,1683L3598,1683L3598,1183L3598,1183Q3598,983 3398,983L3398,983L2998,983L2998,983" stroke="rgba(0,0,0,0)" fill="rgba(249,81,27,1)" stroke-width="1" />
<path d="M2998,1683L2998,1683" />
<path d="M2998,1683L3098,1683L3098,1583L2998,1583L2998,1683" fill="rgba(0,0,0,0)" />
<path d="M2998,1583L3098,1583L3098,1483L2998,1483L2998,1583" fill="rgba(255,255,255,1)" />
<path d="M2998,1483L3098,1483L3098,1383L2998,1383L2998,1483" fill="rgba(255,255,255,1)" />
<path d="M2998,1383L3098,1383L3098,1283L2998,1283L2998,1383" fill="rgba(255,255,255,1)" />
<path d="M2998,1283L3098,1283L3098,1183L2998,1183L2998,1283" fill="rgba(0,0,0,0)" />
<path d="M3098,1683L3098,1683" />
<path d="M3098,1683L3198,1683L3198,1583L3098,1583L3098,1683" fill="rgba(255,255,255,1)" />
<path d="M3098,1583L3198,1583L3198,1483L3098,1483L3098,1583" fill="rgba(0,0,0,0)" />
<path d="M3098,1483L3198,1483L3198,1383L3098,1383L3098,1483" fill="rgba(0,0,0,0)" />
<path d="M3098,1383L3198,1383L3198,1283L3098,1283L3098,1383" fill="rgba(0,0,0,0)" />
<path d="M3098,1283L3198,1283L3198,1183L3098,1183L3098,1283" fill="rgba(255,255,255,1)" />
<path d="M3198,1683L3198,1683" />
<path d="M3198,1683L3298,1683L3298,1583L3198,1583L3198,1683" fill="rgba(255,255,255,1)" />
<path d="M3198,1583L3298,1583L3298,1483L3198,1483L3198,1583" fill="rgba(0,0,0,0)" />
<path d="M3198,1483L3298,1483L3298,1383L3198,1383L3198,1483" fill="rgba(0,0,0,0)" />
<path d="M3198,1383L3298,1383L3298,1283L3198,1283L3198,1383" fill="rgba(0,0,0,0)" />
<path d="M3198,1283L3298,1283L3298,1183L3198,1183L3198,1283" fill="rgba(255,255,255,1)" />
<path d="M3298,1683L3298,1683" />
<path d="M3298,1683L3398,1683L3398,1583L3298,1583L3298,1683" fill="rgba(0,0,0,0)" />
<path d="M3298,1583L3398,1583L3398,1483L3298,1483L3298,1583" fill="rgba(255,255,255,1)" />
<path d="M3298,1483L3398,1483L3398,1383L3298,1383L3298,1483" fill="rgba(255,255,255,1)" />
<path d="M3298,1383L3398,1383L3398,1283L3298,1283L3298,1383" fill="rgba(255,255,255,1)" />
<path d="M3298,1283L3398,1283L3398,1183L3298,1183L3298,1283" fill="rgba(0,0,0,0)" />
<path d="M748,-17Q548,-17 548,183L548,183L548,683L548,683Q548,883 748,883L748,883L1148,883L1148,883Q1348,883 1348,683L1348,683L1348,183L1348,183Q1348,-17 1148,-17L1148,-17L748,-17L748,-17" fill="rgba(255,192,8,1)" stroke-width="1" stroke="rgba(0,0,0,0)" />
<path d="M748,683L748,683" />
<path d="M748,683L848,683L848,583L748,583L748,683" fill="rgba(255,255,255,1)" />
<path d="M748,583L848,583L848,483L748,483L748,583" fill="rgba(255,255,255,1)" />
<path d="M748,483L848,483L848,383L748,383L748,483" fill="rgba(255,255,255,1)" />
<path d="M748,383L848,383L848,283L748,283L748,383" fill="rgba(255,255,255,1)" />
<path d="M748,283L848,283L848,183L748,183L748,283" fill="rgba(255,255,255,1)" />
<path d="M848,683L848,683" />
<path d="M848,683L948,683L948,583L848,583L848,683" fill="rgba(255,255,255,1)" />
<path d="M848,583L948,583L948,483L848,483L848,583" fill="rgba(0,0,0,0)" />
<path d="M848,483L948,483L948,383L848,383L848,483" fill="rgba(0,0,0,0)" />
<path d="M848,383L948,383L948,283L848,283L848,383" fill="rgba(0,0,0,0)" />
<path d="M848,283L948,283L948,183L848,183L848,283" fill="rgba(255,255,255,1)" />
<path d="M948,683L948,683" />
<path d="M948,683L1048,683L1048,583L948,583L948,683" fill="rgba(255,255,255,1)" />
<path d="M948,583L1048,583L1048,483L948,483L948,583" fill="rgba(0,0,0,0)" />
<path d="M948,483L1048,483L1048,383L948,383L948,483" fill="rgba(0,0,0,0)" />
<path d="M948,383L1048,383L1048,283L948,283L948,383" fill="rgba(0,0,0,0)" />
<path d="M948,283L1048,283L1048,183L948,183L948,283" fill="rgba(255,255,255,1)" />
<path d="M1048,683L1048,683" />
<path d="M1048,683L1148,683L1148,583L1048,583L1048,683" fill="rgba(0,0,0,0)" />
<path d="M1048,583L1148,583L1148,483L1048,483L1048,583" fill="rgba(255,255,255,1)" />
<path d="M1048,483L1148,483L1148,383L1048,383L1048,483" fill="rgba(255,255,255,1)" />
<path d="M1048,383L1148,383L1148,283L1048,283L1048,383" fill="rgba(255,255,255,1)" />
<path d="M1048,283L1148,283L1148,183L1048,183L1048,283" fill="rgba(0,0,0,0)" />
<path d="M1648,-17Q1448,-17 1448,183L1448,183L1448,683L1448,683Q1448,883 1648,883L1648,883L2048,883L2048,883Q2248,883 2248,683L2248,683L2248,183L2248,183Q2248,-17 2048,-17L2048,-17L1648,-17L1648,-17" stroke="rgba(0,0,0,0)" stroke-width="1" fill="rgba(209,59,64,1)" />
<path d="M1648,683L1648,683" />
<path d="M1648,683L1748,683L1748,583L1648,583L1648,683" fill="rgba(255,255,255,1)" />
<path d="M1648,583L1748,583L1748,483L1648,483L1648,583" fill="rgba(255,255,255,1)" />
<path d="M1648,483L1748,483L1748,383L1648,383L1648,483" fill="rgba(255,255,255,1)" />
<path d="M1648,383L1748,383L1748,283L1648,283L1648,383" fill="rgba(255,255,255,1)" />
<path d="M1648,283L1748,283L1748,183L1648,183L1648,283" fill="rgba(0,0,0,0)" />
<path d="M1748,683L1748,683" />
<path d="M1748,683L1848,683L1848,583L1748,583L1748,683" fill="rgba(0,0,0,0)" />
<path d="M1748,583L1848,583L1848,483L1748,483L1748,583" fill="rgba(255,255,255,1)" />
<path d="M1748,483L1848,483L1848,383L1748,383L1748,483" fill="rgba(0,0,0,0)" />
<path d="M1748,383L1848,383L1848,283L1748,283L1748,383" fill="rgba(0,0,0,0)" />
<path d="M1748,283L1848,283L1848,183L1748,183L1748,283" fill="rgba(255,255,255,1)" />
<path d="M1848,683L1848,683" />
<path d="M1848,683L1948,683L1948,583L1848,583L1848,683" fill="rgba(0,0,0,0)" />
<path d="M1848,583L1948,583L1948,483L1848,483L1848,583" fill="rgba(255,255,255,1)" />
<path d="M1848,483L1948,483L1948,383L1848,383L1848,483" fill="rgba(0,0,0,0)" />
<path d="M1848,383L1948,383L1948,283L1848,283L1848,383" fill="rgba(0,0,0,0)" />
<path d="M1848,283L1948,283L1948,183L1848,183L1848,283" fill="rgba(255,255,255,1)" />
<path d="M1948,683L1948,683" />
<path d="M1948,683L2048,683L2048,583L1948,583L1948,683" fill="rgba(255,255,255,1)" />
<path d="M1948,583L2048,583L2048,483L1948,483L1948,583" fill="rgba(255,255,255,1)" />
<path d="M1948,483L2048,483L2048,383L1948,383L1948,483" fill="rgba(255,255,255,1)" />
<path d="M1948,383L2048,383L2048,283L1948,283L1948,383" fill="rgba(255,255,255,1)" />
<path d="M1948,283L2048,283L2048,183L1948,183L1948,283" fill="rgba(0,0,0,0)" />
<path d="M2548,-17Q2348,-17 2348,183L2348,183L2348,683L2348,683Q2348,883 2548,883L2548,883L2848,883L2848,883Q3048,883 3048,683L3048,683L3048,183L3048,183Q3048,-17 2848,-17L2848,-17L2548,-17L2548,-17" fill="rgba(221,111,157,1)" stroke="rgba(0,0,0,0)" stroke-width="1" />
<path d="M2548,683L2548,683" />
<path d="M2548,683L2648,683L2648,583L2548,583L2548,683" fill="rgba(255,255,255,1)" />
<path d="M2548,583L2648,583L2648,483L2548,483L2548,583" fill="rgba(255,255,255,1)" />
<path d="M2548,483L2648,483L2648,383L2548,383L2548,483" fill="rgba(255,255,255,1)" />
<path d="M2548,383L2648,383L2648,283L2548,283L2548,383" fill="rgba(255,255,255,1)" />
<path d="M2548,283L2648,283L2648,183L2548,183L2548,283" fill="rgba(255,255,255,1)" />
<path d="M2648,683L2648,683" />
<path d="M2648,683L2748,683L2748,583L2648,583L2648,683" fill="rgba(0,0,0,0)" />
<path d="M2648,583L2748,583L2748,483L2648,483L2648,583" fill="rgba(0,0,0,0)" />
<path d="M2648,483L2748,483L2748,383L2648,383L2648,483" fill="rgba(255,255,255,1)" />
<path d="M2648,383L2748,383L2748,283L2648,283L2648,383" fill="rgba(0,0,0,0)" />
<path d="M2648,283L2748,283L2748,183L2648,183L2648,283" fill="rgba(255,255,255,1)" />
<path d="M2748,683L2748,683" />
<path d="M2748,683L2848,683L2848,583L2748,583L2748,683" fill="rgba(0,0,0,0)" />
<path d="M2748,583L2848,583L2848,483L2748,483L2748,583" fill="rgba(0,0,0,0)" />
<path d="M2748,483L2848,483L2848,383L2748,383L2748,483" fill="rgba(255,255,255,1)" />
<path d="M2748,383L2848,383L2848,283L2748,283L2748,383" fill="rgba(255,255,255,1)" />
<path d="M2748,283L2848,283L2848,183L2748,183L2748,283" fill="rgba(255,255,255,1)" />
</svg>
