<svg xmlns="http://www.w3.org/2000/svg" viewBox="-12 -11 292 123">
<path d="M0,100L100,100" stroke="rgba(0,0,0,1)" />
<path d="M100,100L100,0" stroke="rgba(0,0,0,1)" />
<path d="M100,0L0,0" stroke="rgba(0,0,0,1)" />
<path d="M0.000055190000000093775,100C0.55348205,100.00131934 0.99879104,100.44662833 1.0001103800000002,101.00005519L1.0001103800000002,101.00005519C0.99879104,101.55348205 0.55348205,101.99879104 0.000055190000000093775,102.00011038L0.000055190000000093775,102.00011038C-0.5533716699999999,101.99879104 -0.9986806599999999,101.55348205 -1,101.00005519L-1,101.00005519C-0.9986806599999999,100.44662833 -0.5533716699999999,100.00131934 0.000055190000000093775,100L0.000055190000000093775,100" fill="rgba(200,29,51,1)" />
<path d="M100.00005519,100C100.55348205,100.00131934 100.99879104,100.44662833 101.00011038,101.00005519L101.00011038,101.00005519C100.99879104,101.55348205 100.55348205,101.99879104 100.00005519,102.00011038L100.00005519,102.00011038C99.44662833,101.99879104 99.00131934,101.55348205 99,101.00005519L99,101.00005519C99.00131934,100.44662833 99.44662833,100.00131934 100.00005519,100L100.00005519,100" fill="rgba(200,29,51,1)" />
<path d="M100.00005519,-0C100.55348205,0.0013193400000001132 100.99879104,0.44662833000000013 101.00011038,1.00005519L101.00011038,1.00005519C100.99879104,1.55348205 100.55348205,1.99879104 100.00005519,2.00011038L100.00005519,2.00011038C99.44662833,1.99879104 99.00131934,1.55348205 99,1.00005519L99,1.00005519C99.00131934,0.44662833000000013 99.44662833,0.0013193400000001132 100.00005519,-0L100.00005519,-0" fill="rgba(200,29,51,1)" />
<path d="M0.000055190000000093775,-0C0.55348205,0.0013193400000001132 0.99879104,0.44662833000000013 1.0001103800000002,1.00005519L1.0001103800000002,1.00005519C0.99879104,1.55348205 0.55348205,1.99879104 0.000055190000000093775,2.00011038L0.000055190000000093775,2.00011038C-0.5533716699999999,1.99879104 -0.9986806599999999,1.55348205 -1,1.00005519L-1,1.00005519C-0.9986806599999999,0.44662833000000013 -0.5533716699999999,0.0013193400000001132 0.000055190000000093775,-0L0.000055190000000093775,-0" fill="rgba(200,29,51,1)" />
<path d="M121.00011038,50.00005519L151.00011038,50.00005519" stroke="rgba(0,0,0,1)" />
<path d="M151.00011038,50.00005519L141.00011038,45.00005519L141.00011038,55.00005519L151.00011038,50.00005519" fill="rgba(0,0,0,1)" stroke="rgba(0,0,0,1)" />
<path d="M172.00011038,100L272.00011038,100" stroke="rgba(0,0,0,1)" />
<path d="M272.00011038,100L272.00011038,-0" stroke="rgba(0,0,0,1)" />
<path d="M272.00011038,-0L172.00011038,-0" stroke="rgba(0,0,0,1)" />
<path d="M172.00011038,98.33333333333333L172.00011038,96.66666666666666" stroke="rgba(0,0,0,1)" />
<path d="M172.00011038,95L172.00011038,93.33333333333333" stroke="rgba(0,0,0,1)" />
<path d="M172.00011038,91.66666666666666L172.00011038,90" stroke="rgba(0,0,0,1)" />
<path d="M172.00011038,88.33333333333333L172.00011038,86.66666666666666" stroke="rgba(0,0,0,1)" />
<path d="M172.00011038,85L172.00011038,83.33333333333333" stroke="rgba(0,0,0,1)" />
<path d="M172.00011038,81.66666666666667L172.00011038,80" stroke="rgba(0,0,0,1)" />
<path d="M172.00011038,78.33333333333333L172.00011038,76.66666666666666" stroke="rgba(0,0,0,1)" />
<path d="M172.00011038,75L172.00011038,73.33333333333333" stroke="rgba(0,0,0,1)" />
<path d="M172.00011038,71.66666666666666L172.00011038,70" stroke="rgba(0,0,0,1)" />
<path d="M172.00011038,68.33333333333333L172.00011038,66.66666666666667" stroke="rgba(0,0,0,1)" />
<path d="M172.00011038,65L172.00011038,63.33333333333333" stroke="rgba(0,0,0,1)" />
<path d="M172.00011038,61.666666666666664L172.00011038,59.99999999999999" stroke="rgba(0,0,0,1)" />
<path d="M172.00011038,58.33333333333333L172.00011038,56.66666666666666" stroke="rgba(0,0,0,1)" />
<path d="M172.00011038,54.99999999999999L172.00011038,53.33333333333333" stroke="rgba(0,0,0,1)" />
<path d="M172.00011038,51.666666666666664L172.00011038,49.99999999999999" stroke="rgba(0,0,0,1)" />
<path d="M172.00011038,48.33333333333333L172.00011038,46.66666666666666" stroke="rgba(0,0,0,1)" />
<path d="M172.00011038,44.99999999999999L172.00011038,43.33333333333332" stroke="rgba(0,0,0,1)" />
<path d="M172.00011038,41.666666666666664L172.00011038,39.99999999999999" stroke="rgba(0,0,0,1)" />
<path d="M172.00011038,38.33333333333333L172.00011038,36.66666666666666" stroke="rgba(0,0,0,1)" />
<path d="M172.00011038,35L172.00011038,33.33333333333333" stroke="rgba(0,0,0,1)" />
<path d="M172.00011038,31.66666666666667L172.00011038,30" stroke="rgba(0,0,0,1)" />
<path d="M172.00011038,28.33333333333333L172.00011038,26.666666666666657" stroke="rgba(0,0,0,1)" />
<path d="M172.00011038,25L172.00011038,23.33333333333333" stroke="rgba(0,0,0,1)" />
<path d="M172.00011038,21.666666666666657L172.00011038,20" stroke="rgba(0,0,0,1)" />
<path d="M172.00011038,18.33333333333333L172.00011038,16.666666666666657" stroke="rgba(0,0,0,1)" />
<path d="M172.00011038,14.999999999999986L172.00011038,13.333333333333329" stroke="rgba(0,0,0,1)" />
<path d="M172.00011038,11.666666666666657L172.00011038,10" stroke="rgba(0,0,0,1)" />
<path d="M172.00011038,8.333333333333329L172.00011038,6.666666666666671" stroke="rgba(0,0,0,1)" />
<path d="M172.00011038,5L172.00011038,3.3333333333333286" stroke="rgba(0,0,0,1)" />
<path d="M172.00011038,1.6666666666666572L172.00011038,-0" stroke="rgba(0,0,0,1)" />
<path d="M172.00016557,100C172.55359243,100.00131934 172.99890141999998,100.44662833 173.00022076,101.00005519L173.00022076,101.00005519C172.99890141999998,101.55348205 172.55359243,101.99879104 172.00016557,102.00011038L172.00016557,102.00011038C171.44673871,101.99879104 171.00142972,101.55348205 171.00011038,101.00005519L171.00011038,101.00005519C171.00142972,100.44662833 171.44673871,100.00131934 172.00016557,100L172.00016557,100" fill="rgba(200,29,51,1)" />
<path d="M272.00016557,100C272.55359243,100.00131934 272.99890142,100.44662833 273.00022076,101.00005519L273.00022076,101.00005519C272.99890142,101.55348205 272.55359243,101.99879104 272.00016557,102.00011038L272.00016557,102.00011038C271.44673871,101.99879104 271.00142972,101.55348205 271.00011038,101.00005519L271.00011038,101.00005519C271.00142972,100.44662833 271.44673871,100.00131934 272.00016557,100L272.00016557,100" fill="rgba(200,29,51,1)" />
<path d="M272.00016557,-0C272.55359243,0.0013193400000001132 272.99890142,0.44662833000000013 273.00022076,1.00005519L273.00022076,1.00005519C272.99890142,1.55348205 272.55359243,1.99879104 272.00016557,2.00011038L272.00016557,2.00011038C271.44673871,1.99879104 271.00142972,1.55348205 271.00011038,1.00005519L271.00011038,1.00005519C271.00142972,0.44662833000000013 271.44673871,0.0013193400000001132 272.00016557,-0L272.00016557,-0" fill="rgba(200,29,51,1)" />
<path d="M172.00016557,-0C172.55359243,0.0013193400000001132 172.99890141999998,0.44662833000000013 173.00022076,1.00005519L173.00022076,1.00005519C172.99890141999998,1.55348205 172.55359243,1.99879104 172.00016557,2.00011038L172.00016557,2.00011038C171.44673871,1.99879104 171.00142972,1.55348205 171.00011038,1.00005519L171.00011038,1.00005519C171.00142972,0.44662833000000013 171.44673871,0.0013193400000001132 172.00016557,-0L172.00016557,-0" fill="rgba(200,29,51,1)" />
<path d="M99,-9L99,-10" />
<path d="M100,-9L100,-10" />
<path d="M102,-10L100,-10" stroke="rgba(200,29,51,1)" />
<path d="M100,-5L100,-10" stroke="rgba(200,29,51,1)" />
<path d="M100,-5L102,-5" stroke="rgba(200,29,51,1)" />
<path d="M103,-6.7272727272727275L103,-7.7272727272727275" />
<path d="M103,-7.7272727272727275L105,-7.7272727272727275" stroke="rgba(200,29,51,1)" />
<path d="M103,-5.2272727272727275L103,-7.2272727272727275" stroke="rgba(200,29,51,1)" />
<path d="M103,-5.2272727272727275L105,-5.2272727272727275" stroke="rgba(200,29,51,1)" />
<path d="M105,-8L105,-10" stroke="rgba(200,29,51,1)" />
<path d="M103,-10L105,-10" stroke="rgba(200,29,51,1)" />
<path d="M106,-4L106,-5" />
<path d="M106,-4.285714285714286L106.71428571428571,-5" stroke="rgba(200,29,51,1)" />
<path d="M106,-5L108,-5" stroke="rgba(0,0,0,0)" />
<path d="M106,-5L106,-10" stroke="rgba(0,0,0,0)" />
<path d="M109,-6.7272727272727275L109,-7.7272727272727275" />
<path d="M109,-7.7272727272727275L111,-7.7272727272727275" stroke="rgba(200,29,51,1)" />
<path d="M109,-5.2272727272727275L109,-7.2272727272727275" stroke="rgba(200,29,51,1)" />
<path d="M109,-5.2272727272727275L111,-5.2272727272727275" stroke="rgba(200,29,51,1)" />
<path d="M111,-8L111,-10" stroke="rgba(200,29,51,1)" />
<path d="M109,-10L111,-10" stroke="rgba(200,29,51,1)" />
<path d="M112,-9L112,-10" />
<path d="M112,-10L114,-10" stroke="rgba(200,29,51,1)" />
<path d="M114,-5L114,-10" stroke="rgba(200,29,51,1)" />
<path d="M114,-5L112,-5" stroke="rgba(200,29,51,1)" />
<path d="M99,106L99,105" />
<path d="M100,106L100,105" />
<path d="M102,105L100,105" stroke="rgba(200,29,51,1)" />
<path d="M100,110L100,105" stroke="rgba(200,29,51,1)" />
<path d="M100,110L102,110" stroke="rgba(200,29,51,1)" />
<path d="M103,108.27272727272727L103,107.27272727272727" />
<path d="M103,107.27272727272727L105,107.27272727272727" stroke="rgba(200,29,51,1)" />
<path d="M103,109.77272727272727L103,107.77272727272727" stroke="rgba(200,29,51,1)" />
<path d="M103,109.77272727272727L105,109.77272727272727" stroke="rgba(200,29,51,1)" />
<path d="M105,107L105,105" stroke="rgba(200,29,51,1)" />
<path d="M103,105L105,105" stroke="rgba(200,29,51,1)" />
<path d="M106,111L106,110" />
<path d="M106,110.71428571428571L106.71428571428571,110" stroke="rgba(200,29,51,1)" />
<path d="M106,110L108,110" stroke="rgba(0,0,0,0)" />
<path d="M106,110L106,105" stroke="rgba(0,0,0,0)" />
<path d="M109,106L109,105" />
<path d="M109,105L111,105" stroke="rgba(200,29,51,1)" />
<path d="M111,110L111,105" stroke="rgba(200,29,51,1)" />
<path d="M111,110L109,110" stroke="rgba(200,29,51,1)" />
<path d="M109,105L109,110" stroke="rgba(200,29,51,1)" />
<path d="M112,106L112,105" />
<path d="M112,105L114,105" stroke="rgba(200,29,51,1)" />
<path d="M114,110L114,105" stroke="rgba(200,29,51,1)" />
<path d="M114,110L112,110" stroke="rgba(200,29,51,1)" />
<path d="M-11,106L-11,105" />
<path d="M-10,106L-10,105" />
<path d="M-8,105L-10,105" stroke="rgba(200,29,51,1)" />
<path d="M-10,110L-10,105" stroke="rgba(200,29,51,1)" />
<path d="M-10,110L-8,110" stroke="rgba(200,29,51,1)" />
<path d="M-7,106L-7,105" />
<path d="M-7,105L-5,105" stroke="rgba(200,29,51,1)" />
<path d="M-5,110L-5,105" stroke="rgba(200,29,51,1)" />
<path d="M-5,110L-7,110" stroke="rgba(200,29,51,1)" />
<path d="M-7,105L-7,110" stroke="rgba(200,29,51,1)" />
<path d="M-4,111L-4,110" />
<path d="M-4,110.71428571428571L-3.2857142857142856,110" stroke="rgba(200,29,51,1)" />
<path d="M-4,110L-2,110" stroke="rgba(0,0,0,0)" />
<path d="M-4,110L-4,105" stroke="rgba(0,0,0,0)" />
<path d="M-1,106L-1,105" />
<path d="M-1,105L1,105" stroke="rgba(200,29,51,1)" />
<path d="M1,110L1,105" stroke="rgba(200,29,51,1)" />
<path d="M1,110L-1,110" stroke="rgba(200,29,51,1)" />
<path d="M-1,105L-1,110" stroke="rgba(200,29,51,1)" />
<path d="M2,106L2,105" />
<path d="M2,105L4,105" stroke="rgba(200,29,51,1)" />
<path d="M4,110L4,105" stroke="rgba(200,29,51,1)" />
<path d="M4,110L2,110" stroke="rgba(200,29,51,1)" />
<path d="M-11,-9L-11,-10" />
<path d="M-10,-9L-10,-10" />
<path d="M-8,-10L-10,-10" stroke="rgba(200,29,51,1)" />
<path d="M-10,-5L-10,-10" stroke="rgba(200,29,51,1)" />
<path d="M-10,-5L-8,-5" stroke="rgba(200,29,51,1)" />
<path d="M-7,-9L-7,-10" />
<path d="M-7,-10L-5,-10" stroke="rgba(200,29,51,1)" />
<path d="M-5,-5L-5,-10" stroke="rgba(200,29,51,1)" />
<path d="M-5,-5L-7,-5" stroke="rgba(200,29,51,1)" />
<path d="M-7,-10L-7,-5" stroke="rgba(200,29,51,1)" />
<path d="M-4,-4L-4,-5" />
<path d="M-4,-4.285714285714286L-3.2857142857142856,-5" stroke="rgba(200,29,51,1)" />
<path d="M-4,-5L-2,-5" stroke="rgba(0,0,0,0)" />
<path d="M-4,-5L-4,-10" stroke="rgba(0,0,0,0)" />
<path d="M-1,-6.7272727272727275L-1,-7.7272727272727275" />
<path d="M-1,-7.7272727272727275L1,-7.7272727272727275" stroke="rgba(200,29,51,1)" />
<path d="M-1,-5.2272727272727275L-1,-7.2272727272727275" stroke="rgba(200,29,51,1)" />
<path d="M-1,-5.2272727272727275L1,-5.2272727272727275" stroke="rgba(200,29,51,1)" />
<path d="M1,-8L1,-10" stroke="rgba(200,29,51,1)" />
<path d="M-1,-10L1,-10" stroke="rgba(200,29,51,1)" />
<path d="M2,-9L2,-10" />
<path d="M2,-10L4,-10" stroke="rgba(200,29,51,1)" />
<path d="M4,-5L4,-10" stroke="rgba(200,29,51,1)" />
<path d="M4,-5L2,-5" stroke="rgba(200,29,51,1)" />
<path d="M159,-9L159,-10" />
<path d="M160,-9L160,-10" />
<path d="M162,-10L160,-10" stroke="rgba(200,29,51,1)" />
<path d="M160,-5L160,-10" stroke="rgba(200,29,51,1)" />
<path d="M160,-5L162,-5" stroke="rgba(200,29,51,1)" />
<path d="M163,-9L163,-10" />
<path d="M163,-10L165,-10" stroke="rgba(200,29,51,1)" />
<path d="M165,-5L165,-10" stroke="rgba(200,29,51,1)" />
<path d="M165,-5L163,-5" stroke="rgba(200,29,51,1)" />
<path d="M163,-10L163,-5" stroke="rgba(200,29,51,1)" />
<path d="M166,-4L166,-5" />
<path d="M166,-4.285714285714286L166.71428571428572,-5" stroke="rgba(200,29,51,1)" />
<path d="M166,-5L168,-5" stroke="rgba(0,0,0,0)" />
<path d="M166,-5L166,-10" stroke="rgba(0,0,0,0)" />
<path d="M169,-6.7272727272727275L169,-7.7272727272727275" />
<path d="M169,-7.7272727272727275L171,-7.7272727272727275" stroke="rgba(200,29,51,1)" />
<path d="M169,-5.2272727272727275L169,-7.2272727272727275" stroke="rgba(200,29,51,1)" />
<path d="M169,-5.2272727272727275L171,-5.2272727272727275" stroke="rgba(200,29,51,1)" />
<path d="M171,-8L171,-10" stroke="rgba(200,29,51,1)" />
<path d="M169,-10L171,-10" stroke="rgba(200,29,51,1)" />
<path d="M172,-9L172,-10" />
<path d="M172,-10L174,-10" stroke="rgba(200,29,51,1)" />
<path d="M174,-5L174,-10" stroke="rgba(200,29,51,1)" />
<path d="M174,-5L172,-5" stroke="rgba(200,29,51,1)" />
<path d="M264,-9L264,-10" />
<path d="M265,-9L265,-10" />
<path d="M267,-10L265,-10" stroke="rgba(200,29,51,1)" />
<path d="M265,-5L265,-10" stroke="rgba(200,29,51,1)" />
<path d="M265,-5L267,-5" stroke="rgba(200,29,51,1)" />
<path d="M268,-6.7272727272727275L268,-7.7272727272727275" />
<path d="M268,-7.7272727272727275L270,-7.7272727272727275" stroke="rgba(200,29,51,1)" />
<path d="M268,-5.2272727272727275L268,-7.2272727272727275" stroke="rgba(200,29,51,1)" />
<path d="M268,-5.2272727272727275L270,-5.2272727272727275" stroke="rgba(200,29,51,1)" />
<path d="M270,-8L270,-10" stroke="rgba(200,29,51,1)" />
<path d="M268,-10L270,-10" stroke="rgba(200,29,51,1)" />
<path d="M271,-4L271,-5" />
<path d="M271,-4.285714285714286L271.7142857142857,-5" stroke="rgba(200,29,51,1)" />
<path d="M271,-5L273,-5" stroke="rgba(0,0,0,0)" />
<path d="M271,-5L271,-10" stroke="rgba(0,0,0,0)" />
<path d="M274,-6.7272727272727275L274,-7.7272727272727275" />
<path d="M274,-7.7272727272727275L276,-7.7272727272727275" stroke="rgba(200,29,51,1)" />
<path d="M274,-5.2272727272727275L274,-7.2272727272727275" stroke="rgba(200,29,51,1)" />
<path d="M274,-5.2272727272727275L276,-5.2272727272727275" stroke="rgba(200,29,51,1)" />
<path d="M276,-8L276,-10" stroke="rgba(200,29,51,1)" />
<path d="M274,-10L276,-10" stroke="rgba(200,29,51,1)" />
<path d="M277,-9L277,-10" />
<path d="M277,-10L279,-10" stroke="rgba(200,29,51,1)" />
<path d="M279,-5L279,-10" stroke="rgba(200,29,51,1)" />
<path d="M279,-5L277,-5" stroke="rgba(200,29,51,1)" />
<path d="M159,106L159,105" />
<path d="M160,106L160,105" />
<path d="M162,105L160,105" stroke="rgba(200,29,51,1)" />
<path d="M160,110L160,105" stroke="rgba(200,29,51,1)" />
<path d="M160,110L162,110" stroke="rgba(200,29,51,1)" />
<path d="M163,106L163,105" />
<path d="M163,105L165,105" stroke="rgba(200,29,51,1)" />
<path d="M165,110L165,105" stroke="rgba(200,29,51,1)" />
<path d="M165,110L163,110" stroke="rgba(200,29,51,1)" />
<path d="M163,105L163,110" stroke="rgba(200,29,51,1)" />
<path d="M166,111L166,110" />
<path d="M166,110.71428571428571L166.71428571428572,110" stroke="rgba(200,29,51,1)" />
<path d="M166,110L168,110" stroke="rgba(0,0,0,0)" />
<path d="M166,110L166,105" stroke="rgba(0,0,0,0)" />
<path d="M169,106L169,105" />
<path d="M169,105L171,105" stroke="rgba(200,29,51,1)" />
<path d="M171,110L171,105" stroke="rgba(200,29,51,1)" />
<path d="M171,110L169,110" stroke="rgba(200,29,51,1)" />
<path d="M169,105L169,110" stroke="rgba(200,29,51,1)" />
<path d="M172,106L172,105" />
<path d="M172,105L174,105" stroke="rgba(200,29,51,1)" />
<path d="M174,110L174,105" stroke="rgba(200,29,51,1)" />
<path d="M174,110L172,110" stroke="rgba(200,29,51,1)" />
<path d="M264,106L264,105" />
<path d="M265,106L265,105" />
<path d="M267,105L265,105" stroke="rgba(200,29,51,1)" />
<path d="M265,110L265,105" stroke="rgba(200,29,51,1)" />
<path d="M265,110L267,110" stroke="rgba(200,29,51,1)" />
<path d="M268,108.27272727272727L268,107.27272727272727" />
<path d="M268,107.27272727272727L270,107.27272727272727" stroke="rgba(200,29,51,1)" />
<path d="M268,109.77272727272727L268,107.77272727272727" stroke="rgba(200,29,51,1)" />
<path d="M268,109.77272727272727L270,109.77272727272727" stroke="rgba(200,29,51,1)" />
<path d="M270,107L270,105" stroke="rgba(200,29,51,1)" />
<path d="M268,105L270,105" stroke="rgba(200,29,51,1)" />
<path d="M271,111L271,110" />
<path d="M271,110.71428571428571L271.7142857142857,110" stroke="rgba(200,29,51,1)" />
<path d="M271,110L273,110" stroke="rgba(0,0,0,0)" />
<path d="M271,110L271,105" stroke="rgba(0,0,0,0)" />
<path d="M274,106L274,105" />
<path d="M274,105L276,105" stroke="rgba(200,29,51,1)" />
<path d="M276,110L276,105" stroke="rgba(200,29,51,1)" />
<path d="M276,110L274,110" stroke="rgba(200,29,51,1)" />
<path d="M274,105L274,110" stroke="rgba(200,29,51,1)" />
<path d="M277,106L277,105" />
<path d="M277,105L279,105" stroke="rgba(200,29,51,1)" />
<path d="M279,110L279,105" stroke="rgba(200,29,51,1)" />
<path d="M279,110L277,110" stroke="rgba(200,29,51,1)" />
</svg>
