<svg xmlns="http://www.w3.org/2000/svg" viewBox="-10.5 -10.5 291 122">
<path d="M100,100L100,0" stroke="rgba(0,0,0,1)" />
<path d="M0,100L100,100" stroke="rgba(0,0,0,1)" />
<path d="M0,98.33333333333333L1.6666666666666667,96.66666666666666" stroke="rgba(0,0,0,1)" />
<path d="M3.3333333333333335,95L5,93.33333333333333" stroke="rgba(0,0,0,1)" />
<path d="M6.666666666666667,91.66666666666666L8.333333333333332,90" stroke="rgba(0,0,0,1)" />
<path d="M10,88.33333333333333L11.666666666666666,86.66666666666666" stroke="rgba(0,0,0,1)" />
<path d="M13.333333333333334,85L15,83.33333333333333" stroke="rgba(0,0,0,1)" />
<path d="M16.666666666666664,81.66666666666667L18.333333333333332,80" stroke="rgba(0,0,0,1)" />
<path d="M20,78.33333333333333L21.666666666666668,76.66666666666666" stroke="rgba(0,0,0,1)" />
<path d="M23.333333333333332,75L25,73.33333333333333" stroke="rgba(0,0,0,1)" />
<path d="M26.666666666666668,71.66666666666666L28.333333333333332,70" stroke="rgba(0,0,0,1)" />
<path d="M30,68.33333333333333L31.666666666666664,66.66666666666667" stroke="rgba(0,0,0,1)" />
<path d="M33.33333333333333,65L35,63.33333333333333" stroke="rgba(0,0,0,1)" />
<path d="M36.666666666666664,61.666666666666664L38.333333333333336,59.99999999999999" stroke="rgba(0,0,0,1)" />
<path d="M40,58.33333333333333L41.66666666666667,56.66666666666666" stroke="rgba(0,0,0,1)" />
<path d="M43.333333333333336,54.99999999999999L45,53.33333333333333" stroke="rgba(0,0,0,1)" />
<path d="M46.666666666666664,51.666666666666664L48.333333333333336,49.99999999999999" stroke="rgba(0,0,0,1)" />
<path d="M50,48.33333333333333L51.66666666666667,46.66666666666666" stroke="rgba(0,0,0,1)" />
<path d="M53.333333333333336,44.99999999999999L55.00000000000001,43.33333333333332" stroke="rgba(0,0,0,1)" />
<path d="M56.666666666666664,41.666666666666664L58.333333333333336,39.99999999999999" stroke="rgba(0,0,0,1)" />
<path d="M60,38.33333333333333L61.66666666666667,36.66666666666666" stroke="rgba(0,0,0,1)" />
<path d="M63.33333333333333,35L65,33.33333333333333" stroke="rgba(0,0,0,1)" />
<path d="M66.66666666666666,31.66666666666667L68.33333333333333,30" stroke="rgba(0,0,0,1)" />
<path d="M70,28.33333333333333L71.66666666666667,26.666666666666657" stroke="rgba(0,0,0,1)" />
<path d="M73.33333333333333,25L75,23.33333333333333" stroke="rgba(0,0,0,1)" />
<path d="M76.66666666666667,21.666666666666657L78.33333333333333,20" stroke="rgba(0,0,0,1)" />
<path d="M80,18.33333333333333L81.66666666666667,16.666666666666657" stroke="rgba(0,0,0,1)" />
<path d="M83.33333333333334,14.999999999999986L85,13.333333333333329" stroke="rgba(0,0,0,1)" />
<path d="M86.66666666666667,11.666666666666657L88.33333333333333,10" stroke="rgba(0,0,0,1)" />
<path d="M90,8.333333333333329L91.66666666666666,6.666666666666671" stroke="rgba(0,0,0,1)" />
<path d="M93.33333333333333,5L95,3.3333333333333286" stroke="rgba(0,0,0,1)" />
<path d="M96.66666666666667,1.6666666666666572L98.33333333333333,-0" stroke="rgba(0,0,0,1)" />
<path d="M1.00005519,98C1.55348205,98.00131934 1.99879104,98.44662833 2.00011038,99.00005519L2.00011038,99.00005519C1.99879104,99.55348205 1.55348205,99.99879104 1.00005519,100.00011038L1.00005519,100.00011038C0.44662833000000013,99.99879104 0.0013193400000001132,99.55348205 0,99.00005519L0,99.00005519C0.0013193400000001132,98.44662833 0.44662833000000013,98.00131934 1.00005519,98L1.00005519,98" fill="rgba(200,29,51,1)" />
<path d="M100.00005519,98C100.55348205,98.00131934 100.99879104,98.44662833 101.00011038,99.00005519L101.00011038,99.00005519C100.99879104,99.55348205 100.55348205,99.99879104 100.00005519,100.00011038L100.00005519,100.00011038C99.44662833,99.99879104 99.00131934,99.55348205 99,99.00005519L99,99.00005519C99.00131934,98.44662833 99.44662833,98.00131934 100.00005519,98L100.00005519,98" fill="rgba(200,29,51,1)" />
<path d="M100.00005519,-0C100.55348205,0.0013193400000001132 100.99879104,0.44662833000000013 101.00011038,1.00005519L101.00011038,1.00005519C100.99879104,1.55348205 100.55348205,1.99879104 100.00005519,2.00011038L100.00005519,2.00011038C99.44662833,1.99879104 99.00131934,1.55348205 99,1.00005519L99,1.00005519C99.00131934,0.44662833000000013 99.44662833,0.0013193400000001132 100.00005519,-0L100.00005519,-0" fill="rgba(200,29,51,1)" />
<path d="M121.00011038,50.00005519L151.00011038,50.00005519" stroke="rgba(0,0,0,1)" />
<path d="M151.00011038,50.00005519L141.00011038,45.00005519L141.00011038,55.00005519L151.00011038,50.00005519" fill="rgba(0,0,0,1)" stroke="rgba(0,0,0,1)" />
<path d="M172.00011038,100L272.00011038,100" stroke="rgba(0,0,0,1)" />
<path d="M272.00011038,100L272.00011038,-0" stroke="rgba(0,0,0,1)" />
<path d="M172.00011038,-0L272.00011038,-0" stroke="rgba(0,0,0,1)" />
<path d="M172.00011038,98.33333333333333L173.66677704666665,96.66666666666666" stroke="rgba(0,0,0,1)" />
<path d="M175.33344371333334,95L177.00011038,93.33333333333333" stroke="rgba(0,0,0,1)" />
<path d="M178.66677704666665,91.66666666666666L180.33344371333334,90" stroke="rgba(0,0,0,1)" />
<path d="M182.00011038,88.33333333333333L183.66677704666665,86.66666666666666" stroke="rgba(0,0,0,1)" />
<path d="M185.33344371333334,85L187.00011038,83.33333333333333" stroke="rgba(0,0,0,1)" />
<path d="M188.66677704666665,81.66666666666667L190.33344371333334,80" stroke="rgba(0,0,0,1)" />
<path d="M192.00011038,78.33333333333333L193.66677704666665,76.66666666666666" stroke="rgba(0,0,0,1)" />
<path d="M195.33344371333334,75L197.00011038,73.33333333333333" stroke="rgba(0,0,0,1)" />
<path d="M198.66677704666665,71.66666666666666L200.33344371333334,70" stroke="rgba(0,0,0,1)" />
<path d="M202.00011038,68.33333333333333L203.66677704666665,66.66666666666667" stroke="rgba(0,0,0,1)" />
<path d="M205.33344371333334,65L207.00011038,63.33333333333333" stroke="rgba(0,0,0,1)" />
<path d="M208.66677704666665,61.666666666666664L210.33344371333334,59.99999999999999" stroke="rgba(0,0,0,1)" />
<path d="M212.00011038,58.33333333333333L213.66677704666665,56.66666666666666" stroke="rgba(0,0,0,1)" />
<path d="M215.33344371333334,54.99999999999999L217.00011038,53.33333333333333" stroke="rgba(0,0,0,1)" />
<path d="M218.66677704666665,51.666666666666664L220.33344371333334,49.99999999999999" stroke="rgba(0,0,0,1)" />
<path d="M222.00011038,48.33333333333333L223.66677704666665,46.66666666666666" stroke="rgba(0,0,0,1)" />
<path d="M225.33344371333334,44.99999999999999L227.00011038,43.33333333333332" stroke="rgba(0,0,0,1)" />
<path d="M228.66677704666665,41.666666666666664L230.33344371333334,39.99999999999999" stroke="rgba(0,0,0,1)" />
<path d="M232.00011038,38.33333333333333L233.66677704666665,36.66666666666666" stroke="rgba(0,0,0,1)" />
<path d="M235.33344371333334,35L237.00011038,33.33333333333333" stroke="rgba(0,0,0,1)" />
<path d="M238.66677704666665,31.66666666666667L240.33344371333334,30" stroke="rgba(0,0,0,1)" />
<path d="M242.00011038,28.33333333333333L243.66677704666665,26.666666666666657" stroke="rgba(0,0,0,1)" />
<path d="M245.33344371333334,25L247.00011038,23.33333333333333" stroke="rgba(0,0,0,1)" />
<path d="M248.66677704666665,21.666666666666657L250.33344371333334,20" stroke="rgba(0,0,0,1)" />
<path d="M252.00011038,18.33333333333333L253.66677704666665,16.666666666666657" stroke="rgba(0,0,0,1)" />
<path d="M255.33344371333334,14.999999999999986L257.00011038,13.333333333333329" stroke="rgba(0,0,0,1)" />
<path d="M258.66677704666665,11.666666666666657L260.33344371333334,10" stroke="rgba(0,0,0,1)" />
<path d="M262.00011038,8.333333333333329L263.66677704666665,6.666666666666671" stroke="rgba(0,0,0,1)" />
<path d="M265.33344371333334,5L267.00011038,3.3333333333333286" stroke="rgba(0,0,0,1)" />
<path d="M268.66677704666665,1.6666666666666572L270.33344371333334,-0" stroke="rgba(0,0,0,1)" />
<path d="M172.00016557,100C172.55359243,100.00131934 172.99890141999998,100.44662833 173.00022076,101.00005519L173.00022076,101.00005519C172.99890141999998,101.55348205 172.55359243,101.99879104 172.00016557,102.00011038L172.00016557,102.00011038C171.44673871,101.99879104 171.00142972,101.55348205 171.00011038,101.00005519L171.00011038,101.00005519C171.00142972,100.44662833 171.44673871,100.00131934 172.00016557,100L172.00016557,100" fill="rgba(200,29,51,1)" />
<path d="M272.00016557,100C272.55359243,100.00131934 272.99890142,100.44662833 273.00022076,101.00005519L273.00022076,101.00005519C272.99890142,101.55348205 272.55359243,101.99879104 272.00016557,102.00011038L272.00016557,102.00011038C271.44673871,101.99879104 271.00142972,101.55348205 271.00011038,101.00005519L271.00011038,101.00005519C271.00142972,100.44662833 271.44673871,100.00131934 272.00016557,100L272.00016557,100" fill="rgba(200,29,51,1)" />
<path d="M272.00016557,-0C272.55359243,0.0013193400000001132 272.99890142,0.44662833000000013 273.00022076,1.00005519L273.00022076,1.00005519C272.99890142,1.55348205 272.55359243,1.99879104 272.00016557,2.00011038L272.00016557,2.00011038C271.44673871,1.99879104 271.00142972,1.55348205 271.00011038,1.00005519L271.00011038,1.00005519C271.00142972,0.44662833000000013 271.44673871,0.0013193400000001132 272.00016557,-0L272.00016557,-0" fill="rgba(200,29,51,1)" />
<path d="M172.00016557,-0C172.55359243,0.0013193400000001132 172.99890141999998,0.44662833000000013 173.00022076,1.00005519L173.00022076,1.00005519C172.99890141999998,1.55348205 172.55359243,1.99879104 172.00016557,2.00011038L172.00016557,2.00011038C171.44673871,1.99879104 171.00142972,1.55348205 171.00011038,1.00005519L171.00011038,1.00005519C171.00142972,0.44662833000000013 171.44673871,0.0013193400000001132 172.00016557,-0L172.00016557,-0" fill="rgba(200,29,51,1)" />
<path d="M100,-9L100,-10" />
<path d="M101,-9L101,-10" />
<path d="M103,-10L101,-10" stroke="rgba(200,29,51,1)" />
<path d="M101,-5L101,-10" stroke="rgba(200,29,51,1)" />
<path d="M101,-5L103,-5" stroke="rgba(200,29,51,1)" />
<path d="M104,-6.7272727272727275L104,-7.7272727272727275" />
<path d="M104,-7.7272727272727275L106,-7.7272727272727275" stroke="rgba(200,29,51,1)" />
<path d="M104,-5.2272727272727275L104,-7.2272727272727275" stroke="rgba(200,29,51,1)" />
<path d="M104,-5.2272727272727275L106,-5.2272727272727275" stroke="rgba(200,29,51,1)" />
<path d="M106,-8L106,-10" stroke="rgba(200,29,51,1)" />
<path d="M104,-10L106,-10" stroke="rgba(200,29,51,1)" />
<path d="M107,-4L107,-5" />
<path d="M107,-4.285714285714286L107.71428571428571,-5" stroke="rgba(200,29,51,1)" />
<path d="M107,-5L109,-5" stroke="rgba(0,0,0,0)" />
<path d="M107,-5L107,-10" stroke="rgba(0,0,0,0)" />
<path d="M110,-6.7272727272727275L110,-7.7272727272727275" />
<path d="M110,-7.7272727272727275L112,-7.7272727272727275" stroke="rgba(200,29,51,1)" />
<path d="M110,-5.2272727272727275L110,-7.2272727272727275" stroke="rgba(200,29,51,1)" />
<path d="M110,-5.2272727272727275L112,-5.2272727272727275" stroke="rgba(200,29,51,1)" />
<path d="M112,-8L112,-10" stroke="rgba(200,29,51,1)" />
<path d="M110,-10L112,-10" stroke="rgba(200,29,51,1)" />
<path d="M113,-9L113,-10" />
<path d="M113,-10L115,-10" stroke="rgba(200,29,51,1)" />
<path d="M115,-5L115,-10" stroke="rgba(200,29,51,1)" />
<path d="M115,-5L113,-5" stroke="rgba(200,29,51,1)" />
<path d="M100,106L100,105" />
<path d="M101,106L101,105" />
<path d="M103,105L101,105" stroke="rgba(200,29,51,1)" />
<path d="M101,110L101,105" stroke="rgba(200,29,51,1)" />
<path d="M101,110L103,110" stroke="rgba(200,29,51,1)" />
<path d="M104,108.27272727272727L104,107.27272727272727" />
<path d="M104,107.27272727272727L106,107.27272727272727" stroke="rgba(200,29,51,1)" />
<path d="M104,109.77272727272727L104,107.77272727272727" stroke="rgba(200,29,51,1)" />
<path d="M104,109.77272727272727L106,109.77272727272727" stroke="rgba(200,29,51,1)" />
<path d="M106,107L106,105" stroke="rgba(200,29,51,1)" />
<path d="M104,105L106,105" stroke="rgba(200,29,51,1)" />
<path d="M107,111L107,110" />
<path d="M107,110.71428571428571L107.71428571428571,110" stroke="rgba(200,29,51,1)" />
<path d="M107,110L109,110" stroke="rgba(0,0,0,0)" />
<path d="M107,110L107,105" stroke="rgba(0,0,0,0)" />
<path d="M110,106L110,105" />
<path d="M110,105L112,105" stroke="rgba(200,29,51,1)" />
<path d="M112,110L112,105" stroke="rgba(200,29,51,1)" />
<path d="M112,110L110,110" stroke="rgba(200,29,51,1)" />
<path d="M110,105L110,110" stroke="rgba(200,29,51,1)" />
<path d="M113,106L113,105" />
<path d="M113,105L115,105" stroke="rgba(200,29,51,1)" />
<path d="M115,110L115,105" stroke="rgba(200,29,51,1)" />
<path d="M115,110L113,110" stroke="rgba(200,29,51,1)" />
<path d="M-10,106L-10,105" />
<path d="M-9,106L-9,105" />
<path d="M-7,105L-9,105" stroke="rgba(200,29,51,1)" />
<path d="M-9,110L-9,105" stroke="rgba(200,29,51,1)" />
<path d="M-9,110L-7,110" stroke="rgba(200,29,51,1)" />
<path d="M-6,106L-6,105" />
<path d="M-6,105L-4,105" stroke="rgba(200,29,51,1)" />
<path d="M-4,110L-4,105" stroke="rgba(200,29,51,1)" />
<path d="M-4,110L-6,110" stroke="rgba(200,29,51,1)" />
<path d="M-6,105L-6,110" stroke="rgba(200,29,51,1)" />
<path d="M-3,111L-3,110" />
<path d="M-3,110.71428571428571L-2.2857142857142856,110" stroke="rgba(200,29,51,1)" />
<path d="M-3,110L-1,110" stroke="rgba(0,0,0,0)" />
<path d="M-3,110L-3,105" stroke="rgba(0,0,0,0)" />
<path d="M0,106L0,105" />
<path d="M0,105L2,105" stroke="rgba(200,29,51,1)" />
<path d="M2,110L2,105" stroke="rgba(200,29,51,1)" />
<path d="M2,110L0,110" stroke="rgba(200,29,51,1)" />
<path d="M0,105L0,110" stroke="rgba(200,29,51,1)" />
<path d="M3,106L3,105" />
<path d="M3,105L5,105" stroke="rgba(200,29,51,1)" />
<path d="M5,110L5,105" stroke="rgba(200,29,51,1)" />
<path d="M5,110L3,110" stroke="rgba(200,29,51,1)" />
<path d="M160,-9L160,-10" />
<path d="M161,-9L161,-10" />
<path d="M163,-10L161,-10" stroke="rgba(200,29,51,1)" />
<path d="M161,-5L161,-10" stroke="rgba(200,29,51,1)" />
<path d="M161,-5L163,-5" stroke="rgba(200,29,51,1)" />
<path d="M164,-9L164,-10" />
<path d="M164,-10L166,-10" stroke="rgba(200,29,51,1)" />
<path d="M166,-5L166,-10" stroke="rgba(200,29,51,1)" />
<path d="M166,-5L164,-5" stroke="rgba(200,29,51,1)" />
<path d="M164,-10L164,-5" stroke="rgba(200,29,51,1)" />
<path d="M167,-4L167,-5" />
<path d="M167,-4.285714285714286L167.71428571428572,-5" stroke="rgba(200,29,51,1)" />
<path d="M167,-5L169,-5" stroke="rgba(0,0,0,0)" />
<path d="M167,-5L167,-10" stroke="rgba(0,0,0,0)" />
<path d="M170,-6.7272727272727275L170,-7.7272727272727275" />
<path d="M170,-7.7272727272727275L172,-7.7272727272727275" stroke="rgba(200,29,51,1)" />
<path d="M170,-5.2272727272727275L170,-7.2272727272727275" stroke="rgba(200,29,51,1)" />
<path d="M170,-5.2272727272727275L172,-5.2272727272727275" stroke="rgba(200,29,51,1)" />
<path d="M172,-8L172,-10" stroke="rgba(200,29,51,1)" />
<path d="M170,-10L172,-10" stroke="rgba(200,29,51,1)" />
<path d="M173,-9L173,-10" />
<path d="M173,-10L175,-10" stroke="rgba(200,29,51,1)" />
<path d="M175,-5L175,-10" stroke="rgba(200,29,51,1)" />
<path d="M175,-5L173,-5" stroke="rgba(200,29,51,1)" />
<path d="M265,-9L265,-10" />
<path d="M266,-9L266,-10" />
<path d="M268,-10L266,-10" stroke="rgba(200,29,51,1)" />
<path d="M266,-5L266,-10" stroke="rgba(200,29,51,1)" />
<path d="M266,-5L268,-5" stroke="rgba(200,29,51,1)" />
<path d="M269,-6.7272727272727275L269,-7.7272727272727275" />
<path d="M269,-7.7272727272727275L271,-7.7272727272727275" stroke="rgba(200,29,51,1)" />
<path d="M269,-5.2272727272727275L269,-7.2272727272727275" stroke="rgba(200,29,51,1)" />
<path d="M269,-5.2272727272727275L271,-5.2272727272727275" stroke="rgba(200,29,51,1)" />
<path d="M271,-8L271,-10" stroke="rgba(200,29,51,1)" />
<path d="M269,-10L271,-10" stroke="rgba(200,29,51,1)" />
<path d="M272,-4L272,-5" />
<path d="M272,-4.285714285714286L272.7142857142857,-5" stroke="rgba(200,29,51,1)" />
<path d="M272,-5L274,-5" stroke="rgba(0,0,0,0)" />
<path d="M272,-5L272,-10" stroke="rgba(0,0,0,0)" />
<path d="M275,-6.7272727272727275L275,-7.7272727272727275" />
<path d="M275,-7.7272727272727275L277,-7.7272727272727275" stroke="rgba(200,29,51,1)" />
<path d="M275,-5.2272727272727275L275,-7.2272727272727275" stroke="rgba(200,29,51,1)" />
<path d="M275,-5.2272727272727275L277,-5.2272727272727275" stroke="rgba(200,29,51,1)" />
<path d="M277,-8L277,-10" stroke="rgba(200,29,51,1)" />
<path d="M275,-10L277,-10" stroke="rgba(200,29,51,1)" />
<path d="M278,-9L278,-10" />
<path d="M278,-10L280,-10" stroke="rgba(200,29,51,1)" />
<path d="M280,-5L280,-10" stroke="rgba(200,29,51,1)" />
<path d="M280,-5L278,-5" stroke="rgba(200,29,51,1)" />
<path d="M160,106L160,105" />
<path d="M161,106L161,105" />
<path d="M163,105L161,105" stroke="rgba(200,29,51,1)" />
<path d="M161,110L161,105" stroke="rgba(200,29,51,1)" />
<path d="M161,110L163,110" stroke="rgba(200,29,51,1)" />
<path d="M164,106L164,105" />
<path d="M164,105L166,105" stroke="rgba(200,29,51,1)" />
<path d="M166,110L166,105" stroke="rgba(200,29,51,1)" />
<path d="M166,110L164,110" stroke="rgba(200,29,51,1)" />
<path d="M164,105L164,110" stroke="rgba(200,29,51,1)" />
<path d="M167,111L167,110" />
<path d="M167,110.71428571428571L167.71428571428572,110" stroke="rgba(200,29,51,1)" />
<path d="M167,110L169,110" stroke="rgba(0,0,0,0)" />
<path d="M167,110L167,105" stroke="rgba(0,0,0,0)" />
<path d="M170,106L170,105" />
<path d="M170,105L172,105" stroke="rgba(200,29,51,1)" />
<path d="M172,110L172,105" stroke="rgba(200,29,51,1)" />
<path d="M172,110L170,110" stroke="rgba(200,29,51,1)" />
<path d="M170,105L170,110" stroke="rgba(200,29,51,1)" />
<path d="M173,106L173,105" />
<path d="M173,105L175,105" stroke="rgba(200,29,51,1)" />
<path d="M175,110L175,105" stroke="rgba(200,29,51,1)" />
<path d="M175,110L173,110" stroke="rgba(200,29,51,1)" />
<path d="M265,106L265,105" />
<path d="M266,106L266,105" />
<path d="M268,105L266,105" stroke="rgba(200,29,51,1)" />
<path d="M266,110L266,105" stroke="rgba(200,29,51,1)" />
<path d="M266,110L268,110" stroke="rgba(200,29,51,1)" />
<path d="M269,108.27272727272727L269,107.27272727272727" />
<path d="M269,107.27272727272727L271,107.27272727272727" stroke="rgba(200,29,51,1)" />
<path d="M269,109.77272727272727L269,107.77272727272727" stroke="rgba(200,29,51,1)" />
<path d="M269,109.77272727272727L271,109.77272727272727" stroke="rgba(200,29,51,1)" />
<path d="M271,107L271,105" stroke="rgba(200,29,51,1)" />
<path d="M269,105L271,105" stroke="rgba(200,29,51,1)" />
<path d="M272,111L272,110" />
<path d="M272,110.71428571428571L272.7142857142857,110" stroke="rgba(200,29,51,1)" />
<path d="M272,110L274,110" stroke="rgba(0,0,0,0)" />
<path d="M272,110L272,105" stroke="rgba(0,0,0,0)" />
<path d="M275,106L275,105" />
<path d="M275,105L277,105" stroke="rgba(200,29,51,1)" />
<path d="M277,110L277,105" stroke="rgba(200,29,51,1)" />
<path d="M277,110L275,110" stroke="rgba(200,29,51,1)" />
<path d="M275,105L275,110" stroke="rgba(200,29,51,1)" />
<path d="M278,106L278,105" />
<path d="M278,105L280,105" stroke="rgba(200,29,51,1)" />
<path d="M280,110L280,105" stroke="rgba(200,29,51,1)" />
<path d="M280,110L278,110" stroke="rgba(200,29,51,1)" />
</svg>
