<svg xmlns="http://www.w3.org/2000/svg" viewBox="-2.0349954269941213 -7.034995426994121 9.069990853988243 9.069990853988243">
<path d="M0,0L5,0L5,-5L0,-5L0,0" fill="rgba(100,10,150,1)" />
<path d="M-0.43109044706052124,-0.5229545298222025L4.4770454701777975,0.43109044706052124L5.431090447060521,-4.4770454701777975L0.5229545298222027,-5.431090447060521L-0.43109044706052124,-0.5229545298222025" fill="rgba(100,10,150,1)" />
<path d="M-0.7544761199567489,-1.118556847122811L3.881443152877188,0.7544761199567489L5.754476119956749,-3.8814431528771887L1.118556847122811,-5.754476119956749L-0.7544761199567489,-1.118556847122811" fill="rgba(100,10,150,1)" />
<path d="M-0.958274007401128,-1.7649211676740073L3.2350788323259927,0.958274007401128L5.958274007401128,-3.2350788323259927L1.7649211676740073,-5.958274007401128L-0.958274007401128,-1.7649211676740073" fill="rgba(100,10,150,1)" />
<path d="M-1.0349954269941213,-2.438296425300865L2.561703574699135,1.0349954269941213L6.034995426994121,-2.561703574699135L2.438296425300865,-6.034995426994121L-1.0349954269941213,-2.438296425300865" fill="rgba(100,10,150,1)" />
<path d="M-0.9818212016000949,-3.1139390198448638L1.8860609801551362,0.9818212016000949L5.981821201600095,-1.8860609801551362L3.1139390198448638,-5.981821201600095L-0.9818212016000949,-3.1139390198448638" fill="rgba(100,10,150,1)" />
<path d="M-0.8007052517960025,-3.7670220364170017L1.2329779635829983,0.8007052517960025L5.8007052517960025,-1.2329779635829983L3.7670220364170017,-5.8007052517960025L-0.8007052517960025,-3.7670220364170017" fill="rgba(100,10,150,1)" />
<path d="M-0.4983027978227508,-4.373547526103426L0.626452473896574,0.4983027978227508L5.498302797822751,-0.626452473896574L4.373547526103426,-5.498302797822751L-0.4983027978227508,-4.373547526103426" fill="rgba(100,10,150,1)" />
</svg>
