<svg xmlns="http://www.w3.org/2000/svg" viewBox="-2.0337893333752506 -7.033789333375251 9.067578666750501 9.067578666750501">
<path d="M0,0L5,0L5,-5L0,-5L0,0" fill="rgba(100,10,150,1)" />
<path d="M-0.15204311989396224,-0.16190947775260423L4.838090522247396,0.15204311989396224L5.152043119893962,-4.838090522247396L0.16190947775260423,-5.152043119893962L-0.15204311989396224,-0.16190947775260423" fill="rgba(100,10,150,1)" />
<path d="M-0.29361983719695495,-0.33304633062456546L4.6669536693754345,0.29361983719695495L5.293619837196955,-4.6669536693754345L0.33304633062456634,-5.293619837196955L-0.29361983719695495,-0.33304633062456546" fill="rgba(100,10,150,1)" />
<path d="M-0.42417141328603325,-0.51273515964259L4.48726484035741,0.42417141328603325L5.424171413286033,-4.48726484035741L0.51273515964259,-5.424171413286033L-0.42417141328603325,-0.51273515964259" fill="rgba(100,10,150,1)" />
<path d="M-0.5431826207337149,-0.7002668150905595L4.2997331849094405,0.5431826207337149L5.543182620733715,-4.2997331849094405L0.7002668150905593,-5.543182620733715L-0.5431826207337149,-0.7002668150905595" fill="rgba(100,10,150,1)" />
<path d="M-0.6501837766752523,-0.894901195199485L4.105098804800515,0.6501837766752523L5.650183776675252,-4.105098804800515L0.894901195199485,-5.650183776675252L-0.6501837766752523,-0.894901195199485" fill="rgba(100,10,150,1)" />
<path d="M-0.7447525964323232,-1.0958701669910669L3.904129833008933,0.7447525964323232L5.744752596432323,-3.904129833008933L1.0958701669910669,-5.744752596432323L-0.7447525964323232,-1.0958701669910669" fill="rgba(100,10,150,1)" />
<path d="M-0.8265158600777305,-1.3023805977476322L3.697619402252368,0.8265158600777305L5.8265158600777305,-3.6976194022523674L1.302380597747633,-5.8265158600777305L-0.8265158600777305,-1.3023805977476322" fill="rgba(100,10,150,1)" />
<path d="M-0.8951508853639476,-1.5136174851446293L3.4863825148553707,0.8951508853639476L5.895150885363948,-3.4863825148553707L1.5136174851446293,-5.895150885363948L-0.8951508853639476,-1.5136174851446293" fill="rgba(100,10,150,1)" />
<path d="M-0.9503868012025292,-1.7287471736924536L3.2712528263075464,0.9503868012025292L5.950386801202529,-3.2712528263075464L1.7287471736924536,-5.950386801202529L-0.9503868012025292,-1.7287471736924536" fill="rgba(100,10,150,1)" />
<path d="M-0.9920056166685516,-1.9469206447938143L3.0530793552061857,0.9920056166685516L5.992005616668552,-3.0530793552061857L1.9469206447938143,-5.992005616668552L-0.9920056166685516,-1.9469206447938143" fill="rgba(100,10,150,1)" />
<path d="M-1.0198430813111976,-2.1672768674322516L2.832723132567748,1.0198430813111976L6.019843081311198,-2.8327231325677484L2.167276867432251,-6.019843081311198L-1.0198430813111976,-2.1672768674322516" fill="rgba(100,10,150,1)" />
<path d="M-1.0337893333752506,-2.3889461962681926L2.6110538037318074,1.0337893333752506L6.033789333375251,-2.6110538037318074L2.3889461962681926,-6.033789333375251L-1.0337893333752506,-2.3889461962681926" fill="rgba(100,10,150,1)" />
<path d="M-1.0337893333752506,-2.6110538037318074L2.3889461962681926,1.0337893333752506L6.033789333375251,-2.3889461962681926L2.6110538037318074,-6.033789333375251L-1.0337893333752506,-2.6110538037318074" fill="rgba(100,10,150,1)" />
<path d="M-1.0198430813111976,-2.8327231325677484L2.1672768674322516,1.0198430813111976L6.019843081311198,-2.1672768674322516L2.8327231325677484,-6.019843081311198L-1.0198430813111976,-2.8327231325677484" fill="rgba(100,10,150,1)" />
<path d="M-0.9920056166685516,-3.0530793552061857L1.9469206447938143,0.9920056166685516L5.992005616668552,-1.9469206447938143L3.0530793552061857,-5.992005616668552L-0.9920056166685516,-3.0530793552061857" fill="rgba(100,10,150,1)" />
<path d="M-0.9503868012025292,-3.2712528263075464L1.7287471736924536,0.9503868012025292L5.950386801202529,-1.7287471736924536L3.2712528263075464,-5.950386801202529L-0.9503868012025292,-3.2712528263075464" fill="rgba(100,10,150,1)" />
<path d="M-0.8951508853639467,-3.4863825148553715L1.5136174851446285,0.8951508853639467L5.895150885363947,-1.5136174851446285L3.4863825148553715,-5.895150885363947L-0.8951508853639467,-3.4863825148553715" fill="rgba(100,10,150,1)" />
<path d="M-0.8265158600777305,-3.6976194022523674L1.302380597747633,0.8265158600777305L5.8265158600777305,-1.3023805977476322L3.697619402252368,-5.8265158600777305L-0.8265158600777305,-3.6976194022523674" fill="rgba(100,10,150,1)" />
<path d="M-0.7447525964323232,-3.904129833008934L1.095870166991066,0.7447525964323232L5.744752596432323,-1.095870166991066L3.904129833008934,-5.744752596432323L-0.7447525964323232,-3.904129833008934" fill="rgba(100,10,150,1)" />
<path d="M-0.6501837766752523,-4.105098804800515L0.894901195199485,0.6501837766752523L5.650183776675252,-0.894901195199485L4.105098804800515,-5.650183776675252L-0.6501837766752523,-4.105098804800515" fill="rgba(100,10,150,1)" />
<path d="M-0.5431826207337149,-4.2997331849094405L0.7002668150905587,0.5431826207337149L5.543182620733715,-0.7002668150905595L4.2997331849094405,-5.543182620733715L-0.5431826207337149,-4.2997331849094405" fill="rgba(100,10,150,1)" />
<path d="M-0.42417141328603236,-4.48726484035741L0.51273515964259,0.42417141328603236L5.424171413286032,-0.51273515964259L4.48726484035741,-5.424171413286032L-0.42417141328603236,-4.48726484035741" fill="rgba(100,10,150,1)" />
<path d="M-0.29361983719695495,-4.6669536693754345L0.33304633062456634,0.29361983719695495L5.293619837196955,-0.33304633062456546L4.6669536693754345,-5.293619837196955L-0.29361983719695495,-4.6669536693754345" fill="rgba(100,10,150,1)" />
<path d="M-0.15204311989396224,-4.838090522247396L0.16190947775260423,0.15204311989396224L5.152043119893962,-0.16190947775260423L4.838090522247396,-5.152043119893962L-0.15204311989396224,-4.838090522247396" fill="rgba(100,10,150,1)" />
</svg>
