<svg xmlns="http://www.w3.org/2000/svg" viewBox="-0.43999999999999995 -34 30.178 32">
<path d="M3.63,-4.5L0.56,-10.5L1.12,-22L5.59,-25L12.86,-25L16.22,-19L11.18,-15L10.62,-3L3.63,-4.5" fill="rgba(0,128,0,1)" />
<path d="M1.56,-24L3.2399999999999998,-27L14.42,-33L14.42,-30L13.299999999999999,-26L7.15,-26L1.56,-24" fill="rgba(0,128,0,1)" />
<path d="M11.747999999999998,-11L12.857999999999997,-7L16.217999999999996,-6L17.337999999999997,-10L16.217999999999996,-12L11.747999999999998,-11" fill="rgba(0,128,0,1)" />
<path d="M19.238,-9.5L20.348,-14.5L27.618,-16.5L28.738,-13.5L26.508,-9.5L23.708,-6.5L19.238,-9.5" fill="rgba(0,128,0,1)" />
<path d="M19.156578881373747,-6.515000000000001L22.937901987416243,-5.13871094325751L22.81165205220726,-3.4819777257901565L18.60934665205268,-5.011491806742547L19.156578881373747,-6.515000000000001" fill="rgba(0,128,0,1)" />
<path d="M24.002156065932116,-4.548342246660667L23.258686861366723,-3.6049072770613293L23.448154628136876,-6.400275940646713L24.67616599943074,-5.8857003174648845L24.002156065932116,-4.548342246660667" fill="rgba(0,128,0,1)" />
</svg>
