<svg xmlns="http://www.w3.org/2000/svg" viewBox="-52.5 -51 62.5 72">
<path d="M0,0L9,0L9,-10L0,-10L0,0" stroke="rgba(0,0,0,0)" fill="rgba(0,255,0,1)" stroke-width="1" />
<path d="M2.5,-2.5L2.5,-2.5" />
<path d="M2.5,-2.5L3.5,-2.5L3.5,-3.5L2.5,-3.5L2.5,-2.5" fill="rgba(255,0,0,1)" />
<path d="M2.5,-3.5L3.5,-3.5L3.5,-4.5L2.5,-4.5L2.5,-3.5" fill="rgba(0,0,0,0)" />
<path d="M2.5,-4.5L3.5,-4.5L3.5,-5.5L2.5,-5.5L2.5,-4.5" fill="rgba(255,0,0,1)" />
<path d="M2.5,-5.5L3.5,-5.5L3.5,-6.5L2.5,-6.5L2.5,-5.5" fill="rgba(0,0,0,0)" />
<path d="M2.5,-6.5L3.5,-6.5L3.5,-7.5L2.5,-7.5L2.5,-6.5" fill="rgba(255,0,0,1)" />
<path d="M3.5,-2.5L3.5,-2.5" />
<path d="M3.5,-2.5L4.5,-2.5L4.5,-3.5L3.5,-3.5L3.5,-2.5" fill="rgba(255,0,0,1)" />
<path d="M3.5,-3.5L4.5,-3.5L4.5,-4.5L3.5,-4.5L3.5,-3.5" fill="rgba(0,0,0,0)" />
<path d="M3.5,-4.5L4.5,-4.5L4.5,-5.5L3.5,-5.5L3.5,-4.5" fill="rgba(255,0,0,1)" />
<path d="M3.5,-5.5L4.5,-5.5L4.5,-6.5L3.5,-6.5L3.5,-5.5" fill="rgba(0,0,0,0)" />
<path d="M3.5,-6.5L4.5,-6.5L4.5,-7.5L3.5,-7.5L3.5,-6.5" fill="rgba(255,0,0,1)" />
<path d="M4.5,-2.5L4.5,-2.5" />
<path d="M4.5,-2.5L5.5,-2.5L5.5,-3.5L4.5,-3.5L4.5,-2.5" fill="rgba(255,0,0,1)" />
<path d="M4.5,-3.5L5.5,-3.5L5.5,-4.5L4.5,-4.5L4.5,-3.5" fill="rgba(0,0,0,0)" />
<path d="M4.5,-4.5L5.5,-4.5L5.5,-5.5L4.5,-5.5L4.5,-4.5" fill="rgba(255,0,0,1)" />
<path d="M4.5,-5.5L5.5,-5.5L5.5,-6.5L4.5,-6.5L4.5,-5.5" fill="rgba(0,0,0,0)" />
<path d="M4.5,-6.5L5.5,-6.5L5.5,-7.5L4.5,-7.5L4.5,-6.5" fill="rgba(255,0,0,1)" />
<path d="M5.5,-2.5L5.5,-2.5" />
<path d="M5.5,-2.5L6.5,-2.5L6.5,-3.5L5.5,-3.5L5.5,-2.5" fill="rgba(0,0,0,0)" />
<path d="M5.5,-3.5L6.5,-3.5L6.5,-4.5L5.5,-4.5L5.5,-3.5" fill="rgba(255,0,0,1)" />
<path d="M5.5,-4.5L6.5,-4.5L6.5,-5.5L5.5,-5.5L5.5,-4.5" fill="rgba(255,0,0,1)" />
<path d="M5.5,-5.5L6.5,-5.5L6.5,-6.5L5.5,-6.5L5.5,-5.5" fill="rgba(255,0,0,1)" />
<path d="M5.5,-6.5L6.5,-6.5L6.5,-7.5L5.5,-7.5L5.5,-6.5" fill="rgba(0,0,0,0)" />
<path d="M4.5,-10L4.5,-15" stroke="rgba(0,255,0,1)" />
<path d="M-12,-0L-3,-0L-3,-10L-12,-10L-12,-0" stroke-width="1" fill="rgba(0,255,0,1)" stroke="rgba(0,0,0,0)" />
<path d="M-9.5,-2.5L-9.5,-2.5" />
<path d="M-9.5,-2.5L-8.5,-2.5L-8.5,-3.5L-9.5,-3.5L-9.5,-2.5" fill="rgba(255,0,0,1)" />
<path d="M-9.5,-3.5L-8.5,-3.5L-8.5,-4.5L-9.5,-4.5L-9.5,-3.5" fill="rgba(0,0,0,0)" />
<path d="M-9.5,-4.5L-8.5,-4.5L-8.5,-5.5L-9.5,-5.5L-9.5,-4.5" fill="rgba(0,0,0,0)" />
<path d="M-9.5,-5.5L-8.5,-5.5L-8.5,-6.5L-9.5,-6.5L-9.5,-5.5" fill="rgba(255,0,0,1)" />
<path d="M-9.5,-6.5L-8.5,-6.5L-8.5,-7.5L-9.5,-7.5L-9.5,-6.5" fill="rgba(255,0,0,1)" />
<path d="M-8.5,-2.5L-8.5,-2.5" />
<path d="M-8.5,-2.5L-7.5,-2.5L-7.5,-3.5L-8.5,-3.5L-8.5,-2.5" fill="rgba(255,0,0,1)" />
<path d="M-8.5,-3.5L-7.5,-3.5L-7.5,-4.5L-8.5,-4.5L-8.5,-3.5" fill="rgba(0,0,0,0)" />
<path d="M-8.5,-4.5L-7.5,-4.5L-7.5,-5.5L-8.5,-5.5L-8.5,-4.5" fill="rgba(255,0,0,1)" />
<path d="M-8.5,-5.5L-7.5,-5.5L-7.5,-6.5L-8.5,-6.5L-8.5,-5.5" fill="rgba(0,0,0,0)" />
<path d="M-8.5,-6.5L-7.5,-6.5L-7.5,-7.5L-8.5,-7.5L-8.5,-6.5" fill="rgba(255,0,0,1)" />
<path d="M-7.5,-2.5L-7.5,-2.5" />
<path d="M-7.5,-2.5L-6.5,-2.5L-6.5,-3.5L-7.5,-3.5L-7.5,-2.5" fill="rgba(255,0,0,1)" />
<path d="M-7.5,-3.5L-6.5,-3.5L-6.5,-4.5L-7.5,-4.5L-7.5,-3.5" fill="rgba(0,0,0,0)" />
<path d="M-7.5,-4.5L-6.5,-4.5L-6.5,-5.5L-7.5,-5.5L-7.5,-4.5" fill="rgba(255,0,0,1)" />
<path d="M-7.5,-5.5L-6.5,-5.5L-6.5,-6.5L-7.5,-6.5L-7.5,-5.5" fill="rgba(0,0,0,0)" />
<path d="M-7.5,-6.5L-6.5,-6.5L-6.5,-7.5L-7.5,-7.5L-7.5,-6.5" fill="rgba(255,0,0,1)" />
<path d="M-6.5,-2.5L-6.5,-2.5" />
<path d="M-6.5,-2.5L-5.5,-2.5L-5.5,-3.5L-6.5,-3.5L-6.5,-2.5" fill="rgba(0,0,0,0)" />
<path d="M-6.5,-3.5L-5.5,-3.5L-5.5,-4.5L-6.5,-4.5L-6.5,-3.5" fill="rgba(255,0,0,1)" />
<path d="M-6.5,-4.5L-5.5,-4.5L-5.5,-5.5L-6.5,-5.5L-6.5,-4.5" fill="rgba(255,0,0,1)" />
<path d="M-6.5,-5.5L-5.5,-5.5L-5.5,-6.5L-6.5,-6.5L-6.5,-5.5" fill="rgba(0,0,0,0)" />
<path d="M-6.5,-6.5L-5.5,-6.5L-5.5,-7.5L-6.5,-7.5L-6.5,-6.5" fill="rgba(255,0,0,1)" />
<path d="M-7.5,-10L-7.5,-15" stroke="rgba(0,255,0,1)" />
<path d="M-8,-15L5,-15" stroke="rgba(0,255,0,1)" />
<path d="M-3,-20L6,-20L6,-30L-3,-30L-3,-20" stroke="rgba(0,0,0,0)" fill="rgba(0,255,0,1)" stroke-width="1" />
<path d="M-0.5,-22.5L-0.5,-22.5" />
<path d="M-0.5,-22.5L0.5,-22.5L0.5,-23.5L-0.5,-23.5L-0.5,-22.5" fill="rgba(255,0,0,1)" />
<path d="M-0.5,-23.5L0.5,-23.5L0.5,-24.5L-0.5,-24.5L-0.5,-23.5" fill="rgba(0,0,0,0)" />
<path d="M-0.5,-24.5L0.5,-24.5L0.5,-25.5L-0.5,-25.5L-0.5,-24.5" fill="rgba(0,0,0,0)" />
<path d="M-0.5,-25.5L0.5,-25.5L0.5,-26.5L-0.5,-26.5L-0.5,-25.5" fill="rgba(255,0,0,1)" />
<path d="M-0.5,-26.5L0.5,-26.5L0.5,-27.5L-0.5,-27.5L-0.5,-26.5" fill="rgba(0,0,0,0)" />
<path d="M0.5,-22.5L0.5,-22.5" />
<path d="M0.5,-22.5L1.5,-22.5L1.5,-23.5L0.5,-23.5L0.5,-22.5" fill="rgba(255,0,0,1)" />
<path d="M0.5,-23.5L1.5,-23.5L1.5,-24.5L0.5,-24.5L0.5,-23.5" fill="rgba(255,0,0,1)" />
<path d="M0.5,-24.5L1.5,-24.5L1.5,-25.5L0.5,-25.5L0.5,-24.5" fill="rgba(0,0,0,0)" />
<path d="M0.5,-25.5L1.5,-25.5L1.5,-26.5L0.5,-26.5L0.5,-25.5" fill="rgba(0,0,0,0)" />
<path d="M0.5,-26.5L1.5,-26.5L1.5,-27.5L0.5,-27.5L0.5,-26.5" fill="rgba(255,0,0,1)" />
<path d="M1.5,-22.5L1.5,-22.5" />
<path d="M1.5,-22.5L2.5,-22.5L2.5,-23.5L1.5,-23.5L1.5,-22.5" fill="rgba(255,0,0,1)" />
<path d="M1.5,-23.5L2.5,-23.5L2.5,-24.5L1.5,-24.5L1.5,-23.5" fill="rgba(0,0,0,0)" />
<path d="M1.5,-24.5L2.5,-24.5L2.5,-25.5L1.5,-25.5L1.5,-24.5" fill="rgba(255,0,0,1)" />
<path d="M1.5,-25.5L2.5,-25.5L2.5,-26.5L1.5,-26.5L1.5,-25.5" fill="rgba(0,0,0,0)" />
<path d="M1.5,-26.5L2.5,-26.5L2.5,-27.5L1.5,-27.5L1.5,-26.5" fill="rgba(255,0,0,1)" />
<path d="M2.5,-22.5L2.5,-22.5" />
<path d="M2.5,-22.5L3.5,-22.5L3.5,-23.5L2.5,-23.5L2.5,-22.5" fill="rgba(255,0,0,1)" />
<path d="M2.5,-23.5L3.5,-23.5L3.5,-24.5L2.5,-24.5L2.5,-23.5" fill="rgba(0,0,0,0)" />
<path d="M2.5,-24.5L3.5,-24.5L3.5,-25.5L2.5,-25.5L2.5,-24.5" fill="rgba(0,0,0,0)" />
<path d="M2.5,-25.5L3.5,-25.5L3.5,-26.5L2.5,-26.5L2.5,-25.5" fill="rgba(255,0,0,1)" />
<path d="M2.5,-26.5L3.5,-26.5L3.5,-27.5L2.5,-27.5L2.5,-26.5" fill="rgba(0,0,0,0)" />
<path d="M1.5,-15L1.5,-20" stroke="rgba(0,255,0,1)" />
<path d="M-1.5,-30L-1.5,-35" stroke="rgba(0,255,0,1)" />
<path d="M-16.5,10L-16.5,10" stroke="rgba(0,0,0,1)" />
<path d="M-16.5,10L-16.5,5" stroke="rgba(0,255,0,1)" />
<path d="M-28.5,20L-19.5,20L-19.5,10L-28.5,10L-28.5,20" stroke-width="1" fill="rgba(0,255,0,1)" stroke="rgba(0,0,0,0)" />
<path d="M-26,17.5L-26,17.5" />
<path d="M-26,17.5L-25,17.5L-25,16.5L-26,16.5L-26,17.5" fill="rgba(0,0,0,0)" />
<path d="M-26,16.5L-25,16.5L-25,15.5L-26,15.5L-26,16.5" fill="rgba(0,0,0,0)" />
<path d="M-26,15.5L-25,15.5L-25,14.5L-26,14.5L-26,15.5" fill="rgba(0,0,0,0)" />
<path d="M-26,14.5L-25,14.5L-25,13.5L-26,13.5L-26,14.5" fill="rgba(0,0,0,0)" />
<path d="M-26,13.5L-25,13.5L-25,12.5L-26,12.5L-26,13.5" fill="rgba(255,0,0,1)" />
<path d="M-25,17.5L-25,17.5" />
<path d="M-25,17.5L-24,17.5L-24,16.5L-25,16.5L-25,17.5" fill="rgba(255,0,0,1)" />
<path d="M-25,16.5L-24,16.5L-24,15.5L-25,15.5L-25,16.5" fill="rgba(255,0,0,1)" />
<path d="M-25,15.5L-24,15.5L-24,14.5L-25,14.5L-25,15.5" fill="rgba(0,0,0,0)" />
<path d="M-25,14.5L-24,14.5L-24,13.5L-25,13.5L-25,14.5" fill="rgba(0,0,0,0)" />
<path d="M-25,13.5L-24,13.5L-24,12.5L-25,12.5L-25,13.5" fill="rgba(255,0,0,1)" />
<path d="M-24,17.5L-24,17.5" />
<path d="M-24,17.5L-23,17.5L-23,16.5L-24,16.5L-24,17.5" fill="rgba(0,0,0,0)" />
<path d="M-24,16.5L-23,16.5L-23,15.5L-24,15.5L-24,16.5" fill="rgba(0,0,0,0)" />
<path d="M-24,15.5L-23,15.5L-23,14.5L-24,14.5L-24,15.5" fill="rgba(255,0,0,1)" />
<path d="M-24,14.5L-23,14.5L-23,13.5L-24,13.5L-24,14.5" fill="rgba(0,0,0,0)" />
<path d="M-24,13.5L-23,13.5L-23,12.5L-24,12.5L-24,13.5" fill="rgba(255,0,0,1)" />
<path d="M-23,17.5L-23,17.5" />
<path d="M-23,17.5L-22,17.5L-22,16.5L-23,16.5L-23,17.5" fill="rgba(0,0,0,0)" />
<path d="M-23,16.5L-22,16.5L-22,15.5L-23,15.5L-23,16.5" fill="rgba(0,0,0,0)" />
<path d="M-23,15.5L-22,15.5L-22,14.5L-23,14.5L-23,15.5" fill="rgba(0,0,0,0)" />
<path d="M-23,14.5L-22,14.5L-22,13.5L-23,13.5L-23,14.5" fill="rgba(255,0,0,1)" />
<path d="M-23,13.5L-22,13.5L-22,12.5L-23,12.5L-23,13.5" fill="rgba(255,0,0,1)" />
<path d="M-24,10L-24,5" stroke="rgba(0,255,0,1)" />
<path d="M-24.5,5L-16,5" stroke="rgba(0,255,0,1)" />
<path d="M-24,-0L-15,-0L-15,-10L-24,-10L-24,-0" stroke-width="1" fill="rgba(0,255,0,1)" stroke="rgba(0,0,0,0)" />
<path d="M-21.5,-2.5L-21.5,-2.5" />
<path d="M-21.5,-2.5L-20.5,-2.5L-20.5,-3.5L-21.5,-3.5L-21.5,-2.5" fill="rgba(0,0,0,0)" />
<path d="M-21.5,-3.5L-20.5,-3.5L-20.5,-4.5L-21.5,-4.5L-21.5,-3.5" fill="rgba(0,0,0,0)" />
<path d="M-21.5,-4.5L-20.5,-4.5L-20.5,-5.5L-21.5,-5.5L-21.5,-4.5" fill="rgba(255,0,0,1)" />
<path d="M-21.5,-5.5L-20.5,-5.5L-20.5,-6.5L-21.5,-6.5L-21.5,-5.5" fill="rgba(255,0,0,1)" />
<path d="M-21.5,-6.5L-20.5,-6.5L-20.5,-7.5L-21.5,-7.5L-21.5,-6.5" fill="rgba(255,0,0,1)" />
<path d="M-20.5,-2.5L-20.5,-2.5" />
<path d="M-20.5,-2.5L-19.5,-2.5L-19.5,-3.5L-20.5,-3.5L-20.5,-2.5" fill="rgba(0,0,0,0)" />
<path d="M-20.5,-3.5L-19.5,-3.5L-19.5,-4.5L-20.5,-4.5L-20.5,-3.5" fill="rgba(0,0,0,0)" />
<path d="M-20.5,-4.5L-19.5,-4.5L-19.5,-5.5L-20.5,-5.5L-20.5,-4.5" fill="rgba(255,0,0,1)" />
<path d="M-20.5,-5.5L-19.5,-5.5L-19.5,-6.5L-20.5,-6.5L-20.5,-5.5" fill="rgba(0,0,0,0)" />
<path d="M-20.5,-6.5L-19.5,-6.5L-19.5,-7.5L-20.5,-7.5L-20.5,-6.5" fill="rgba(0,0,0,0)" />
<path d="M-19.5,-2.5L-19.5,-2.5" />
<path d="M-19.5,-2.5L-18.5,-2.5L-18.5,-3.5L-19.5,-3.5L-19.5,-2.5" fill="rgba(0,0,0,0)" />
<path d="M-19.5,-3.5L-18.5,-3.5L-18.5,-4.5L-19.5,-4.5L-19.5,-3.5" fill="rgba(0,0,0,0)" />
<path d="M-19.5,-4.5L-18.5,-4.5L-18.5,-5.5L-19.5,-5.5L-19.5,-4.5" fill="rgba(255,0,0,1)" />
<path d="M-19.5,-5.5L-18.5,-5.5L-18.5,-6.5L-19.5,-6.5L-19.5,-5.5" fill="rgba(0,0,0,0)" />
<path d="M-19.5,-6.5L-18.5,-6.5L-18.5,-7.5L-19.5,-7.5L-19.5,-6.5" fill="rgba(0,0,0,0)" />
<path d="M-18.5,-2.5L-18.5,-2.5" />
<path d="M-18.5,-2.5L-17.5,-2.5L-17.5,-3.5L-18.5,-3.5L-18.5,-2.5" fill="rgba(255,0,0,1)" />
<path d="M-18.5,-3.5L-17.5,-3.5L-17.5,-4.5L-18.5,-4.5L-18.5,-3.5" fill="rgba(255,0,0,1)" />
<path d="M-18.5,-4.5L-17.5,-4.5L-17.5,-5.5L-18.5,-5.5L-18.5,-4.5" fill="rgba(255,0,0,1)" />
<path d="M-18.5,-5.5L-17.5,-5.5L-17.5,-6.5L-18.5,-6.5L-18.5,-5.5" fill="rgba(255,0,0,1)" />
<path d="M-18.5,-6.5L-17.5,-6.5L-17.5,-7.5L-18.5,-7.5L-18.5,-6.5" fill="rgba(255,0,0,1)" />
<path d="M-19.5,5L-19.5,-0" stroke="rgba(0,255,0,1)" />
<path d="M-21.75,-10L-21.75,-15" stroke="rgba(0,255,0,1)" />
<path d="M-40.5,20L-31.5,20L-31.5,10L-40.5,10L-40.5,20" fill="rgba(0,255,0,1)" stroke="rgba(0,0,0,0)" stroke-width="1" />
<path d="M-38,17.5L-38,17.5" />
<path d="M-38,17.5L-37,17.5L-37,16.5L-38,16.5L-38,17.5" fill="rgba(0,0,0,0)" />
<path d="M-38,16.5L-37,16.5L-37,15.5L-38,15.5L-38,16.5" fill="rgba(255,0,0,1)" />
<path d="M-38,15.5L-37,15.5L-37,14.5L-38,14.5L-38,15.5" fill="rgba(0,0,0,0)" />
<path d="M-38,14.5L-37,14.5L-37,13.5L-38,13.5L-38,14.5" fill="rgba(255,0,0,1)" />
<path d="M-38,13.5L-37,13.5L-37,12.5L-38,12.5L-38,13.5" fill="rgba(0,0,0,0)" />
<path d="M-37,17.5L-37,17.5" />
<path d="M-37,17.5L-36,17.5L-36,16.5L-37,16.5L-37,17.5" fill="rgba(255,0,0,1)" />
<path d="M-37,16.5L-36,16.5L-36,15.5L-37,15.5L-37,16.5" fill="rgba(0,0,0,0)" />
<path d="M-37,15.5L-36,15.5L-36,14.5L-37,14.5L-37,15.5" fill="rgba(255,0,0,1)" />
<path d="M-37,14.5L-36,14.5L-36,13.5L-37,13.5L-37,14.5" fill="rgba(0,0,0,0)" />
<path d="M-37,13.5L-36,13.5L-36,12.5L-37,12.5L-37,13.5" fill="rgba(255,0,0,1)" />
<path d="M-36,17.5L-36,17.5" />
<path d="M-36,17.5L-35,17.5L-35,16.5L-36,16.5L-36,17.5" fill="rgba(255,0,0,1)" />
<path d="M-36,16.5L-35,16.5L-35,15.5L-36,15.5L-36,16.5" fill="rgba(0,0,0,0)" />
<path d="M-36,15.5L-35,15.5L-35,14.5L-36,14.5L-36,15.5" fill="rgba(255,0,0,1)" />
<path d="M-36,14.5L-35,14.5L-35,13.5L-36,13.5L-36,14.5" fill="rgba(0,0,0,0)" />
<path d="M-36,13.5L-35,13.5L-35,12.5L-36,12.5L-36,13.5" fill="rgba(255,0,0,1)" />
<path d="M-35,17.5L-35,17.5" />
<path d="M-35,17.5L-34,17.5L-34,16.5L-35,16.5L-35,17.5" fill="rgba(0,0,0,0)" />
<path d="M-35,16.5L-34,16.5L-34,15.5L-35,15.5L-35,16.5" fill="rgba(255,0,0,1)" />
<path d="M-35,15.5L-34,15.5L-34,14.5L-35,14.5L-35,15.5" fill="rgba(0,0,0,0)" />
<path d="M-35,14.5L-34,14.5L-34,13.5L-35,13.5L-35,14.5" fill="rgba(255,0,0,1)" />
<path d="M-35,13.5L-34,13.5L-34,12.5L-35,12.5L-35,13.5" fill="rgba(0,0,0,0)" />
<path d="M-36,10L-36,5" stroke="rgba(0,255,0,1)" />
<path d="M-51.5,20L-43.5,20L-43.5,10L-51.5,10L-51.5,20" stroke-width="1" fill="rgba(0,255,0,1)" stroke="rgba(0,0,0,0)" />
<path d="M-49,17.5L-49,17.5" />
<path d="M-49,17.5L-48,17.5L-48,16.5L-49,16.5L-49,17.5" fill="rgba(0,0,0,0)" />
<path d="M-49,16.5L-48,16.5L-48,15.5L-49,15.5L-49,16.5" fill="rgba(0,0,0,0)" />
<path d="M-49,15.5L-48,15.5L-48,14.5L-49,14.5L-49,15.5" fill="rgba(255,0,0,1)" />
<path d="M-49,14.5L-48,14.5L-48,13.5L-49,13.5L-49,14.5" fill="rgba(255,0,0,1)" />
<path d="M-49,13.5L-48,13.5L-48,12.5L-49,12.5L-49,13.5" fill="rgba(255,0,0,1)" />
<path d="M-48,17.5L-48,17.5" />
<path d="M-48,17.5L-47,17.5L-47,16.5L-48,16.5L-48,17.5" fill="rgba(0,0,0,0)" />
<path d="M-48,16.5L-47,16.5L-47,15.5L-48,15.5L-48,16.5" fill="rgba(0,0,0,0)" />
<path d="M-48,15.5L-47,15.5L-47,14.5L-48,14.5L-48,15.5" fill="rgba(255,0,0,1)" />
<path d="M-48,14.5L-47,14.5L-47,13.5L-48,13.5L-48,14.5" fill="rgba(0,0,0,0)" />
<path d="M-48,13.5L-47,13.5L-47,12.5L-48,12.5L-48,13.5" fill="rgba(255,0,0,1)" />
<path d="M-47,17.5L-47,17.5" />
<path d="M-47,17.5L-46,17.5L-46,16.5L-47,16.5L-47,17.5" fill="rgba(255,0,0,1)" />
<path d="M-47,16.5L-46,16.5L-46,15.5L-47,15.5L-47,16.5" fill="rgba(255,0,0,1)" />
<path d="M-47,15.5L-46,15.5L-46,14.5L-47,14.5L-47,15.5" fill="rgba(255,0,0,1)" />
<path d="M-47,14.5L-46,14.5L-46,13.5L-47,13.5L-47,14.5" fill="rgba(255,0,0,1)" />
<path d="M-47,13.5L-46,13.5L-46,12.5L-47,12.5L-47,13.5" fill="rgba(255,0,0,1)" />
<path d="M-47.5,10L-47.5,5" stroke="rgba(0,255,0,1)" />
<path d="M-48,5L-35.5,5" stroke="rgba(0,255,0,1)" />
<path d="M-43,-0L-34,-0L-34,-10L-43,-10L-43,-0" fill="rgba(0,255,0,1)" stroke-width="1" stroke="rgba(0,0,0,0)" />
<path d="M-40.5,-2.5L-40.5,-2.5" />
<path d="M-40.5,-2.5L-39.5,-2.5L-39.5,-3.5L-40.5,-3.5L-40.5,-2.5" fill="rgba(0,0,0,0)" />
<path d="M-40.5,-3.5L-39.5,-3.5L-39.5,-4.5L-40.5,-4.5L-40.5,-3.5" fill="rgba(255,0,0,1)" />
<path d="M-40.5,-4.5L-39.5,-4.5L-39.5,-5.5L-40.5,-5.5L-40.5,-4.5" fill="rgba(255,0,0,1)" />
<path d="M-40.5,-5.5L-39.5,-5.5L-39.5,-6.5L-40.5,-6.5L-40.5,-5.5" fill="rgba(255,0,0,1)" />
<path d="M-40.5,-6.5L-39.5,-6.5L-39.5,-7.5L-40.5,-7.5L-40.5,-6.5" fill="rgba(0,0,0,0)" />
<path d="M-39.5,-2.5L-39.5,-2.5" />
<path d="M-39.5,-2.5L-38.5,-2.5L-38.5,-3.5L-39.5,-3.5L-39.5,-2.5" fill="rgba(255,0,0,1)" />
<path d="M-39.5,-3.5L-38.5,-3.5L-38.5,-4.5L-39.5,-4.5L-39.5,-3.5" fill="rgba(0,0,0,0)" />
<path d="M-39.5,-4.5L-38.5,-4.5L-38.5,-5.5L-39.5,-5.5L-39.5,-4.5" fill="rgba(255,0,0,1)" />
<path d="M-39.5,-5.5L-38.5,-5.5L-38.5,-6.5L-39.5,-6.5L-39.5,-5.5" fill="rgba(0,0,0,0)" />
<path d="M-39.5,-6.5L-38.5,-6.5L-38.5,-7.5L-39.5,-7.5L-39.5,-6.5" fill="rgba(255,0,0,1)" />
<path d="M-38.5,-2.5L-38.5,-2.5" />
<path d="M-38.5,-2.5L-37.5,-2.5L-37.5,-3.5L-38.5,-3.5L-38.5,-2.5" fill="rgba(255,0,0,1)" />
<path d="M-38.5,-3.5L-37.5,-3.5L-37.5,-4.5L-38.5,-4.5L-38.5,-3.5" fill="rgba(0,0,0,0)" />
<path d="M-38.5,-4.5L-37.5,-4.5L-37.5,-5.5L-38.5,-5.5L-38.5,-4.5" fill="rgba(255,0,0,1)" />
<path d="M-38.5,-5.5L-37.5,-5.5L-37.5,-6.5L-38.5,-6.5L-38.5,-5.5" fill="rgba(0,0,0,0)" />
<path d="M-38.5,-6.5L-37.5,-6.5L-37.5,-7.5L-38.5,-7.5L-38.5,-6.5" fill="rgba(255,0,0,1)" />
<path d="M-37.5,-2.5L-37.5,-2.5" />
<path d="M-37.5,-2.5L-36.5,-2.5L-36.5,-3.5L-37.5,-3.5L-37.5,-2.5" fill="rgba(0,0,0,0)" />
<path d="M-37.5,-3.5L-36.5,-3.5L-36.5,-4.5L-37.5,-4.5L-37.5,-3.5" fill="rgba(255,0,0,1)" />
<path d="M-37.5,-4.5L-36.5,-4.5L-36.5,-5.5L-37.5,-5.5L-37.5,-4.5" fill="rgba(255,0,0,1)" />
<path d="M-37.5,-5.5L-36.5,-5.5L-36.5,-6.5L-37.5,-6.5L-37.5,-5.5" fill="rgba(0,0,0,0)" />
<path d="M-37.5,-6.5L-36.5,-6.5L-36.5,-7.5L-37.5,-7.5L-37.5,-6.5" fill="rgba(255,0,0,1)" />
<path d="M-38.5,5L-38.5,-0" stroke="rgba(0,255,0,1)" />
<path d="M-41.5,-10L-41.5,-15" stroke="rgba(0,255,0,1)" />
<path d="M-42,-15L-21.25,-15" stroke="rgba(0,255,0,1)" />
<path d="M-34.75,-20L-26.75,-20L-26.75,-30L-34.75,-30L-34.75,-20" stroke-width="1" stroke="rgba(0,0,0,0)" fill="rgba(0,255,0,1)" />
<path d="M-32.25,-22.5L-32.25,-22.5" />
<path d="M-32.25,-22.5L-31.25,-22.5L-31.25,-23.5L-32.25,-23.5L-32.25,-22.5" fill="rgba(255,0,0,1)" />
<path d="M-32.25,-23.5L-31.25,-23.5L-31.25,-24.5L-32.25,-24.5L-32.25,-23.5" fill="rgba(0,0,0,0)" />
<path d="M-32.25,-24.5L-31.25,-24.5L-31.25,-25.5L-32.25,-25.5L-32.25,-24.5" fill="rgba(0,0,0,0)" />
<path d="M-32.25,-25.5L-31.25,-25.5L-31.25,-26.5L-32.25,-26.5L-32.25,-25.5" fill="rgba(0,0,0,0)" />
<path d="M-32.25,-26.5L-31.25,-26.5L-31.25,-27.5L-32.25,-27.5L-32.25,-26.5" fill="rgba(255,0,0,1)" />
<path d="M-31.25,-22.5L-31.25,-22.5" />
<path d="M-31.25,-22.5L-30.25,-22.5L-30.25,-23.5L-31.25,-23.5L-31.25,-22.5" fill="rgba(255,0,0,1)" />
<path d="M-31.25,-23.5L-30.25,-23.5L-30.25,-24.5L-31.25,-24.5L-31.25,-23.5" fill="rgba(255,0,0,1)" />
<path d="M-31.25,-24.5L-30.25,-24.5L-30.25,-25.5L-31.25,-25.5L-31.25,-24.5" fill="rgba(255,0,0,1)" />
<path d="M-31.25,-25.5L-30.25,-25.5L-30.25,-26.5L-31.25,-26.5L-31.25,-25.5" fill="rgba(255,0,0,1)" />
<path d="M-31.25,-26.5L-30.25,-26.5L-30.25,-27.5L-31.25,-27.5L-31.25,-26.5" fill="rgba(255,0,0,1)" />
<path d="M-30.25,-22.5L-30.25,-22.5" />
<path d="M-30.25,-22.5L-29.25,-22.5L-29.25,-23.5L-30.25,-23.5L-30.25,-22.5" fill="rgba(255,0,0,1)" />
<path d="M-30.25,-23.5L-29.25,-23.5L-29.25,-24.5L-30.25,-24.5L-30.25,-23.5" fill="rgba(0,0,0,0)" />
<path d="M-30.25,-24.5L-29.25,-24.5L-29.25,-25.5L-30.25,-25.5L-30.25,-24.5" fill="rgba(0,0,0,0)" />
<path d="M-30.25,-25.5L-29.25,-25.5L-29.25,-26.5L-30.25,-26.5L-30.25,-25.5" fill="rgba(0,0,0,0)" />
<path d="M-30.25,-26.5L-29.25,-26.5L-29.25,-27.5L-30.25,-27.5L-30.25,-26.5" fill="rgba(0,0,0,0)" />
<path d="M-30.75,-15L-30.75,-20" stroke="rgba(0,255,0,1)" />
<path d="M-33.25,-30L-33.25,-35" stroke="rgba(0,255,0,1)" />
<path d="M-33.75,-35L-1,-35" stroke="rgba(0,255,0,1)" />
<path d="M-22.75,-40L5.25,-40L5.25,-50L-22.75,-50L-22.75,-40" stroke-width="1" stroke="rgba(0,0,0,0)" fill="rgba(0,255,0,1)" />
<path d="M-20.25,-42.5L-20.25,-42.5" />
<path d="M-20.25,-42.5L-19.25,-42.5L-19.25,-43.5L-20.25,-43.5L-20.25,-42.5" fill="rgba(255,0,0,1)" />
<path d="M-20.25,-43.5L-19.25,-43.5L-19.25,-44.5L-20.25,-44.5L-20.25,-43.5" fill="rgba(0,0,0,0)" />
<path d="M-20.25,-44.5L-19.25,-44.5L-19.25,-45.5L-20.25,-45.5L-20.25,-44.5" fill="rgba(0,0,0,0)" />
<path d="M-20.25,-45.5L-19.25,-45.5L-19.25,-46.5L-20.25,-46.5L-20.25,-45.5" fill="rgba(0,0,0,0)" />
<path d="M-20.25,-46.5L-19.25,-46.5L-19.25,-47.5L-20.25,-47.5L-20.25,-46.5" fill="rgba(255,0,0,1)" />
<path d="M-19.25,-42.5L-19.25,-42.5" />
<path d="M-19.25,-42.5L-18.25,-42.5L-18.25,-43.5L-19.25,-43.5L-19.25,-42.5" fill="rgba(255,0,0,1)" />
<path d="M-19.25,-43.5L-18.25,-43.5L-18.25,-44.5L-19.25,-44.5L-19.25,-43.5" fill="rgba(255,0,0,1)" />
<path d="M-19.25,-44.5L-18.25,-44.5L-18.25,-45.5L-19.25,-45.5L-19.25,-44.5" fill="rgba(255,0,0,1)" />
<path d="M-19.25,-45.5L-18.25,-45.5L-18.25,-46.5L-19.25,-46.5L-19.25,-45.5" fill="rgba(255,0,0,1)" />
<path d="M-19.25,-46.5L-18.25,-46.5L-18.25,-47.5L-19.25,-47.5L-19.25,-46.5" fill="rgba(255,0,0,1)" />
<path d="M-18.25,-42.5L-18.25,-42.5" />
<path d="M-18.25,-42.5L-17.25,-42.5L-17.25,-43.5L-18.25,-43.5L-18.25,-42.5" fill="rgba(255,0,0,1)" />
<path d="M-18.25,-43.5L-17.25,-43.5L-17.25,-44.5L-18.25,-44.5L-18.25,-43.5" fill="rgba(0,0,0,0)" />
<path d="M-18.25,-44.5L-17.25,-44.5L-17.25,-45.5L-18.25,-45.5L-18.25,-44.5" fill="rgba(0,0,0,0)" />
<path d="M-18.25,-45.5L-17.25,-45.5L-17.25,-46.5L-18.25,-46.5L-18.25,-45.5" fill="rgba(0,0,0,0)" />
<path d="M-18.25,-46.5L-17.25,-46.5L-17.25,-47.5L-18.25,-47.5L-18.25,-46.5" fill="rgba(0,0,0,0)" />
<path d="M-16.25,-42.5L-16.25,-42.5" />
<path d="M-16.25,-42.5L-15.25,-42.5L-15.25,-43.5L-16.25,-43.5L-16.25,-42.5" fill="rgba(0,0,0,0)" />
<path d="M-16.25,-43.5L-15.25,-43.5L-15.25,-44.5L-16.25,-44.5L-16.25,-43.5" fill="rgba(255,0,0,1)" />
<path d="M-16.25,-44.5L-15.25,-44.5L-15.25,-45.5L-16.25,-45.5L-16.25,-44.5" fill="rgba(255,0,0,1)" />
<path d="M-16.25,-45.5L-15.25,-45.5L-15.25,-46.5L-16.25,-46.5L-16.25,-45.5" fill="rgba(255,0,0,1)" />
<path d="M-16.25,-46.5L-15.25,-46.5L-15.25,-47.5L-16.25,-47.5L-16.25,-46.5" fill="rgba(0,0,0,0)" />
<path d="M-15.25,-42.5L-15.25,-42.5" />
<path d="M-15.25,-42.5L-14.25,-42.5L-14.25,-43.5L-15.25,-43.5L-15.25,-42.5" fill="rgba(255,0,0,1)" />
<path d="M-15.25,-43.5L-14.25,-43.5L-14.25,-44.5L-15.25,-44.5L-15.25,-43.5" fill="rgba(0,0,0,0)" />
<path d="M-15.25,-44.5L-14.25,-44.5L-14.25,-45.5L-15.25,-45.5L-15.25,-44.5" fill="rgba(0,0,0,0)" />
<path d="M-15.25,-45.5L-14.25,-45.5L-14.25,-46.5L-15.25,-46.5L-15.25,-45.5" fill="rgba(0,0,0,0)" />
<path d="M-15.25,-46.5L-14.25,-46.5L-14.25,-47.5L-15.25,-47.5L-15.25,-46.5" fill="rgba(255,0,0,1)" />
<path d="M-14.25,-42.5L-14.25,-42.5" />
<path d="M-14.25,-42.5L-13.25,-42.5L-13.25,-43.5L-14.25,-43.5L-14.25,-42.5" fill="rgba(255,0,0,1)" />
<path d="M-14.25,-43.5L-13.25,-43.5L-13.25,-44.5L-14.25,-44.5L-14.25,-43.5" fill="rgba(0,0,0,0)" />
<path d="M-14.25,-44.5L-13.25,-44.5L-13.25,-45.5L-14.25,-45.5L-14.25,-44.5" fill="rgba(0,0,0,0)" />
<path d="M-14.25,-45.5L-13.25,-45.5L-13.25,-46.5L-14.25,-46.5L-14.25,-45.5" fill="rgba(0,0,0,0)" />
<path d="M-14.25,-46.5L-13.25,-46.5L-13.25,-47.5L-14.25,-47.5L-14.25,-46.5" fill="rgba(255,0,0,1)" />
<path d="M-13.25,-42.5L-13.25,-42.5" />
<path d="M-13.25,-42.5L-12.25,-42.5L-12.25,-43.5L-13.25,-43.5L-13.25,-42.5" fill="rgba(0,0,0,0)" />
<path d="M-13.25,-43.5L-12.25,-43.5L-12.25,-44.5L-13.25,-44.5L-13.25,-43.5" fill="rgba(255,0,0,1)" />
<path d="M-13.25,-44.5L-12.25,-44.5L-12.25,-45.5L-13.25,-45.5L-13.25,-44.5" fill="rgba(255,0,0,1)" />
<path d="M-13.25,-45.5L-12.25,-45.5L-12.25,-46.5L-13.25,-46.5L-13.25,-45.5" fill="rgba(255,0,0,1)" />
<path d="M-13.25,-46.5L-12.25,-46.5L-12.25,-47.5L-13.25,-47.5L-13.25,-46.5" fill="rgba(0,0,0,0)" />
<path d="M-11.25,-42.5L-11.25,-42.5" />
<path d="M-11.25,-42.5L-10.25,-42.5L-10.25,-43.5L-11.25,-43.5L-11.25,-42.5" fill="rgba(0,0,0,0)" />
<path d="M-11.25,-43.5L-10.25,-43.5L-10.25,-44.5L-11.25,-44.5L-11.25,-43.5" fill="rgba(255,0,0,1)" />
<path d="M-11.25,-44.5L-10.25,-44.5L-10.25,-45.5L-11.25,-45.5L-11.25,-44.5" fill="rgba(255,0,0,1)" />
<path d="M-11.25,-45.5L-10.25,-45.5L-10.25,-46.5L-11.25,-46.5L-11.25,-45.5" fill="rgba(255,0,0,1)" />
<path d="M-11.25,-46.5L-10.25,-46.5L-10.25,-47.5L-11.25,-47.5L-11.25,-46.5" fill="rgba(0,0,0,0)" />
<path d="M-10.25,-42.5L-10.25,-42.5" />
<path d="M-10.25,-42.5L-9.25,-42.5L-9.25,-43.5L-10.25,-43.5L-10.25,-42.5" fill="rgba(255,0,0,1)" />
<path d="M-10.25,-43.5L-9.25,-43.5L-9.25,-44.5L-10.25,-44.5L-10.25,-43.5" fill="rgba(0,0,0,0)" />
<path d="M-10.25,-44.5L-9.25,-44.5L-9.25,-45.5L-10.25,-45.5L-10.25,-44.5" fill="rgba(0,0,0,0)" />
<path d="M-10.25,-45.5L-9.25,-45.5L-9.25,-46.5L-10.25,-46.5L-10.25,-45.5" fill="rgba(0,0,0,0)" />
<path d="M-10.25,-46.5L-9.25,-46.5L-9.25,-47.5L-10.25,-47.5L-10.25,-46.5" fill="rgba(255,0,0,1)" />
<path d="M-9.25,-42.5L-9.25,-42.5" />
<path d="M-9.25,-42.5L-8.25,-42.5L-8.25,-43.5L-9.25,-43.5L-9.25,-42.5" fill="rgba(255,0,0,1)" />
<path d="M-9.25,-43.5L-8.25,-43.5L-8.25,-44.5L-9.25,-44.5L-9.25,-43.5" fill="rgba(0,0,0,0)" />
<path d="M-9.25,-44.5L-8.25,-44.5L-8.25,-45.5L-9.25,-45.5L-9.25,-44.5" fill="rgba(0,0,0,0)" />
<path d="M-9.25,-45.5L-8.25,-45.5L-8.25,-46.5L-9.25,-46.5L-9.25,-45.5" fill="rgba(0,0,0,0)" />
<path d="M-9.25,-46.5L-8.25,-46.5L-8.25,-47.5L-9.25,-47.5L-9.25,-46.5" fill="rgba(255,0,0,1)" />
<path d="M-8.25,-42.5L-8.25,-42.5" />
<path d="M-8.25,-42.5L-7.25,-42.5L-7.25,-43.5L-8.25,-43.5L-8.25,-42.5" fill="rgba(0,0,0,0)" />
<path d="M-8.25,-43.5L-7.25,-43.5L-7.25,-44.5L-8.25,-44.5L-8.25,-43.5" fill="rgba(255,0,0,1)" />
<path d="M-8.25,-44.5L-7.25,-44.5L-7.25,-45.5L-8.25,-45.5L-8.25,-44.5" fill="rgba(255,0,0,1)" />
<path d="M-8.25,-45.5L-7.25,-45.5L-7.25,-46.5L-8.25,-46.5L-8.25,-45.5" fill="rgba(255,0,0,1)" />
<path d="M-8.25,-46.5L-7.25,-46.5L-7.25,-47.5L-8.25,-47.5L-8.25,-46.5" fill="rgba(0,0,0,0)" />
<path d="M-6.25,-42.5L-6.25,-42.5" />
<path d="M-6.25,-42.5L-5.25,-42.5L-5.25,-43.5L-6.25,-43.5L-6.25,-42.5" fill="rgba(0,0,0,0)" />
<path d="M-6.25,-43.5L-5.25,-43.5L-5.25,-44.5L-6.25,-44.5L-6.25,-43.5" fill="rgba(255,0,0,1)" />
<path d="M-6.25,-44.5L-5.25,-44.5L-5.25,-45.5L-6.25,-45.5L-6.25,-44.5" fill="rgba(255,0,0,1)" />
<path d="M-6.25,-45.5L-5.25,-45.5L-5.25,-46.5L-6.25,-46.5L-6.25,-45.5" fill="rgba(255,0,0,1)" />
<path d="M-6.25,-46.5L-5.25,-46.5L-5.25,-47.5L-6.25,-47.5L-6.25,-46.5" fill="rgba(0,0,0,0)" />
<path d="M-5.25,-42.5L-5.25,-42.5" />
<path d="M-5.25,-42.5L-4.25,-42.5L-4.25,-43.5L-5.25,-43.5L-5.25,-42.5" fill="rgba(255,0,0,1)" />
<path d="M-5.25,-43.5L-4.25,-43.5L-4.25,-44.5L-5.25,-44.5L-5.25,-43.5" fill="rgba(0,0,0,0)" />
<path d="M-5.25,-44.5L-4.25,-44.5L-4.25,-45.5L-5.25,-45.5L-5.25,-44.5" fill="rgba(0,0,0,0)" />
<path d="M-5.25,-45.5L-4.25,-45.5L-4.25,-46.5L-5.25,-46.5L-5.25,-45.5" fill="rgba(0,0,0,0)" />
<path d="M-5.25,-46.5L-4.25,-46.5L-4.25,-47.5L-5.25,-47.5L-5.25,-46.5" fill="rgba(255,0,0,1)" />
<path d="M-4.25,-42.5L-4.25,-42.5" />
<path d="M-4.25,-42.5L-3.25,-42.5L-3.25,-43.5L-4.25,-43.5L-4.25,-42.5" fill="rgba(255,0,0,1)" />
<path d="M-4.25,-43.5L-3.25,-43.5L-3.25,-44.5L-4.25,-44.5L-4.25,-43.5" fill="rgba(0,0,0,0)" />
<path d="M-4.25,-44.5L-3.25,-44.5L-3.25,-45.5L-4.25,-45.5L-4.25,-44.5" fill="rgba(0,0,0,0)" />
<path d="M-4.25,-45.5L-3.25,-45.5L-3.25,-46.5L-4.25,-46.5L-4.25,-45.5" fill="rgba(0,0,0,0)" />
<path d="M-4.25,-46.5L-3.25,-46.5L-3.25,-47.5L-4.25,-47.5L-4.25,-46.5" fill="rgba(255,0,0,1)" />
<path d="M-3.25,-42.5L-3.25,-42.5" />
<path d="M-3.25,-42.5L-2.25,-42.5L-2.25,-43.5L-3.25,-43.5L-3.25,-42.5" fill="rgba(0,0,0,0)" />
<path d="M-3.25,-43.5L-2.25,-43.5L-2.25,-44.5L-3.25,-44.5L-3.25,-43.5" fill="rgba(255,0,0,1)" />
<path d="M-3.25,-44.5L-2.25,-44.5L-2.25,-45.5L-3.25,-45.5L-3.25,-44.5" fill="rgba(255,0,0,1)" />
<path d="M-3.25,-45.5L-2.25,-45.5L-2.25,-46.5L-3.25,-46.5L-3.25,-45.5" fill="rgba(255,0,0,1)" />
<path d="M-3.25,-46.5L-2.25,-46.5L-2.25,-47.5L-3.25,-47.5L-3.25,-46.5" fill="rgba(0,0,0,0)" />
<path d="M-1.25,-42.5L-1.25,-42.5" />
<path d="M-1.25,-42.5L-0.25,-42.5L-0.25,-43.5L-1.25,-43.5L-1.25,-42.5" fill="rgba(0,0,0,0)" />
<path d="M-1.25,-43.5L-0.25,-43.5L-0.25,-44.5L-1.25,-44.5L-1.25,-43.5" fill="rgba(255,0,0,1)" />
<path d="M-1.25,-44.5L-0.25,-44.5L-0.25,-45.5L-1.25,-45.5L-1.25,-44.5" fill="rgba(255,0,0,1)" />
<path d="M-1.25,-45.5L-0.25,-45.5L-0.25,-46.5L-1.25,-46.5L-1.25,-45.5" fill="rgba(255,0,0,1)" />
<path d="M-1.25,-46.5L-0.25,-46.5L-0.25,-47.5L-1.25,-47.5L-1.25,-46.5" fill="rgba(0,0,0,0)" />
<path d="M-0.25,-42.5L-0.25,-42.5" />
<path d="M-0.25,-42.5L0.75,-42.5L0.75,-43.5L-0.25,-43.5L-0.25,-42.5" fill="rgba(255,0,0,1)" />
<path d="M-0.25,-43.5L0.75,-43.5L0.75,-44.5L-0.25,-44.5L-0.25,-43.5" fill="rgba(0,0,0,0)" />
<path d="M-0.25,-44.5L0.75,-44.5L0.75,-45.5L-0.25,-45.5L-0.25,-44.5" fill="rgba(0,0,0,0)" />
<path d="M-0.25,-45.5L0.75,-45.5L0.75,-46.5L-0.25,-46.5L-0.25,-45.5" fill="rgba(0,0,0,0)" />
<path d="M-0.25,-46.5L0.75,-46.5L0.75,-47.5L-0.25,-47.5L-0.25,-46.5" fill="rgba(255,0,0,1)" />
<path d="M0.75,-42.5L0.75,-42.5" />
<path d="M0.75,-42.5L1.75,-42.5L1.75,-43.5L0.75,-43.5L0.75,-42.5" fill="rgba(255,0,0,1)" />
<path d="M0.75,-43.5L1.75,-43.5L1.75,-44.5L0.75,-44.5L0.75,-43.5" fill="rgba(0,0,0,0)" />
<path d="M0.75,-44.5L1.75,-44.5L1.75,-45.5L0.75,-45.5L0.75,-44.5" fill="rgba(0,0,0,0)" />
<path d="M0.75,-45.5L1.75,-45.5L1.75,-46.5L0.75,-46.5L0.75,-45.5" fill="rgba(0,0,0,0)" />
<path d="M0.75,-46.5L1.75,-46.5L1.75,-47.5L0.75,-47.5L0.75,-46.5" fill="rgba(255,0,0,1)" />
<path d="M1.75,-42.5L1.75,-42.5" />
<path d="M1.75,-42.5L2.75,-42.5L2.75,-43.5L1.75,-43.5L1.75,-42.5" fill="rgba(0,0,0,0)" />
<path d="M1.75,-43.5L2.75,-43.5L2.75,-44.5L1.75,-44.5L1.75,-43.5" fill="rgba(255,0,0,1)" />
<path d="M1.75,-44.5L2.75,-44.5L2.75,-45.5L1.75,-45.5L1.75,-44.5" fill="rgba(255,0,0,1)" />
<path d="M1.75,-45.5L2.75,-45.5L2.75,-46.5L1.75,-46.5L1.75,-45.5" fill="rgba(255,0,0,1)" />
<path d="M1.75,-46.5L2.75,-46.5L2.75,-47.5L1.75,-47.5L1.75,-46.5" fill="rgba(0,0,0,0)" />
<path d="M-8.75,-35L-8.75,-40" stroke="rgba(0,255,0,1)" />
</svg>
